<svg width="51" height="51" viewBox="0 0 51 51" fill="none" xmlns="http://www.w3.org/2000/svg">
<g clip-path="url(#clip0_567_1486)">
<path d="M44.6516 11.1528C44.4033 8.25196 42.5232 6.37192 39.6225 6.1238C39.2197 6.08935 38.8653 6.38796 38.8308 6.7907C38.7964 7.19334 39.095 7.54795 39.4977 7.5824C41.6928 7.77028 43.0051 9.08273 43.193 11.2776C43.2083 11.4564 43.2866 11.6148 43.4045 11.7325C43.5519 11.8799 43.7608 11.9636 43.9847 11.9445C44.3874 11.91 44.686 11.5556 44.6516 11.1528Z" fill="#03CF5D"/>
<path d="M48.4258 2.34961C47.7357 1.65958 46.7823 1.31521 45.8108 1.40398L44.675 1.50801C40.2965 1.90947 36.2998 3.96077 33.4212 7.28435L31.6733 9.30237L27.6414 7.63138L27.8571 7.41574C28.4992 6.77354 28.4992 5.7287 27.8571 5.08661L26.6353 3.86441C25.9932 3.22251 24.9483 3.22231 24.3061 3.86441L22.6204 5.55017L20.6821 4.74686L21.1679 4.26105C21.81 3.61885 21.81 2.57411 21.1679 1.93201L19.9459 0.710016C19.3036 0.067917 18.2588 0.0681139 17.6168 0.710016L15.6609 2.66584L12.3653 1.29995C10.8031 0.65244 9.02115 1.00685 7.82534 2.20247L5.63173 4.39608C5.1661 4.86171 4.92624 5.50558 4.97368 6.16245C5.02112 6.81931 5.35113 7.42194 5.87876 7.81592L22.3265 20.0931L16.8365 26.4314C16.5718 26.7369 16.605 27.1992 16.9105 27.4638C17.049 27.5837 17.2195 27.6426 17.3894 27.6426C17.5943 27.6426 17.7982 27.5569 17.9429 27.3898L23.9481 20.4567C23.9482 20.4566 23.9482 20.4566 23.9483 20.4565L27.4951 16.3617L34.5277 8.24258C37.1575 5.20638 40.8086 3.33245 44.8086 2.96573L45.9444 2.8617C46.4828 2.81239 47.0091 3.00303 47.3907 3.38471C47.7724 3.76629 47.963 4.29343 47.9137 4.83101L47.8097 5.96679C47.5685 8.59837 46.6496 11.1406 45.1524 13.3183C44.9234 13.6514 45.0078 14.1071 45.3409 14.3361C45.6742 14.5652 46.1297 14.4807 46.3588 14.1476C47.9976 11.7638 49.0033 8.98113 49.2674 6.10044L49.3714 4.96466C49.4605 3.99285 49.1158 3.03964 48.4258 2.34961ZM25.3412 4.8997C25.4123 4.82825 25.5285 4.82815 25.6 4.8997L26.8219 6.1216C26.8932 6.19286 26.8932 6.30909 26.822 6.38035L26.1777 7.02452L25.5834 6.77817L24.084 6.15674L25.3412 4.8997ZM18.652 1.74521C18.7231 1.67376 18.8393 1.67366 18.9107 1.74521L20.1326 2.96711C20.204 3.03836 20.204 3.1545 20.1326 3.22576L19.2184 4.14009L17.1247 3.27241L18.652 1.74521ZM23.2876 18.9836L6.75442 6.64274C6.56466 6.50121 6.45089 6.29315 6.43376 6.05704C6.41673 5.82093 6.49941 5.59869 6.66692 5.43137L8.86043 3.23786C9.37862 2.71977 10.0663 2.44528 10.7679 2.44528C11.1164 2.44528 11.4686 2.51309 11.805 2.65245L30.6633 10.4682L23.2876 18.9836Z" fill="#03CF5D"/>
<path d="M50.4901 31.2541L49.2682 30.032C48.6259 29.3899 47.5811 29.3901 46.9391 30.032L46.3341 30.637L45.4063 28.3985L46.9111 26.8937C47.5532 26.2515 47.5532 25.2068 46.9111 24.5647L45.6892 23.3426C45.0469 22.7005 44.0021 22.7006 43.3601 23.3427L43.3254 23.3773L41.5324 19.0509L43.4916 17.3539C43.6361 17.2287 43.7803 17.0994 43.9202 16.9698C44.2167 16.695 44.2343 16.2318 43.9594 15.9355C43.6848 15.6391 43.2216 15.6215 42.9251 15.8963C42.7971 16.0148 42.6653 16.1329 42.5331 16.2475L21.1472 34.771C20.0295 35.7392 18.8653 36.6503 17.6605 37.5027C15.9967 38.6798 14.2386 39.7528 12.4348 40.6922C12.4344 40.6924 12.434 40.6927 12.4336 40.6929C11.9676 40.9356 11.4974 41.1707 11.0228 41.3971C10.4427 41.674 9.91747 41.4541 9.61935 41.1561C9.32133 40.858 9.10146 40.3327 9.37822 39.7525C9.61945 39.2469 9.87121 38.7466 10.1309 38.2506C10.2283 38.0647 10.3266 37.8791 10.4268 37.6941C10.4493 37.6525 10.4725 37.6113 10.4951 37.5696C10.5941 37.3882 10.6939 37.2073 10.7956 37.027C10.8168 36.9893 10.8386 36.9518 10.86 36.9142C10.9644 36.7302 11.0698 36.5467 11.1769 36.3641C11.1967 36.3302 11.2169 36.2966 11.2368 36.2627C11.346 36.0776 11.4563 35.8931 11.5682 35.7095C11.5885 35.6762 11.609 35.643 11.6294 35.6098C11.7408 35.4278 11.8535 35.2466 11.9675 35.0662C11.9907 35.0294 12.0141 34.9929 12.0375 34.9562C12.1486 34.7815 12.2609 34.6076 12.3743 34.4344C12.4023 34.3917 12.4305 34.3491 12.4586 34.3065C12.5679 34.1409 12.6783 33.9763 12.7896 33.8124C12.8226 33.7639 12.8557 33.7154 12.8889 33.6669C12.9975 33.5086 13.107 33.351 13.2173 33.1942C14.002 32.0799 14.8362 31 15.7196 29.96C15.9812 29.6519 15.9437 29.19 15.6355 28.9283C15.3272 28.6668 14.8656 28.7043 14.6038 29.0123C13.8449 29.9059 13.1214 30.8282 12.4327 31.7752L5.81813 28.7809C4.57016 28.2159 3.08154 28.4871 2.11337 29.4556L0.987332 30.5817C0.702403 30.8667 0.555263 31.2607 0.58351 31.6628C0.611855 32.0648 0.812831 32.4342 1.13486 32.6763L8.50227 38.2176C8.351 38.5177 8.2018 38.8188 8.05702 39.1221C7.55832 40.1676 7.7653 41.3722 8.58426 42.1912C9.10668 42.7137 9.78598 42.987 10.4808 42.987C10.8752 42.987 11.2747 42.8988 11.6532 42.7182C11.9567 42.5735 12.2577 42.4243 12.5577 42.2731L18.099 49.6405C18.3412 49.9625 18.7106 50.1635 19.1126 50.1918C19.1453 50.1941 19.1779 50.1953 19.2105 50.1953C19.578 50.1953 19.9317 50.0497 20.1935 49.7879L21.3194 48.662C22.2878 47.6937 22.559 46.2048 21.9942 44.9572L19.0004 38.3435C20.0689 37.5665 21.1051 36.744 22.1055 35.8775L30.7033 28.4304L43.0961 45.033C43.4901 45.5608 44.0928 45.8907 44.7497 45.9381C44.8044 45.942 44.8589 45.944 44.9135 45.944C45.5124 45.944 46.0892 45.7068 46.516 45.2799L48.7095 43.0865C49.9053 41.8908 50.2596 40.1088 49.6122 38.5467L48.4151 35.6582L50.4902 33.5831C51.1322 32.9409 51.1322 31.8962 50.4901 31.2541ZM2.08217 31.5572L3.14856 30.4909C3.6885 29.951 4.51878 29.7998 5.21442 30.1147L11.5752 32.9941C11.5615 33.0142 11.5481 33.0347 11.5345 33.0548C11.4551 33.1721 11.3763 33.2898 11.2978 33.4078C11.2596 33.4653 11.2217 33.5231 11.1839 33.5807C10.9171 33.9864 10.6567 34.3961 10.4027 34.8099C10.371 34.8616 10.3391 34.9131 10.3076 34.9648C10.2325 35.0882 10.1581 35.2121 10.0842 35.3362C10.0459 35.4003 10.008 35.4647 9.97013 35.5291C9.89877 35.6501 9.82751 35.7712 9.75724 35.8928C9.72142 35.9548 9.68638 36.0172 9.65085 36.0793C9.53461 36.2828 9.41995 36.4871 9.30677 36.6923C9.26799 36.7627 9.22852 36.8329 9.19014 36.9033L2.08217 31.5572ZM20.6607 45.561C20.9756 46.2567 20.8245 47.0869 20.2844 47.6269L19.2182 48.6932L13.872 41.5852C13.9872 41.5225 14.1017 41.4586 14.2164 41.3949C14.3802 41.3039 14.5433 41.2119 14.7059 41.119C14.7826 41.0751 14.8594 41.0313 14.936 40.987C15.0584 40.9161 15.1803 40.8447 15.3021 40.7728C15.363 40.7367 15.4237 40.7003 15.4846 40.664C15.904 40.4134 16.3195 40.1563 16.7309 39.8928C16.7846 39.8583 16.8384 39.8239 16.8921 39.7892C17.0191 39.707 17.146 39.6245 17.2723 39.541C17.323 39.5075 17.3734 39.4736 17.424 39.4399C17.5433 39.3604 17.6631 39.2816 17.7817 39.201L20.6607 45.561ZM44.3951 24.3779C44.4662 24.3064 44.5825 24.3064 44.6538 24.3778L45.8757 25.5999C45.9471 25.6711 45.9471 25.7873 45.8757 25.8585L44.7996 26.9347L44.1402 25.3436L43.9319 24.8409L44.3951 24.3779ZM47.6743 42.0513L45.4808 44.2448C45.3135 44.4122 45.0915 44.494 44.8551 44.4781C44.6189 44.4611 44.4109 44.3471 44.2693 44.1574L31.8129 27.4695L34.4236 25.2081L40.3661 20.061L48.2598 39.107C48.6797 40.1201 48.4499 41.2759 47.6743 42.0513ZM49.4549 32.5478L47.8084 34.1944L46.9406 32.1006L47.9743 31.0671C48.0454 30.9956 48.1616 30.9956 48.233 31.067L49.4549 32.2889V32.289C49.5263 32.3604 49.5263 32.4765 49.4549 32.5478Z" fill="#03CF5D"/>
</g>
<defs>
<clipPath id="clip0_567_1486">
<rect width="50.3916" height="50.3916" fill="white" transform="translate(0.580078 0.0161133)"/>
</clipPath>
</defs>
</svg>
