<svg width="51" height="51" viewBox="0 0 51 51" fill="none" xmlns="http://www.w3.org/2000/svg">
<g clip-path="url(#clip0_924_12670)">
<path d="M44.6516 11.607C44.4033 8.70618 42.5232 6.82614 39.6225 6.57802C39.2197 6.54357 38.8653 6.84218 38.8308 7.24492C38.7964 7.64756 39.095 8.00218 39.4977 8.03662C41.6928 8.22451 43.0051 9.53695 43.193 11.7318C43.2083 11.9107 43.2866 12.069 43.4045 12.1867C43.5519 12.3341 43.7608 12.4178 43.9847 12.3987C44.3874 12.3642 44.686 12.0098 44.6516 11.607Z" fill="#03CF5D"/>
<path d="M48.4258 2.80396C47.7357 2.11393 46.7823 1.76955 45.8108 1.85833L44.675 1.96236C40.2965 2.36382 36.2998 4.41511 33.4212 7.73869L31.6733 9.75672L27.6414 8.08573L27.8571 7.87009C28.4992 7.22789 28.4992 6.18305 27.8571 5.54095L26.6353 4.31876C25.9932 3.67686 24.9483 3.67666 24.3061 4.31876L22.6204 6.00451L20.6821 5.2012L21.1679 4.7154C21.81 4.0732 21.81 3.02846 21.1679 2.38636L19.9459 1.16436C19.3036 0.522263 18.2588 0.52246 17.6168 1.16436L15.6609 3.12019L12.3653 1.7543C10.8031 1.10679 9.02115 1.4612 7.82534 2.65682L5.63173 4.85043C5.1661 5.31606 4.92624 5.95993 4.97368 6.61679C5.02112 7.27365 5.35113 7.87629 5.87876 8.27027L22.3265 20.5474L16.8365 26.8857C16.5718 27.1912 16.605 27.6535 16.9105 27.9182C17.049 28.038 17.2195 28.0969 17.3894 28.0969C17.5943 28.0969 17.7982 28.0113 17.9429 27.8442L23.9481 20.9111C23.9482 20.911 23.9482 20.911 23.9483 20.9109L27.4951 16.8161L34.5277 8.69692C37.1575 5.66073 40.8086 3.78679 44.8086 3.42007L45.9444 3.31604C46.4828 3.26673 47.0091 3.45738 47.3907 3.83905C47.7724 4.22063 47.963 4.74778 47.9137 5.28535L47.8097 6.42113C47.5685 9.05271 46.6496 11.5949 45.1524 13.7726C44.9234 14.1058 45.0078 14.5614 45.3409 14.7905C45.6742 15.0196 46.1297 14.935 46.3588 14.602C47.9976 12.2181 49.0033 9.43547 49.2674 6.55479L49.3714 5.41901C49.4605 4.4472 49.1158 3.49399 48.4258 2.80396ZM25.3412 5.35405C25.4123 5.2826 25.5285 5.2825 25.6 5.35405L26.8219 6.57595C26.8932 6.6472 26.8932 6.76344 26.822 6.8347L26.1777 7.47886L25.5834 7.23251L24.084 6.61108L25.3412 5.35405ZM18.652 2.19956C18.7231 2.1281 18.8393 2.128 18.9107 2.19956L20.1326 3.42145C20.204 3.49271 20.204 3.60885 20.1326 3.6801L19.2184 4.59444L17.1247 3.72675L18.652 2.19956ZM23.2876 19.4379L6.75442 7.09709C6.56466 6.95556 6.45089 6.7475 6.43376 6.51138C6.41673 6.27527 6.49941 6.05304 6.66692 5.88572L8.86043 3.69221C9.37862 3.17412 10.0663 2.89962 10.7679 2.89962C11.1164 2.89962 11.4686 2.96744 11.805 3.1068L30.6633 10.9225L23.2876 19.4379Z" fill="#03CF5D"/>
<path d="M50.4901 31.7084L49.2682 30.4863C48.6259 29.8442 47.5811 29.8444 46.9391 30.4863L46.3341 31.0913L45.4063 28.8528L46.9111 27.348C47.5532 26.7059 47.5532 25.6611 46.9111 25.019L45.6892 23.7969C45.0469 23.1548 44.0021 23.1549 43.3601 23.797L43.3254 23.8317L41.5324 19.5053L43.4916 17.8083C43.6361 17.683 43.7803 17.5538 43.9202 17.4242C44.2167 17.1494 44.2343 16.6862 43.9594 16.3898C43.6848 16.0934 43.2216 16.0759 42.9251 16.3507C42.7971 16.4692 42.6653 16.5873 42.5331 16.7018L21.1472 35.2254C20.0295 36.1935 18.8653 37.1046 17.6605 37.9571C15.9967 39.1342 14.2386 40.2072 12.4348 41.1466C12.4344 41.1468 12.434 41.1471 12.4336 41.1473C11.9676 41.39 11.4974 41.625 11.0228 41.8515C10.4427 42.1283 9.91747 41.9085 9.61935 41.6104C9.32133 41.3123 9.10146 40.7871 9.37822 40.2069C9.61945 39.7013 9.87121 39.2009 10.1309 38.705C10.2283 38.519 10.3266 38.3334 10.4268 38.1485C10.4493 38.1069 10.4725 38.0656 10.4951 38.024C10.5941 37.8426 10.6939 37.6617 10.7956 37.4814C10.8168 37.4437 10.8386 37.4062 10.86 37.3685C10.9644 37.1845 11.0698 37.0011 11.1769 36.8184C11.1967 36.7846 11.2169 36.7509 11.2368 36.717C11.346 36.5319 11.4563 36.3475 11.5682 36.1638C11.5885 36.1306 11.609 36.0974 11.6294 36.0641C11.7408 35.8821 11.8535 35.7009 11.9675 35.5205C11.9907 35.4837 12.0141 35.4472 12.0375 35.4105C12.1486 35.2358 12.2609 35.0619 12.3743 34.8888C12.4023 34.8461 12.4305 34.8034 12.4586 34.7608C12.5679 34.5953 12.6783 34.4306 12.7896 34.2668C12.8226 34.2182 12.8557 34.1697 12.8889 34.1213C12.9975 33.9629 13.107 33.8054 13.2173 33.6486C14.002 32.5343 14.8362 31.4544 15.7196 30.4144C15.9812 30.1062 15.9437 29.6443 15.6355 29.3826C15.3272 29.1211 14.8656 29.1586 14.6038 29.4667C13.8449 30.3602 13.1214 31.2825 12.4327 32.2295L5.81813 29.2353C4.57016 28.6702 3.08154 28.9415 2.11337 29.91L0.987332 31.0361C0.702403 31.321 0.555263 31.7151 0.58351 32.1171C0.611855 32.5192 0.812831 32.8886 1.13486 33.1307L8.50227 38.672C8.351 38.9721 8.2018 39.2731 8.05702 39.5765C7.55832 40.6219 7.7653 41.8266 8.58426 42.6455C9.10668 43.1681 9.78598 43.4414 10.4808 43.4414C10.8752 43.4414 11.2747 43.3532 11.6532 43.1726C11.9567 43.0278 12.2577 42.8786 12.5577 42.7274L18.099 50.0948C18.3412 50.4169 18.7106 50.6178 19.1126 50.6462C19.1453 50.6485 19.1779 50.6496 19.2105 50.6496C19.578 50.6496 19.9317 50.5041 20.1935 50.2423L21.3194 49.1163C22.2878 48.1481 22.559 46.6592 21.9942 45.4116L19.0004 38.7979C20.0689 38.0208 21.1051 37.1983 22.1055 36.3318L30.7033 28.8848L43.0961 45.4873C43.4901 46.0152 44.0928 46.3451 44.7497 46.3924C44.8044 46.3964 44.8589 46.3983 44.9135 46.3983C45.5124 46.3983 46.0892 46.1611 46.516 45.7343L48.7095 43.5409C49.9053 42.3452 50.2596 40.5631 49.6122 39.001L48.4151 36.1125L50.4902 34.0374C51.1322 33.3952 51.1322 32.3505 50.4901 31.7084ZM2.08217 32.0115L3.14856 30.9452C3.6885 30.4053 4.51878 30.2541 5.21442 30.5691L11.5752 33.4485C11.5615 33.4686 11.5481 33.489 11.5345 33.5091C11.4551 33.6264 11.3763 33.7441 11.2978 33.8621C11.2596 33.9196 11.2217 33.9774 11.1839 34.0351C10.9171 34.4408 10.6567 34.8505 10.4027 35.2643C10.371 35.3159 10.3391 35.3674 10.3076 35.4192C10.2325 35.5426 10.1581 35.6664 10.0842 35.7905C10.0459 35.8547 10.008 35.919 9.97013 35.9834C9.89877 36.1045 9.82751 36.2255 9.75724 36.3472C9.72142 36.4092 9.68638 36.4716 9.65085 36.5337C9.53461 36.7371 9.41995 36.9414 9.30677 37.1467C9.26799 37.217 9.22852 37.2872 9.19014 37.3577L2.08217 32.0115ZM20.6607 46.0154C20.9756 46.711 20.8245 47.5412 20.2844 48.0812L19.2182 49.1475L13.872 42.0396C13.9872 41.9769 14.1017 41.913 14.2164 41.8492C14.3802 41.7583 14.5433 41.6662 14.7059 41.5733C14.7826 41.5294 14.8594 41.4856 14.936 41.4414C15.0584 41.3705 15.1803 41.299 15.3021 41.2271C15.363 41.1911 15.4237 41.1547 15.4846 41.1183C15.904 40.8678 16.3195 40.6107 16.7309 40.3471C16.7846 40.3127 16.8384 40.2782 16.8921 40.2436C17.0191 40.1614 17.146 40.0788 17.2723 39.9954C17.323 39.9619 17.3734 39.9279 17.424 39.8943C17.5433 39.8148 17.6631 39.7359 17.7817 39.6553L20.6607 46.0154ZM44.3951 24.8322C44.4662 24.7608 44.5825 24.7608 44.6538 24.8321L45.8757 26.0542C45.9471 26.1255 45.9471 26.2416 45.8757 26.3129L44.7996 27.3891L44.1402 25.7979L43.9319 25.2953L44.3951 24.8322ZM47.6743 42.5057L45.4808 44.6992C45.3135 44.8665 45.0915 44.9484 44.8551 44.9324C44.6189 44.9154 44.4109 44.8015 44.2693 44.6118L31.8129 27.9238L34.4236 25.6625L40.3661 20.5154L48.2598 39.5613C48.6797 40.5745 48.4499 41.7302 47.6743 42.5057ZM49.4549 33.0021L47.8084 34.6487L46.9406 32.5549L47.9743 31.5214C48.0454 31.4499 48.1616 31.4499 48.233 31.5213L49.4549 32.7433V32.7434C49.5263 32.8148 49.5263 32.9309 49.4549 33.0021Z" fill="#03CF5D"/>
</g>
<defs>
<clipPath id="clip0_924_12670">
<rect width="50.3916" height="50.3916" fill="white" transform="translate(0.580078 0.470459)"/>
</clipPath>
</defs>
</svg>
