<svg width="24" height="23" viewBox="0 0 24 23" fill="none" xmlns="http://www.w3.org/2000/svg">
<path d="M16.4891 15.4692C16.7121 15.4692 16.9286 15.5437 17.1044 15.6809L22.7226 20.0658C23.1962 20.4355 23.2393 21.1364 22.8144 21.5613L22.479 21.8967C22.1203 22.2554 21.5499 22.2887 21.1519 21.9742L17.657 19.2128C17.4805 19.0733 17.2621 18.9975 17.0371 18.9975H9.33553C8.49022 18.9975 7.73678 18.7402 7.07522 18.2257C6.45042 17.6744 6.04614 16.9761 5.86238 16.1307L4.26362 9.18441C4.15336 8.44936 4.30037 7.7878 4.70466 7.19975C5.13429 6.6269 5.68601 6.26332 6.35979 6.109C6.39552 6.10082 6.43215 6.09716 6.4688 6.09716C7.27737 5.9869 7.9573 6.15229 8.50859 6.59333L10.4381 8.08182C11.829 9.15397 13.2656 9.68923 14.7479 9.68761C15.3759 9.68693 15.9511 10.1529 15.9511 10.781V11.2592C15.9511 11.748 15.5971 12.1732 15.1085 12.1875C14.1349 12.2158 13.0897 12.0291 11.9728 11.6273C11.1507 11.3316 10.2356 12.052 10.4497 12.8989L10.9088 14.7143C11.021 15.1582 11.4204 15.4692 11.8783 15.4692H16.4891ZM15.5575 20.1552C16.1098 20.1552 16.5575 20.6029 16.5575 21.1552V21.5258C16.5575 22.078 16.1098 22.5258 15.5575 22.5258H8.28807C6.81795 22.5258 5.5316 22.0663 4.42901 21.1475C3.32642 20.1919 2.66486 18.9975 2.44435 17.5641L0.369455 7.23905C0.245054 6.62001 0.718433 6.04203 1.34985 6.04203H1.63088C2.1047 6.04203 2.51349 6.37456 2.60994 6.83847L4.75979 17.1782C4.9068 18.0235 5.31108 18.7402 5.97263 19.3282C6.63419 19.8795 7.406 20.1552 8.28807 20.1552H15.5575ZM5.80725 4.82918C5.14569 4.93944 4.55764 4.81081 4.0431 4.44328C3.52856 4.07575 3.21616 3.57958 3.1059 2.95478C2.99564 2.29323 3.12428 1.70518 3.49181 1.19064C3.85934 0.676094 4.3555 0.363694 4.9803 0.253435C5.64186 0.106423 6.22991 0.216682 6.74445 0.584212C7.25899 0.988495 7.57139 1.52141 7.68165 2.18297C7.82866 2.80777 7.7184 3.37744 7.35087 3.89198C6.98334 4.40652 6.4688 4.71892 5.80725 4.82918Z" fill="#03CF5D"/>
</svg>
