<svg width="65" height="37" viewBox="0 0 65 37" fill="none" xmlns="http://www.w3.org/2000/svg">
<path d="M48.5252 21.4473H46.8855C46.37 21.4473 45.9521 21.8651 45.9521 22.3806C45.9523 22.8961 46.3701 23.314 46.8855 23.314H48.5252C49.0408 23.314 49.4586 22.8961 49.4586 22.3806C49.4586 21.8651 49.0408 21.4473 48.5252 21.4473Z" fill="#03CF5D"/>
<path d="M64.0537 16.1351C64.0474 15.9779 64.0297 15.821 63.9992 15.6674L61.9081 5.08451C61.9079 5.08414 61.9078 5.08376 61.9078 5.08339L61.4927 2.9828C61.214 1.57197 59.9678 0.547852 58.5296 0.547852H3.42032C1.74997 0.547727 0.391113 1.90671 0.391113 3.57706V28.5203C0.391113 30.1907 1.74997 31.5495 3.42032 31.5495H6.37666C6.82741 34.4875 9.37216 36.7449 12.4342 36.7449C15.4962 36.7449 18.041 34.4876 18.4917 31.5495H20.8954C21.4108 31.5495 21.8287 31.1317 21.8287 30.6162C21.8287 30.1007 21.4109 29.6829 20.8954 29.6829H18.4916C18.0409 26.745 15.4961 24.4877 12.4341 24.4877C9.37204 24.4877 6.82729 26.7449 6.37653 29.6829H3.42032C2.77919 29.6829 2.25768 29.1612 2.25768 28.5202V3.57706C2.25768 2.93593 2.77919 2.41429 3.42032 2.41429H58.5294C59.0788 2.41429 59.5548 2.80549 59.6615 3.34453L59.8566 4.33209H47.6022C46.6925 4.33209 45.9524 5.0722 45.9524 5.98192V16.0484C45.9524 16.9954 46.4058 17.8938 47.1652 18.4515C48.9932 19.7944 53.0803 21.454 62.1898 21.8648V28.128C62.1898 28.9855 61.4922 29.6831 60.6348 29.6831H58.0709C57.62 26.7453 55.0753 24.4879 52.0132 24.4879C48.9512 24.4879 46.4065 26.7452 45.9557 29.6831H25.2382C24.7227 29.6831 24.3048 30.1009 24.3048 30.6164C24.3048 31.132 24.7226 31.5498 25.2382 31.5498H45.9559C46.4067 34.4877 48.9514 36.7451 52.0134 36.7451C55.0756 36.7451 57.6202 34.4879 58.0711 31.5498H60.635C62.5217 31.5498 64.0566 30.0149 64.0566 28.1282V16.2532V16.2531C64.0565 16.2135 64.0551 16.1742 64.0537 16.1351ZM12.4342 26.3545C14.7842 26.3545 16.696 28.2663 16.696 30.6163C16.696 32.9663 14.7842 34.8783 12.4342 34.8783C10.0842 34.8783 8.17234 32.9663 8.17234 30.6163C8.17234 28.2663 10.0842 26.3545 12.4342 26.3545ZM52.0134 34.8782C49.6634 34.8782 47.7516 32.9662 47.7516 30.6162C47.7516 28.2662 49.6634 26.3543 52.0134 26.3543C54.3635 26.3543 56.2754 28.2662 56.2754 30.6162C56.2753 32.9662 54.3635 34.8782 52.0134 34.8782ZM47.8191 16.0484V6.19878H60.2254L62.1679 16.0297C62.1714 16.0473 62.1732 16.0652 62.1758 16.083C62.1835 16.1348 62.1885 16.1872 62.1891 16.2395C62.1891 16.2441 62.1897 16.2486 62.1897 16.2531V19.9963C53.1493 19.5795 49.5958 17.9209 48.2704 16.9472C47.9878 16.7396 47.8191 16.4036 47.8191 16.0484Z" fill="#03CF5D"/>
<path d="M21.6334 4.33252H6.01052C5.18971 4.33252 4.52197 5.00026 4.52197 5.82107V16.3234C4.52197 17.1442 5.18971 17.8119 6.01052 17.8119H21.6334C22.4542 17.8119 23.122 17.1442 23.122 16.3234V5.82107C23.122 5.00026 22.4542 4.33252 21.6334 4.33252ZM12.8886 15.9454H6.38854V6.19909H12.8886V15.9454ZM21.2554 15.9454H14.7553V6.19909H21.2554V15.9454Z" fill="#03CF5D"/>
<path d="M42.1213 4.33252H26.4983C25.6775 4.33252 25.0098 5.00026 25.0098 5.82107V16.3234C25.0098 17.1442 25.6775 17.8119 26.4983 17.8119H42.1213C42.9421 17.8119 43.6099 17.1442 43.6099 16.3234V5.82107C43.6099 5.00026 42.9421 4.33252 42.1213 4.33252ZM41.7433 15.9454H35.2431V12.4081C35.2431 11.8925 34.8253 11.4747 34.3098 11.4747C33.7942 11.4747 33.3764 11.8925 33.3764 12.4081V15.9454H26.8763V6.19909H33.3764V8.06528C33.3764 8.58082 33.7942 8.99862 34.3098 8.99862C34.8253 8.99862 35.2431 8.58082 35.2431 8.06528V6.19909H41.7433V15.9454Z" fill="#03CF5D"/>
</svg>
