<svg width="65" height="36" viewBox="0 0 65 36" fill="none" xmlns="http://www.w3.org/2000/svg">
<path d="M48.0355 24.7227C45.8505 24.7227 44.0728 26.5003 44.0728 28.6854C44.0728 30.8704 45.8504 32.6481 48.0355 32.6481C50.2205 32.6481 51.9982 30.8705 51.9982 28.6854C51.9982 26.5003 50.2206 24.7227 48.0355 24.7227ZM48.0355 30.7827C46.8789 30.7827 45.938 29.8417 45.938 28.6852C45.938 27.5286 46.8789 26.5877 48.0355 26.5877C49.192 26.5877 50.133 27.5286 50.133 28.6852C50.133 29.8417 49.192 30.7827 48.0355 30.7827Z" fill="#03CF5D"/>
<path d="M12.9676 24.7227C10.7826 24.7227 9.00488 26.5003 9.00488 28.6854C9.00488 30.8704 10.7825 32.6481 12.9676 32.6481C15.1527 32.6481 16.9303 30.8705 16.9303 28.6854C16.9303 26.5003 15.1527 24.7227 12.9676 24.7227ZM12.9676 30.7827C11.811 30.7827 10.8701 29.8417 10.8701 28.6852C10.8701 27.5286 11.811 26.5877 12.9676 26.5877C14.1242 26.5877 15.0651 27.5286 15.0651 28.6852C15.0651 29.8417 14.1241 30.7827 12.9676 30.7827Z" fill="#03CF5D"/>
<path d="M62.5862 7.18329C62.4626 6.79716 62.1035 6.53504 61.698 6.53504H58.6041L58.1718 5.06136V5.06126L57.8713 4.03698C57.8648 4.015 57.8576 3.99313 57.8496 3.97158C57.1252 2.0432 55.2546 0.747559 53.1945 0.747559H2.78673C1.46582 0.747771 0.391113 1.82237 0.391113 3.14328V27.2218C0.391113 28.5427 1.46582 29.6175 2.78673 29.6175H6.0391C6.49667 33.0336 9.42841 35.6775 12.9676 35.6775C16.5069 35.6775 19.4387 33.0336 19.8962 29.6175H41.1067C41.5643 33.0336 44.496 35.6775 48.0352 35.6775C51.5745 35.6775 54.5063 33.0336 54.9638 29.6175H59.6253C60.9462 29.6175 62.0209 28.5427 62.0209 27.2218V20.8674V20.7775C62.0209 18.4641 61.6105 16.1925 60.801 14.0251L59.1508 8.40026H61.017L62.2353 12.2056C62.3622 12.6016 62.7286 12.8541 63.1233 12.8541C63.7562 12.8541 64.204 12.2372 64.0118 11.6369L62.5862 7.18329ZM60.1353 19.9349H55.0315C54.6396 19.9349 54.2554 19.7998 53.9499 19.5544C52.4965 18.3871 50.8134 17.0354 49.3492 15.8595C49.1575 15.7056 48.9496 15.5753 48.7322 15.4645V6.25636H56.5788C56.7997 7.0096 58.7292 13.5872 59.0212 14.5828C59.1344 14.9719 59.9897 16.947 60.1353 19.9349ZM36.9589 15.068V12.8856C36.9589 12.3706 36.5415 11.9531 36.0264 11.9531C35.5112 11.9531 35.0938 12.3706 35.0938 12.8856V15.068H33.4258V6.25636H35.0938V8.53349C35.0938 9.0485 35.5113 9.46605 36.0264 9.46605C36.5416 9.46605 36.9589 9.0485 36.9589 8.53349V6.25636H43.3335V15.068H36.9589ZM25.1859 15.068V6.25636H31.5604V15.068H25.1859ZM13.4127 15.068V6.25636H19.7873V15.068H13.4127ZM2.25633 15.068V6.25636H8.01419V15.068H2.25633ZM9.8794 6.25646H11.5475V15.0681H9.8794V6.25646ZM21.6524 6.25646H23.3206V15.0681H21.6524V6.25646ZM45.1987 6.25646H46.867V15.0681H45.1987V6.25646ZM2.25633 3.14328C2.25633 2.85578 2.49913 2.61277 2.78683 2.61277H53.1948C54.3955 2.61277 55.4994 3.32726 56.0029 4.39114C52.4307 4.39114 4.34555 4.39114 2.25654 4.39114V3.14317H2.25633V3.14328ZM12.9677 33.8124C10.1405 33.8124 7.84029 31.5122 7.84029 28.6849C7.84029 25.8576 10.1405 23.5574 12.9677 23.5574C15.795 23.5574 18.0952 25.8576 18.0952 28.6849C18.0952 31.5122 15.795 33.8124 12.9677 33.8124ZM48.0354 33.8124C45.2082 33.8124 42.908 31.5122 42.908 28.6849C42.908 25.8576 45.2082 23.5574 48.0354 23.5574C50.8627 23.5574 53.1629 25.8576 53.1629 28.6849C53.1629 31.5122 50.8628 33.8124 48.0354 33.8124ZM59.6256 27.7522H54.9662C54.5054 24.3051 51.5397 21.6922 48.0356 21.6922C44.4741 21.6922 41.5577 24.3644 41.1049 27.7522H19.8985C19.4435 24.3484 16.5112 21.6922 12.9679 21.6922C9.42937 21.6922 6.49316 24.341 6.03718 27.7522H2.78673C2.49913 27.7522 2.25622 27.5092 2.25622 27.2217V20.5345H27.9225C28.4377 20.5345 28.855 20.117 28.855 19.6019C28.855 19.0869 28.4376 18.6694 27.9225 18.6694H2.25633V16.9332H47.0997C47.4729 16.9332 47.8664 17.0609 48.1813 17.3138L49.8693 18.6694H32.2747C31.7595 18.6694 31.3422 19.0869 31.3422 19.6019C31.3422 20.117 31.7596 20.5345 32.2747 20.5345H52.1917L52.782 21.0085C53.4174 21.5189 54.2163 21.8 55.0315 21.8H60.1561V27.2217C60.156 27.5093 59.9132 27.7522 59.6256 27.7522Z" fill="#03CF5D"/>
</svg>
