<svg width="398" height="202" viewBox="0 0 398 202" fill="none" xmlns="http://www.w3.org/2000/svg">
<g filter="url(#filter0_d_1162_6165)">
<path fill-rule="evenodd" clip-rule="evenodd" d="M2.00781 10.275C2.00781 4.75216 6.48496 0.275024 12.0078 0.275024H385.994C391.517 0.275024 395.994 4.75218 395.994 10.275V108.469C391.805 108.944 388.551 112.5 388.551 116.816C388.551 121.131 391.805 124.687 395.994 125.163V187.808C395.994 193.331 391.517 197.808 385.994 197.808H12.0078C6.48495 197.808 2.00781 193.331 2.00781 187.808V125.153C2.34753 125.195 2.69353 125.217 3.04456 125.217C7.6843 125.217 11.4456 121.455 11.4456 116.816C11.4456 112.176 7.6843 108.415 3.04456 108.415C2.69353 108.415 2.34753 108.436 2.00781 108.478V10.275Z" fill="white"/>
</g>
<rect x="31.2275" y="19.3932" width="32.0176" height="16.5271" rx="2" fill="#3858A2"/>
<path d="M37.8187 22.9146V32.1567H36.5936V22.9146H37.8187ZM43.3983 22.9146L39.558 27.2246L37.3998 29.4653L37.1966 28.1577L38.8216 26.3677L41.9257 22.9146H43.3983ZM42.2176 32.1567L38.7963 27.6499L39.5262 26.6787L43.6776 32.1567H42.2176ZM47.8517 22.9146V32.1567H46.6457V22.9146H47.8517ZM50.8225 22.9146V23.9175H43.6813V22.9146H50.8225ZM52.667 22.9146L54.8887 26.4565L57.1104 22.9146H58.5386L55.6187 27.4912L58.6084 32.1567H57.1675L54.8887 28.5449L52.6099 32.1567H51.169L54.1587 27.4912L51.2388 22.9146H52.667Z" fill="white"/>
<path d="M76.8846 26.9751V28.6011C76.8846 29.4751 76.8065 30.2124 76.6503 30.813C76.494 31.4136 76.2694 31.897 75.9764 32.2632C75.6835 32.6294 75.3295 32.8955 74.9144 33.0615C74.5043 33.2227 74.0404 33.3032 73.5228 33.3032C73.1127 33.3032 72.7342 33.252 72.3876 33.1494C72.0409 33.0469 71.7284 32.8833 71.4501 32.6587C71.1766 32.4292 70.9423 32.1313 70.7469 31.7651C70.5516 31.3989 70.4027 30.9546 70.3002 30.4321C70.1976 29.9097 70.1464 29.2993 70.1464 28.6011V26.9751C70.1464 26.1011 70.2245 25.3687 70.3807 24.7778C70.5419 24.187 70.7689 23.7134 71.0619 23.3569C71.3549 22.9956 71.7064 22.7368 72.1166 22.5806C72.5316 22.4243 72.9955 22.3462 73.5082 22.3462C73.9232 22.3462 74.3041 22.3975 74.6508 22.5C75.0023 22.5977 75.3148 22.7563 75.5883 22.9761C75.8617 23.1909 76.0936 23.479 76.2841 23.8403C76.4794 24.1968 76.6283 24.6338 76.7308 25.1514C76.8334 25.6689 76.8846 26.2769 76.8846 26.9751ZM75.5223 28.8208V26.748C75.5223 26.2695 75.493 25.8496 75.4344 25.4883C75.3807 25.1221 75.3002 24.8096 75.1927 24.5508C75.0853 24.292 74.9486 24.082 74.7826 23.9209C74.6215 23.7598 74.4335 23.6426 74.2186 23.5693C74.0087 23.4912 73.7718 23.4521 73.5082 23.4521C73.1859 23.4521 72.9003 23.5132 72.6512 23.6353C72.4022 23.7524 72.1923 23.9404 72.0214 24.1992C71.8553 24.458 71.7284 24.7974 71.6405 25.2173C71.5526 25.6372 71.5087 26.1475 71.5087 26.748V28.8208C71.5087 29.2993 71.5355 29.7217 71.5892 30.0879C71.6478 30.4541 71.7333 30.7715 71.8456 31.04C71.9579 31.3037 72.0946 31.521 72.2557 31.6919C72.4169 31.8628 72.6024 31.9897 72.8124 32.0728C73.0272 32.1509 73.264 32.1899 73.5228 32.1899C73.8549 32.1899 74.1454 32.1265 74.3944 31.9995C74.6434 31.8726 74.8509 31.6748 75.017 31.4062C75.1879 31.1328 75.3148 30.7837 75.3978 30.3589C75.4808 29.9292 75.5223 29.4165 75.5223 28.8208ZM80.2853 27.1582H81.2521C81.7258 27.1582 82.1164 27.0801 82.424 26.9238C82.7365 26.7627 82.9684 26.5454 83.1198 26.272C83.2761 25.9937 83.3542 25.6812 83.3542 25.3345C83.3542 24.9243 83.2858 24.5801 83.1491 24.3018C83.0124 24.0234 82.8073 23.8135 82.5339 23.6719C82.2604 23.5303 81.9138 23.4595 81.4938 23.4595C81.113 23.4595 80.7761 23.5352 80.4831 23.6865C80.195 23.833 79.968 24.043 79.8019 24.3164C79.6408 24.5898 79.5602 24.9121 79.5602 25.2832H78.2053C78.2053 24.7412 78.342 24.248 78.6154 23.8037C78.8889 23.3594 79.2722 23.0054 79.7653 22.7417C80.2634 22.478 80.8395 22.3462 81.4938 22.3462C82.1384 22.3462 82.7023 22.4609 83.1857 22.6904C83.6691 22.915 84.0451 23.252 84.3137 23.7012C84.5822 24.1455 84.7165 24.6997 84.7165 25.3638C84.7165 25.6323 84.653 25.9204 84.5261 26.228C84.404 26.5308 84.2111 26.814 83.9475 27.0776C83.6887 27.3413 83.3517 27.5586 82.9367 27.7295C82.5217 27.8955 82.0236 27.9785 81.4426 27.9785H80.2853V27.1582ZM80.2853 28.2715V27.4585H81.4426C82.1213 27.4585 82.6828 27.5391 83.1271 27.7002C83.5715 27.8613 83.9206 28.0762 84.1745 28.3447C84.4333 28.6133 84.614 28.9087 84.7165 29.231C84.8239 29.5483 84.8776 29.8657 84.8776 30.1831C84.8776 30.6812 84.7922 31.123 84.6213 31.5088C84.4553 31.8945 84.2184 32.2217 83.9108 32.4902C83.6081 32.7588 83.2516 32.9614 82.8415 33.0981C82.4313 33.2349 81.9846 33.3032 81.5012 33.3032C81.0373 33.3032 80.6003 33.2373 80.1901 33.1055C79.7849 32.9736 79.426 32.7832 79.1135 32.5342C78.801 32.2803 78.5568 31.9702 78.381 31.604C78.2053 31.2329 78.1174 30.8105 78.1174 30.3369H79.4724C79.4724 30.708 79.5529 31.0327 79.7141 31.311C79.8801 31.5894 80.1144 31.8066 80.4172 31.9629C80.7248 32.1143 81.0861 32.1899 81.5012 32.1899C81.9162 32.1899 82.2726 32.1191 82.5705 31.9775C82.8732 31.8311 83.1052 31.6113 83.2663 31.3184C83.4323 31.0254 83.5153 30.6567 83.5153 30.2124C83.5153 29.7681 83.4225 29.4043 83.237 29.1211C83.0515 28.833 82.7878 28.6206 82.446 28.4839C82.1091 28.3423 81.7111 28.2715 81.2521 28.2715H80.2853ZM88.1392 28.0811L87.0552 27.8027L87.5899 22.4927H93.061V23.7451H88.7398L88.4175 26.6455C88.6128 26.5332 88.8594 26.4282 89.1572 26.3306C89.46 26.2329 89.8067 26.1841 90.1973 26.1841C90.6904 26.1841 91.1323 26.2695 91.523 26.4404C91.9136 26.6064 92.2456 26.8457 92.5191 27.1582C92.7974 27.4707 93.0098 27.8467 93.1563 28.2861C93.3027 28.7256 93.376 29.2163 93.376 29.7583C93.376 30.271 93.3052 30.7422 93.1636 31.1719C93.0269 31.6016 92.8193 31.9775 92.541 32.2998C92.2627 32.6172 91.9111 32.8638 91.4863 33.0396C91.0664 33.2153 90.5708 33.3032 89.9995 33.3032C89.5698 33.3032 89.1621 33.2446 88.7764 33.1274C88.3955 33.0054 88.0537 32.8223 87.751 32.5781C87.4531 32.3291 87.209 32.0215 87.0186 31.6553C86.833 31.2842 86.7158 30.8496 86.667 30.3516H87.9561C88.0147 30.752 88.1318 31.0889 88.3076 31.3623C88.4834 31.6357 88.7129 31.8433 88.9961 31.9849C89.2842 32.1216 89.6187 32.1899 89.9995 32.1899C90.3218 32.1899 90.6074 32.1338 90.8565 32.0215C91.1055 31.9092 91.3154 31.748 91.4863 31.5381C91.6572 31.3281 91.7866 31.0742 91.8745 30.7764C91.9673 30.4785 92.0137 30.144 92.0137 29.7729C92.0137 29.436 91.9673 29.1235 91.8745 28.8354C91.7817 28.5474 91.6426 28.2959 91.457 28.0811C91.2764 27.8662 91.0542 27.7002 90.7905 27.583C90.5269 27.4609 90.2241 27.3999 89.8823 27.3999C89.4282 27.3999 89.084 27.4609 88.8496 27.583C88.6201 27.7051 88.3833 27.8711 88.1392 28.0811Z" fill="#3858A2"/>
<path d="M91.0247 89.3672V92.7422H92.2697V89.3672H91.0247ZM91.6547 82.5872C88.7897 82.5872 86.7197 83.9822 86.7197 86.1422C86.7197 88.3022 88.7897 89.6972 91.6547 89.6972C94.5197 89.6972 96.5747 88.3022 96.5747 86.1422C96.5747 83.9822 94.5197 82.5872 91.6547 82.5872ZM91.6547 83.5772C93.7997 83.5772 95.3747 84.5972 95.3747 86.1422C95.3747 87.6872 93.7997 88.7072 91.6547 88.7072C89.4947 88.7072 87.9197 87.6872 87.9197 86.1422C87.9197 84.5972 89.4947 83.5772 91.6547 83.5772ZM85.5347 92.5022V93.5372H97.8197V92.5022H85.5347ZM104.504 86.4422V88.9772H105.734V86.4422H104.504ZM104.489 81.9122V82.5122C104.489 84.3272 102.164 85.8272 99.7335 86.1572L100.214 87.1472C102.974 86.6972 105.569 84.9572 105.569 82.5122V81.9122H104.489ZM104.684 81.9122V82.5122C104.684 84.9572 107.294 86.6822 110.039 87.1472L110.504 86.1572C108.089 85.8272 105.749 84.3272 105.749 82.5122V81.9122H104.684ZM98.9985 88.4372V89.4272H111.254V88.4372H98.9985ZM105.119 90.5522C102.209 90.5522 100.469 91.3922 100.469 92.8922C100.469 94.4072 102.209 95.2322 105.119 95.2322C108.029 95.2322 109.769 94.4072 109.769 92.8922C109.769 91.3922 108.029 90.5522 105.119 90.5522ZM105.119 91.5122C107.264 91.5122 108.509 92.0072 108.509 92.8922C108.509 93.7772 107.264 94.2722 105.119 94.2722C102.989 94.2722 101.729 93.7772 101.729 92.8922C101.729 92.0072 102.989 91.5122 105.119 91.5122Z" fill="#636363"/>
<path d="M34.7731 136.12C32.7631 136.12 31.2781 137.35 31.2781 139.135C31.2781 140.905 32.7631 142.135 34.7731 142.135C36.7981 142.135 38.2831 140.905 38.2831 139.135C38.2831 137.35 36.7981 136.12 34.7731 136.12ZM34.7731 137.14C36.0931 137.14 37.0681 137.965 37.0681 139.135C37.0681 140.305 36.0931 141.115 34.7731 141.115C33.4681 141.115 32.4781 140.305 32.4781 139.135C32.4781 137.965 33.4681 137.14 34.7731 137.14ZM40.8331 135.625V142.57H42.0931V135.625H40.8331ZM33.3181 143.23V144.235H40.8631V145.6H33.3481V148.57H34.5631V146.53H42.0931V143.23H33.3181ZM33.3481 148.015V149.005H42.5431V148.015H33.3481ZM51.6869 139.135V140.17H54.7469V139.135H51.6869ZM54.3569 135.625V143.71H55.6019V135.625H54.3569ZM51.1469 144.115C48.3419 144.115 46.6169 145.06 46.6169 146.65C46.6169 148.255 48.3419 149.17 51.1469 149.17C53.9369 149.17 55.6619 148.255 55.6619 146.65C55.6619 145.06 53.9369 144.115 51.1469 144.115ZM51.1469 145.09C53.1869 145.09 54.4319 145.66 54.4319 146.65C54.4319 147.625 53.1869 148.195 51.1469 148.195C49.1069 148.195 47.8619 147.625 47.8619 146.65C47.8619 145.66 49.1069 145.09 51.1469 145.09ZM47.9069 136.99V138.085C47.9069 140.035 46.5119 141.85 44.5019 142.585L45.1469 143.575C47.3969 142.735 48.9269 140.59 48.9269 138.085V136.99H47.9069ZM48.1469 136.99V138.085C48.1469 140.365 49.6019 142.405 51.8069 143.2L52.4369 142.21C50.4719 141.52 49.1519 139.84 49.1519 138.085V136.99H48.1469ZM44.8769 136.615V137.635H52.1219V136.615H44.8769Z" fill="#636363"/>
<path d="M271.884 146.622V147.736H264.904V146.761L268.397 142.872C268.827 142.394 269.159 141.989 269.394 141.656C269.633 141.32 269.799 141.019 269.892 140.756C269.989 140.487 270.038 140.214 270.038 139.935C270.038 139.584 269.965 139.266 269.818 138.983C269.677 138.695 269.467 138.466 269.188 138.295C268.91 138.124 268.573 138.038 268.178 138.038C267.704 138.038 267.309 138.131 266.991 138.317C266.679 138.497 266.444 138.751 266.288 139.078C266.132 139.406 266.054 139.781 266.054 140.206H264.699C264.699 139.606 264.831 139.056 265.094 138.558C265.358 138.06 265.749 137.665 266.266 137.372C266.784 137.074 267.421 136.925 268.178 136.925C268.852 136.925 269.428 137.045 269.906 137.284C270.385 137.518 270.751 137.85 271.005 138.28C271.264 138.705 271.393 139.203 271.393 139.774C271.393 140.087 271.339 140.404 271.232 140.726C271.129 141.044 270.985 141.361 270.8 141.678C270.619 141.996 270.407 142.308 270.163 142.616C269.923 142.924 269.667 143.226 269.394 143.524L266.537 146.622H271.884ZM280.028 141.554V143.18C280.028 144.054 279.95 144.791 279.794 145.392C279.638 145.992 279.413 146.476 279.12 146.842C278.827 147.208 278.473 147.474 278.058 147.64C277.648 147.802 277.184 147.882 276.667 147.882C276.256 147.882 275.878 147.831 275.531 147.728C275.185 147.626 274.872 147.462 274.594 147.238C274.32 147.008 274.086 146.71 273.891 146.344C273.695 145.978 273.546 145.533 273.444 145.011C273.341 144.489 273.29 143.878 273.29 143.18V141.554C273.29 140.68 273.368 139.948 273.524 139.357C273.686 138.766 273.913 138.292 274.206 137.936C274.499 137.574 274.85 137.316 275.26 137.159C275.675 137.003 276.139 136.925 276.652 136.925C277.067 136.925 277.448 136.976 277.794 137.079C278.146 137.177 278.458 137.335 278.732 137.555C279.005 137.77 279.237 138.058 279.428 138.419C279.623 138.776 279.772 139.213 279.875 139.73C279.977 140.248 280.028 140.856 280.028 141.554ZM278.666 143.4V141.327C278.666 140.848 278.637 140.428 278.578 140.067C278.524 139.701 278.444 139.388 278.336 139.13C278.229 138.871 278.092 138.661 277.926 138.5C277.765 138.339 277.577 138.221 277.362 138.148C277.152 138.07 276.916 138.031 276.652 138.031C276.33 138.031 276.044 138.092 275.795 138.214C275.546 138.331 275.336 138.519 275.165 138.778C274.999 139.037 274.872 139.376 274.784 139.796C274.696 140.216 274.652 140.726 274.652 141.327V143.4C274.652 143.878 274.679 144.301 274.733 144.667C274.792 145.033 274.877 145.35 274.989 145.619C275.102 145.883 275.238 146.1 275.399 146.271C275.561 146.442 275.746 146.569 275.956 146.652C276.171 146.73 276.408 146.769 276.667 146.769C276.999 146.769 277.289 146.705 277.538 146.578C277.787 146.451 277.995 146.254 278.161 145.985C278.332 145.712 278.458 145.363 278.542 144.938C278.625 144.508 278.666 143.995 278.666 143.4ZM288.759 146.622V147.736H281.779V146.761L285.272 142.872C285.702 142.394 286.034 141.989 286.269 141.656C286.508 141.32 286.674 141.019 286.767 140.756C286.864 140.487 286.913 140.214 286.913 139.935C286.913 139.584 286.84 139.266 286.693 138.983C286.552 138.695 286.342 138.466 286.063 138.295C285.785 138.124 285.448 138.038 285.053 138.038C284.579 138.038 284.184 138.131 283.866 138.317C283.554 138.497 283.319 138.751 283.163 139.078C283.007 139.406 282.929 139.781 282.929 140.206H281.574C281.574 139.606 281.706 139.056 281.969 138.558C282.233 138.06 282.624 137.665 283.141 137.372C283.659 137.074 284.296 136.925 285.053 136.925C285.727 136.925 286.303 137.045 286.781 137.284C287.26 137.518 287.626 137.85 287.88 138.28C288.139 138.705 288.268 139.203 288.268 139.774C288.268 140.087 288.214 140.404 288.107 140.726C288.004 141.044 287.86 141.361 287.675 141.678C287.494 141.996 287.282 142.308 287.038 142.616C286.798 142.924 286.542 143.226 286.269 143.524L283.412 146.622H288.759ZM297.196 146.622V147.736H290.216V146.761L293.71 142.872C294.14 142.394 294.472 141.989 294.706 141.656C294.945 141.32 295.111 141.019 295.204 140.756C295.302 140.487 295.351 140.214 295.351 139.935C295.351 139.584 295.277 139.266 295.131 138.983C294.989 138.695 294.779 138.466 294.501 138.295C294.223 138.124 293.886 138.038 293.49 138.038C293.017 138.038 292.621 138.131 292.304 138.317C291.991 138.497 291.757 138.751 291.601 139.078C291.444 139.406 291.366 139.781 291.366 140.206H290.011C290.011 139.606 290.143 139.056 290.407 138.558C290.67 138.06 291.061 137.665 291.579 137.372C292.096 137.074 292.733 136.925 293.49 136.925C294.164 136.925 294.74 137.045 295.219 137.284C295.697 137.518 296.063 137.85 296.317 138.28C296.576 138.705 296.706 139.203 296.706 139.774C296.706 140.087 296.652 140.404 296.544 140.726C296.442 141.044 296.298 141.361 296.112 141.678C295.932 141.996 295.719 142.308 295.475 142.616C295.236 142.924 294.979 143.226 294.706 143.524L291.85 146.622H297.196ZM298.815 147.018C298.815 146.788 298.886 146.595 299.027 146.439C299.174 146.278 299.384 146.198 299.657 146.198C299.931 146.198 300.138 146.278 300.28 146.439C300.426 146.595 300.5 146.788 300.5 147.018C300.5 147.242 300.426 147.433 300.28 147.589C300.138 147.745 299.931 147.823 299.657 147.823C299.384 147.823 299.174 147.745 299.027 147.589C298.886 147.433 298.815 147.242 298.815 147.018ZM307.055 137.013V147.736H305.7V138.705L302.968 139.701V138.478L306.842 137.013H307.055ZM318.026 146.622V147.736H311.046V146.761L314.54 142.872C314.97 142.394 315.302 141.989 315.536 141.656C315.775 141.32 315.941 141.019 316.034 140.756C316.132 140.487 316.181 140.214 316.181 139.935C316.181 139.584 316.107 139.266 315.961 138.983C315.819 138.695 315.609 138.466 315.331 138.295C315.053 138.124 314.716 138.038 314.32 138.038C313.847 138.038 313.451 138.131 313.134 138.317C312.821 138.497 312.587 138.751 312.431 139.078C312.274 139.406 312.196 139.781 312.196 140.206H310.841C310.841 139.606 310.973 139.056 311.237 138.558C311.5 138.06 311.891 137.665 312.409 137.372C312.926 137.074 313.563 136.925 314.32 136.925C314.994 136.925 315.57 137.045 316.049 137.284C316.527 137.518 316.894 137.85 317.147 138.28C317.406 138.705 317.536 139.203 317.536 139.774C317.536 140.087 317.482 140.404 317.375 140.726C317.272 141.044 317.128 141.361 316.942 141.678C316.762 141.996 316.549 142.308 316.305 142.616C316.066 142.924 315.81 143.226 315.536 143.524L312.68 146.622H318.026ZM319.645 147.018C319.645 146.788 319.716 146.595 319.857 146.439C320.004 146.278 320.214 146.198 320.487 146.198C320.761 146.198 320.968 146.278 321.11 146.439C321.256 146.595 321.33 146.788 321.33 147.018C321.33 147.242 321.256 147.433 321.11 147.589C320.968 147.745 320.761 147.823 320.487 147.823C320.214 147.823 320.004 147.745 319.857 147.589C319.716 147.433 319.645 147.242 319.645 147.018ZM330.126 141.554V143.18C330.126 144.054 330.048 144.791 329.892 145.392C329.735 145.992 329.511 146.476 329.218 146.842C328.925 147.208 328.571 147.474 328.156 147.64C327.746 147.802 327.282 147.882 326.764 147.882C326.354 147.882 325.976 147.831 325.629 147.728C325.282 147.626 324.97 147.462 324.691 147.238C324.418 147.008 324.184 146.71 323.988 146.344C323.793 145.978 323.644 145.533 323.542 145.011C323.439 144.489 323.388 143.878 323.388 143.18V141.554C323.388 140.68 323.466 139.948 323.622 139.357C323.783 138.766 324.01 138.292 324.303 137.936C324.596 137.574 324.948 137.316 325.358 137.159C325.773 137.003 326.237 136.925 326.75 136.925C327.165 136.925 327.545 136.976 327.892 137.079C328.244 137.177 328.556 137.335 328.83 137.555C329.103 137.77 329.335 138.058 329.525 138.419C329.721 138.776 329.87 139.213 329.972 139.73C330.075 140.248 330.126 140.856 330.126 141.554ZM328.764 143.4V141.327C328.764 140.848 328.734 140.428 328.676 140.067C328.622 139.701 328.542 139.388 328.434 139.13C328.327 138.871 328.19 138.661 328.024 138.5C327.863 138.339 327.675 138.221 327.46 138.148C327.25 138.07 327.013 138.031 326.75 138.031C326.427 138.031 326.142 138.092 325.893 138.214C325.644 138.331 325.434 138.519 325.263 138.778C325.097 139.037 324.97 139.376 324.882 139.796C324.794 140.216 324.75 140.726 324.75 141.327V143.4C324.75 143.878 324.777 144.301 324.831 144.667C324.889 145.033 324.975 145.35 325.087 145.619C325.199 145.883 325.336 146.1 325.497 146.271C325.658 146.442 325.844 146.569 326.054 146.652C326.269 146.73 326.505 146.769 326.764 146.769C327.096 146.769 327.387 146.705 327.636 146.578C327.885 146.451 328.092 146.254 328.258 145.985C328.429 145.712 328.556 145.363 328.639 144.938C328.722 144.508 328.764 143.995 328.764 143.4ZM338.761 137.072V137.833L334.345 147.736H332.917L337.326 138.185H331.554V137.072H338.761ZM344.123 143.473V143.4C344.123 142.335 344.242 141.373 344.481 140.514C344.721 139.65 345.026 138.893 345.397 138.243C345.768 137.594 346.159 137.057 346.569 136.632C346.979 136.202 347.357 135.892 347.704 135.702L347.99 136.595C347.702 136.815 347.409 137.118 347.111 137.504C346.818 137.889 346.547 138.363 346.298 138.925C346.054 139.486 345.856 140.138 345.705 140.88C345.553 141.622 345.478 142.457 345.478 143.385V143.488C345.478 144.415 345.553 145.253 345.705 146C345.856 146.742 346.054 147.396 346.298 147.963C346.547 148.529 346.818 149.01 347.111 149.406C347.409 149.806 347.702 150.123 347.99 150.358L347.704 151.178C347.357 150.988 346.979 150.677 346.569 150.248C346.159 149.823 345.768 149.286 345.397 148.636C345.026 147.992 344.721 147.238 344.481 146.373C344.242 145.509 344.123 144.542 344.123 143.473ZM354.508 135.826V136.576C354.508 138.511 352.123 140.131 349.648 140.506L350.143 141.511C352.963 141.031 355.603 139.171 355.603 136.576V135.826H354.508ZM354.733 135.826V136.576C354.733 139.141 357.388 141.031 360.178 141.511L360.673 140.506C358.228 140.131 355.813 138.466 355.813 136.576V135.826H354.733ZM354.508 143.746V148.906H355.738V143.746H354.508ZM349.033 142.981V144.016H361.288V142.981H349.033ZM366.234 143.4V143.473C366.234 144.542 366.115 145.509 365.875 146.373C365.636 147.238 365.331 147.992 364.96 148.636C364.589 149.286 364.198 149.823 363.788 150.248C363.378 150.677 363 150.988 362.653 151.178L362.367 150.358C362.655 150.138 362.946 149.83 363.239 149.435C363.532 149.044 363.803 148.561 364.052 147.985C364.301 147.413 364.501 146.754 364.652 146.007C364.804 145.255 364.879 144.415 364.879 143.488V143.385C364.879 142.457 364.799 141.62 364.638 140.873C364.477 140.121 364.267 139.459 364.008 138.888C363.754 138.317 363.48 137.836 363.188 137.445C362.899 137.05 362.626 136.744 362.367 136.53L362.653 135.702C363 135.892 363.378 136.202 363.788 136.632C364.198 137.057 364.589 137.594 364.96 138.243C365.331 138.893 365.636 139.65 365.875 140.514C366.115 141.373 366.234 142.335 366.234 143.4Z" fill="#636363"/>
<path d="M336.258 161.335C334.278 161.335 332.883 163.18 332.883 166.06C332.883 168.955 334.278 170.8 336.258 170.8C338.223 170.8 339.633 168.955 339.633 166.06C339.633 163.18 338.223 161.335 336.258 161.335ZM336.258 162.46C337.563 162.46 338.448 163.87 338.448 166.06C338.448 168.265 337.563 169.705 336.258 169.705C334.953 169.705 334.068 168.265 334.068 166.06C334.068 163.87 334.953 162.46 336.258 162.46ZM342.573 160.285V173.875H343.803V160.285H342.573ZM339.228 165.46V166.48H343.113V165.46H339.228ZM346.426 167.815V168.82H358.726V167.815H346.426ZM348.046 172.54V173.56H357.436V172.54H348.046ZM348.046 169.885V172.93H349.291V169.885H348.046ZM347.986 160.75V161.725H355.921V163.195H348.016V165.94H349.246V164.11H357.136V160.75H347.986ZM348.016 165.61V166.585H357.436V165.61H348.016ZM364.83 161.968V172.69H363.475V163.66L360.743 164.656V163.433L364.617 161.968H364.83Z" fill="#1E1E1E"/>
<path d="M310.227 161.997V172.69H308.286V164.26L305.715 165.11V163.542L310.007 161.997H310.227Z" fill="#03CF5D"/>
<path d="M320.366 162.145V163.72H323.906V162.145H320.366ZM320.366 164.92V166.51H323.966V164.92H320.366ZM323.276 160.135V168.265H325.271V160.135H323.276ZM314.216 161.14V167.515H320.786V161.14H314.216ZM318.821 162.715V165.955H316.181V162.715H318.821ZM320.561 168.625C317.621 168.625 315.806 169.63 315.806 171.325C315.806 173.035 317.621 174.025 320.561 174.025C323.501 174.025 325.316 173.035 325.316 171.325C325.316 169.63 323.501 168.625 320.561 168.625ZM320.561 170.155C322.376 170.155 323.336 170.53 323.336 171.325C323.336 172.12 322.376 172.51 320.561 172.51C318.761 172.51 317.801 172.12 317.801 171.325C317.801 170.53 318.761 170.155 320.561 170.155Z" fill="#1E1E1E"/>
<path d="M40.8331 159.99V169.89H42.0931V159.99H40.8331ZM33.3781 172.215V173.235H42.4981V172.215H33.3781ZM33.3781 168.87V172.56H34.6081V168.87H33.3781ZM34.8181 160.92C32.7931 160.92 31.2781 162.3 31.2781 164.265C31.2781 166.215 32.7931 167.61 34.8181 167.61C36.8431 167.61 38.3431 166.215 38.3431 164.265C38.3431 162.3 36.8431 160.92 34.8181 160.92ZM34.8181 162C36.1381 162 37.1431 162.93 37.1431 164.265C37.1431 165.585 36.1381 166.515 34.8181 166.515C33.4981 166.515 32.4931 165.585 32.4931 164.265C32.4931 162.93 33.4981 162 34.8181 162ZM48.2969 166.8V169.815H49.5419V166.8H48.2969ZM54.3119 159.975V170.295H55.5569V159.975H54.3119ZM46.3019 172.215V173.235H55.8869V172.215H46.3019ZM46.3019 169.29V172.5H47.5469V169.29H46.3019ZM44.5469 167.265C47.0069 167.265 50.2919 167.22 53.2169 166.755L53.1269 165.84C50.2469 166.215 46.8869 166.245 44.3819 166.245L44.5469 167.265ZM51.5519 167.985V168.9H54.6269V167.985H51.5519ZM48.7919 160.53C46.7969 160.53 45.4469 161.46 45.4469 162.885C45.4469 164.325 46.7969 165.255 48.7919 165.255C50.7719 165.255 52.1219 164.325 52.1219 162.885C52.1219 161.46 50.7719 160.53 48.7919 160.53ZM48.7919 161.46C50.0519 161.46 50.9369 162.015 50.9369 162.885C50.9369 163.755 50.0519 164.31 48.7919 164.31C47.5169 164.31 46.6319 163.755 46.6319 162.885C46.6319 162.015 47.5169 161.46 48.7919 161.46Z" fill="#636363"/>
<path opacity="0.7" d="M170.085 83.3695V94.0922H168.73V85.0614L165.998 86.0575V84.8344L169.872 83.3695H170.085ZM177.183 82.8722V85.3022C177.183 87.8672 175.548 90.4622 173.538 91.4222L174.303 92.4422C176.523 91.3172 178.203 88.4222 178.203 85.3022V82.8722H177.183ZM177.393 82.8722V85.3022C177.393 88.3172 179.088 91.1072 181.293 92.1872L182.043 91.1972C180.033 90.2672 178.413 87.7772 178.413 85.3022V82.8722H177.393ZM183.453 81.6872V95.2772H184.698V81.6872H183.453ZM196.362 81.7022V91.6172H197.607V81.7022H196.362ZM197.217 85.8122V86.8472H199.617V85.8122H197.217ZM192.657 82.7522V83.2922C192.657 85.9022 190.512 88.0022 187.092 89.0522L187.632 90.0722C191.517 88.8272 193.977 86.2622 193.977 82.7522H192.657ZM187.647 82.7522V83.7722H193.287V82.7522H187.647ZM189.147 93.9422V94.9622H198.207V93.9422H189.147ZM189.147 90.6122V94.3472H190.392V90.6122H189.147ZM211.315 90.5033V91.6166H203.61V90.8182L208.385 83.4281H209.491L208.304 85.5668L205.148 90.5033H211.315ZM209.828 83.4281V94.0922H208.473V83.4281H209.828ZM217.425 83.4135H217.542V84.5634H217.425C216.707 84.5634 216.107 84.6805 215.623 84.9149C215.14 85.1444 214.757 85.4545 214.474 85.8451C214.19 86.2308 213.985 86.6654 213.858 87.1488C213.736 87.6322 213.675 88.1229 213.675 88.621V90.1884C213.675 90.662 213.731 91.0819 213.844 91.4481C213.956 91.8094 214.11 92.1146 214.305 92.3636C214.5 92.6127 214.72 92.8007 214.964 92.9276C215.213 93.0546 215.472 93.118 215.741 93.118C216.053 93.118 216.331 93.0594 216.576 92.9423C216.82 92.8202 217.025 92.6517 217.191 92.4369C217.362 92.2172 217.491 91.9584 217.579 91.6605C217.667 91.3627 217.711 91.0355 217.711 90.6791C217.711 90.3617 217.672 90.0565 217.594 89.7635C217.516 89.4657 217.396 89.202 217.235 88.9725C217.074 88.7382 216.871 88.5551 216.627 88.4232C216.388 88.2865 216.102 88.2181 215.77 88.2181C215.394 88.2181 215.042 88.3109 214.715 88.4965C214.393 88.6771 214.127 88.9164 213.917 89.2142C213.712 89.5072 213.595 89.827 213.565 90.1737L212.848 90.1664C212.916 89.6195 213.043 89.1532 213.228 88.7675C213.419 88.3768 213.653 88.0594 213.932 87.8153C214.215 87.5663 214.53 87.3856 214.876 87.2733C215.228 87.1561 215.599 87.0975 215.99 87.0975C216.522 87.0975 216.981 87.1976 217.367 87.3978C217.752 87.598 218.07 87.8666 218.319 88.2035C218.568 88.5355 218.751 88.9115 218.868 89.3314C218.99 89.7465 219.051 90.1737 219.051 90.6132C219.051 91.1161 218.98 91.5873 218.839 92.0267C218.697 92.4662 218.485 92.8519 218.202 93.184C217.923 93.516 217.579 93.7748 217.169 93.9603C216.759 94.1459 216.283 94.2386 215.741 94.2386C215.165 94.2386 214.662 94.1215 214.232 93.8871C213.802 93.6478 213.446 93.3304 213.163 92.9349C212.879 92.5394 212.667 92.1 212.525 91.6166C212.384 91.1332 212.313 90.6425 212.313 90.1444V89.5072C212.313 88.7552 212.389 88.0179 212.54 87.2953C212.691 86.5726 212.953 85.9183 213.324 85.3324C213.7 84.7465 214.22 84.2802 214.884 83.9335C215.548 83.5868 216.395 83.4135 217.425 83.4135ZM220.191 88.8572V89.8772H232.476V88.8572H220.191ZM225.801 89.3672V92.4872H227.046V89.3672H225.801ZM221.751 93.9422V94.9622H231.111V93.9422H221.751ZM221.751 91.2872V94.3322H222.981V91.2872H221.751ZM221.826 82.1222V87.5522H230.856V82.1222H229.611V83.8472H223.056V82.1222H221.826ZM223.056 84.8222H229.611V86.5472H223.056V84.8222Z" fill="#787878"/>
<path d="M287.622 89.7272V90.7472H299.922V89.7272H287.622ZM293.112 90.2072V95.2622H294.342V90.2072H293.112ZM289.167 82.2422V88.1072H298.347V82.2422H297.117V84.1022H290.412V82.2422H289.167ZM290.412 85.1072H297.117V87.1022H290.412V85.1072ZM304.446 82.5272V84.1922C304.446 86.2922 303.126 88.1222 301.056 88.8572L301.716 89.8472C303.996 88.9622 305.466 86.8472 305.466 84.1922V82.5272H304.446ZM304.656 82.5272V84.2372C304.656 86.6222 306.156 88.6922 308.391 89.5022L309.006 88.5272C307.026 87.8222 305.676 86.0822 305.676 84.2372V82.5272H304.656ZM310.386 81.6872V91.7072H311.631V81.6872H310.386ZM311.241 85.8572V86.8922H313.641V85.8572H311.241ZM303.216 93.9422V94.9622H312.231V93.9422H303.216ZM303.216 90.7622V94.4372H304.461V90.7622H303.216Z" fill="#636363"/>
<line x1="32.7109" y1="118.39" x2="365.29" y2="118.39" stroke="#787878" stroke-dasharray="2 2"/>
<path d="M74.6021 52.7319V71.2544H70.9458V56.9468L66.5532 58.3433V55.4614L74.2085 52.7319H74.6021ZM91.5688 64.3481V67.2173H78.2515L78.0737 64.9956L85.7798 52.77H88.687L85.5386 58.0386L81.7046 64.3481H91.5688ZM89.4741 52.77V71.2544H85.8179V52.77H89.4741ZM96.3159 69.4897C96.3159 68.9481 96.5021 68.4953 96.8745 68.1313C97.2554 67.7674 97.759 67.5854 98.3853 67.5854C99.0116 67.5854 99.5109 67.7674 99.8833 68.1313C100.264 68.4953 100.455 68.9481 100.455 69.4897C100.455 70.0314 100.264 70.4842 99.8833 70.8481C99.5109 71.2121 99.0116 71.394 98.3853 71.394C97.759 71.394 97.2554 71.2121 96.8745 70.8481C96.5021 70.4842 96.3159 70.0314 96.3159 69.4897ZM96.3159 59.0161C96.3159 58.4744 96.5021 58.0216 96.8745 57.6577C97.2554 57.2938 97.759 57.1118 98.3853 57.1118C99.0116 57.1118 99.5109 57.2938 99.8833 57.6577C100.264 58.0216 100.455 58.4744 100.455 59.0161C100.455 59.5578 100.264 60.0106 99.8833 60.3745C99.5109 60.7384 99.0116 60.9204 98.3853 60.9204C97.759 60.9204 97.2554 60.7384 96.8745 60.3745C96.5021 60.0106 96.3159 59.5578 96.3159 59.0161ZM118.786 64.3481V67.2173H105.468L105.291 64.9956L112.997 52.77H115.904L112.755 58.0386L108.921 64.3481H118.786ZM116.691 52.77V71.2544H113.035V52.77H116.691ZM131.22 66.189C131.22 67.3485 130.949 68.326 130.408 69.1216C129.866 69.9087 129.121 70.5054 128.173 70.9116C127.234 71.3094 126.167 71.5083 124.974 71.5083C123.781 71.5083 122.71 71.3094 121.762 70.9116C120.814 70.5054 120.065 69.9087 119.515 69.1216C118.965 68.326 118.69 67.3485 118.69 66.189C118.69 65.4103 118.847 64.7078 119.16 64.0815C119.473 63.4468 119.909 62.9051 120.467 62.4565C121.034 61.9995 121.699 61.6525 122.46 61.4155C123.222 61.1701 124.052 61.0474 124.949 61.0474C126.151 61.0474 127.225 61.259 128.173 61.6821C129.121 62.1053 129.866 62.702 130.408 63.4722C130.949 64.2424 131.22 65.1479 131.22 66.189ZM127.539 65.9478C127.539 65.3807 127.429 64.894 127.208 64.4878C126.997 64.0731 126.696 63.7557 126.307 63.5356C125.918 63.3156 125.465 63.2056 124.949 63.2056C124.432 63.2056 123.98 63.3156 123.59 63.5356C123.201 63.7557 122.896 64.0731 122.676 64.4878C122.465 64.894 122.359 65.3807 122.359 65.9478C122.359 66.5063 122.465 66.9888 122.676 67.395C122.896 67.8013 123.201 68.1144 123.59 68.3345C123.988 68.5461 124.449 68.6519 124.974 68.6519C125.499 68.6519 125.952 68.5461 126.333 68.3345C126.722 68.1144 127.018 67.8013 127.221 67.395C127.433 66.9888 127.539 66.5063 127.539 65.9478ZM130.827 57.6704C130.827 58.6099 130.577 59.4435 130.078 60.1714C129.578 60.8908 128.884 61.4536 127.996 61.8599C127.115 62.2661 126.108 62.4692 124.974 62.4692C123.832 62.4692 122.816 62.2661 121.927 61.8599C121.039 61.4536 120.345 60.8908 119.845 60.1714C119.346 59.4435 119.096 58.6099 119.096 57.6704C119.096 56.5532 119.346 55.6138 119.845 54.8521C120.353 54.0819 121.047 53.4979 121.927 53.1001C122.816 52.7023 123.823 52.5034 124.949 52.5034C126.091 52.5034 127.103 52.7023 127.983 53.1001C128.872 53.4979 129.566 54.0819 130.065 54.8521C130.573 55.6138 130.827 56.5532 130.827 57.6704ZM127.17 57.8354C127.17 57.3361 127.082 56.9045 126.904 56.5405C126.726 56.1681 126.472 55.8804 126.142 55.6772C125.82 55.4741 125.423 55.3726 124.949 55.3726C124.492 55.3726 124.098 55.4699 123.768 55.6646C123.446 55.8592 123.197 56.1427 123.019 56.5151C122.85 56.8791 122.765 57.3192 122.765 57.8354C122.765 58.3348 122.85 58.7749 123.019 59.1558C123.197 59.5282 123.451 59.8201 123.781 60.0317C124.111 60.2433 124.509 60.3491 124.974 60.3491C125.44 60.3491 125.833 60.2433 126.155 60.0317C126.485 59.8201 126.735 59.5282 126.904 59.1558C127.082 58.7749 127.17 58.3348 127.17 57.8354Z" fill="black"/>
<path d="M276.705 52.7319V71.2544H273.048V56.9468L268.656 58.3433V55.4614L276.311 52.7319H276.705ZM290.155 52.5796H290.688V55.4995H290.472C289.507 55.4995 288.648 55.6434 287.895 55.9312C287.142 56.2189 286.503 56.6294 285.978 57.1626C285.462 57.6873 285.064 58.3221 284.785 59.0669C284.514 59.8117 284.378 60.6453 284.378 61.5679V64.6401C284.378 65.3003 284.442 65.8843 284.569 66.3921C284.704 66.8914 284.895 67.3104 285.14 67.6489C285.394 67.979 285.69 68.2287 286.029 68.3979C286.367 68.5588 286.748 68.6392 287.171 68.6392C287.569 68.6392 287.929 68.5545 288.25 68.3853C288.581 68.216 288.86 67.979 289.088 67.6743C289.325 67.3612 289.503 66.9972 289.622 66.5825C289.749 66.1593 289.812 65.6981 289.812 65.1987C289.812 64.6994 289.749 64.2381 289.622 63.8149C289.503 63.3918 289.325 63.0278 289.088 62.7231C288.851 62.41 288.564 62.1688 288.225 61.9995C287.887 61.8302 287.506 61.7456 287.083 61.7456C286.507 61.7456 285.999 61.881 285.559 62.1519C285.127 62.4142 284.789 62.7528 284.543 63.1675C284.298 63.5822 284.167 64.0181 284.15 64.4751L283.045 63.7642C283.071 63.1125 283.206 62.4946 283.452 61.9106C283.706 61.3267 284.053 60.8104 284.493 60.3618C284.941 59.9048 285.479 59.5493 286.105 59.2954C286.731 59.033 287.438 58.9019 288.225 58.9019C289.088 58.9019 289.846 59.0669 290.498 59.397C291.158 59.7271 291.708 60.1799 292.148 60.7554C292.588 61.3309 292.918 61.9953 293.138 62.7485C293.358 63.5018 293.468 64.3058 293.468 65.1606C293.468 66.0578 293.32 66.8914 293.024 67.6616C292.736 68.4318 292.317 69.1047 291.767 69.6802C291.225 70.2557 290.574 70.7043 289.812 71.0259C289.05 71.3475 288.195 71.5083 287.248 71.5083C286.266 71.5083 285.373 71.3306 284.569 70.9751C283.773 70.6112 283.088 70.1034 282.512 69.4517C281.937 68.8 281.492 68.0256 281.179 67.1284C280.875 66.2313 280.722 65.2495 280.722 64.1831V62.7612C280.722 61.2716 280.938 59.909 281.37 58.6733C281.81 57.4292 282.44 56.3543 283.261 55.4487C284.082 54.5347 285.072 53.828 286.232 53.3286C287.391 52.8293 288.699 52.5796 290.155 52.5796ZM298.418 69.4897C298.418 68.9481 298.605 68.4953 298.977 68.1313C299.358 67.7674 299.861 67.5854 300.488 67.5854C301.114 67.5854 301.613 67.7674 301.986 68.1313C302.367 68.4953 302.557 68.9481 302.557 69.4897C302.557 70.0314 302.367 70.4842 301.986 70.8481C301.613 71.2121 301.114 71.394 300.488 71.394C299.861 71.394 299.358 71.2121 298.977 70.8481C298.605 70.4842 298.418 70.0314 298.418 69.4897ZM298.418 59.0161C298.418 58.4744 298.605 58.0216 298.977 57.6577C299.358 57.2938 299.861 57.1118 300.488 57.1118C301.114 57.1118 301.613 57.2938 301.986 57.6577C302.367 58.0216 302.557 58.4744 302.557 59.0161C302.557 59.5578 302.367 60.0106 301.986 60.3745C301.613 60.7384 301.114 60.9204 300.488 60.9204C299.861 60.9204 299.358 60.7384 298.977 60.3745C298.605 60.0106 298.418 59.5578 298.418 59.0161ZM311.684 60.4253H313.639C314.265 60.4253 314.782 60.3195 315.188 60.1079C315.594 59.8879 315.895 59.5832 316.089 59.1938C316.292 58.7961 316.394 58.3348 316.394 57.8101C316.394 57.3361 316.301 56.9172 316.115 56.5532C315.937 56.1808 315.662 55.8931 315.29 55.6899C314.917 55.4784 314.447 55.3726 313.88 55.3726C313.432 55.3726 313.017 55.4614 312.636 55.6392C312.255 55.8169 311.951 56.0666 311.722 56.3882C311.494 56.7098 311.379 57.0991 311.379 57.5562H307.71C307.71 56.5405 307.981 55.6561 308.523 54.9028C309.073 54.1496 309.809 53.5614 310.732 53.1382C311.654 52.715 312.67 52.5034 313.779 52.5034C315.031 52.5034 316.127 52.7065 317.067 53.1128C318.006 53.5106 318.738 54.0988 319.263 54.8774C319.788 55.6561 320.05 56.6209 320.05 57.772C320.05 58.356 319.915 58.923 319.644 59.4731C319.373 60.0148 318.984 60.5057 318.476 60.9458C317.977 61.3774 317.367 61.7244 316.648 61.9868C315.929 62.2407 315.12 62.3677 314.223 62.3677H311.684V60.4253ZM311.684 63.2056V61.314H314.223C315.23 61.314 316.115 61.4282 316.876 61.6567C317.638 61.8853 318.277 62.2153 318.793 62.647C319.31 63.0701 319.699 63.5737 319.961 64.1577C320.224 64.7332 320.355 65.3722 320.355 66.0747C320.355 66.938 320.19 67.7082 319.86 68.3853C319.53 69.0539 319.064 69.6209 318.463 70.0864C317.871 70.5519 317.177 70.9074 316.381 71.1528C315.586 71.3898 314.718 71.5083 313.779 71.5083C313 71.5083 312.234 71.4025 311.481 71.1909C310.736 70.9709 310.059 70.645 309.45 70.2134C308.849 69.7733 308.366 69.2231 308.002 68.563C307.647 67.8944 307.469 67.103 307.469 66.189H311.138C311.138 66.6629 311.257 67.0861 311.494 67.4585C311.731 67.8309 312.056 68.1229 312.471 68.3345C312.894 68.5461 313.364 68.6519 313.88 68.6519C314.464 68.6519 314.964 68.5461 315.378 68.3345C315.802 68.1144 316.123 67.8097 316.343 67.4204C316.572 67.0226 316.686 66.5614 316.686 66.0366C316.686 65.3595 316.563 64.8179 316.318 64.4116C316.072 63.9969 315.721 63.6922 315.264 63.4976C314.807 63.3029 314.265 63.2056 313.639 63.2056H311.684ZM333.818 64.3481V67.2173H320.5L320.323 64.9956L328.029 52.77H330.936L327.788 58.0386L323.954 64.3481H333.818ZM331.723 52.77V71.2544H328.067V52.77H331.723Z" fill="black"/>
<circle cx="190.241" cy="62.5845" r="1.58643" fill="#D9D9D9"/>
<path d="M201.703 56.7063L203.868 62.5482L201.703 68.8434L209.207 62.5482L201.703 56.7063Z" fill="#D9D9D9" stroke="#D9D9D9" stroke-linecap="round" stroke-linejoin="round"/>
<rect x="194.583" y="60.9982" width="12.8105" height="3.17273" rx="1.58636" fill="#D9D9D9"/>
<defs>
<filter id="filter0_d_1162_6165" x="0.0078125" y="0.275024" width="397.986" height="201.533" filterUnits="userSpaceOnUse" color-interpolation-filters="sRGB">
<feFlood flood-opacity="0" result="BackgroundImageFix"/>
<feColorMatrix in="SourceAlpha" type="matrix" values="0 0 0 0 0 0 0 0 0 0 0 0 0 0 0 0 0 0 127 0" result="hardAlpha"/>
<feOffset dy="2"/>
<feGaussianBlur stdDeviation="1"/>
<feComposite in2="hardAlpha" operator="out"/>
<feColorMatrix type="matrix" values="0 0 0 0 0 0 0 0 0 0 0 0 0 0 0 0 0 0 0.25 0"/>
<feBlend mode="normal" in2="BackgroundImageFix" result="effect1_dropShadow_1162_6165"/>
<feBlend mode="normal" in="SourceGraphic" in2="effect1_dropShadow_1162_6165" result="shape"/>
</filter>
</defs>
</svg>
