<svg width="47" height="47" viewBox="0 0 47 47" fill="none" xmlns="http://www.w3.org/2000/svg">
<path fill-rule="evenodd" clip-rule="evenodd" d="M23.4998 3.91675C12.6898 3.91675 3.9165 12.6901 3.9165 23.5001C3.9165 34.3101 12.6898 43.0834 23.4998 43.0834C34.3098 43.0834 43.0832 34.3101 43.0832 23.5001C43.0832 12.6901 34.3098 3.91675 23.4998 3.91675ZM35.9548 32.9588C33.1544 29.5513 26.359 28.3959 23.4998 28.3959C20.6407 28.3959 13.8453 29.5513 11.0448 32.9588C9.04734 30.3347 7.83317 27.0642 7.83317 23.5001C7.83317 14.8638 14.8636 7.83341 23.4998 7.83341C32.1361 7.83341 39.1665 14.8638 39.1665 23.5001C39.1665 27.0642 37.9523 30.3347 35.9548 32.9588ZM16.6457 18.6042C16.6457 14.8051 19.7007 11.7501 23.4998 11.7501C27.299 11.7501 30.354 14.8051 30.354 18.6042C30.354 22.4034 27.299 25.4584 23.4998 25.4584C19.7007 25.4584 16.6457 22.4034 16.6457 18.6042Z" fill="#636363"/>
</svg>
