<svg width="21" height="24" viewBox="0 0 21 24" fill="none" xmlns="http://www.w3.org/2000/svg">
<path d="M18.6707 20.9075V8.46187H2.88862V20.9075H18.6707ZM18.6707 2.79513C19.271 2.79513 19.8006 3.02462 20.2596 3.48361C20.7185 3.9426 20.948 4.4722 20.948 5.07242V20.9075C20.948 21.5077 20.7185 22.0373 20.2596 22.4963C19.8006 22.92 19.271 23.1318 18.6707 23.1318H2.88862C2.25309 23.1318 1.70584 22.92 1.24685 22.4963C0.823169 22.0373 0.611328 21.5077 0.611328 20.9075V5.07242C0.611328 4.4722 0.823169 3.9426 1.24685 3.48361C1.70584 3.02462 2.25309 2.79513 2.88862 2.79513H4.00078V0.570801H6.27807V2.79513H15.2813V0.570801H17.5586V2.79513H18.6707ZM16.4464 10.7392V12.9635H14.1691V10.7392H16.4464ZM11.8918 10.7392V12.9635H9.66752V10.7392H11.8918ZM7.39023 10.7392V12.9635H5.11294V10.7392H7.39023Z" fill="#03CF5D"/>
</svg>
