<svg width="334" height="60" viewBox="0 0 334 60" fill="none" xmlns="http://www.w3.org/2000/svg">
<path d="M38.7534 29.8379H315.668" stroke="#03CF5D" stroke-linecap="round" stroke-linejoin="round"/>
<circle cx="98.6846" cy="29.8381" r="28.9888" fill="#03CF5D" stroke="white" stroke-dasharray="2 2"/>
<circle cx="30.3687" cy="29.8381" r="28.9888" fill="#03CF5D" stroke="white" stroke-dasharray="2 2"/>
<circle cx="235.316" cy="29.8381" r="28.9888" fill="#03CF5D" stroke="white" stroke-dasharray="2 2"/>
<circle cx="167" cy="29.8381" r="28.9888" fill="#03CF5D" stroke="white"/>
<circle cx="303.632" cy="29.8381" r="28.9888" fill="#03CF5D" stroke="white" stroke-dasharray="2 2"/>
<path d="M90.8108 16.76V26.0212H88.9827V18.8674L86.7864 19.5657V18.1248L90.614 16.76H90.8108ZM95.2198 21.8127L93.7598 21.4636L94.2867 16.7791H99.4791V18.2581H95.7911L95.5626 20.3083C95.6853 20.2364 95.8715 20.1602 96.1212 20.0798C96.3708 19.9952 96.6501 19.9529 96.9591 19.9529C97.4076 19.9529 97.8054 20.0227 98.1524 20.1624C98.4994 20.302 98.7935 20.5051 99.0347 20.7717C99.2802 21.0383 99.4664 21.3642 99.5933 21.7493C99.7203 22.1344 99.7838 22.5702 99.7838 23.0569C99.7838 23.4674 99.7203 23.8588 99.5933 24.2312C99.4664 24.5994 99.2738 24.9294 99.0157 25.2214C98.7576 25.5092 98.4338 25.7356 98.0445 25.9006C97.6552 26.0657 97.1939 26.1482 96.6607 26.1482C96.2629 26.1482 95.8778 26.0889 95.5055 25.9705C95.1373 25.852 94.8051 25.6764 94.5089 25.4436C94.2169 25.2109 93.982 24.9294 93.8043 24.5994C93.6308 24.2651 93.5398 23.8842 93.5313 23.4568H95.3468C95.3722 23.7192 95.4399 23.9456 95.5499 24.136C95.6641 24.3222 95.8144 24.4661 96.0006 24.5676C96.1868 24.6692 96.4047 24.72 96.6544 24.72C96.8871 24.72 97.086 24.6755 97.2511 24.5867C97.4161 24.4978 97.5494 24.3751 97.651 24.2185C97.7525 24.0577 97.8266 23.8715 97.8731 23.6599C97.9239 23.4441 97.9493 23.2113 97.9493 22.9617C97.9493 22.712 97.9197 22.4856 97.8604 22.2825C97.8012 22.0793 97.7102 21.9037 97.5875 21.7556C97.4648 21.6075 97.3082 21.4932 97.1178 21.4128C96.9316 21.3324 96.7136 21.2922 96.4639 21.2922C96.1254 21.2922 95.863 21.3451 95.6768 21.4509C95.4949 21.5567 95.3425 21.6773 95.2198 21.8127ZM110.514 15.1662H108.785V21.1592H110.514V15.1662ZM102.402 18.2472C102.402 17.4022 103.065 16.8952 103.949 16.8952C104.833 16.8952 105.47 17.4022 105.47 18.2472C105.47 19.1052 104.833 19.5992 103.949 19.5992C103.065 19.5992 102.402 19.1052 102.402 18.2472ZM107.134 18.2472C107.134 16.6612 105.769 15.5172 103.949 15.5172C102.116 15.5172 100.738 16.6612 100.738 18.2472C100.738 19.8462 102.116 20.9902 103.949 20.9902C105.769 20.9902 107.134 19.8462 107.134 18.2472ZM104.248 25.6702V24.9162H110.514V21.6532H102.532V22.9662H108.811V23.6942H102.545V26.9962H110.813V25.6702H104.248Z" fill="white"/>
<path d="M94.5638 41.5216H101.571V44.3556H102.637V40.6636H94.5638V41.5216ZM95.7858 34.0076H101.532V36.2696H95.7858V34.0076ZM99.2048 38.5966V37.1146H102.585V33.1626H94.7458V37.1146H98.1388V38.5966H93.3808V39.4546H103.937V38.5966H99.2048Z" fill="white"/>
<path d="M227.443 16.76V26.0212H225.615V18.8674L223.418 19.5657V18.1248L227.246 16.76H227.443ZM236.409 16.7791V17.7629L232.836 26.0212H230.906L234.48 18.2073H229.878V16.7791H236.409ZM247.146 15.1662H245.417V21.1592H247.146V15.1662ZM239.034 18.2472C239.034 17.4022 239.697 16.8952 240.581 16.8952C241.465 16.8952 242.102 17.4022 242.102 18.2472C242.102 19.1052 241.465 19.5992 240.581 19.5992C239.697 19.5992 239.034 19.1052 239.034 18.2472ZM243.766 18.2472C243.766 16.6612 242.401 15.5172 240.581 15.5172C238.748 15.5172 237.37 16.6612 237.37 18.2472C237.37 19.8462 238.748 20.9902 240.581 20.9902C242.401 20.9902 243.766 19.8462 243.766 18.2472ZM240.88 25.6702V24.9162H247.146V21.6532H239.164V22.9662H245.443V23.6942H239.177V26.9962H247.445V25.6702H240.88Z" fill="white"/>
<path d="M235.837 42.0156V39.6106H239.399V38.7396H232.457V36.9846H239.022V36.1396H232.457V34.5016H239.282V33.6306H231.378V39.6106H234.771V42.0156H230.013V42.8866H240.608V42.0156H235.837Z" fill="white"/>
<path d="M295.759 16.76V26.0212H293.931V18.8674L291.735 19.5657V18.1248L295.562 16.76H295.759ZM304.675 23.4885C304.675 24.0683 304.539 24.557 304.269 24.9548C303.998 25.3484 303.625 25.6467 303.151 25.8499C302.682 26.0487 302.149 26.1482 301.552 26.1482C300.955 26.1482 300.42 26.0487 299.946 25.8499C299.472 25.6467 299.097 25.3484 298.822 24.9548C298.547 24.557 298.41 24.0683 298.41 23.4885C298.41 23.0992 298.488 22.748 298.645 22.4348C298.801 22.1174 299.019 21.8466 299.298 21.6223C299.582 21.3938 299.914 21.2203 300.295 21.1018C300.676 20.9791 301.091 20.9177 301.539 20.9177C302.14 20.9177 302.677 21.0235 303.151 21.2351C303.625 21.4467 303.998 21.745 304.269 22.1301C304.539 22.5152 304.675 22.968 304.675 23.4885ZM302.834 23.3679C302.834 23.0844 302.779 22.8411 302.669 22.6379C302.563 22.4306 302.413 22.2719 302.218 22.1619C302.024 22.0518 301.797 21.9968 301.539 21.9968C301.281 21.9968 301.055 22.0518 300.86 22.1619C300.665 22.2719 300.513 22.4306 300.403 22.6379C300.297 22.8411 300.244 23.0844 300.244 23.3679C300.244 23.6472 300.297 23.8884 300.403 24.0916C300.513 24.2947 300.665 24.4513 300.86 24.5613C301.059 24.6671 301.289 24.72 301.552 24.72C301.814 24.72 302.041 24.6671 302.231 24.5613C302.426 24.4513 302.574 24.2947 302.675 24.0916C302.781 23.8884 302.834 23.6472 302.834 23.3679ZM304.478 19.2292C304.478 19.699 304.353 20.1158 304.104 20.4797C303.854 20.8394 303.507 21.1208 303.063 21.324C302.622 21.5271 302.119 21.6287 301.552 21.6287C300.981 21.6287 300.473 21.5271 300.028 21.324C299.584 21.1208 299.237 20.8394 298.987 20.4797C298.738 20.1158 298.613 19.699 298.613 19.2292C298.613 18.6707 298.738 18.2009 298.987 17.8201C299.241 17.435 299.588 17.143 300.028 16.9441C300.473 16.7452 300.976 16.6458 301.539 16.6458C302.11 16.6458 302.616 16.7452 303.056 16.9441C303.501 17.143 303.848 17.435 304.097 17.8201C304.351 18.2009 304.478 18.6707 304.478 19.2292ZM302.65 19.3118C302.65 19.0621 302.606 18.8463 302.517 18.6643C302.428 18.4781 302.301 18.3342 302.136 18.2327C301.975 18.1311 301.776 18.0803 301.539 18.0803C301.311 18.0803 301.114 18.129 300.949 18.2263C300.788 18.3236 300.663 18.4654 300.574 18.6516C300.49 18.8336 300.447 19.0536 300.447 19.3118C300.447 19.5614 300.49 19.7815 300.574 19.9719C300.663 20.1581 300.79 20.3041 300.955 20.4099C301.12 20.5157 301.319 20.5686 301.552 20.5686C301.785 20.5686 301.981 20.5157 302.142 20.4099C302.307 20.3041 302.432 20.1581 302.517 19.9719C302.606 19.7815 302.65 19.5614 302.65 19.3118ZM315.462 15.1662H313.733V21.1592H315.462V15.1662ZM307.35 18.2472C307.35 17.4022 308.013 16.8952 308.897 16.8952C309.781 16.8952 310.418 17.4022 310.418 18.2472C310.418 19.1052 309.781 19.5992 308.897 19.5992C308.013 19.5992 307.35 19.1052 307.35 18.2472ZM312.082 18.2472C312.082 16.6612 310.717 15.5172 308.897 15.5172C307.064 15.5172 305.686 16.6612 305.686 18.2472C305.686 19.8462 307.064 20.9902 308.897 20.9902C310.717 20.9902 312.082 19.8462 312.082 18.2472ZM309.196 25.6702V24.9162H315.462V21.6532H307.48V22.9662H313.759V23.6942H307.493V26.9962H315.761V25.6702H309.196Z" fill="white"/>
<path d="M307.91 32.6816H306.844V38.6616H307.91V32.6816ZM299.642 35.6976C299.642 34.6836 300.487 33.9686 301.618 33.9686C302.762 33.9686 303.594 34.6836 303.594 35.6976C303.594 36.6986 302.762 37.4136 301.618 37.4136C300.487 37.4136 299.642 36.6986 299.642 35.6976ZM304.634 35.6976C304.634 34.1506 303.36 33.0976 301.618 33.0976C299.876 33.0976 298.615 34.1506 298.615 35.6976C298.615 37.2316 299.876 38.2716 301.618 38.2716C303.36 38.2716 304.634 37.2316 304.634 35.6976ZM301.436 43.3416V42.0546H307.91V39.2336H300.357V40.0786H306.857V41.2616H300.383V44.1866H308.3V43.3416H301.436Z" fill="white"/>
<g filter="url(#filter0_d_1162_6809)">
<circle cx="30.3687" cy="29.8379" r="23.0112" fill="white"/>
</g>
<g filter="url(#filter1_d_1162_6809)">
<circle cx="166.999" cy="29.8379" r="23.0112" fill="white"/>
</g>
<g clip-path="url(#clip0_1162_6809)">
<path d="M20.7886 39.377C25.7149 39.377 29.7085 35.3483 29.7085 30.3788C29.7085 25.4092 25.7149 21.3806 20.7886 21.3806C15.8622 21.3806 11.8687 25.4092 11.8687 30.3788C11.8687 35.3483 15.8622 39.377 20.7886 39.377Z" fill="#03CF5D"/>
<path d="M20.7885 35.3779C23.5254 35.3779 25.744 33.1397 25.744 30.3789C25.744 27.618 23.5254 25.3799 20.7885 25.3799C18.0517 25.3799 15.833 27.618 15.833 30.3789C15.833 33.1397 18.0517 35.3779 20.7885 35.3779Z" fill="white"/>
<path d="M48.2899 21.4243H35.3477V25.6096H44.0072C44.3255 25.6096 44.5859 25.8723 44.5859 26.1934V34.6078C44.5859 34.9289 44.3255 35.1916 44.0072 35.1916H35.3477V39.3769H48.2899C48.6082 39.3769 48.8686 39.1142 48.8686 38.7931V22.0081C48.8686 21.687 48.6082 21.4243 48.2899 21.4243Z" fill="#03CF5D"/>
<path d="M35.3475 25.6096V21.4243H31.6471C31.3288 21.4243 31.0684 21.687 31.0684 22.0081V38.7967C31.0684 39.1178 31.3288 39.3805 31.6471 39.3805H35.3475V25.6096Z" fill="#787878" fill-opacity="0.2"/>
</g>
<g clip-path="url(#clip1_1162_6809)">
<path fill-rule="evenodd" clip-rule="evenodd" d="M166.339 30.3788C166.339 35.3483 162.345 39.377 157.419 39.377C152.493 39.377 148.499 35.3483 148.499 30.3788C148.499 25.4092 152.493 21.3806 157.419 21.3806C162.345 21.3806 166.339 25.4092 166.339 30.3788ZM162.374 30.3789C162.374 33.1397 160.156 35.3779 157.419 35.3779C154.682 35.3779 152.463 33.1397 152.463 30.3789C152.463 27.618 154.682 25.3799 157.419 25.3799C160.156 25.3799 162.374 27.618 162.374 30.3789Z" fill="#03CF5D"/>
<path d="M184.92 21.4243H171.978V25.6096H180.638C180.956 25.6096 181.216 25.8723 181.216 26.1934V34.6078C181.216 34.9289 180.956 35.1916 180.638 35.1916H171.978V39.3769H184.92C185.239 39.3769 185.499 39.1142 185.499 38.7931V22.0081C185.499 21.687 185.239 21.4243 184.92 21.4243Z" fill="#03CF5D"/>
<path d="M171.978 25.6096V21.4243H168.277C167.959 21.4243 167.699 21.687 167.699 22.0081V38.7967C167.699 39.1178 167.959 39.3805 168.277 39.3805H171.978V25.6096Z" fill="#787878" fill-opacity="0.2"/>
</g>
<defs>
<filter id="filter0_d_1162_6809" x="5.35742" y="6.82666" width="50.0225" height="50.0225" filterUnits="userSpaceOnUse" color-interpolation-filters="sRGB">
<feFlood flood-opacity="0" result="BackgroundImageFix"/>
<feColorMatrix in="SourceAlpha" type="matrix" values="0 0 0 0 0 0 0 0 0 0 0 0 0 0 0 0 0 0 127 0" result="hardAlpha"/>
<feOffset dy="2"/>
<feGaussianBlur stdDeviation="1"/>
<feComposite in2="hardAlpha" operator="out"/>
<feColorMatrix type="matrix" values="0 0 0 0 0 0 0 0 0 0 0 0 0 0 0 0 0 0 0.25 0"/>
<feBlend mode="normal" in2="BackgroundImageFix" result="effect1_dropShadow_1162_6809"/>
<feBlend mode="normal" in="SourceGraphic" in2="effect1_dropShadow_1162_6809" result="shape"/>
</filter>
<filter id="filter1_d_1162_6809" x="141.988" y="6.82666" width="50.0225" height="50.0225" filterUnits="userSpaceOnUse" color-interpolation-filters="sRGB">
<feFlood flood-opacity="0" result="BackgroundImageFix"/>
<feColorMatrix in="SourceAlpha" type="matrix" values="0 0 0 0 0 0 0 0 0 0 0 0 0 0 0 0 0 0 127 0" result="hardAlpha"/>
<feOffset dy="2"/>
<feGaussianBlur stdDeviation="1"/>
<feComposite in2="hardAlpha" operator="out"/>
<feColorMatrix type="matrix" values="0 0 0 0 0 0 0 0 0 0 0 0 0 0 0 0 0 0 0.25 0"/>
<feBlend mode="normal" in2="BackgroundImageFix" result="effect1_dropShadow_1162_6809"/>
<feBlend mode="normal" in="SourceGraphic" in2="effect1_dropShadow_1162_6809" result="shape"/>
</filter>
<clipPath id="clip0_1162_6809">
<rect width="37" height="18" fill="white" transform="translate(11.8687 21.3806)"/>
</clipPath>
<clipPath id="clip1_1162_6809">
<rect width="37" height="18" fill="white" transform="translate(148.499 21.3806)"/>
</clipPath>
</defs>
</svg>
