<svg width="53" height="25" viewBox="0 0 53 25" fill="none" xmlns="http://www.w3.org/2000/svg">
<g clip-path="url(#clip0_924_6201)">
<path d="M12.5962 24.9949C19.5197 24.9949 25.1323 19.3996 25.1323 12.4975C25.1323 5.59531 19.5197 0 12.5962 0C5.67267 0 0.0600586 5.59531 0.0600586 12.4975C0.0600586 19.3996 5.67267 24.9949 12.5962 24.9949Z" fill="#03CF5D"/>
<path d="M12.5961 19.4405C16.4425 19.4405 19.5606 16.332 19.5606 12.4975C19.5606 8.66295 16.4425 5.55444 12.5961 5.55444C8.74971 5.55444 5.63159 8.66295 5.63159 12.4975C5.63159 16.332 8.74971 19.4405 12.5961 19.4405Z" fill="white"/>
<path d="M51.2467 0.060791H33.0576V5.87368H45.2277C45.6751 5.87368 46.0411 6.23857 46.0411 6.68455V18.3712C46.0411 18.8171 45.6751 19.182 45.2277 19.182H33.0576V24.9949H51.2467C51.694 24.9949 52.0601 24.63 52.0601 24.184V0.871657C52.0601 0.425681 51.694 0.060791 51.2467 0.060791Z" fill="#03CF5D"/>
<path d="M33.0576 5.87368V0.060791H27.8571C27.4097 0.060791 27.0437 0.425681 27.0437 0.871657V24.1891C27.0437 24.6351 27.4097 25 27.8571 25H33.0576V5.87368Z" fill="#F1F1F1"/>
</g>
<defs>
<clipPath id="clip0_924_6201">
<rect width="52" height="25" fill="white" transform="translate(0.0600586)"/>
</clipPath>
</defs>
</svg>
