<svg width="333" height="59" viewBox="0 0 333 59" fill="none" xmlns="http://www.w3.org/2000/svg">
<path d="M37.8735 29.4885H314.788" stroke="#03CF5D" stroke-linecap="round" stroke-linejoin="round"/>
<circle cx="97.8047" cy="29.4888" r="28.9888" fill="#03CF5D" stroke="white" stroke-dasharray="2 2"/>
<circle cx="29.4888" cy="29.4888" r="28.9888" fill="#03CF5D" stroke="white" stroke-dasharray="2 2"/>
<circle cx="234.436" cy="29.4888" r="28.9888" fill="#03CF5D" stroke="white" stroke-dasharray="2 2"/>
<circle cx="166.12" cy="29.4888" r="28.9888" fill="#03CF5D" stroke="white"/>
<circle cx="302.752" cy="29.4888" r="28.9888" fill="#03CF5D" stroke="white" stroke-dasharray="2 2"/>
<path d="M23.1233 24.2437V25.6719H16.801V24.4531L19.7908 21.2476C20.0912 20.9132 20.3282 20.6191 20.5017 20.3652C20.6752 20.1071 20.8001 19.8765 20.8762 19.6733C20.9566 19.466 20.9968 19.2692 20.9968 19.083C20.9968 18.8037 20.9503 18.5646 20.8572 18.3657C20.7641 18.1626 20.6266 18.006 20.4446 17.896C20.2669 17.786 20.0468 17.731 19.7844 17.731C19.5051 17.731 19.2639 17.7987 19.0608 17.9341C18.8619 18.0695 18.7096 18.2578 18.6038 18.499C18.5022 18.7402 18.4514 19.0132 18.4514 19.3179H16.617C16.617 18.7677 16.7481 18.2642 17.0105 17.8071C17.2729 17.3459 17.6432 16.9798 18.1213 16.709C18.5995 16.4339 19.1666 16.2964 19.8225 16.2964C20.47 16.2964 21.0159 16.4022 21.4602 16.6138C21.9088 16.8211 22.2473 17.1216 22.4758 17.5151C22.7086 17.9045 22.825 18.37 22.825 18.9116C22.825 19.2163 22.7763 19.5146 22.679 19.8066C22.5816 20.0944 22.442 20.3822 22.26 20.6699C22.0823 20.9535 21.8665 21.2412 21.6126 21.5332C21.3587 21.8252 21.0772 22.1278 20.7683 22.4409L19.1624 24.2437H23.1233ZM25.2408 24.2817H25.3614C25.8692 24.2817 26.3051 24.2204 26.669 24.0977C27.0372 23.9707 27.3398 23.7887 27.5767 23.5518C27.8137 23.3148 27.9893 23.0249 28.1036 22.6821C28.2179 22.3351 28.275 21.9416 28.275 21.5015V19.7495C28.275 19.4152 28.2411 19.1211 28.1734 18.8672C28.1099 18.6133 28.0168 18.4038 27.8941 18.2388C27.7756 18.0695 27.636 17.9425 27.4752 17.8579C27.3186 17.7733 27.1451 17.731 26.9547 17.731C26.7515 17.731 26.5717 17.7817 26.4151 17.8833C26.2585 17.9806 26.1252 18.1139 26.0152 18.2832C25.9094 18.4525 25.8269 18.6471 25.7677 18.8672C25.7126 19.083 25.6851 19.3094 25.6851 19.5464C25.6851 19.7834 25.7126 20.0098 25.7677 20.2256C25.8227 20.4372 25.9052 20.6255 26.0152 20.7905C26.1252 20.9513 26.2628 21.0804 26.4278 21.1777C26.5929 21.2708 26.7875 21.3174 27.0118 21.3174C27.2276 21.3174 27.4202 21.2772 27.5894 21.1968C27.7629 21.1121 27.9089 21.0021 28.0274 20.8667C28.1501 20.7313 28.2432 20.5811 28.3067 20.416C28.3744 20.251 28.4083 20.0838 28.4083 19.9146L29.0113 20.2446C29.0113 20.5409 28.9478 20.8328 28.8209 21.1206C28.6939 21.4084 28.5162 21.6707 28.2877 21.9077C28.0634 22.1405 27.8031 22.3267 27.5069 22.4663C27.2107 22.606 26.8933 22.6758 26.5548 22.6758C26.1231 22.6758 25.7402 22.5975 25.4058 22.4409C25.0715 22.2801 24.788 22.0601 24.5553 21.7808C24.3267 21.4972 24.1532 21.1672 24.0347 20.7905C23.9163 20.4139 23.857 20.0055 23.857 19.5654C23.857 19.1169 23.929 18.6958 24.0728 18.3022C24.2209 17.9087 24.4304 17.5617 24.7013 17.2612C24.9763 16.9608 25.3043 16.7259 25.6851 16.5566C26.0702 16.3831 26.4976 16.2964 26.9674 16.2964C27.4371 16.2964 27.8645 16.3874 28.2496 16.5693C28.6347 16.7513 28.9648 17.0094 29.2398 17.3438C29.5149 17.6738 29.7265 18.0695 29.8746 18.5308C30.0269 18.992 30.1031 19.5041 30.1031 20.0669V20.7017C30.1031 21.3026 30.0375 21.8612 29.9063 22.3774C29.7794 22.8937 29.5868 23.3613 29.3287 23.7803C29.0748 24.195 28.7574 24.5505 28.3765 24.8467C27.9999 25.1429 27.5619 25.3693 27.0626 25.5259C26.5632 25.6825 26.0046 25.7607 25.3868 25.7607H25.2408V24.2817ZM34.369 15.1419C32.536 15.1419 31.158 16.2859 31.158 17.8979C31.158 19.4969 32.536 20.6409 34.369 20.6409C36.202 20.6409 37.58 19.4969 37.58 17.8979C37.58 16.2859 36.202 15.1419 34.369 15.1419ZM34.369 16.5459C35.253 16.5459 35.903 17.0399 35.903 17.8979C35.903 18.7559 35.253 19.2499 34.369 19.2499C33.485 19.2499 32.822 18.7559 32.822 17.8979C32.822 17.0399 33.485 16.5459 34.369 16.5459ZM39.244 14.7909V20.8099H40.986V14.7909H39.244ZM32.952 21.3039V22.6429H39.27V23.3579H32.978V26.0619H34.668V24.6059H40.986V21.3039H32.952ZM32.978 25.3599V26.6989H41.285V25.3599H32.978Z" fill="white"/>
<path d="M25.1531 32.7742V36.7782H33.0571V32.7742H25.1531ZM31.9911 33.6452V35.9072H26.2061V33.6452H31.9911ZM23.7881 38.2472V39.1182H34.4091V38.2472H23.7881ZM28.5721 36.5442V38.5722H29.6381V36.5442H28.5721ZM24.9711 40.3272V41.2112H32.0171V44.0453H33.0961V40.3272H24.9711Z" fill="white"/>
<g filter="url(#filter0_d_1853_6532)">
<circle cx="303.011" cy="30.0112" r="23.0112" fill="white"/>
</g>
<g filter="url(#filter1_d_1853_6532)">
<circle cx="166.119" cy="29.4885" r="23.0112" fill="white"/>
</g>
<g clip-path="url(#clip0_1853_6532)">
<path d="M293.431 39.5503C298.358 39.5503 302.351 35.5217 302.351 30.5521C302.351 25.5826 298.358 21.554 293.431 21.554C288.505 21.554 284.511 25.5826 284.511 30.5521C284.511 35.5217 288.505 39.5503 293.431 39.5503Z" fill="#03CF5D"/>
<path d="M293.431 35.5512C296.168 35.5512 298.387 33.3131 298.387 30.5522C298.387 27.7913 296.168 25.5532 293.431 25.5532C290.694 25.5532 288.476 27.7913 288.476 30.5522C288.476 33.3131 290.694 35.5512 293.431 35.5512Z" fill="white"/>
<path d="M320.932 21.5977H307.99V25.7829H316.65C316.968 25.7829 317.228 26.0457 317.228 26.3668V34.7811C317.228 35.1022 316.968 35.3649 316.65 35.3649H307.99V39.5502H320.932C321.251 39.5502 321.511 39.2875 321.511 38.9664V22.1815C321.511 21.8604 321.251 21.5977 320.932 21.5977Z" fill="#03CF5D"/>
<path d="M307.99 25.7829V21.5977H304.29C303.971 21.5977 303.711 21.8604 303.711 22.1815V38.97C303.711 39.2911 303.971 39.5539 304.29 39.5539H307.99V25.7829Z" fill="#787878" fill-opacity="0.2"/>
</g>
<g filter="url(#filter2_d_1853_6532)">
<circle cx="234.011" cy="30.0112" r="23.0112" fill="white"/>
</g>
<g clip-path="url(#clip1_1853_6532)">
<path d="M224.431 39.5503C229.358 39.5503 233.351 35.5217 233.351 30.5521C233.351 25.5826 229.358 21.554 224.431 21.554C219.505 21.554 215.511 25.5826 215.511 30.5521C215.511 35.5217 219.505 39.5503 224.431 39.5503Z" fill="#03CF5D"/>
<path d="M224.431 35.5512C227.168 35.5512 229.387 33.3131 229.387 30.5522C229.387 27.7913 227.168 25.5532 224.431 25.5532C221.694 25.5532 219.476 27.7913 219.476 30.5522C219.476 33.3131 221.694 35.5512 224.431 35.5512Z" fill="white"/>
<path d="M251.932 21.5977H238.99V25.7829H247.65C247.968 25.7829 248.228 26.0457 248.228 26.3668V34.7811C248.228 35.1022 247.968 35.3649 247.65 35.3649H238.99V39.5502H251.932C252.251 39.5502 252.511 39.2875 252.511 38.9664V22.1815C252.511 21.8604 252.251 21.5977 251.932 21.5977Z" fill="#03CF5D"/>
<path d="M238.99 25.7829V21.5977H235.29C234.971 21.5977 234.711 21.8604 234.711 22.1815V38.97C234.711 39.2911 234.971 39.5539 235.29 39.5539H238.99V25.7829Z" fill="#787878" fill-opacity="0.2"/>
</g>
<circle cx="98.0112" cy="30.0112" r="23.0112" fill="white"/>
<g clip-path="url(#clip2_1853_6532)">
<path d="M88.4312 39.5503C93.3575 39.5503 97.3511 35.5217 97.3511 30.5521C97.3511 25.5826 93.3575 21.554 88.4312 21.554C83.5048 21.554 79.5112 25.5826 79.5112 30.5521C79.5112 35.5217 83.5048 39.5503 88.4312 39.5503Z" fill="#03CF5D"/>
<path d="M88.4311 35.5512C91.168 35.5512 93.3866 33.3131 93.3866 30.5522C93.3866 27.7913 91.168 25.5532 88.4311 25.5532C85.6942 25.5532 83.4756 27.7913 83.4756 30.5522C83.4756 33.3131 85.6942 35.5512 88.4311 35.5512Z" fill="white"/>
<path d="M115.932 21.5977H102.99V25.7829H111.65C111.968 25.7829 112.228 26.0457 112.228 26.3668V34.7811C112.228 35.1022 111.968 35.3649 111.65 35.3649H102.99V39.5502H115.932C116.251 39.5502 116.511 39.2875 116.511 38.9664V22.1815C116.511 21.8604 116.251 21.5977 115.932 21.5977Z" fill="#03CF5D"/>
<path d="M102.99 25.7829V21.5977H99.2897C98.9714 21.5977 98.7109 21.8604 98.7109 22.1815V38.97C98.7109 39.2911 98.9714 39.5539 99.2897 39.5539H102.99V25.7829Z" fill="#787878" fill-opacity="0.2"/>
</g>
<g clip-path="url(#clip3_1853_6532)">
<path fill-rule="evenodd" clip-rule="evenodd" d="M165.339 30.3788C165.339 35.3483 161.346 39.377 156.419 39.377C151.493 39.377 147.5 35.3483 147.5 30.3788C147.5 25.4092 151.493 21.3806 156.419 21.3806C161.346 21.3806 165.339 25.4092 165.339 30.3788ZM161.375 30.3789C161.375 33.1397 159.156 35.3779 156.419 35.3779C153.683 35.3779 151.464 33.1397 151.464 30.3789C151.464 27.618 153.683 25.3799 156.419 25.3799C159.156 25.3799 161.375 27.618 161.375 30.3789Z" fill="#03CF5D"/>
<path d="M183.921 21.4243H170.979V25.6096H179.638C179.956 25.6096 180.217 25.8723 180.217 26.1934V34.6078C180.217 34.9289 179.956 35.1916 179.638 35.1916H170.979V39.3769H183.921C184.239 39.3769 184.499 39.1142 184.499 38.7931V22.0081C184.499 21.687 184.239 21.4243 183.921 21.4243Z" fill="#03CF5D"/>
<path d="M170.978 25.6096V21.4243H167.278C166.96 21.4243 166.699 21.687 166.699 22.0081V38.7967C166.699 39.1178 166.96 39.3805 167.278 39.3805H170.978V25.6096Z" fill="#787878" fill-opacity="0.2"/>
</g>
<defs>
<filter id="filter0_d_1853_6532" x="278" y="7" width="50.0225" height="50.0225" filterUnits="userSpaceOnUse" color-interpolation-filters="sRGB">
<feFlood flood-opacity="0" result="BackgroundImageFix"/>
<feColorMatrix in="SourceAlpha" type="matrix" values="0 0 0 0 0 0 0 0 0 0 0 0 0 0 0 0 0 0 127 0" result="hardAlpha"/>
<feOffset dy="2"/>
<feGaussianBlur stdDeviation="1"/>
<feComposite in2="hardAlpha" operator="out"/>
<feColorMatrix type="matrix" values="0 0 0 0 0 0 0 0 0 0 0 0 0 0 0 0 0 0 0.25 0"/>
<feBlend mode="normal" in2="BackgroundImageFix" result="effect1_dropShadow_1853_6532"/>
<feBlend mode="normal" in="SourceGraphic" in2="effect1_dropShadow_1853_6532" result="shape"/>
</filter>
<filter id="filter1_d_1853_6532" x="141.108" y="6.47729" width="50.0225" height="50.0225" filterUnits="userSpaceOnUse" color-interpolation-filters="sRGB">
<feFlood flood-opacity="0" result="BackgroundImageFix"/>
<feColorMatrix in="SourceAlpha" type="matrix" values="0 0 0 0 0 0 0 0 0 0 0 0 0 0 0 0 0 0 127 0" result="hardAlpha"/>
<feOffset dy="2"/>
<feGaussianBlur stdDeviation="1"/>
<feComposite in2="hardAlpha" operator="out"/>
<feColorMatrix type="matrix" values="0 0 0 0 0 0 0 0 0 0 0 0 0 0 0 0 0 0 0.25 0"/>
<feBlend mode="normal" in2="BackgroundImageFix" result="effect1_dropShadow_1853_6532"/>
<feBlend mode="normal" in="SourceGraphic" in2="effect1_dropShadow_1853_6532" result="shape"/>
</filter>
<filter id="filter2_d_1853_6532" x="209" y="7" width="50.0225" height="50.0225" filterUnits="userSpaceOnUse" color-interpolation-filters="sRGB">
<feFlood flood-opacity="0" result="BackgroundImageFix"/>
<feColorMatrix in="SourceAlpha" type="matrix" values="0 0 0 0 0 0 0 0 0 0 0 0 0 0 0 0 0 0 127 0" result="hardAlpha"/>
<feOffset dy="2"/>
<feGaussianBlur stdDeviation="1"/>
<feComposite in2="hardAlpha" operator="out"/>
<feColorMatrix type="matrix" values="0 0 0 0 0 0 0 0 0 0 0 0 0 0 0 0 0 0 0.25 0"/>
<feBlend mode="normal" in2="BackgroundImageFix" result="effect1_dropShadow_1853_6532"/>
<feBlend mode="normal" in="SourceGraphic" in2="effect1_dropShadow_1853_6532" result="shape"/>
</filter>
<clipPath id="clip0_1853_6532">
<rect width="37" height="18" fill="white" transform="translate(284.511 21.554)"/>
</clipPath>
<clipPath id="clip1_1853_6532">
<rect width="37" height="18" fill="white" transform="translate(215.511 21.554)"/>
</clipPath>
<clipPath id="clip2_1853_6532">
<rect width="37" height="18" fill="white" transform="translate(79.5112 21.554)"/>
</clipPath>
<clipPath id="clip3_1853_6532">
<rect width="37" height="18" fill="white" transform="translate(147.5 21.3806)"/>
</clipPath>
</defs>
</svg>
