<svg width="398" height="254" viewBox="0 0 398 254" fill="none" xmlns="http://www.w3.org/2000/svg">
<g filter="url(#filter0_d_1162_6162)">
<rect x="2.64453" y="33.4049" width="392.711" height="216.107" rx="10" fill="white"/>
</g>
<path d="M23.5657 53.9389V55.8289H27.6697C27.3457 58.0609 25.8697 59.7349 22.7737 60.8689L23.8717 62.5969C28.1917 60.9229 30.1357 58.1329 30.1357 53.9389H23.5657ZM25.5997 65.0629H34.7077V69.3829H37.0837V63.1549H25.5997V65.0629ZM34.8337 52.7869V56.6209H33.4117V53.0749H31.1977V62.4169H33.4117V58.5289H34.8337V62.4709H37.0837V52.7869H34.8337ZM52.9443 52.8049H50.5683V61.1569H52.9443V52.8049ZM49.3623 59.1049C46.6803 58.3129 45.4923 56.3869 45.4923 54.4249V53.1829H43.0803V54.4249C43.0803 56.4409 41.8743 58.5289 39.1203 59.3749L40.2723 61.2289C42.2163 60.6349 43.5663 59.3749 44.3223 57.8089C45.0603 59.2489 46.3383 60.4009 48.2283 60.9589L49.3623 59.1049ZM44.2863 67.4029V66.3769H52.9623V61.8949H41.9103V63.7129H50.6043V64.6849H41.9283V69.2389H53.3763V67.4029H44.2863ZM72.8953 57.3409H63.7873V55.1269H72.8053V53.2369H61.4293V59.2129H72.8953V57.3409ZM67.0453 67.5649C64.8313 67.5649 63.6973 67.1869 63.6973 66.3229C63.6973 65.4589 64.8313 65.0629 67.0453 65.0629C69.2593 65.0629 70.3933 65.4589 70.3933 66.3229C70.3933 67.1869 69.2593 67.5649 67.0453 67.5649ZM67.0453 63.2629C63.4633 63.2629 61.3033 64.3609 61.3033 66.3229C61.3033 68.2669 63.4633 69.3649 67.0453 69.3649C70.6273 69.3649 72.8053 68.2669 72.8053 66.3229C72.8053 64.3609 70.6273 63.2629 67.0453 63.2629ZM59.6113 60.3649V62.3089H74.6053V60.3649H59.6113ZM86.6679 67.2769H79.9719V65.7829H86.6679V67.2769ZM86.6679 63.9469H79.9719V62.2189H77.6139V69.1849H89.0439V62.2189H86.6679V63.9469ZM88.7199 59.2489C89.0799 57.3949 89.0799 56.0809 89.0799 54.7849V53.4529H77.6859V55.3429H86.7399C86.7399 56.4409 86.6859 57.6829 86.3619 59.2489H75.8319V61.1569H90.8439V59.2489H88.7199ZM107.717 65.0269H110.093V52.7869H107.717V56.3149H104.675V58.2409H107.717V65.0269ZM106.133 60.7789C103.541 59.8609 102.425 57.7549 102.425 55.5949V53.7949H100.013V55.5769C100.013 57.9349 98.8609 60.2389 96.1249 61.1569L97.3669 63.0109C99.2929 62.3089 100.571 60.9589 101.273 59.2489C101.957 60.7789 103.145 61.9849 104.873 62.6149L106.133 60.7789ZM101.525 67.1869V63.8029H99.1489V69.0769H110.453V67.1869H101.525ZM119.924 60.0049C118.412 60.2389 117.098 60.3289 115.316 60.3469V58.9429H119.384V57.1429H115.316V55.7749H119.546V53.9029H113.03V62.2549H114.182C116.648 62.2549 118.25 62.2009 120.14 61.8949L119.924 60.0049ZM115.19 65.5129H124.226V69.3829H126.602V63.6229H115.19V65.5129ZM124.352 52.7869V56.8549H123.02V53.0749H120.806V62.7949H123.02V58.7449H124.352V62.9029H126.602V52.7869H124.352Z" fill="#1E1E1E"/>
<path d="M61.5359 111.511C59.1389 111.511 57.3369 113.007 57.3369 115.115C57.3369 117.206 59.1389 118.702 61.5359 118.702C63.9329 118.702 65.7349 117.206 65.7349 115.115C65.7349 113.007 63.9329 111.511 61.5359 111.511ZM61.5359 113.347C62.6919 113.347 63.5419 113.993 63.5419 115.115C63.5419 116.237 62.6919 116.883 61.5359 116.883C60.3799 116.883 59.5129 116.237 59.5129 115.115C59.5129 113.993 60.3799 113.347 61.5359 113.347ZM67.9109 111.052V118.923H70.1889V111.052H67.9109ZM59.6829 119.569V121.32H67.9449V122.255H59.7169V125.791H61.9269V123.887H70.1889V119.569H59.6829ZM59.7169 124.873V126.624H70.5799V124.873H59.7169ZM82.5496 111.069V122.646H84.8106V111.069H82.5496ZM84.1646 115.489V117.342H86.9016V115.489H84.1646ZM74.6616 124.72V126.522H85.3716V124.72H74.6616ZM74.6616 121.473V125.111H76.9226V121.473H74.6616ZM72.8766 112.174V120.164H80.4416V112.174H78.1976V114.435H75.1206V112.174H72.8766ZM75.1206 116.152H78.1976V118.396H75.1206V116.152ZM98.5483 111.052V119.008H100.826V111.052H98.5483ZM90.3203 119.705V121.422H98.5823V122.34H90.3543V125.553H92.5643V123.972H100.826V119.705H90.3203ZM90.3543 124.941V126.692H101.217V124.941H90.3543ZM91.4253 111.409V112.599C91.4253 114.52 90.3033 116.492 87.6683 117.291L88.7563 119.076C91.8333 118.141 93.2953 115.506 93.2953 112.599V111.409H91.4253ZM91.8843 111.409V112.599C91.8843 115.438 93.2953 117.903 96.3213 118.787L97.4093 117.036C94.8423 116.305 93.7373 114.469 93.7373 112.599V111.409H91.8843Z" fill="#1E1E1E"/>
<path d="M57.0819 196.966V198.751H71.3279V196.966H57.0819ZM58.6799 199.754V201.539H67.3329V204.531H69.5939V199.754H58.6799ZM58.8499 194.297V196.014H69.8149V194.297H58.8499ZM58.8499 189.146V195.164H61.0939V190.863H69.6959V189.146H58.8499ZM60.4649 191.73V193.379H69.3389V191.73H60.4649ZM83.2296 188.789V196.745H85.5076V188.789H83.2296ZM75.0016 197.442V199.159H83.2636V200.077H75.0356V203.29H77.2456V201.709H85.5076V197.442H75.0016ZM75.0356 202.678V204.429H85.8986V202.678H75.0356ZM76.1066 189.146V190.336C76.1066 192.257 74.9846 194.229 72.3496 195.028L73.4376 196.813C76.5146 195.878 77.9766 193.243 77.9766 190.336V189.146H76.1066ZM76.5656 189.146V190.336C76.5656 193.175 77.9766 195.64 81.0026 196.524L82.0906 194.773C79.5236 194.042 78.4186 192.206 78.4186 190.336V189.146H76.5656Z" fill="#1E1E1E"/>
<path d="M22.7644 0.24772V10.0037H25.0324V0.24772H22.7644ZM20.7304 4.08172V6.02572H23.3944V4.08172H20.7304ZM19.1284 0.55372V9.94972H21.3604V0.55372H19.1284ZM13.4764 10.6877V12.5957H22.6564V16.9157H25.0324V10.6877H13.4764ZM15.6544 1.39972V2.29972C15.6544 5.03572 14.1964 7.05172 10.6504 8.36572L11.7664 10.1117C16.0864 8.41972 18.0484 5.61172 18.0484 1.39972H15.6544ZM11.4424 1.39972V3.30772H16.4284V1.39972H11.4424ZM38.5169 0.24772V8.67172H40.9289V0.24772H38.5169ZM29.8049 9.40972V11.2277H38.5529V12.1997H29.8409V15.6017H32.1809V13.9277H40.9289V9.40972H29.8049ZM29.8409 14.9537V16.8077H41.3429V14.9537H29.8409ZM30.9749 0.62572V1.88572C30.9749 3.91972 29.7869 6.00772 26.9969 6.85372L28.1489 8.74372C31.4069 7.75372 32.9549 4.96372 32.9549 1.88572V0.62572H30.9749ZM31.4609 0.62572V1.88572C31.4609 4.89172 32.9549 7.50172 36.1589 8.43772L37.3109 6.58372C34.5929 5.80972 33.4229 3.86572 33.4229 1.88572V0.62572H31.4609ZM49.0387 2.51685L44.3454 16.4124H42.4645L47.1579 2.51685H49.0387ZM53.4472 2.22772V3.14572C53.4472 5.08972 52.2592 7.01572 49.5592 7.82572L50.7292 9.67972C53.8792 8.74372 55.3912 6.11572 55.3912 3.14572V2.22772H53.4472ZM53.9332 2.22772V3.14572C53.9332 5.97172 55.4092 8.47372 58.5412 9.37372L59.6572 7.51972C57.0112 6.74572 55.8772 4.94572 55.8772 3.14572V2.22772H53.9332ZM50.1532 1.56172V3.50572H59.1712V1.56172H50.1532ZM53.4652 8.95972V12.5417H55.8592V8.95972H53.4652ZM62.0872 6.81772V8.81572H65.0212V6.81772H62.0872ZM60.4312 0.24772V16.9157H62.8252V0.24772H60.4312ZM49.7752 13.7477C52.5652 13.7657 56.2732 13.7657 59.7472 13.1177L59.5672 11.3717C56.2552 11.8397 52.3492 11.8217 49.4872 11.8217L49.7752 13.7477ZM74.4198 3.34372V5.28772H77.8038V3.34372H74.4198ZM69.7218 1.11172V2.67772C69.7218 4.92772 68.5878 7.12372 65.7978 8.04172L67.0578 9.93172C70.2258 8.83372 71.6838 5.97172 71.6838 2.67772V1.11172H69.7218ZM70.2078 1.11172V2.82172C70.2078 5.89972 71.5938 8.59972 74.6178 9.64372L75.8598 7.77172C73.2498 6.92572 72.1338 4.89172 72.1338 2.82172V1.11172H70.2078ZM68.4978 10.9217V12.8117H77.4618V16.9157H79.8558V10.9217H68.4978ZM77.4618 0.24772V10.1657H79.8558V0.24772H77.4618ZM94.8208 3.79372V5.71972H98.6908V3.79372H94.8208ZM90.1228 1.27372V3.07372C90.1228 5.43172 88.9708 7.73572 86.2168 8.65372L87.4768 10.5257C90.6268 9.37372 92.0488 6.47572 92.0488 3.07372V1.27372H90.1228ZM90.6448 1.27372V3.09172C90.6448 6.24172 92.0128 9.03172 95.0008 10.1117L96.2788 8.27572C93.6508 7.37572 92.5528 5.23372 92.5528 3.09172V1.27372H90.6448ZM97.8628 0.26572V12.5597H100.257V0.26572H97.8628ZM89.2228 14.7197V16.6277H100.617V14.7197H89.2228ZM89.2228 11.3177V15.7817H91.6348V11.3177H89.2228ZM103.103 7.84372V9.78772H104.255C106.739 9.78772 108.359 9.73372 110.267 9.40972L110.051 7.50172C108.215 7.80772 106.667 7.84372 104.255 7.84372H103.103ZM103.103 1.36372V8.90572H105.407V3.27172H109.673V1.36372H103.103ZM104.723 4.62172V6.42172H109.493V4.62172H104.723ZM114.479 0.24772V10.4177H116.747V0.24772H114.479ZM112.481 4.33372V6.24172H115.127V4.33372H112.481ZM110.915 0.55372V10.3097H113.147V0.55372H110.915ZM105.299 11.1377V13.0457H114.371V16.9157H116.747V11.1377H105.299Z" fill="white"/>
<path d="M142.256 62.5682V62.495C142.256 61.4305 142.376 60.4686 142.615 59.6093C142.855 58.745 143.16 57.9882 143.531 57.3387C143.902 56.6893 144.292 56.1522 144.703 55.7274C145.113 55.2977 145.491 54.9877 145.838 54.7972L146.124 55.6908C145.835 55.9105 145.542 56.2133 145.245 56.599C144.952 56.9847 144.681 57.4584 144.432 58.0199C144.188 58.5814 143.99 59.2333 143.838 59.9755C143.687 60.7177 143.611 61.5526 143.611 62.4803V62.5829C143.611 63.5106 143.687 64.348 143.838 65.0951C143.99 65.8373 144.188 66.4916 144.432 67.058C144.681 67.6244 144.952 68.1053 145.245 68.5009C145.542 68.9012 145.835 69.2186 146.124 69.453L145.838 70.2733C145.491 70.0829 145.113 69.7728 144.703 69.3431C144.292 68.9183 143.902 68.3812 143.531 67.7318C143.16 67.0873 142.855 66.3329 142.615 65.4686C142.376 64.6044 142.256 63.6376 142.256 62.5682ZM157.947 54.4859H156.717V61.4759H157.947V54.4859ZM150.012 56.3609H152.202V59.8559C151.467 59.9009 150.732 59.9309 150.012 59.9459V56.3609ZM155.367 59.6009C154.722 59.6609 154.062 59.7359 153.387 59.7809V56.3609H154.707V55.3859H147.492V56.3609H148.812V59.9759C148.227 59.9909 147.657 59.9909 147.132 59.9909L147.252 61.0109C149.622 60.9959 152.757 60.9059 155.427 60.5009L155.367 59.6009ZM150.417 66.8159V65.3459H157.947V62.1209H149.157V63.0809H156.732V64.4309H149.202V67.7909H158.457V66.8159H150.417ZM171.95 59.6159C169.505 59.2559 167.105 57.5909 167.105 55.7159V54.9659H165.815V55.7159C165.815 57.6359 163.445 59.2559 161 59.6159L161.495 60.6059C163.595 60.2459 165.62 59.0909 166.46 57.4559C167.33 59.0759 169.355 60.2459 171.44 60.6059L171.95 59.6159ZM172.535 62.0609H160.385V63.0809H165.815V67.9559H167.045V63.0809H172.55L172.535 62.0609ZM177.207 62.495V62.5682C177.207 63.6376 177.087 64.6044 176.848 65.4686C176.609 66.3329 176.304 67.0873 175.933 67.7318C175.562 68.3812 175.171 68.9183 174.761 69.3431C174.351 69.7728 173.972 70.0829 173.625 70.2733L173.34 69.453C173.628 69.2333 173.918 68.9257 174.211 68.5302C174.504 68.1395 174.775 67.6561 175.024 67.08C175.273 66.5087 175.474 65.8495 175.625 65.1024C175.776 64.3505 175.852 63.5106 175.852 62.5829V62.4803C175.852 61.5526 175.771 60.7152 175.61 59.9681C175.449 59.2162 175.239 58.5546 174.98 57.9833C174.727 57.412 174.453 56.931 174.16 56.5404C173.872 56.1449 173.599 55.8397 173.34 55.6249L173.625 54.7972C173.972 54.9877 174.351 55.2977 174.761 55.7274C175.171 56.1522 175.562 56.6893 175.933 57.3387C176.304 57.9882 176.609 58.745 176.848 59.6093C177.087 60.4686 177.207 61.4305 177.207 62.495Z" fill="#636363"/>
<path d="M63.0039 141.491C63.0789 141.011 63.1239 140.516 63.1239 139.946C63.1239 139.376 63.0789 138.881 63.0039 138.401H64.8339V141.491H63.0039ZM60.2439 143.501C59.1789 143.501 58.4889 142.136 58.4889 139.946C58.4889 137.771 59.1789 136.406 60.2439 136.406C61.3239 136.406 61.9989 137.771 61.9989 139.946C61.9989 142.136 61.3239 143.501 60.2439 143.501ZM64.8339 137.396H62.7489C62.2839 136.046 61.4139 135.266 60.2439 135.266C58.5039 135.266 57.3789 137.066 57.3789 139.946C57.3789 142.841 58.5039 144.641 60.2439 144.641C61.4139 144.641 62.2689 143.861 62.7489 142.511H64.8339V146.936H66.0039V134.441H64.8339V137.396ZM67.4739 134.141V147.596H68.6439V134.141H67.4739ZM72.3278 136.676H75.1478V143.006H72.3278V136.676ZM71.1728 143.981H76.2878V135.701H71.1728V143.981ZM80.9528 134.141V139.466H79.1378V134.441H77.9828V146.921H79.1378V140.471H80.9528V147.581H82.1228V134.141H80.9528ZM84.8916 135.581V136.601H89.8266C89.5416 139.781 87.6966 142.361 84.2616 144.086L84.9366 145.046C89.2866 142.871 91.0416 139.406 91.0416 135.581H84.8916ZM96.6816 139.601H94.5216V134.141H93.2916V147.596H94.5216V140.621H96.6816V139.601ZM108.435 137.891H100.53V134.426H99.3004V138.881H108.435V137.891ZM103.725 146.591C101.61 146.591 100.365 146.036 100.365 145.106C100.365 144.146 101.61 143.606 103.725 143.606C105.84 143.606 107.085 144.146 107.085 145.106C107.085 146.036 105.825 146.591 103.725 146.591ZM103.725 142.646C100.86 142.646 99.1204 143.531 99.1204 145.106C99.1204 146.666 100.86 147.551 103.725 147.551C106.59 147.551 108.33 146.666 108.33 145.106C108.33 143.531 106.59 142.646 103.725 142.646ZM97.6654 140.441V141.446H109.83V140.441H97.6654Z" fill="#636363"/>
<path d="M300.739 123.381C302.809 123.381 304.159 124.026 304.159 125.091C304.159 126.141 302.809 126.786 300.739 126.786C298.684 126.786 297.319 126.141 297.319 125.091C297.319 124.026 298.684 123.381 300.739 123.381ZM300.739 127.791C303.589 127.791 305.449 126.756 305.449 125.091C305.449 123.426 303.589 122.391 300.739 122.391C297.889 122.391 296.029 123.426 296.029 125.091C296.029 126.756 297.889 127.791 300.739 127.791ZM297.439 131.271H296.209V135.201H305.509V134.181H297.439V131.271ZM294.649 128.871V129.876H300.229V132.591H301.474V129.876H306.844V128.871H294.649ZM317.953 122.061V129.756H319.183V122.061H317.953ZM310.483 130.476V135.321H319.183V130.476H310.483ZM317.983 131.451V134.331H311.683V131.451H317.983ZM311.953 122.766C309.928 122.766 308.458 124.041 308.458 125.901C308.458 127.761 309.928 129.036 311.953 129.036C313.993 129.036 315.478 127.761 315.478 125.901C315.478 124.041 313.993 122.766 311.953 122.766ZM311.953 123.786C313.303 123.786 314.278 124.671 314.278 125.901C314.278 127.146 313.303 128.016 311.953 128.016C310.618 128.016 309.658 127.146 309.658 125.901C309.658 124.671 310.618 123.786 311.953 123.786ZM325.837 129.591C326.392 129.726 327.037 129.801 327.697 129.801C328.372 129.801 329.017 129.726 329.587 129.591V132.756H325.837V129.591ZM327.697 123.861C329.857 123.861 331.417 124.851 331.417 126.351C331.417 127.851 329.857 128.841 327.697 128.841C325.537 128.841 323.992 127.851 323.992 126.351C323.992 124.851 325.537 123.861 327.697 123.861ZM330.817 132.756V129.111C331.927 128.526 332.587 127.566 332.587 126.351C332.587 124.251 330.562 122.901 327.697 122.901C324.847 122.901 322.807 124.251 322.807 126.351C322.807 127.566 323.482 128.541 324.607 129.126V132.756H321.607V133.776H333.832V132.756H330.817ZM337.8 131.526H344.565V134.331H337.8V131.526ZM336.6 135.321H345.78V130.536H336.6V135.321ZM345.375 127.716C345.735 126.036 345.735 124.806 345.735 123.756V122.766H336.645V123.756H344.52C344.52 124.806 344.52 126.036 344.13 127.716H335.085V128.706H347.31V127.716H345.375Z" fill="#636363"/>
<path d="M300.739 203.173C302.809 203.173 304.159 203.818 304.159 204.883C304.159 205.933 302.809 206.578 300.739 206.578C298.684 206.578 297.319 205.933 297.319 204.883C297.319 203.818 298.684 203.173 300.739 203.173ZM300.739 207.583C303.589 207.583 305.449 206.548 305.449 204.883C305.449 203.218 303.589 202.183 300.739 202.183C297.889 202.183 296.029 203.218 296.029 204.883C296.029 206.548 297.889 207.583 300.739 207.583ZM297.439 211.063H296.209V214.993H305.509V213.973H297.439V211.063ZM294.649 208.663V209.668H300.229V212.383H301.474V209.668H306.844V208.663H294.649ZM317.953 201.853V209.548H319.183V201.853H317.953ZM310.483 210.268V215.113H319.183V210.268H310.483ZM317.983 211.243V214.123H311.683V211.243H317.983ZM311.953 202.558C309.928 202.558 308.458 203.833 308.458 205.693C308.458 207.553 309.928 208.828 311.953 208.828C313.993 208.828 315.478 207.553 315.478 205.693C315.478 203.833 313.993 202.558 311.953 202.558ZM311.953 203.578C313.303 203.578 314.278 204.463 314.278 205.693C314.278 206.938 313.303 207.808 311.953 207.808C310.618 207.808 309.658 206.938 309.658 205.693C309.658 204.463 310.618 203.578 311.953 203.578ZM325.837 209.383C326.392 209.518 327.037 209.593 327.697 209.593C328.372 209.593 329.017 209.518 329.587 209.383V212.548H325.837V209.383ZM327.697 203.653C329.857 203.653 331.417 204.643 331.417 206.143C331.417 207.643 329.857 208.633 327.697 208.633C325.537 208.633 323.992 207.643 323.992 206.143C323.992 204.643 325.537 203.653 327.697 203.653ZM330.817 212.548V208.903C331.927 208.318 332.587 207.358 332.587 206.143C332.587 204.043 330.562 202.693 327.697 202.693C324.847 202.693 322.807 204.043 322.807 206.143C322.807 207.358 323.482 208.333 324.607 208.918V212.548H321.607V213.568H333.832V212.548H330.817ZM337.8 211.318H344.565V214.123H337.8V211.318ZM336.6 215.113H345.78V210.328H336.6V215.113ZM345.375 207.508C345.735 205.828 345.735 204.598 345.735 203.548V202.558H336.645V203.548H344.52C344.52 204.598 344.52 205.828 344.13 207.508H335.085V208.498H347.31V207.508H345.375Z" fill="#636363"/>
<path d="M63.0039 218.085C63.0789 217.605 63.1239 217.11 63.1239 216.54C63.1239 215.97 63.0789 215.475 63.0039 214.995H64.8339V218.085H63.0039ZM60.2439 220.095C59.1789 220.095 58.4889 218.73 58.4889 216.54C58.4889 214.365 59.1789 213 60.2439 213C61.3239 213 61.9989 214.365 61.9989 216.54C61.9989 218.73 61.3239 220.095 60.2439 220.095ZM64.8339 213.99H62.7489C62.2839 212.64 61.4139 211.86 60.2439 211.86C58.5039 211.86 57.3789 213.66 57.3789 216.54C57.3789 219.435 58.5039 221.235 60.2439 221.235C61.4139 221.235 62.2689 220.455 62.7489 219.105H64.8339V223.53H66.0039V211.035H64.8339V213.99ZM67.4739 210.735V224.19H68.6439V210.735H67.4739ZM72.3278 213.27H75.1478V219.6H72.3278V213.27ZM71.1728 220.575H76.2878V212.295H71.1728V220.575ZM80.9528 210.735V216.06H79.1378V211.035H77.9828V223.515H79.1378V217.065H80.9528V224.175H82.1228V210.735H80.9528ZM84.8916 212.175V213.195H89.8266C89.5416 216.375 87.6966 218.955 84.2616 220.68L84.9366 221.64C89.2866 219.465 91.0416 216 91.0416 212.175H84.8916ZM96.6816 216.195H94.5216V210.735H93.2916V224.19H94.5216V217.215H96.6816V216.195ZM108.435 214.485H100.53V211.02H99.3004V215.475H108.435V214.485ZM103.725 223.185C101.61 223.185 100.365 222.63 100.365 221.7C100.365 220.74 101.61 220.2 103.725 220.2C105.84 220.2 107.085 220.74 107.085 221.7C107.085 222.63 105.825 223.185 103.725 223.185ZM103.725 219.24C100.86 219.24 99.1204 220.125 99.1204 221.7C99.1204 223.26 100.86 224.145 103.725 224.145C106.59 224.145 108.33 223.26 108.33 221.7C108.33 220.125 106.59 219.24 103.725 219.24ZM97.6654 217.035V218.04H109.83V217.035H97.6654Z" fill="#636363"/>
<circle cx="34.2345" cy="130.421" r="10.7872" fill="white" stroke="#787878" stroke-width="0.5"/>
<path d="M29.2256 129.3L33.1123 133.486L39.2431 127.356" stroke="#787878" stroke-linecap="round" stroke-linejoin="round"/>
<circle cx="34.2345" cy="208.158" r="10.7872" fill="white" stroke="#787878" stroke-width="0.5"/>
<path d="M29.2256 207.037L33.1123 211.223L39.2431 205.093" stroke="#787878" stroke-linecap="round" stroke-linejoin="round"/>
<rect x="356.218" y="120.705" width="18.8867" height="18.8867" rx="1.75" fill="white" stroke="#787878" stroke-width="0.5"/>
<rect x="356.218" y="198.943" width="18.8867" height="18.8867" rx="1.75" fill="white" stroke="#787878" stroke-width="0.5"/>
<path d="M361.486 128.807L365.59 132.769L369.694 128.807" stroke="#787878" stroke-linecap="round" stroke-linejoin="round"/>
<path d="M360.027 64.1334L365.59 58.7622L371.154 64.1334" stroke="#787878" stroke-width="2" stroke-linecap="round" stroke-linejoin="round"/>
<path d="M361.486 207.045L365.59 211.007L369.694 207.045" stroke="#787878" stroke-linecap="round" stroke-linejoin="round"/>
<line opacity="0.6" x1="23.0615" y1="168.287" x2="374.939" y2="168.287" stroke="#787878" stroke-linecap="round"/>
<line opacity="0.6" x1="2.49121" y1="91.0962" x2="395.51" y2="91.0962" stroke="#787878" stroke-linecap="round"/>
<defs>
<filter id="filter0_d_1162_6162" x="0.644531" y="33.4049" width="396.711" height="220.107" filterUnits="userSpaceOnUse" color-interpolation-filters="sRGB">
<feFlood flood-opacity="0" result="BackgroundImageFix"/>
<feColorMatrix in="SourceAlpha" type="matrix" values="0 0 0 0 0 0 0 0 0 0 0 0 0 0 0 0 0 0 127 0" result="hardAlpha"/>
<feOffset dy="2"/>
<feGaussianBlur stdDeviation="1"/>
<feComposite in2="hardAlpha" operator="out"/>
<feColorMatrix type="matrix" values="0 0 0 0 0 0 0 0 0 0 0 0 0 0 0 0 0 0 0.25 0"/>
<feBlend mode="normal" in2="BackgroundImageFix" result="effect1_dropShadow_1162_6162"/>
<feBlend mode="normal" in="SourceGraphic" in2="effect1_dropShadow_1162_6162" result="shape"/>
</filter>
</defs>
</svg>
