<svg width="65" height="37" viewBox="0 0 65 37" fill="none" xmlns="http://www.w3.org/2000/svg">
<path d="M48.5252 21.6316H46.8855C46.37 21.6316 45.9521 22.0494 45.9521 22.5649C45.9523 23.0805 46.3701 23.4983 46.8855 23.4983H48.5252C49.0408 23.4983 49.4586 23.0805 49.4586 22.5649C49.4586 22.0494 49.0408 21.6316 48.5252 21.6316Z" fill="#03CF5D"/>
<path d="M64.0537 16.3196C64.0474 16.1625 64.0297 16.0055 63.9992 15.852L61.9081 5.26908C61.9079 5.26871 61.9078 5.26833 61.9078 5.26796L61.4927 3.16737C61.214 1.75654 59.9678 0.732422 58.5296 0.732422H3.42032C1.74997 0.732298 0.391113 2.09128 0.391113 3.76163V28.7049C0.391113 30.3753 1.74997 31.7341 3.42032 31.7341H6.37666C6.82741 34.672 9.37216 36.9294 12.4342 36.9294C15.4962 36.9294 18.041 34.6722 18.4917 31.7341H20.8954C21.4108 31.7341 21.8287 31.3163 21.8287 30.8008C21.8287 30.2852 21.4109 29.8674 20.8954 29.8674H18.4916C18.0409 26.9296 15.4961 24.6722 12.4341 24.6722C9.37204 24.6722 6.82729 26.9295 6.37653 29.8674H3.42032C2.77919 29.8674 2.25768 29.3458 2.25768 28.7048V3.76163C2.25768 3.1205 2.77919 2.59886 3.42032 2.59886H58.5294C59.0788 2.59886 59.5548 2.99006 59.6615 3.5291L59.8566 4.51666H47.6022C46.6925 4.51666 45.9524 5.25677 45.9524 6.16649V16.233C45.9524 17.18 46.4058 18.0784 47.1652 18.6361C48.9932 19.979 53.0803 21.6385 62.1898 22.0494V28.3126C62.1898 29.1701 61.4922 29.8677 60.6348 29.8677H58.0709C57.62 26.9299 55.0753 24.6725 52.0132 24.6725C48.9512 24.6725 46.4065 26.9297 45.9557 29.8677H25.2382C24.7227 29.8677 24.3048 30.2855 24.3048 30.801C24.3048 31.3166 24.7226 31.7344 25.2382 31.7344H45.9559C46.4067 34.6723 48.9514 36.9297 52.0134 36.9297C55.0756 36.9297 57.6202 34.6724 58.0711 31.7344H60.635C62.5217 31.7344 64.0566 30.1994 64.0566 28.3127V16.4378V16.4376C64.0565 16.3981 64.0551 16.3588 64.0537 16.3196ZM12.4342 26.539C14.7842 26.539 16.696 28.4509 16.696 30.8009C16.696 33.1509 14.7842 35.0629 12.4342 35.0629C10.0842 35.0629 8.17234 33.1509 8.17234 30.8009C8.17234 28.4509 10.0842 26.539 12.4342 26.539ZM52.0134 35.0627C49.6634 35.0627 47.7516 33.1508 47.7516 30.8008C47.7516 28.4507 49.6634 26.5389 52.0134 26.5389C54.3635 26.5389 56.2754 28.4507 56.2754 30.8008C56.2753 33.1508 54.3635 35.0627 52.0134 35.0627ZM47.8191 16.233V6.38335H60.2254L62.1679 16.2143C62.1714 16.2318 62.1732 16.2497 62.1758 16.2675C62.1835 16.3194 62.1885 16.3717 62.1891 16.4241C62.1891 16.4287 62.1897 16.4332 62.1897 16.4376V20.1808C53.1493 19.764 49.5958 18.1055 48.2704 17.1317C47.9878 16.9242 47.8191 16.5882 47.8191 16.233Z" fill="#03CF5D"/>
<path d="M21.6334 4.51697H6.01052C5.18971 4.51697 4.52197 5.18471 4.52197 6.00552V16.5078C4.52197 17.3286 5.18971 17.9964 6.01052 17.9964H21.6334C22.4542 17.9964 23.122 17.3286 23.122 16.5078V6.00552C23.122 5.18471 22.4542 4.51697 21.6334 4.51697ZM12.8886 16.1298H6.38854V6.38353H12.8886V16.1298ZM21.2554 16.1298H14.7553V6.38353H21.2554V16.1298Z" fill="#03CF5D"/>
<path d="M42.1213 4.51697H26.4983C25.6775 4.51697 25.0098 5.18471 25.0098 6.00552V16.5078C25.0098 17.3286 25.6775 17.9964 26.4983 17.9964H42.1213C42.9421 17.9964 43.6099 17.3286 43.6099 16.5078V6.00552C43.6099 5.18471 42.9421 4.51697 42.1213 4.51697ZM41.7433 16.1298H35.2431V12.5925C35.2431 12.077 34.8253 11.6592 34.3098 11.6592C33.7942 11.6592 33.3764 12.077 33.3764 12.5925V16.1298H26.8763V6.38353H33.3764V8.24973C33.3764 8.76527 33.7942 9.18307 34.3098 9.18307C34.8253 9.18307 35.2431 8.76527 35.2431 8.24973V6.38353H41.7433V16.1298Z" fill="#03CF5D"/>
</svg>
