<svg width="333" height="59" viewBox="0 0 333 59" fill="none" xmlns="http://www.w3.org/2000/svg">
<path d="M37.8735 29.4885H314.788" stroke="#03CF5D" stroke-linecap="round" stroke-linejoin="round"/>
<circle cx="97.8047" cy="29.4888" r="28.9888" fill="#03CF5D" stroke="white" stroke-dasharray="2 2"/>
<circle cx="29.4888" cy="29.4888" r="28.9888" fill="#03CF5D" stroke="white" stroke-dasharray="2 2"/>
<circle cx="234.436" cy="29.4888" r="28.9888" fill="#03CF5D" stroke="white" stroke-dasharray="2 2"/>
<circle cx="166.12" cy="29.4888" r="28.9888" fill="#03CF5D" stroke="white"/>
<circle cx="302.752" cy="29.4888" r="28.9888" fill="#03CF5D" stroke="white" stroke-dasharray="2 2"/>
<path d="M23.1233 24.2437V25.6719H16.801V24.4531L19.7908 21.2476C20.0912 20.9132 20.3282 20.6191 20.5017 20.3652C20.6752 20.1071 20.8001 19.8765 20.8762 19.6733C20.9566 19.466 20.9968 19.2692 20.9968 19.083C20.9968 18.8037 20.9503 18.5646 20.8572 18.3657C20.7641 18.1626 20.6266 18.006 20.4446 17.896C20.2669 17.786 20.0468 17.731 19.7844 17.731C19.5051 17.731 19.2639 17.7987 19.0608 17.9341C18.8619 18.0695 18.7096 18.2578 18.6038 18.499C18.5022 18.7402 18.4514 19.0132 18.4514 19.3179H16.617C16.617 18.7677 16.7481 18.2642 17.0105 17.8071C17.2729 17.3459 17.6432 16.9798 18.1213 16.709C18.5995 16.4339 19.1666 16.2964 19.8225 16.2964C20.47 16.2964 21.0159 16.4022 21.4602 16.6138C21.9088 16.8211 22.2473 17.1216 22.4758 17.5151C22.7086 17.9045 22.825 18.37 22.825 18.9116C22.825 19.2163 22.7763 19.5146 22.679 19.8066C22.5816 20.0944 22.442 20.3822 22.26 20.6699C22.0823 20.9535 21.8665 21.2412 21.6126 21.5332C21.3587 21.8252 21.0772 22.1278 20.7683 22.4409L19.1624 24.2437H23.1233ZM30.1729 23.1392C30.1729 23.7189 30.0375 24.2077 29.7667 24.6055C29.4958 24.999 29.1235 25.2974 28.6495 25.5005C28.1798 25.6994 27.6466 25.7988 27.0499 25.7988C26.4532 25.7988 25.9179 25.6994 25.4439 25.5005C24.97 25.2974 24.5955 24.999 24.3204 24.6055C24.0453 24.2077 23.9078 23.7189 23.9078 23.1392C23.9078 22.7498 23.9861 22.3986 24.1427 22.0854C24.2992 21.7681 24.5172 21.4972 24.7965 21.2729C25.08 21.0444 25.4122 20.8709 25.793 20.7524C26.1739 20.6297 26.5886 20.5684 27.0372 20.5684C27.6381 20.5684 28.1755 20.6742 28.6495 20.8857C29.1235 21.0973 29.4958 21.3957 29.7667 21.7808C30.0375 22.1659 30.1729 22.6187 30.1729 23.1392ZM28.3321 23.0186C28.3321 22.735 28.2771 22.4917 28.1671 22.2886C28.0613 22.0812 27.9111 21.9225 27.7164 21.8125C27.5217 21.7025 27.2953 21.6475 27.0372 21.6475C26.7791 21.6475 26.5527 21.7025 26.358 21.8125C26.1633 21.9225 26.011 22.0812 25.901 22.2886C25.7952 22.4917 25.7423 22.735 25.7423 23.0186C25.7423 23.2979 25.7952 23.5391 25.901 23.7422C26.011 23.9453 26.1633 24.1019 26.358 24.2119C26.5569 24.3177 26.7875 24.3706 27.0499 24.3706C27.3123 24.3706 27.5387 24.3177 27.7291 24.2119C27.9237 24.1019 28.0719 23.9453 28.1734 23.7422C28.2792 23.5391 28.3321 23.2979 28.3321 23.0186ZM29.9762 18.8799C29.9762 19.3496 29.8513 19.7664 29.6016 20.1304C29.352 20.4901 29.005 20.7715 28.5606 20.9746C28.1205 21.1777 27.6169 21.2793 27.0499 21.2793C26.4786 21.2793 25.9708 21.1777 25.5264 20.9746C25.0821 20.7715 24.7351 20.4901 24.4854 20.1304C24.2358 19.7664 24.1109 19.3496 24.1109 18.8799C24.1109 18.3213 24.2358 17.8516 24.4854 17.4707C24.7393 17.0856 25.0863 16.7936 25.5264 16.5947C25.9708 16.3958 26.4744 16.2964 27.0372 16.2964C27.6085 16.2964 28.1142 16.3958 28.5543 16.5947C28.9986 16.7936 29.3456 17.0856 29.5953 17.4707C29.8492 17.8516 29.9762 18.3213 29.9762 18.8799ZM28.148 18.9624C28.148 18.7127 28.1036 18.4969 28.0147 18.3149C27.9259 18.1287 27.7989 17.9849 27.6339 17.8833C27.4731 17.7817 27.2742 17.731 27.0372 17.731C26.8087 17.731 26.6119 17.7796 26.4469 17.877C26.2861 17.9743 26.1612 18.116 26.0723 18.3022C25.9877 18.4842 25.9454 18.7043 25.9454 18.9624C25.9454 19.2121 25.9877 19.4321 26.0723 19.6226C26.1612 19.8088 26.2882 19.9548 26.4532 20.0605C26.6182 20.1663 26.8171 20.2192 27.0499 20.2192C27.2826 20.2192 27.4794 20.1663 27.6402 20.0605C27.8053 19.9548 27.9301 19.8088 28.0147 19.6226C28.1036 19.4321 28.148 19.2121 28.148 18.9624ZM34.369 15.1419C32.536 15.1419 31.158 16.2859 31.158 17.8979C31.158 19.4969 32.536 20.6409 34.369 20.6409C36.202 20.6409 37.58 19.4969 37.58 17.8979C37.58 16.2859 36.202 15.1419 34.369 15.1419ZM34.369 16.5459C35.253 16.5459 35.903 17.0399 35.903 17.8979C35.903 18.7559 35.253 19.2499 34.369 19.2499C33.485 19.2499 32.822 18.7559 32.822 17.8979C32.822 17.0399 33.485 16.5459 34.369 16.5459ZM39.244 14.7909V20.8099H40.986V14.7909H39.244ZM32.952 21.3039V22.6429H39.27V23.3579H32.978V26.0619H34.668V24.6059H40.986V21.3039H32.952ZM32.978 25.3599V26.6989H41.285V25.3599H32.978Z" fill="white"/>
<path d="M28.5461 32.7092V33.3592C28.5461 35.0362 26.4791 36.4402 24.3341 36.7652L24.7631 37.6362C27.2071 37.2202 29.4951 35.6082 29.4951 33.3592V32.7092H28.5461ZM28.7411 32.7092V33.3592C28.7411 35.5822 31.0421 37.2202 33.4601 37.6362L33.8891 36.7652C31.7701 36.4402 29.6771 34.9972 29.6771 33.3592V32.7092H28.7411ZM28.5461 39.5732V44.0453H29.6121V39.5732H28.5461ZM23.8011 38.9102V39.8072H34.4221V38.9102H23.8011Z" fill="white"/>
<g filter="url(#filter0_d_1853_6532)">
<circle cx="303.011" cy="30.0112" r="23.0112" fill="white"/>
</g>
<g filter="url(#filter1_d_1853_6532)">
<circle cx="166.119" cy="29.4885" r="23.0112" fill="white"/>
</g>
<g clip-path="url(#clip0_1853_6532)">
<path d="M293.431 39.5503C298.358 39.5503 302.351 35.5217 302.351 30.5521C302.351 25.5826 298.358 21.554 293.431 21.554C288.505 21.554 284.511 25.5826 284.511 30.5521C284.511 35.5217 288.505 39.5503 293.431 39.5503Z" fill="#03CF5D"/>
<path d="M293.431 35.5512C296.168 35.5512 298.387 33.3131 298.387 30.5522C298.387 27.7913 296.168 25.5532 293.431 25.5532C290.694 25.5532 288.476 27.7913 288.476 30.5522C288.476 33.3131 290.694 35.5512 293.431 35.5512Z" fill="white"/>
<path d="M320.932 21.5977H307.99V25.7829H316.65C316.968 25.7829 317.228 26.0457 317.228 26.3668V34.7811C317.228 35.1022 316.968 35.3649 316.65 35.3649H307.99V39.5502H320.932C321.251 39.5502 321.511 39.2875 321.511 38.9664V22.1815C321.511 21.8604 321.251 21.5977 320.932 21.5977V21.5977Z" fill="#03CF5D"/>
<path d="M307.99 25.7829V21.5977H304.29C303.971 21.5977 303.711 21.8604 303.711 22.1815V38.97C303.711 39.2911 303.971 39.5539 304.29 39.5539H307.99V25.7829Z" fill="#787878" fill-opacity="0.2"/>
</g>
<g filter="url(#filter2_d_1853_6532)">
<circle cx="234.011" cy="30.0112" r="23.0112" fill="white"/>
</g>
<g clip-path="url(#clip1_1853_6532)">
<path d="M224.431 39.5503C229.358 39.5503 233.351 35.5217 233.351 30.5521C233.351 25.5826 229.358 21.554 224.431 21.554C219.505 21.554 215.511 25.5826 215.511 30.5521C215.511 35.5217 219.505 39.5503 224.431 39.5503Z" fill="#03CF5D"/>
<path d="M224.431 35.5512C227.168 35.5512 229.387 33.3131 229.387 30.5522C229.387 27.7913 227.168 25.5532 224.431 25.5532C221.694 25.5532 219.476 27.7913 219.476 30.5522C219.476 33.3131 221.694 35.5512 224.431 35.5512Z" fill="white"/>
<path d="M251.932 21.5977H238.99V25.7829H247.65C247.968 25.7829 248.228 26.0457 248.228 26.3668V34.7811C248.228 35.1022 247.968 35.3649 247.65 35.3649H238.99V39.5502H251.932C252.251 39.5502 252.511 39.2875 252.511 38.9664V22.1815C252.511 21.8604 252.251 21.5977 251.932 21.5977V21.5977Z" fill="#03CF5D"/>
<path d="M238.99 25.7829V21.5977H235.29C234.971 21.5977 234.711 21.8604 234.711 22.1815V38.97C234.711 39.2911 234.971 39.5539 235.29 39.5539H238.99V25.7829Z" fill="#787878" fill-opacity="0.2"/>
</g>
<circle cx="98.0112" cy="30.0112" r="23.0112" fill="white"/>
<g clip-path="url(#clip2_1853_6532)">
<path d="M88.4312 39.5503C93.3575 39.5503 97.3511 35.5217 97.3511 30.5521C97.3511 25.5826 93.3575 21.554 88.4312 21.554C83.5048 21.554 79.5112 25.5826 79.5112 30.5521C79.5112 35.5217 83.5048 39.5503 88.4312 39.5503Z" fill="#03CF5D"/>
<path d="M88.4311 35.5512C91.168 35.5512 93.3866 33.3131 93.3866 30.5522C93.3866 27.7913 91.168 25.5532 88.4311 25.5532C85.6942 25.5532 83.4756 27.7913 83.4756 30.5522C83.4756 33.3131 85.6942 35.5512 88.4311 35.5512Z" fill="white"/>
<path d="M115.932 21.5977H102.99V25.7829H111.65C111.968 25.7829 112.228 26.0457 112.228 26.3668V34.7811C112.228 35.1022 111.968 35.3649 111.65 35.3649H102.99V39.5502H115.932C116.251 39.5502 116.511 39.2875 116.511 38.9664V22.1815C116.511 21.8604 116.251 21.5977 115.932 21.5977V21.5977Z" fill="#03CF5D"/>
<path d="M102.99 25.7829V21.5977H99.2897C98.9714 21.5977 98.7109 21.8604 98.7109 22.1815V38.97C98.7109 39.2911 98.9714 39.5539 99.2897 39.5539H102.99V25.7829Z" fill="#787878" fill-opacity="0.2"/>
</g>
<g clip-path="url(#clip3_1853_6532)">
<path fill-rule="evenodd" clip-rule="evenodd" d="M165.339 30.3788C165.339 35.3483 161.346 39.377 156.419 39.377C151.493 39.377 147.5 35.3483 147.5 30.3788C147.5 25.4092 151.493 21.3806 156.419 21.3806C161.346 21.3806 165.339 25.4092 165.339 30.3788ZM161.375 30.3789C161.375 33.1397 159.156 35.3779 156.419 35.3779C153.683 35.3779 151.464 33.1397 151.464 30.3789C151.464 27.618 153.683 25.3799 156.419 25.3799C159.156 25.3799 161.375 27.618 161.375 30.3789Z" fill="#03CF5D"/>
<path d="M183.921 21.4243H170.979V25.6096H179.638C179.956 25.6096 180.217 25.8723 180.217 26.1934V34.6078C180.217 34.9289 179.956 35.1916 179.638 35.1916H170.979V39.3769H183.921C184.239 39.3769 184.499 39.1142 184.499 38.7931V22.0081C184.499 21.687 184.239 21.4243 183.921 21.4243V21.4243Z" fill="#03CF5D"/>
<path d="M170.978 25.6096V21.4243H167.278C166.96 21.4243 166.699 21.687 166.699 22.0081V38.7967C166.699 39.1178 166.96 39.3805 167.278 39.3805H170.978V25.6096Z" fill="#787878" fill-opacity="0.2"/>
</g>
<defs>
<filter id="filter0_d_1853_6532" x="278" y="7" width="50.0225" height="50.0225" filterUnits="userSpaceOnUse" color-interpolation-filters="sRGB">
<feFlood flood-opacity="0" result="BackgroundImageFix"/>
<feColorMatrix in="SourceAlpha" type="matrix" values="0 0 0 0 0 0 0 0 0 0 0 0 0 0 0 0 0 0 127 0" result="hardAlpha"/>
<feOffset dy="2"/>
<feGaussianBlur stdDeviation="1"/>
<feComposite in2="hardAlpha" operator="out"/>
<feColorMatrix type="matrix" values="0 0 0 0 0 0 0 0 0 0 0 0 0 0 0 0 0 0 0.25 0"/>
<feBlend mode="normal" in2="BackgroundImageFix" result="effect1_dropShadow_1853_6532"/>
<feBlend mode="normal" in="SourceGraphic" in2="effect1_dropShadow_1853_6532" result="shape"/>
</filter>
<filter id="filter1_d_1853_6532" x="141.108" y="6.47729" width="50.0225" height="50.0225" filterUnits="userSpaceOnUse" color-interpolation-filters="sRGB">
<feFlood flood-opacity="0" result="BackgroundImageFix"/>
<feColorMatrix in="SourceAlpha" type="matrix" values="0 0 0 0 0 0 0 0 0 0 0 0 0 0 0 0 0 0 127 0" result="hardAlpha"/>
<feOffset dy="2"/>
<feGaussianBlur stdDeviation="1"/>
<feComposite in2="hardAlpha" operator="out"/>
<feColorMatrix type="matrix" values="0 0 0 0 0 0 0 0 0 0 0 0 0 0 0 0 0 0 0.25 0"/>
<feBlend mode="normal" in2="BackgroundImageFix" result="effect1_dropShadow_1853_6532"/>
<feBlend mode="normal" in="SourceGraphic" in2="effect1_dropShadow_1853_6532" result="shape"/>
</filter>
<filter id="filter2_d_1853_6532" x="209" y="7" width="50.0225" height="50.0225" filterUnits="userSpaceOnUse" color-interpolation-filters="sRGB">
<feFlood flood-opacity="0" result="BackgroundImageFix"/>
<feColorMatrix in="SourceAlpha" type="matrix" values="0 0 0 0 0 0 0 0 0 0 0 0 0 0 0 0 0 0 127 0" result="hardAlpha"/>
<feOffset dy="2"/>
<feGaussianBlur stdDeviation="1"/>
<feComposite in2="hardAlpha" operator="out"/>
<feColorMatrix type="matrix" values="0 0 0 0 0 0 0 0 0 0 0 0 0 0 0 0 0 0 0.25 0"/>
<feBlend mode="normal" in2="BackgroundImageFix" result="effect1_dropShadow_1853_6532"/>
<feBlend mode="normal" in="SourceGraphic" in2="effect1_dropShadow_1853_6532" result="shape"/>
</filter>
<clipPath id="clip0_1853_6532">
<rect width="37" height="18" fill="white" transform="translate(284.511 21.554)"/>
</clipPath>
<clipPath id="clip1_1853_6532">
<rect width="37" height="18" fill="white" transform="translate(215.511 21.554)"/>
</clipPath>
<clipPath id="clip2_1853_6532">
<rect width="37" height="18" fill="white" transform="translate(79.5112 21.554)"/>
</clipPath>
<clipPath id="clip3_1853_6532">
<rect width="37" height="18" fill="white" transform="translate(147.5 21.3806)"/>
</clipPath>
</defs>
</svg>
