<svg width="412" height="243" viewBox="0 0 412 243" fill="none" xmlns="http://www.w3.org/2000/svg">
<g filter="url(#filter0_d_1162_6815)">
<path d="M0 93.9639C0 82.9182 8.95431 73.9639 20 73.9639H392C403.046 73.9639 412 82.9182 412 93.9639V222.146C412 233.191 403.046 242.146 392 242.146H20C8.95432 242.146 0 233.191 0 222.146V93.9639Z" fill="white"/>
</g>
<g filter="url(#filter1_d_1162_6815)">
<ellipse cx="206" cy="74.4639" rx="69" ry="69.5" fill="#03CF5D"/>
</g>
<path fill-rule="evenodd" clip-rule="evenodd" d="M215.75 72.3389C215.75 77.7339 211.395 82.0889 206 82.0889C200.605 82.0889 196.25 77.7339 196.25 72.3389V52.8389C196.25 47.4439 200.605 43.0889 206 43.0889C211.395 43.0889 215.75 47.4439 215.75 52.8389V72.3389ZM206 88.5889C214.97 88.5889 222.25 81.3089 222.25 72.3389H228.75C228.75 83.8114 220.268 93.2364 209.25 94.8289V104.839H202.75V94.8289C191.733 93.2364 183.25 83.8114 183.25 72.3389H189.75C189.75 81.3089 197.03 88.5889 206 88.5889Z" fill="white"/>
<defs>
<filter id="filter0_d_1162_6815" x="-4" y="67.9639" width="416" height="174.182" filterUnits="userSpaceOnUse" color-interpolation-filters="sRGB">
<feFlood flood-opacity="0" result="BackgroundImageFix"/>
<feColorMatrix in="SourceAlpha" type="matrix" values="0 0 0 0 0 0 0 0 0 0 0 0 0 0 0 0 0 0 127 0" result="hardAlpha"/>
<feOffset dx="-2" dy="-4"/>
<feGaussianBlur stdDeviation="1"/>
<feComposite in2="hardAlpha" operator="out"/>
<feColorMatrix type="matrix" values="0 0 0 0 0 0 0 0 0 0 0 0 0 0 0 0 0 0 0.1 0"/>
<feBlend mode="normal" in2="BackgroundImageFix" result="effect1_dropShadow_1162_6815"/>
<feBlend mode="normal" in="SourceGraphic" in2="effect1_dropShadow_1162_6815" result="shape"/>
</filter>
<filter id="filter1_d_1162_6815" x="135" y="0.963867" width="142" height="143" filterUnits="userSpaceOnUse" color-interpolation-filters="sRGB">
<feFlood flood-opacity="0" result="BackgroundImageFix"/>
<feColorMatrix in="SourceAlpha" type="matrix" values="0 0 0 0 0 0 0 0 0 0 0 0 0 0 0 0 0 0 127 0" result="hardAlpha"/>
<feOffset dy="-2"/>
<feGaussianBlur stdDeviation="1"/>
<feComposite in2="hardAlpha" operator="out"/>
<feColorMatrix type="matrix" values="0 0 0 0 0 0 0 0 0 0 0 0 0 0 0 0 0 0 0.25 0"/>
<feBlend mode="normal" in2="BackgroundImageFix" result="effect1_dropShadow_1162_6815"/>
<feBlend mode="normal" in="SourceGraphic" in2="effect1_dropShadow_1162_6815" result="shape"/>
</filter>
</defs>
</svg>
