<svg width="45" height="22" viewBox="0 0 45 22" fill="none" xmlns="http://www.w3.org/2000/svg">
<g clip-path="url(#clip0_1574_7354)">
<path fill-rule="evenodd" clip-rule="evenodd" d="M21.6971 10.9979C21.6971 16.7957 16.8401 21.4957 10.8486 21.4957C4.85707 21.4957 0 16.7957 0 10.9979C0 5.20006 4.85707 0.5 10.8486 0.5C16.8401 0.5 21.6971 5.20006 21.6971 10.9979ZM16.8757 10.9979C16.8757 14.2189 14.1773 16.83 10.8487 16.83C7.5201 16.83 4.82173 14.2189 4.82173 10.9979C4.82173 7.77688 7.5201 5.16573 10.8487 5.16573C14.1773 5.16573 16.8757 7.77688 16.8757 10.9979Z" fill="#03CF5D"/>
<path d="M44.2962 0.551025H28.5557V5.43386H39.0875C39.4746 5.43386 39.7914 5.74036 39.7914 6.11498V15.9317C39.7914 16.3063 39.4746 16.6129 39.0875 16.6129H28.5557V21.4957H44.2962C44.6833 21.4957 45.0001 21.1892 45.0001 20.8146V1.23215C45.0001 0.857533 44.6833 0.551025 44.2962 0.551025V0.551025Z" fill="#03CF5D"/>
<path d="M28.5559 5.43385V0.551025H24.0554C23.6683 0.551025 23.3516 0.857533 23.3516 1.23215V20.8188C23.3516 21.1934 23.6683 21.4999 24.0554 21.4999H28.5559V5.43385Z" fill="#F1F1F1"/>
</g>
<defs>
<clipPath id="clip0_1574_7354">
<rect width="45" height="21" fill="white" transform="translate(0 0.5)"/>
</clipPath>
</defs>
</svg>
