<svg width="53" height="31" viewBox="0 0 53 31" fill="none" xmlns="http://www.w3.org/2000/svg">
<path d="M51.9031 28.6867H41.0445C41.1578 28.3673 41.22 28.0241 41.22 27.6663V26.646H46.259C49.9048 26.646 52.8708 23.6801 52.8708 20.0342C52.8708 18.2681 52.1831 16.6077 50.9343 15.3589L50.2763 14.7009L44.5625 8.98709C44.5624 8.98698 44.5623 8.98688 44.5621 8.98678L41.6511 6.07578C38.3352 2.75992 33.9266 0.933716 29.2371 0.933716H1.65023C1.08674 0.933716 0.629883 1.39057 0.629883 1.95406C0.629883 2.51745 1.08664 2.97441 1.65023 2.97441H29.2371C33.3814 2.97441 37.2776 4.58827 40.208 7.51877L41.3775 8.68823H29.6202C27.4823 8.68823 25.743 10.4276 25.743 12.5654C25.743 14.7033 27.4824 16.4427 29.6202 16.4427H49.1321L49.4913 16.8019C50.3546 17.6652 50.8302 18.8131 50.8302 20.0342C50.8302 22.5547 48.7795 24.6054 46.259 24.6054H40.1996H36.1184H11.294H7.21269H1.65023C1.08674 24.6054 0.629883 25.0623 0.629883 25.6258C0.629883 26.1891 1.08664 26.6461 1.65023 26.6461H6.19234V27.6664C6.19234 28.0241 6.25455 28.3674 6.36782 28.6868H1.70283C1.13934 28.6868 0.682483 29.1436 0.682483 29.7071C0.682483 30.2705 1.13924 30.7275 1.70283 30.7275H18.8444C19.4079 30.7275 19.8648 30.2706 19.8648 29.7071C19.8648 29.1437 19.408 28.6868 18.8444 28.6868H12.1388C12.2521 28.3674 12.3143 28.0242 12.3143 27.6664V26.6461H35.098V27.6664C35.098 28.0241 35.1602 28.3674 35.2735 28.6868H26.8075C26.244 28.6868 25.7872 29.1436 25.7872 29.7071C25.7872 30.2705 26.2439 30.7275 26.8075 30.7275H51.9031C52.4666 30.7275 52.9234 30.2706 52.9234 29.7071C52.9234 29.1436 52.4667 28.6867 51.9031 28.6867ZM29.6202 14.4021C28.6076 14.4021 27.7836 13.5781 27.7836 12.5654C27.7836 11.5528 28.6076 10.7288 29.6202 10.7288H43.4183L47.0914 14.402H29.6202V14.4021ZM10.2736 27.6663C10.2736 28.2289 9.81595 28.6867 9.25328 28.6867C8.69071 28.6867 8.23293 28.229 8.23293 27.6663V26.646H10.2736V27.6663ZM39.1794 27.6663C39.1794 28.2289 38.7217 28.6867 38.1591 28.6867C37.5965 28.6867 37.1387 28.229 37.1387 27.6663V26.646H39.1794V27.6663Z" fill="#03CF5D"/>
<path d="M23.545 28.9856C23.3552 28.7958 23.092 28.6866 22.8236 28.6866C22.5553 28.6866 22.2919 28.7957 22.1022 28.9856C21.9124 29.1754 21.8032 29.4386 21.8032 29.707C21.8032 29.9754 21.9124 30.2386 22.1022 30.4283C22.2919 30.618 22.5552 30.7273 22.8236 30.7273C23.0919 30.7273 23.3552 30.6182 23.545 30.4283C23.7347 30.2386 23.8439 29.9753 23.8439 29.707C23.8439 29.4387 23.7347 29.1754 23.545 28.9856Z" fill="#03CF5D"/>
<path d="M17.5674 8.6886H5.54613C4.98264 8.6886 4.52578 9.14546 4.52578 9.70894C4.52578 10.2723 4.98254 10.7293 5.54613 10.7293H17.5674C18.5801 10.7293 19.404 11.5532 19.404 12.5659C19.404 13.5786 18.5801 14.4025 17.5673 14.4025H1.65023C1.08674 14.4025 0.629883 14.8594 0.629883 15.4229C0.629883 15.9864 1.08664 16.4432 1.65023 16.4432H17.5674C19.7053 16.4432 21.4446 14.7038 21.4446 12.566C21.4446 10.4282 19.7052 8.6886 17.5674 8.6886Z" fill="#03CF5D"/>
<path d="M2.37113 8.98755C2.18136 8.79768 1.91918 8.6886 1.64974 8.6886C1.38143 8.6886 1.11812 8.79768 0.928348 8.98755C0.738579 9.17732 0.629395 9.44053 0.629395 9.70884C0.629395 9.97715 0.738579 10.2405 0.928348 10.4301C1.11812 10.6199 1.38143 10.7292 1.64974 10.7292C1.91907 10.7292 2.18136 10.62 2.37113 10.4301C2.56192 10.2405 2.67008 9.97715 2.67008 9.70884C2.67008 9.44053 2.56192 9.17732 2.37113 8.98755Z" fill="#03CF5D"/>
</svg>
