<svg width="343" height="72" viewBox="0 0 343 72" fill="none" xmlns="http://www.w3.org/2000/svg">
<g filter="url(#filter0_d_1574_8225)">
<path d="M4.37329 32.0184C4.37329 14.728 18.3899 0.711426 35.6802 0.711426H307.63C324.92 0.711426 338.937 14.728 338.937 32.0184C338.937 49.3087 324.92 63.3253 307.63 63.3253H35.6803C18.3899 63.3253 4.37329 49.3087 4.37329 32.0184Z" fill="white"/>
<path d="M78.5712 24.5462L76.7092 24.5467L76.7109 26.4227C76.713 28.8167 75.7352 31.281 73.5661 32.3036L74.6734 33.8013C76.1288 33.0869 77.0936 31.7286 77.6522 30.0905C78.1855 31.6303 79.0966 32.876 80.4412 33.5617L81.5599 32.1053C79.487 31.0839 78.575 28.7462 78.5729 26.4222L78.5712 24.5462ZM85.7988 28.5061L83.9228 28.5067L83.9184 23.5507L82.0704 23.5512L82.0818 36.4452L83.9298 36.4447L83.9241 30.0467L85.8001 30.0461L85.7988 28.5061ZM86.8482 26.8118L86.8517 30.7878L87.9577 30.7875C90.5337 30.7868 92.1716 30.7303 93.9633 30.3938L93.808 28.9098C92.1983 29.2043 90.7844 29.2887 88.6844 29.3033L88.6834 28.1833L92.7154 28.1821L92.7119 24.3041L86.8319 24.3058L86.8333 25.7898L90.8933 25.7886L90.8942 26.8106L86.8482 26.8118ZM92.3015 35.0422C90.6215 35.0427 89.7532 34.721 89.7525 34.007C89.7519 33.293 90.6196 32.9707 92.2996 32.9702C93.9796 32.9698 94.8479 33.2915 94.8485 34.0055C94.8492 34.7195 93.9815 35.0418 92.3015 35.0422ZM92.2984 31.5562C89.6104 31.557 87.9312 32.4535 87.9325 34.0075C87.9339 35.5475 89.6147 36.457 92.3027 36.4562C94.9907 36.4555 96.6699 35.545 96.6685 34.005C96.6672 32.451 94.9864 31.5555 92.2984 31.5562ZM96.5359 26.557L96.5333 23.561L94.6853 23.5616L94.6921 31.2896L96.5401 31.289L96.5373 28.069L98.2453 28.0685L98.2439 26.5565L96.5359 26.557ZM102.674 32.2953C101.806 32.2955 101.161 31.7077 101.161 30.7277C101.16 29.7477 101.803 29.1455 102.671 29.1453C103.539 29.145 104.17 29.7468 104.171 30.7128C104.171 31.7068 103.542 32.295 102.674 32.2953ZM102.67 27.6473C100.794 27.6478 99.3949 28.9222 99.3965 30.7142C99.3981 32.5342 100.799 33.8078 102.675 33.8073C104.537 33.8067 105.922 32.5323 105.921 30.7123C105.919 28.9203 104.532 27.6467 102.67 27.6473ZM103.576 23.769L101.728 23.7695L101.73 25.4495L98.8739 25.4503L98.8752 26.9203L106.379 26.9182L106.378 25.4482L103.578 25.449L103.576 23.769ZM110.917 28.5829L109.069 28.5834L109.064 23.5434L107.216 23.5439L107.228 36.4379L109.076 36.4374L109.07 30.1094L110.918 30.1089L110.917 28.5829ZM121.892 27.0257L114.794 27.0278L114.791 24.0038L112.943 24.0043L112.947 28.4983L121.893 28.4957L121.892 27.0257ZM114.687 32.3198L112.825 32.3203L112.828 36.1563L121.97 36.1537L121.969 34.6837L114.689 34.6858L114.687 32.3198ZM111.507 29.8147L111.508 31.2987L123.184 31.2953L123.183 29.8113L111.507 29.8147ZM133.038 25.4405C134.718 25.44 135.796 25.9437 135.797 26.8677C135.798 27.8057 134.721 28.31 133.041 28.3105C131.347 28.311 130.268 27.8073 130.267 26.8693C130.266 25.9453 131.344 25.441 133.038 25.4405ZM133.042 29.7805C135.786 29.7797 137.703 28.6452 137.701 26.8672C137.7 25.1172 135.781 23.9697 133.037 23.9705C130.279 23.9713 128.376 25.1198 128.377 26.8698C128.379 28.6478 130.284 29.7813 133.042 29.7805ZM138.909 30.7448L127.233 30.7482L127.234 32.2322L132.106 32.2308L132.11 36.4448L133.958 36.4442L133.954 32.2302L138.91 32.2288L138.909 30.7448ZM142.367 29.6098L146.553 29.6086L146.548 24.6246L140.458 24.6264L140.459 26.0964L144.659 26.0952L144.661 28.1532L140.475 28.1544L140.48 33.4604L141.642 33.46C143.98 33.4594 145.87 33.3748 147.97 33.0102L147.772 31.5123C145.953 31.8208 144.329 31.9192 142.369 31.9338L142.367 29.6098ZM148.661 23.518L148.673 36.454L150.521 36.4535L150.509 23.5175L148.661 23.518ZM160.3 27.8826C159.712 28.0088 159.194 28.065 158.368 28.0792L158.366 25.7412L160.046 25.7407L160.045 24.2847L156.615 24.2857L156.619 29.5497L157.291 29.5495C158.887 29.5491 159.573 29.5349 160.441 29.3106L160.3 27.8826ZM156.1 27.8839C155.498 28.01 154.966 28.0662 154.406 28.0943L154.404 25.7423L155.986 25.7419L155.985 24.2859L152.639 24.2869L152.643 29.5509L153.301 29.5507C154.379 29.5504 155.191 29.5501 156.241 29.3398L156.1 27.8839ZM155.853 34.0439L162.797 34.0419L162.794 30.5419L154.002 30.5445L154.004 31.9585L160.976 31.9565L160.976 32.7125L154.018 32.7145L154.021 36.2705L163.205 36.2678L163.204 34.8398L155.854 34.8419L155.853 34.0439ZM162.79 26.0759L162.788 23.5279L160.94 23.5285L160.946 30.0385L162.794 30.0379L162.792 27.5599L164.206 27.5595L164.204 26.0755L162.79 26.0759Z" fill="#03CF5D"/>
<path d="M170.975 32.0656C170.275 32.0658 169.854 31.0999 169.852 29.1119C169.851 27.1379 170.27 26.1718 170.97 26.1716C171.684 26.1714 172.091 27.1373 172.092 29.1112C172.094 31.0992 171.689 32.0654 170.975 32.0656ZM174.766 28.2705L173.744 28.2708C173.531 25.8628 172.494 24.4351 170.968 24.4356C169.26 24.4361 168.184 26.2004 168.186 29.1124C168.189 32.0384 169.268 33.8021 170.976 33.8016C172.544 33.8011 173.593 32.2888 173.759 29.7688L174.767 29.7685L174.772 35.8445L176.494 35.844L176.484 23.734L174.762 23.7345L174.766 28.2705ZM177.379 23.5097L177.391 36.4037L179.141 36.4032L179.129 23.5092L177.379 23.5097ZM187.255 28.4489L185.813 28.4493C186.12 27.3992 186.231 26.2652 186.23 25.0472L181.176 25.0486L181.177 26.5186L184.397 26.5177C184.175 29.0378 183.043 30.9001 180.468 32.4408L181.519 33.7425C183.338 32.678 184.513 31.4037 185.24 29.9335L187.256 29.9329L187.261 35.8409L188.983 35.8404L188.973 23.8004L187.251 23.8009L187.255 28.4489ZM189.966 23.5061L189.978 36.4001L191.728 36.3996L191.716 23.5056L189.966 23.5061ZM198.032 24.5118L196.17 24.5123L196.172 26.3743C196.174 28.8243 195.196 31.3306 193.013 32.3392L194.162 33.8229C195.604 33.0945 196.568 31.7502 197.127 30.098C197.66 31.6519 198.599 32.9116 200.014 33.5972L201.105 32.1269C198.976 31.1755 198.036 28.8098 198.034 26.3738L198.032 24.5118ZM202.161 23.5026L202.165 27.5486L199.687 27.5493L199.688 29.0333L202.166 29.0326L202.173 36.4386L204.021 36.438L204.009 23.5021L202.161 23.5026ZM217.853 33.0181L219.701 33.0175L219.692 23.5115L217.844 23.5121L217.846 25.7661L216.278 25.7665L216.28 27.2505L217.848 27.2501L217.849 28.3701L216.281 28.3705L216.282 29.8545L217.85 29.8541L217.853 33.0181ZM212.037 25.9077L213.241 25.9074L213.244 29.8834C212.838 29.9115 212.432 29.9256 212.04 29.9257L212.037 25.9077ZM216.198 29.6725C215.82 29.7146 215.428 29.7568 215.022 29.7849L215.019 25.9069L216.041 25.9066L216.039 24.4366L209.235 24.4385L209.237 25.9085L210.259 25.9083L210.262 29.9682C209.786 29.9684 209.338 29.9685 208.918 29.9686L209.115 31.4666C211.145 31.466 213.917 31.4232 216.311 31.0165L216.198 29.6725ZM213.052 34.7134L213.05 32.3054L211.202 32.306L211.206 36.184L219.998 36.1814L219.996 34.7114L213.052 34.7134ZM226.458 26.2676L229.118 26.2668L229.116 24.7408L221.892 24.7429L221.894 26.2689L224.582 26.2681L224.582 26.9821C224.584 29.1801 223.536 31.5464 221.381 32.513L222.433 33.9827C223.944 33.2963 224.979 31.882 225.551 30.2018C226.127 31.7557 227.15 33.0154 228.648 33.659L229.655 32.2027C227.498 31.3073 226.46 29.0816 226.458 26.9816L226.458 26.2676ZM230.305 23.5085L230.317 36.4025L232.165 36.4019L232.153 23.5079L230.305 23.5085ZM234.619 24.8232L234.621 26.3212L238.835 26.32C238.501 29.1761 236.907 31.2206 233.912 32.7614L234.95 34.1751C239.232 32.0039 240.699 28.6855 240.695 24.8215L234.619 24.8232ZM245.935 28.418L244.129 28.4185L244.124 23.4905L242.276 23.491L242.288 36.371L244.136 36.3705L244.13 29.9445L245.936 29.944L245.935 28.418ZM256.512 33.4269L256.51 30.7389L260.192 30.7379L260.191 29.2539L252.981 29.2559L252.978 25.8679L260.09 25.8659L260.088 24.3819L251.114 24.3845L251.12 30.7405L254.662 30.7395L254.664 33.4275L249.764 33.4289L249.766 34.9409L261.442 34.9375L261.44 33.4255L256.512 33.4269ZM270.02 29.545C267.975 28.9996 267.078 27.6419 267.049 26.2979L269.597 26.2972L269.596 24.8412L267.048 24.8419L267.046 23.4559L265.198 23.4564L265.2 24.8424L262.68 24.8431L262.681 26.2991L265.201 26.2984C265.174 27.7544 264.279 29.1967 262.222 29.7713L263.105 31.213C264.575 30.7646 265.596 29.8683 266.155 28.7341C266.73 29.77 267.725 30.5957 269.181 30.9873L270.02 29.545ZM263.863 33.4108L270.625 33.4089L270.628 36.4049L272.476 36.4043L272.472 31.9383L263.862 31.9408L263.863 33.4108ZM274.175 26.6738L272.467 26.6743L272.464 23.4963L270.616 23.4969L270.623 31.3929L272.471 31.3923L272.469 28.1863L274.177 28.1858L274.175 26.6738ZM283.166 28.2952L284.118 28.295L284.12 31.431L285.87 31.4305L285.863 23.4925L284.113 23.493L284.116 26.797L283.164 26.7972L283.161 23.6612L281.439 23.6617L281.446 31.3057L283.168 31.3052L283.166 28.2952ZM281.076 24.7398L278.85 24.7405L278.849 23.5785L277.029 23.579L277.03 24.741L274.804 24.7417L274.806 26.1696L281.078 26.1678L281.076 24.7398ZM277.971 27.8907C278.643 27.8905 279.105 28.2264 279.106 28.8144C279.107 29.4164 278.645 29.7525 277.973 29.7527C277.287 29.7529 276.825 29.4171 276.824 28.8151C276.823 28.2271 277.285 27.8909 277.971 27.8907ZM277.974 31.0687C279.598 31.0683 280.745 30.1579 280.744 28.8139C280.743 27.4839 279.594 26.5743 277.97 26.5747C276.332 26.5752 275.185 27.4855 275.186 28.8155C275.187 30.1595 276.336 31.0692 277.974 31.0687ZM284.471 31.8509L282.637 31.8514L282.637 32.1034C282.638 32.9574 282.205 33.9655 281.197 34.6378C280.203 34.0081 279.782 33.0422 279.781 32.1042L279.781 31.8522L277.989 31.8527L277.989 32.1047C277.99 33.2247 277.277 34.3869 275.597 34.8914L276.453 36.2352C277.642 35.8568 278.426 35.1426 278.887 34.2465C279.308 35.1704 280.05 35.9401 281.227 36.3458C282.374 35.9255 283.102 35.1273 283.535 34.2031C283.984 35.127 284.782 35.8548 286.015 36.2324L286.867 34.8882C285.187 34.4407 284.472 33.3069 284.471 32.1029L284.471 31.8509ZM290.968 31.919C290.03 31.9193 289.399 30.8974 289.397 28.9794C289.395 27.0754 290.024 26.0533 290.962 26.053C291.914 26.0527 292.545 27.0745 292.547 28.9785C292.549 30.8965 291.92 31.9187 290.968 31.919ZM296.406 23.4754L296.41 28.1234L294.254 28.124C294 25.8001 292.697 24.3865 290.961 24.387C289.043 24.3875 287.631 26.152 287.633 28.98C287.636 31.822 289.051 33.5995 290.969 33.599C292.761 33.5985 294.076 32.0861 294.27 29.622L296.412 29.6214L296.418 36.4114L298.266 36.4109L298.254 23.4749L296.406 23.4754ZM304.408 30.9211C304.856 31.005 305.318 31.0469 305.822 31.0467C306.326 31.0466 306.802 31.0044 307.25 30.9203L307.252 33.3843L304.41 33.3851L304.408 30.9211ZM305.817 25.5727C307.609 25.5722 308.814 26.2999 308.815 27.5878C308.816 28.8618 307.612 29.6042 305.82 29.6047C304.028 29.6052 302.838 28.8636 302.837 27.5896C302.836 26.3016 304.025 25.5732 305.817 25.5727ZM309.086 33.3838L309.083 30.2338C310.049 29.6315 310.636 28.7073 310.635 27.5873C310.633 25.4733 308.602 24.1159 305.816 24.1167C303.044 24.1175 301.015 25.4761 301.017 27.5901C301.004 28.7101 301.593 29.6339 302.573 30.2356L302.576 33.3856L300 33.3864L300.001 34.8844L311.677 34.881L311.676 33.383L309.086 33.3838ZM318.103 25.22L317.884 32.1312L316.243 32.1317L316.005 25.2207L318.103 25.22ZM315.958 34.2714C315.958 33.9798 316.058 33.7382 316.258 33.5468C316.463 33.3507 316.732 33.2527 317.064 33.2526C317.402 33.2525 317.671 33.3504 317.871 33.5463C318.072 33.7376 318.172 33.9791 318.173 34.2708C318.173 34.5534 318.073 34.7926 317.873 34.9887C317.672 35.1847 317.403 35.2827 317.066 35.2828C316.733 35.2829 316.465 35.185 316.259 34.9891C316.059 34.7932 315.958 34.554 315.958 34.2714Z" fill="#1E1E1E"/>
<path fill-rule="evenodd" clip-rule="evenodd" d="M39.1315 32.0168C39.1315 36.661 35.3993 40.4259 30.7955 40.4259C26.1916 40.4259 22.4595 36.661 22.4595 32.0168C22.4595 27.3726 26.1916 23.6077 30.7955 23.6077C35.3993 23.6077 39.1315 27.3726 39.1315 32.0168ZM35.4261 32.0167C35.4261 34.5968 33.3527 36.6884 30.795 36.6884C28.2373 36.6884 26.1639 34.5968 26.1639 32.0167C26.1639 29.4366 28.2373 27.345 30.795 27.345C33.3527 27.345 35.4261 29.4366 35.4261 32.0167Z" fill="#03CF5D"/>
<path d="M56.4958 23.6487H44.4009V27.56H52.4935C52.791 27.56 53.0343 27.8055 53.0343 28.1056V35.9691C53.0343 36.2692 52.791 36.5147 52.4935 36.5147H44.4009V40.426H56.4958C56.7933 40.426 57.0367 40.1805 57.0367 39.8804V24.1943C57.0367 23.8942 56.7933 23.6487 56.4958 23.6487Z" fill="#03CF5D"/>
<path d="M44.4011 27.56V23.6487H40.943C40.6455 23.6487 40.4021 23.8942 40.4021 24.1943V39.8838C40.4021 40.1839 40.6455 40.4294 40.943 40.4294H44.4011V27.56Z" fill="#787878" fill-opacity="0.2"/>
</g>
<defs>
<filter id="filter0_d_1574_8225" x="0.373291" y="0.711426" width="342.564" height="70.6138" filterUnits="userSpaceOnUse" color-interpolation-filters="sRGB">
<feFlood flood-opacity="0" result="BackgroundImageFix"/>
<feColorMatrix in="SourceAlpha" type="matrix" values="0 0 0 0 0 0 0 0 0 0 0 0 0 0 0 0 0 0 127 0" result="hardAlpha"/>
<feOffset dy="4"/>
<feGaussianBlur stdDeviation="2"/>
<feComposite in2="hardAlpha" operator="out"/>
<feColorMatrix type="matrix" values="0 0 0 0 0 0 0 0 0 0 0 0 0 0 0 0 0 0 0.25 0"/>
<feBlend mode="normal" in2="BackgroundImageFix" result="effect1_dropShadow_1574_8225"/>
<feBlend mode="normal" in="SourceGraphic" in2="effect1_dropShadow_1574_8225" result="shape"/>
</filter>
</defs>
</svg>
