<svg width="167" height="80" viewBox="0 0 167 80" fill="none" xmlns="http://www.w3.org/2000/svg">
<g clip-path="url(#clip0_924_9738)">
<path d="M40.2602 79.9838C62.4953 79.9838 80.5205 62.0788 80.5205 39.9919C80.5205 17.905 62.4953 0 40.2602 0C18.0251 0 0 17.905 0 39.9919C0 62.0788 18.0251 79.9838 40.2602 79.9838Z" fill="#03CF5D"/>
<path d="M40.2602 62.2096C52.6131 62.2096 62.627 52.2624 62.627 39.9919C62.627 27.7214 52.6131 17.7742 40.2602 17.7742C27.9074 17.7742 17.8934 27.7214 17.8934 39.9919C17.8934 52.2624 27.9074 62.2096 40.2602 62.2096Z" fill="white"/>
<path d="M164.388 0.19458H105.973V18.7958H145.058C146.494 18.7958 147.67 19.9635 147.67 21.3906V58.7877C147.67 60.2149 146.494 61.3825 145.058 61.3825H105.973V79.9838H164.388C165.824 79.9838 167 78.8161 167 77.389V2.78935C167 1.36223 165.824 0.19458 164.388 0.19458Z" fill="#03CF5D"/>
<path d="M105.973 18.7958V0.19458H89.2712C87.8345 0.19458 86.6591 1.36223 86.6591 2.78935V77.4052C86.6591 78.8323 87.8345 80 89.2712 80H105.973V18.7958Z" fill="#F1F1F1"/>
</g>
<defs>
<clipPath id="clip0_924_9738">
<rect width="167" height="80" fill="white"/>
</clipPath>
</defs>
</svg>
