<svg width="78" height="78" viewBox="0 0 78 78" fill="none" xmlns="http://www.w3.org/2000/svg">
<path fill-rule="evenodd" clip-rule="evenodd" d="M48.75 37.375C48.75 42.77 44.395 47.125 39 47.125C33.605 47.125 29.25 42.77 29.25 37.375V17.875C29.25 12.48 33.605 8.125 39 8.125C44.395 8.125 48.75 12.48 48.75 17.875V37.375ZM39 53.625C47.97 53.625 55.25 46.345 55.25 37.375H61.75C61.75 48.8475 53.2675 58.2725 42.25 59.865V69.875H35.75V59.865C24.7325 58.2725 16.25 48.8475 16.25 37.375H22.75C22.75 46.345 30.03 53.625 39 53.625Z" fill="#03CF5D"/>
</svg>
