<svg width="268" height="18" viewBox="0 0 268 18" fill="none" xmlns="http://www.w3.org/2000/svg">
<path d="M0.572948 2.2488V13.4628H8.58295V2.2488H0.572948ZM6.24295 4.1208V11.5728H2.93095V4.1208H6.24295ZM11.1749 0.7368V17.4588H13.5869V0.7368H11.1749ZM27.4675 0.7368V17.4588H29.8615V0.7368H27.4675ZM16.8835 11.6268V13.5708H18.3595C21.4015 13.5708 23.8495 13.4808 26.5495 12.9948L26.3155 11.0688C23.6695 11.5188 21.3115 11.6268 18.3595 11.6268H16.8835ZM16.8655 2.1588V4.0668H22.2835V6.7128H16.8835V12.3468H19.3135V8.6028H24.7315V2.1588H16.8655ZM32.2401 13.5528V15.4968H47.3241V13.5528H32.2401ZM38.5581 9.9888V14.0208H40.9521V9.9888H38.5581ZM33.8241 1.8168V10.4928H45.6861V1.8168H43.3101V4.3728H36.2001V1.8168H33.8241ZM36.2001 6.2448H43.3101V8.5848H36.2001V6.2448ZM59.9447 0.754801V17.4228H62.3567V0.754801H59.9447ZM55.0307 2.4828V2.9148C55.0307 7.3788 53.3027 10.4028 48.5147 12.7068L49.7567 14.6148C55.6787 11.7528 57.4067 7.5768 57.4067 2.4828H55.0307ZM49.3967 2.4828V4.3728H56.1647V2.4828H49.3967ZM64.7173 13.6428V15.5868H79.8013V13.6428H64.7173ZM71.0353 10.4928V14.4348H73.4293V10.4928H71.0353ZM66.4093 1.8348V3.7248H75.7333V5.5068H66.4453V10.1868H68.8213V7.3788H78.1093V1.8348H66.4093ZM66.4453 9.2328V11.1588H78.4873V9.2328H66.4453ZM125.12 0.9888C121.304 0.9888 119.09 1.9968 119.09 3.8328C119.09 5.6688 121.304 6.6768 125.12 6.6768C128.918 6.6768 131.15 5.6688 131.15 3.8328C131.15 1.9968 128.918 0.9888 125.12 0.9888ZM125.12 2.7348C127.532 2.7348 128.666 3.0948 128.666 3.8328C128.666 4.6068 127.532 4.9308 125.12 4.9308C122.708 4.9308 121.574 4.6068 121.574 3.8328C121.574 3.0948 122.708 2.7348 125.12 2.7348ZM117.578 7.4508V9.3408H132.644V7.4508H117.578ZM119.306 10.2768V12.0588H128.468V12.9048H119.324V16.0368H121.682V14.5608H130.826V10.2768H119.306ZM119.324 15.5148V17.3148H131.258V15.5148H119.324ZM148.707 0.754801V10.4748H151.101V0.754801H148.707ZM150.435 4.5348V6.4968H153.315V4.5348H150.435ZM138.465 1.7268V9.6648H146.475V1.7268H144.099V3.8328H140.841V1.7268H138.465ZM140.841 5.6688H144.099V7.7928H140.841V5.6688ZM140.265 11.2128V16.6848H142.659V13.1028H151.191V11.2128H140.265ZM140.265 15.3348V17.2248H151.515V15.3348H140.265ZM158.681 1.9068C156.143 1.9068 154.307 4.2108 154.307 7.8468C154.307 11.5188 156.143 13.8228 158.681 13.8228C161.219 13.8228 163.055 11.5188 163.055 7.8468C163.055 4.2108 161.219 1.9068 158.681 1.9068ZM158.681 4.0848C159.923 4.0848 160.769 5.3988 160.769 7.8468C160.769 10.3308 159.923 11.6628 158.681 11.6628C157.439 11.6628 156.611 10.3308 156.611 7.8468C156.611 5.3988 157.439 4.0848 158.681 4.0848ZM164.873 0.754801V17.4228H167.285V0.754801H164.873ZM166.745 7.0368V9.0168H169.697V7.0368H166.745ZM172.382 1.0068V6.5868H183.614V1.0068H181.238V2.1048H174.74V1.0068H172.382ZM174.74 3.8508H181.238V4.8228H174.74V3.8508ZM170.456 7.6488V9.5208H185.522V7.6488H170.456ZM176.774 5.8128V8.1348H179.15V5.8128H176.774ZM172.184 10.3848V12.1308H181.346V12.9768H172.202V16.1268H174.56V14.6148H183.704V10.3848H172.184ZM172.202 15.5328V17.3148H184.136V15.5328H172.202ZM197.139 1.2408V2.0148C197.139 3.9768 195.249 6.1548 191.415 6.6588L192.351 8.5848C196.725 7.9368 199.245 5.2188 199.245 2.0148V1.2408H197.139ZM197.589 1.2408V2.0148C197.589 5.2188 200.109 7.9368 204.483 8.5848L205.401 6.6588C201.585 6.1548 199.677 3.9588 199.677 2.0148V1.2408H197.589ZM197.157 11.3208V17.4228H199.533V11.3208H197.157ZM190.875 9.8088V11.7528H205.941V9.8088H190.875ZM215.002 10.8708V11.4288C215.002 13.0488 214.084 14.7048 211.906 15.4428L213.076 17.1888C215.686 16.2528 216.802 13.9488 216.802 11.4288V10.8708H215.002ZM215.614 10.8708V11.4288C215.614 13.8768 216.568 16.3608 219.214 17.3508L220.168 15.5868C218.134 14.7408 217.324 13.0488 217.324 11.4288V10.8708H215.614ZM221.086 10.8708V11.4288C221.086 12.9048 220.258 14.6688 218.224 15.5868L219.214 17.3508C221.806 16.3248 222.796 13.7328 222.796 11.4288V10.8708H221.086ZM221.644 10.8708V11.4288C221.644 14.0568 222.724 16.2888 225.37 17.1888L226.54 15.4428C224.344 14.7588 223.444 13.1568 223.444 11.4288V10.8708H221.644ZM222.706 0.7728V10.1868H225.118V0.7728H222.706ZM216.046 1.6188C213.454 1.6188 211.51 3.2748 211.51 5.6148C211.51 7.9368 213.454 9.5928 216.046 9.5928C218.638 9.5928 220.564 7.9368 220.564 5.6148C220.564 3.2748 218.638 1.6188 216.046 1.6188ZM216.046 3.5988C217.306 3.5988 218.224 4.3368 218.224 5.6148C218.224 6.8748 217.306 7.6128 216.046 7.6128C214.786 7.6128 213.85 6.8748 213.85 5.6148C213.85 4.3368 214.786 3.5988 216.046 3.5988ZM232.068 1.9068C229.566 1.9068 227.766 4.2108 227.766 7.8468C227.766 11.5188 229.566 13.8228 232.068 13.8228C234.552 13.8228 236.37 11.5188 236.37 7.8468C236.37 4.2108 234.552 1.9068 232.068 1.9068ZM232.068 4.0848C233.292 4.0848 234.084 5.3988 234.084 7.8468C234.084 10.3308 233.292 11.6628 232.068 11.6628C230.862 11.6628 230.052 10.3308 230.052 7.8468C230.052 5.3988 230.862 4.0848 232.068 4.0848ZM239.106 0.7368V17.4588H241.482V0.7368H239.106ZM235.668 6.7488V8.6748H240.114V6.7488H235.668ZM247.065 9.2148V13.8948H249.441V9.2148H247.065ZM253.113 9.2148V13.8948H255.507V9.2148H253.113ZM243.753 13.5528V15.4968H258.837V13.5528H243.753ZM251.277 1.5648C247.677 1.5648 245.049 3.3288 245.049 6.0468C245.049 8.7648 247.677 10.5108 251.277 10.5108C254.859 10.5108 257.505 8.7648 257.505 6.0468C257.505 3.3288 254.859 1.5648 251.277 1.5648ZM251.277 3.4368C253.599 3.4368 255.147 4.3908 255.147 6.0468C255.147 7.6848 253.599 8.6568 251.277 8.6568C248.955 8.6568 247.407 7.6848 247.407 6.0468C247.407 4.3908 248.955 3.4368 251.277 3.4368ZM267.257 3.02393L266.967 11.9097H264.857L264.559 3.02393H267.257ZM264.488 14.6606C264.488 14.2856 264.617 13.9751 264.875 13.729C265.139 13.4771 265.484 13.3511 265.912 13.3511C266.346 13.3511 266.691 13.4771 266.949 13.729C267.207 13.9751 267.336 14.2856 267.336 14.6606C267.336 15.0239 267.207 15.3315 266.949 15.5835C266.691 15.8354 266.346 15.9614 265.912 15.9614C265.484 15.9614 265.139 15.8354 264.875 15.5835C264.617 15.3315 264.488 15.0239 264.488 14.6606Z" fill="#1E1E1E"/>
<path d="M95.8283 0.754801V9.0708H98.2223V0.754801H95.8283ZM97.2503 3.9408V5.9028H100.418V3.9408H97.2503ZM87.2063 9.7368V11.5728H95.8643V12.5808H87.2423V16.2888H89.6183V14.3088H98.2223V9.7368H87.2063ZM87.2423 15.3708V17.2428H98.7083V15.3708H87.2423ZM89.6543 1.2408C87.1163 1.2408 85.2083 2.8068 85.2083 5.0208C85.2083 7.2168 87.1163 8.8008 89.6543 8.8008C92.2103 8.8008 94.1003 7.2168 94.1003 5.0208C94.1003 2.8068 92.2103 1.2408 89.6543 1.2408ZM89.6543 3.1668C90.8963 3.1668 91.7963 3.8508 91.7963 5.0208C91.7963 6.1908 90.8963 6.8928 89.6543 6.8928C88.4303 6.8928 87.5303 6.1908 87.5303 5.0208C87.5303 3.8508 88.4303 3.1668 89.6543 3.1668ZM112.787 0.754801V10.6368H115.199V0.754801H112.787ZM102.203 8.1528V10.0968H103.661C106.991 10.0968 109.205 10.0248 111.689 9.5928L111.419 7.7028C109.007 8.0988 106.901 8.1528 103.661 8.1528H102.203ZM102.185 1.7088V3.5988H107.495V4.9488H102.203V9.3048H104.561V6.7308H109.853V1.7088H102.185ZM104.111 11.3928V17.2428H115.199V11.3928H104.111ZM112.841 13.2648V15.3528H106.451V13.2648H112.841Z" fill="#03CF5D"/>
</svg>
