<svg width="216" height="45" viewBox="0 0 216 45" fill="none" xmlns="http://www.w3.org/2000/svg">
<path d="M0.984315 13.3636V15.3076H16.0683V13.3636H0.984315ZM7.30232 9.67359V13.8136H9.69632V9.67359H7.30232ZM2.55032 1.78959V9.97959H14.4123V1.78959H2.55032ZM12.0723 3.69759V8.08959H4.90832V3.69759H12.0723ZM17.2229 8.79159V10.6996H32.3069V8.79159H17.2229ZM19.0409 5.53359V7.45959H30.6509V5.53359H19.0409ZM19.0409 1.17759V6.23559H21.4349V3.06759H30.5069V1.17759H19.0409ZM19.0049 15.0196V16.9456H30.7589V15.0196H19.0049ZM19.0049 11.9596V15.5056H21.3809V11.9596H19.0049ZM49.7919 0.565592V17.2336H52.0779V0.565592H49.7919ZM44.9139 6.63159V8.73759H47.1459V6.63159H44.9139ZM46.4799 0.889591V16.4596H48.7299V0.889591H46.4799ZM37.7319 2.43759V4.34559H45.3099V2.43759H37.7319ZM37.6959 13.4536C39.7479 13.4536 43.1319 13.3996 45.7239 12.8416L45.5619 11.1136C43.0419 11.4556 39.5319 11.5096 37.4439 11.5096L37.6959 13.4536ZM38.7579 3.66159V12.0136H40.8999V3.66159H38.7579ZM42.1059 3.66159V12.0136H44.2659V3.66159H42.1059ZM65.2745 0.547591V17.2696H67.6865V0.547591H65.2745ZM58.7045 1.71759C56.1845 1.71759 54.3305 4.02159 54.3305 7.65759C54.3305 11.3296 56.1845 13.6336 58.7045 13.6336C61.2245 13.6336 63.0785 11.3296 63.0785 7.65759C63.0785 4.02159 61.2245 1.71759 58.7045 1.71759ZM58.7045 3.89559C59.9465 3.89559 60.7745 5.20959 60.7745 7.65759C60.7745 10.1416 59.9465 11.4736 58.7045 11.4736C57.4625 11.4736 56.6165 10.1416 56.6165 7.65759C56.6165 5.20959 57.4625 3.89559 58.7045 3.89559ZM74.0971 3.19359V5.06559C74.0971 7.89159 72.7471 10.9696 69.9571 12.2116L71.3071 14.1016C74.4391 12.6796 76.0051 8.91759 76.0051 5.06559V3.19359H74.0971ZM74.6371 3.19359V5.06559C74.6371 8.77359 76.1851 12.3196 79.3531 13.6876L80.6491 11.7976C77.8591 10.6456 76.5271 7.76559 76.5271 5.06559V3.19359H74.6371ZM70.6231 2.16759V4.12959H79.9651V2.16759H70.6231ZM81.5131 0.565592V17.2336H83.9251V0.565592H81.5131ZM92.9817 6.70359V8.62959H95.7177V6.70359H92.9817ZM98.3637 0.565592V17.2336H100.65V0.565592H98.3637ZM94.9617 0.817592V16.4776H97.2117V0.817592H94.9617ZM90.0657 1.73559C87.8697 1.73559 86.4657 4.02159 86.4657 7.78359C86.4657 11.5636 87.8697 13.8496 90.0657 13.8496C92.2797 13.8496 93.7017 11.5636 93.7017 7.78359C93.7017 4.02159 92.2797 1.73559 90.0657 1.73559ZM90.0657 3.98559C91.0017 3.98559 91.5237 5.24559 91.5237 7.78359C91.5237 10.3396 91.0017 11.5816 90.0657 11.5816C89.1657 11.5816 88.6437 10.3396 88.6437 7.78359C88.6437 5.24559 89.1657 3.98559 90.0657 3.98559ZM110.966 5.76759V7.69359H115.358V5.76759H110.966ZM106.43 1.84359V4.25559C106.43 7.42359 105.17 10.6456 102.326 11.9596L103.82 13.8856C106.952 12.3196 108.374 8.44959 108.374 4.25559V1.84359H106.43ZM106.934 1.84359V4.25559C106.934 8.41359 108.248 12.0856 111.38 13.5976L112.802 11.6896C110.048 10.4656 108.842 7.42359 108.842 4.25559V1.84359H106.934ZM114.17 0.547591V17.2696H116.546V0.547591H114.17ZM164.586 8.03559V9.78159H179.688V8.03559H164.586ZM166.278 10.6096V12.2296H175.53V13.0576H166.314V15.9916H168.69V14.5696H177.888V10.6096H166.278ZM166.314 15.4876V17.1076H178.356V15.4876H166.314ZM166.44 0.853591V2.45559H175.494V3.28359H166.458V6.14559H168.834V4.77759H177.852V0.853591H166.44ZM166.458 5.64159V7.26159H178.158V5.64159H166.458ZM191.305 7.72959V10.9156H193.681V7.72959H191.305ZM186.859 3.89559V5.78559H198.361V3.89559H186.859ZM184.987 6.75759V8.64759H200.089V6.75759H184.987ZM186.859 0.745591V4.90359H189.235V0.745591H186.859ZM186.697 9.92559V11.7256H195.913V12.6256H186.715V15.8116H189.109V14.2996H198.307V9.92559H186.697ZM186.715 15.3076V17.1256H198.793V15.3076H186.715ZM212.781 0.547591V17.2696H215.175V0.547591H212.781ZM210.171 6.55959V8.48559H213.267V6.55959H210.171ZM201.801 11.4376V13.4176H203.169C205.941 13.4176 208.173 13.3276 210.639 12.9136L210.423 10.9696C208.011 11.3836 205.869 11.4376 203.169 11.4376H201.801ZM201.765 1.96959V3.87759H206.913V6.34359H201.801V12.0316H204.177V8.23359H209.271V1.96959H201.765ZM19.1686 39.1756V44.0536H30.6886V39.1756H19.1686ZM28.3486 40.9576V42.2896H21.5266V40.9576H28.3486ZM18.1426 28.7356V30.5356H31.7146V28.7356H18.1426ZM24.9646 30.9496C21.3826 30.9496 19.3846 31.7596 19.3846 33.3256C19.3846 34.8916 21.3826 35.7016 24.9646 35.7016C28.5466 35.7016 30.5446 34.8916 30.5446 33.3256C30.5446 31.7596 28.5466 30.9496 24.9646 30.9496ZM24.9646 32.5516C27.0346 32.5516 27.9706 32.7676 27.9706 33.3256C27.9706 33.8656 27.0346 34.0996 24.9646 34.0996C22.8946 34.0996 21.9406 33.8656 21.9406 33.3256C21.9406 32.7676 22.8946 32.5516 24.9646 32.5516ZM23.7586 27.4396V30.0136H26.1526V27.4396H23.7586ZM17.4226 36.4936V38.3296H32.4886V36.4936H17.4226ZM23.7586 35.1256V37.4656H26.1526V35.1256H23.7586ZM41.2032 28.3936C37.6932 28.3936 34.9752 30.3196 34.9752 33.2176C34.9752 36.1336 37.6932 38.0416 41.2032 38.0416C44.7132 38.0416 47.4312 36.1336 47.4312 33.2176C47.4312 30.3196 44.7132 28.3936 41.2032 28.3936ZM41.2032 30.3376C43.4712 30.3376 45.0912 31.4176 45.0912 33.2176C45.0912 34.9996 43.4712 36.0796 41.2032 36.0796C38.9352 36.0796 37.3152 34.9996 37.3152 33.2176C37.3152 31.4176 38.9352 30.3376 41.2032 30.3376ZM33.6792 40.2736V42.2356H48.7632V40.2736H33.6792ZM49.9178 40.4536V42.3976H65.0018V40.4536H49.9178ZM56.2358 37.3036V41.2456H58.6298V37.3036H56.2358ZM51.6098 28.6456V30.5356H60.9338V32.3176H51.6458V36.9976H54.0218V34.1896H63.3098V28.6456H51.6098ZM51.6458 36.0436V37.9696H63.6878V36.0436H51.6458ZM76.6368 32.2636V35.4496H79.0308V32.2636H76.6368ZM72.1728 31.3816V33.2536H83.6208V31.3816H72.1728ZM72.1728 28.1236V32.3896H74.5488V30.0136H83.4768V28.1236H72.1728ZM70.3008 34.3156V36.1876H85.3668V34.3156H70.3008ZM72.0288 37.0696V38.8336H81.1908V39.6976H72.0468V42.8116H74.4048V41.3536H83.5488V37.0696H72.0288ZM72.0468 42.3256V44.1256H83.9808V42.3256H72.0468ZM91.0034 28.7176C88.4654 28.7176 86.6294 31.0216 86.6294 34.6576C86.6294 38.3296 88.4654 40.6336 91.0034 40.6336C93.5414 40.6336 95.3774 38.3296 95.3774 34.6576C95.3774 31.0216 93.5414 28.7176 91.0034 28.7176ZM91.0034 30.8956C92.2454 30.8956 93.0914 32.2096 93.0914 34.6576C93.0914 37.1416 92.2454 38.4736 91.0034 38.4736C89.7614 38.4736 88.9334 37.1416 88.9334 34.6576C88.9334 32.2096 89.7614 30.8956 91.0034 30.8956ZM97.1954 27.5656V44.2336H99.6074V27.5656H97.1954ZM99.0674 33.8476V35.8276H102.019V33.8476H99.0674ZM113.506 27.5656V35.8816H115.9V27.5656H113.506ZM115.234 30.8596V32.8216H118.114V30.8596H115.234ZM108.736 28.1776V29.5996C108.736 31.6876 106.918 33.5956 102.688 34.3696L103.552 36.3316C108.574 35.3056 111.382 32.6236 111.382 28.1776H108.736ZM103.516 28.1776V30.0856H110.266V28.1776H103.516ZM104.884 36.5296V38.4016H113.542V39.3736H104.92V43.1536H107.296V41.1376H115.9V36.5296H104.884ZM104.92 42.1996V44.0716H116.386V42.1996H104.92ZM129.461 28.0516V28.8256C129.461 30.7876 127.571 32.9656 123.737 33.4696L124.673 35.3956C129.047 34.7476 131.567 32.0296 131.567 28.8256V28.0516H129.461ZM129.911 28.0516V28.8256C129.911 32.0296 132.431 34.7476 136.805 35.3956L137.723 33.4696C133.907 32.9656 131.999 30.7696 131.999 28.8256V28.0516H129.911ZM129.479 38.1316V44.2336H131.855V38.1316H129.479ZM123.197 36.6196V38.5636H138.263V36.6196H123.197ZM147.324 37.6816V38.2396C147.324 39.8596 146.406 41.5156 144.228 42.2536L145.398 43.9996C148.008 43.0636 149.124 40.7596 149.124 38.2396V37.6816H147.324ZM147.936 37.6816V38.2396C147.936 40.6876 148.89 43.1716 151.536 44.1616L152.49 42.3976C150.456 41.5516 149.646 39.8596 149.646 38.2396V37.6816H147.936ZM153.408 37.6816V38.2396C153.408 39.7156 152.58 41.4796 150.546 42.3976L151.536 44.1616C154.128 43.1356 155.118 40.5436 155.118 38.2396V37.6816H153.408ZM153.966 37.6816V38.2396C153.966 40.8676 155.046 43.0996 157.692 43.9996L158.862 42.2536C156.666 41.5696 155.766 39.9676 155.766 38.2396V37.6816H153.966ZM155.028 27.5836V36.9976H157.44V27.5836H155.028ZM148.368 28.4296C145.776 28.4296 143.832 30.0856 143.832 32.4256C143.832 34.7476 145.776 36.4036 148.368 36.4036C150.96 36.4036 152.886 34.7476 152.886 32.4256C152.886 30.0856 150.96 28.4296 148.368 28.4296ZM148.368 30.4096C149.628 30.4096 150.546 31.1476 150.546 32.4256C150.546 33.6856 149.628 34.4236 148.368 34.4236C147.108 34.4236 146.172 33.6856 146.172 32.4256C146.172 31.1476 147.108 30.4096 148.368 30.4096ZM164.391 28.7176C161.889 28.7176 160.089 31.0216 160.089 34.6576C160.089 38.3296 161.889 40.6336 164.391 40.6336C166.875 40.6336 168.693 38.3296 168.693 34.6576C168.693 31.0216 166.875 28.7176 164.391 28.7176ZM164.391 30.8956C165.615 30.8956 166.407 32.2096 166.407 34.6576C166.407 37.1416 165.615 38.4736 164.391 38.4736C163.185 38.4736 162.375 37.1416 162.375 34.6576C162.375 32.2096 163.185 30.8956 164.391 30.8956ZM171.429 27.5476V44.2696H173.805V27.5476H171.429ZM167.991 33.5596V35.4856H172.437V33.5596H167.991ZM179.387 36.0256V40.7056H181.763V36.0256H179.387ZM185.435 36.0256V40.7056H187.829V36.0256H185.435ZM176.075 40.3636V42.3076H191.159V40.3636H176.075ZM183.599 28.3756C179.999 28.3756 177.371 30.1396 177.371 32.8576C177.371 35.5756 179.999 37.3216 183.599 37.3216C187.181 37.3216 189.827 35.5756 189.827 32.8576C189.827 30.1396 187.181 28.3756 183.599 28.3756ZM183.599 30.2476C185.921 30.2476 187.469 31.2016 187.469 32.8576C187.469 34.4956 185.921 35.4676 183.599 35.4676C181.277 35.4676 179.729 34.4956 179.729 32.8576C179.729 31.2016 181.277 30.2476 183.599 30.2476ZM199.579 29.8347L199.289 38.7205H197.18L196.881 29.8347H199.579ZM196.811 41.4714C196.811 41.0964 196.939 40.7859 197.197 40.5398C197.461 40.2878 197.807 40.1619 198.234 40.1619C198.668 40.1619 199.014 40.2878 199.271 40.5398C199.529 40.7859 199.658 41.0964 199.658 41.4714C199.658 41.8347 199.529 42.1423 199.271 42.3943C199.014 42.6462 198.668 42.7722 198.234 42.7722C197.807 42.7722 197.461 42.6462 197.197 42.3943C196.939 42.1423 196.811 41.8347 196.811 41.4714Z" fill="#1E1E1E"/>
</svg>
