<svg width="412" height="245" viewBox="0 0 412 245" fill="none" xmlns="http://www.w3.org/2000/svg">
<g id="&#234;&#178;&#176;&#236;&#160;&#156;&#237;&#149;&#152;&#234;&#184;&#176;" opacity="0.8">
<rect id="Rectangle 123" y="0.626953" width="412" height="243.883" rx="10" fill="white"/>
<g id="&#236;&#157;&#188;&#235;&#176;&#152;&#236;&#139;&#164;, &#236;&#162;&#140;&#236;&#132;&#157;&#236;&#132;&#160;&#237;&#131;&#157; 1/1">
<path d="M24.1531 49.4894C21.7561 49.4894 19.9541 50.9854 19.9541 53.0934C19.9541 55.1844 21.7561 56.6804 24.1531 56.6804C26.5501 56.6804 28.3521 55.1844 28.3521 53.0934C28.3521 50.9854 26.5501 49.4894 24.1531 49.4894ZM24.1531 51.3254C25.3091 51.3254 26.1591 51.9714 26.1591 53.0934C26.1591 54.2154 25.3091 54.8614 24.1531 54.8614C22.9971 54.8614 22.1301 54.2154 22.1301 53.0934C22.1301 51.9714 22.9971 51.3254 24.1531 51.3254ZM30.5281 49.0304V56.9014H32.8061V49.0304H30.5281ZM22.3001 57.5474V59.2984H30.5621V60.2334H22.3341V63.7694H24.5441V61.8654H32.8061V57.5474H22.3001ZM22.3341 62.8514V64.6024H33.1971V62.8514H22.3341ZM45.1668 49.0474V60.6244H47.4278V49.0474H45.1668ZM46.7818 53.4674V55.3204H49.5188V53.4674H46.7818ZM37.2788 62.6984V64.5004H47.9888V62.6984H37.2788ZM37.2788 59.4514V63.0894H39.5398V59.4514H37.2788ZM35.4938 50.1524V58.1424H43.0588V50.1524H40.8148V52.4134H37.7378V50.1524H35.4938ZM37.7378 54.1304H40.8148V56.3744H37.7378V54.1304ZM61.1655 49.0304V56.9864H63.4435V49.0304H61.1655ZM52.9375 57.6834V59.4004H61.1995V60.3184H52.9715V63.5314H55.1815V61.9504H63.4435V57.6834H52.9375ZM52.9715 62.9194V64.6704H63.8345V62.9194H52.9715ZM54.0425 49.3874V50.5774C54.0425 52.4984 52.9205 54.4704 50.2855 55.2694L51.3735 57.0544C54.4505 56.1194 55.9125 53.4844 55.9125 50.5774V49.3874H54.0425ZM54.5015 49.3874V50.5774C54.5015 53.4164 55.9125 55.8814 58.9385 56.7654L60.0265 55.0144C57.4595 54.2834 56.3545 52.4474 56.3545 50.5774V49.3874H54.5015ZM68.188 61.2423L68.1796 62.8444C68.1796 63.4586 68.0247 64.0784 67.7148 64.7037C67.4104 65.3291 67.0231 65.8409 66.5527 66.2394L65.3076 65.6002C65.4459 65.3457 65.5815 65.0911 65.7143 64.8365C65.8471 64.582 65.9578 64.3025 66.0463 63.9982C66.1349 63.6938 66.1792 63.3479 66.1792 62.9606V61.2423H68.188ZM77.0191 50.9004V51.7674C77.0191 53.6034 75.8971 55.4224 73.3471 56.1874L74.4521 57.9384C77.4271 57.0544 78.8551 54.5724 78.8551 51.7674V50.9004H77.0191ZM77.4781 50.9004V51.7674C77.4781 54.4364 78.8721 56.7994 81.8301 57.6494L82.8841 55.8984C80.3851 55.1674 79.3141 53.4674 79.3141 51.7674V50.9004H77.4781ZM73.9081 50.2714V52.1074H82.4251V50.2714H73.9081ZM77.0361 57.2584V60.6414H79.2971V57.2584H77.0361ZM85.1791 55.2354V57.1224H87.9501V55.2354H85.1791ZM83.6151 49.0304V64.7724H85.8761V49.0304H83.6151ZM73.5511 61.7804C76.1861 61.7974 79.6881 61.7974 82.9691 61.1854L82.7991 59.5364C79.6711 59.9784 75.9821 59.9614 73.2791 59.9614L73.5511 61.7804ZM96.8088 51.9544V53.7904H100.005V51.9544H96.8088ZM92.3718 49.8464V51.3254C92.3718 53.4504 91.3008 55.5244 88.6658 56.3914L89.8558 58.1764C92.8478 57.1394 94.2248 54.4364 94.2248 51.3254V49.8464H92.3718ZM92.8308 49.8464V51.4614C92.8308 54.3684 94.1398 56.9184 96.9958 57.9044L98.1688 56.1364C95.7038 55.3374 94.6498 53.4164 94.6498 51.4614V49.8464H92.8308ZM91.2158 59.1114V60.8964H99.6818V64.7724H101.943V59.1114H91.2158ZM99.6818 49.0304V58.3974H101.943V49.0304H99.6818ZM112.127 52.3794V54.1984H115.782V52.3794H112.127ZM107.69 49.9994V51.6994C107.69 53.9264 106.602 56.1024 104.001 56.9694L105.191 58.7374C108.166 57.6494 109.509 54.9124 109.509 51.6994V49.9994H107.69ZM108.183 49.9994V51.7164C108.183 54.6914 109.475 57.3264 112.297 58.3464L113.504 56.6124C111.022 55.7624 109.985 53.7394 109.985 51.7164V49.9994H108.183ZM115 49.0474V60.6584H117.261V49.0474H115ZM106.84 62.6984V64.5004H117.601V62.6984H106.84ZM106.84 59.4854V63.7014H109.118V59.4854H106.84ZM119.932 56.2044V58.0404H121.02C123.366 58.0404 124.896 57.9894 126.698 57.6834L126.494 55.8814C124.76 56.1704 123.298 56.2044 121.02 56.2044H119.932ZM119.932 50.0844V57.2074H122.108V51.8864H126.137V50.0844H119.932ZM121.462 53.1614V54.8614H125.967V53.1614H121.462ZM130.676 49.0304V58.6354H132.818V49.0304H130.676ZM128.789 52.8894V54.6914H131.288V52.8894H128.789ZM127.31 49.3194V58.5334H129.418V49.3194H127.31ZM122.006 59.3154V61.1174H130.574V64.7724H132.818V59.3154H122.006Z" fill="#1E1E1E"/>
<path d="M148.528 51.1486V63.2594H146.137V53.9044L143.265 54.8175V52.9332L148.271 51.1486H148.528ZM157.405 51.1735L152.973 64.297H151.196L155.629 51.1735H157.405ZM163.958 51.1486V63.2594H161.568V53.9044L158.695 54.8175V52.9332L163.701 51.1486H163.958Z" fill="#5669F6"/>
</g>
<path id="22.12.07 (&#236;&#136;&#152;)" d="M25.9712 39.782V40.8953H18.9912V39.9211L22.4849 36.032C22.9146 35.5535 23.2466 35.1482 23.481 34.8162C23.7202 34.4792 23.8862 34.179 23.979 33.9153C24.0767 33.6467 24.1255 33.3733 24.1255 33.095C24.1255 32.7434 24.0522 32.426 23.9058 32.1428C23.7642 31.8547 23.5542 31.6252 23.2759 31.4543C22.9976 31.2834 22.6606 31.198 22.2651 31.198C21.7915 31.198 21.396 31.2908 21.0786 31.4763C20.7661 31.657 20.5317 31.9109 20.3755 32.238C20.2192 32.5652 20.1411 32.9412 20.1411 33.366H18.7861C18.7861 32.7654 18.918 32.2161 19.1816 31.718C19.4453 31.22 19.8359 30.8245 20.3535 30.5315C20.8711 30.2336 21.5083 30.0847 22.2651 30.0847C22.939 30.0847 23.5151 30.2043 23.9937 30.4436C24.4722 30.678 24.8384 31.01 25.0923 31.4397C25.3511 31.8645 25.4805 32.3625 25.4805 32.9338C25.4805 33.2463 25.4268 33.5637 25.3193 33.886C25.2168 34.2034 25.0728 34.5208 24.8872 34.8381C24.7065 35.1555 24.4941 35.468 24.25 35.7756C24.0107 36.0833 23.7544 36.386 23.481 36.6838L20.6245 39.782H25.9712ZM34.0887 39.782V40.8953H27.1087V39.9211L30.6024 36.032C31.0321 35.5535 31.3641 35.1482 31.5985 34.8162C31.8377 34.4792 32.0037 34.179 32.0965 33.9153C32.1942 33.6467 32.243 33.3733 32.243 33.095C32.243 32.7434 32.1697 32.426 32.0233 32.1428C31.8817 31.8547 31.6717 31.6252 31.3934 31.4543C31.1151 31.2834 30.7781 31.198 30.3826 31.198C29.909 31.198 29.5135 31.2908 29.1961 31.4763C28.8836 31.657 28.6492 31.9109 28.493 32.238C28.3367 32.5652 28.2586 32.9412 28.2586 33.366H26.9036C26.9036 32.7654 27.0355 32.2161 27.2991 31.718C27.5628 31.22 27.9534 30.8245 28.471 30.5315C28.9886 30.2336 29.6258 30.0847 30.3826 30.0847C31.0565 30.0847 31.6326 30.2043 32.1112 30.4436C32.5897 30.678 32.9559 31.01 33.2098 31.4397C33.4686 31.8645 33.598 32.3625 33.598 32.9338C33.598 33.2463 33.5443 33.5637 33.4368 33.886C33.3343 34.2034 33.1903 34.5208 33.0047 34.8381C32.824 35.1555 32.6116 35.468 32.3675 35.7756C32.1282 36.0833 31.8719 36.386 31.5985 36.6838L28.742 39.782H34.0887ZM35.3873 40.1775C35.3873 39.948 35.4581 39.7551 35.5997 39.5989C35.7462 39.4377 35.9562 39.3572 36.2296 39.3572C36.5031 39.3572 36.7106 39.4377 36.8522 39.5989C36.9987 39.7551 37.0719 39.948 37.0719 40.1775C37.0719 40.4021 36.9987 40.5925 36.8522 40.7488C36.7106 40.905 36.5031 40.9832 36.2296 40.9832C35.9562 40.9832 35.7462 40.905 35.5997 40.7488C35.4581 40.5925 35.3873 40.4021 35.3873 40.1775ZM43.3071 30.1726V40.8953H41.9521V31.8645L39.2202 32.8606V31.6375L43.0947 30.1726H43.3071ZM53.9588 39.782V40.8953H46.9788V39.9211L50.4724 36.032C50.9021 35.5535 51.2342 35.1482 51.4685 34.8162C51.7078 34.4792 51.8738 34.179 51.9666 33.9153C52.0642 33.6467 52.1131 33.3733 52.1131 33.095C52.1131 32.7434 52.0398 32.426 51.8933 32.1428C51.7517 31.8547 51.5418 31.6252 51.2635 31.4543C50.9851 31.2834 50.6482 31.198 50.2527 31.198C49.7791 31.198 49.3836 31.2908 49.0662 31.4763C48.7537 31.657 48.5193 31.9109 48.3631 32.238C48.2068 32.5652 48.1287 32.9412 48.1287 33.366H46.7737C46.7737 32.7654 46.9055 32.2161 47.1692 31.718C47.4329 31.22 47.8235 30.8245 48.3411 30.5315C48.8587 30.2336 49.4959 30.0847 50.2527 30.0847C50.9265 30.0847 51.5027 30.2043 51.9812 30.4436C52.4597 30.678 52.826 31.01 53.0799 31.4397C53.3387 31.8645 53.468 32.3625 53.468 32.9338C53.468 33.2463 53.4143 33.5637 53.3069 33.886C53.2044 34.2034 53.0603 34.5208 52.8748 34.8381C52.6941 35.1555 52.4817 35.468 52.2376 35.7756C51.9983 36.0833 51.742 36.386 51.4685 36.6838L48.6121 39.782H53.9588ZM55.2574 40.1775C55.2574 39.948 55.3282 39.7551 55.4698 39.5989C55.6163 39.4377 55.8263 39.3572 56.0997 39.3572C56.3731 39.3572 56.5807 39.4377 56.7223 39.5989C56.8688 39.7551 56.942 39.948 56.942 40.1775C56.942 40.4021 56.8688 40.5925 56.7223 40.7488C56.5807 40.905 56.3731 40.9832 56.0997 40.9832C55.8263 40.9832 55.6163 40.905 55.4698 40.7488C55.3282 40.5925 55.2574 40.4021 55.2574 40.1775ZM65.4184 34.7136V36.3396C65.4184 37.2136 65.3403 37.9509 65.184 38.5515C65.0278 39.1521 64.8031 39.6355 64.5102 40.0017C64.2172 40.3679 63.8632 40.634 63.4482 40.8C63.038 40.9612 62.5741 41.0417 62.0566 41.0417C61.6464 41.0417 61.268 40.9905 60.9213 40.8879C60.5746 40.7854 60.2621 40.6218 59.9838 40.3972C59.7104 40.1677 59.476 39.8699 59.2807 39.5037C59.0854 39.1375 58.9364 38.6931 58.8339 38.1707C58.7314 37.6482 58.6801 37.0378 58.6801 36.3396V34.7136C58.6801 33.8396 58.7582 33.1072 58.9145 32.5164C59.0756 31.9255 59.3027 31.4519 59.5956 31.0955C59.8886 30.7341 60.2402 30.4753 60.6503 30.3191C61.0654 30.1628 61.5292 30.0847 62.0419 30.0847C62.457 30.0847 62.8378 30.136 63.1845 30.2385C63.5361 30.3362 63.8486 30.4949 64.122 30.7146C64.3954 30.9294 64.6274 31.2175 64.8178 31.5789C65.0131 31.9353 65.162 32.3723 65.2646 32.8899C65.3671 33.4075 65.4184 34.0154 65.4184 34.7136ZM64.0561 36.5593V34.4866C64.0561 34.0081 64.0268 33.5881 63.9682 33.2268C63.9145 32.8606 63.8339 32.5481 63.7265 32.2893C63.6191 32.0305 63.4823 31.8206 63.3163 31.6594C63.1552 31.4983 62.9672 31.3811 62.7524 31.3079C62.5424 31.2297 62.3056 31.1907 62.0419 31.1907C61.7197 31.1907 61.434 31.2517 61.185 31.3738C60.936 31.491 60.726 31.679 60.5551 31.9377C60.3891 32.1965 60.2621 32.5359 60.1742 32.9558C60.0863 33.3757 60.0424 33.886 60.0424 34.4866V36.5593C60.0424 37.0378 60.0693 37.4602 60.123 37.8264C60.1816 38.1926 60.267 38.51 60.3793 38.7786C60.4916 39.0422 60.6283 39.2595 60.7895 39.4304C60.9506 39.6013 61.1362 39.7283 61.3461 39.8113C61.561 39.8894 61.7978 39.9285 62.0566 39.9285C62.3886 39.9285 62.6791 39.865 62.9281 39.738C63.1772 39.6111 63.3847 39.4133 63.5507 39.1448C63.7216 38.8713 63.8486 38.5222 63.9316 38.0974C64.0146 37.6677 64.0561 37.155 64.0561 36.5593ZM73.7336 30.2312V30.9929L69.3171 40.8953H67.8889L72.2981 31.3445H66.5266V30.2312H73.7336ZM78.455 36.6326V36.5593C78.455 35.4949 78.5746 34.533 78.8138 33.6736C79.0531 32.8093 79.3583 32.0525 79.7294 31.4031C80.1005 30.7537 80.4911 30.2166 80.9012 29.7917C81.3114 29.3621 81.6898 29.052 82.0365 28.8616L82.3221 29.7551C82.0341 29.9749 81.7411 30.2776 81.4432 30.6633C81.1503 31.0491 80.8793 31.5227 80.6303 32.0842C80.3861 32.6458 80.1884 33.2976 80.037 34.0398C79.8856 34.782 79.8099 35.6169 79.8099 36.5447V36.6472C79.8099 37.575 79.8856 38.4124 80.037 39.1594C80.1884 39.9016 80.3861 40.5559 80.6303 41.1223C80.8793 41.6887 81.1503 42.1697 81.4432 42.5652C81.7411 42.9656 82.0341 43.283 82.3221 43.5173L82.0365 44.3376C81.6898 44.1472 81.3114 43.8372 80.9012 43.4075C80.4911 42.9827 80.1005 42.4456 79.7294 41.7961C79.3583 41.1516 79.0531 40.3972 78.8138 39.533C78.5746 38.6687 78.455 37.7019 78.455 36.6326ZM88.5201 28.9853V29.7353C88.5201 31.6703 86.1351 33.2903 83.6601 33.6653L84.1551 34.6703C86.9751 34.1903 89.6151 32.3303 89.6151 29.7353V28.9853H88.5201ZM88.7451 28.9853V29.7353C88.7451 32.3003 91.4001 34.1903 94.1901 34.6703L94.6851 33.6653C92.2401 33.2903 89.8251 31.6253 89.8251 29.7353V28.9853H88.7451ZM88.5201 36.9053V42.0653H89.7501V36.9053H88.5201ZM83.0451 36.1403V37.1753H95.3001V36.1403H83.0451ZM99.9268 36.5593V36.6326C99.9268 37.7019 99.8072 38.6687 99.5679 39.533C99.3286 40.3972 99.0235 41.1516 98.6524 41.7961C98.2813 42.4456 97.8906 42.9827 97.4805 43.4075C97.0703 43.8372 96.6919 44.1472 96.3452 44.3376L96.0596 43.5173C96.3477 43.2976 96.6382 42.99 96.9312 42.5945C97.2241 42.2039 97.4951 41.7205 97.7442 41.1443C97.9932 40.573 98.1934 39.9138 98.3447 39.1667C98.4961 38.4148 98.5718 37.575 98.5718 36.6472V36.5447C98.5718 35.6169 98.4912 34.7795 98.3301 34.0325C98.169 33.2805 97.959 32.6189 97.7002 32.0476C97.4463 31.4763 97.1729 30.9954 96.8799 30.6047C96.5918 30.2092 96.3184 29.9041 96.0596 29.6892L96.3452 28.8616C96.6919 29.052 97.0703 29.3621 97.4805 29.7917C97.8906 30.2166 98.2813 30.7537 98.6524 31.4031C99.0235 32.0525 99.3286 32.8093 99.5679 33.6736C99.8072 34.533 99.9268 35.4949 99.9268 36.5593Z" fill="#636363"/>
<path id="Vector 53" opacity="0.5" d="M184.164 19.7734L205.998 12.9694L227.837 19.7734" stroke="#5669F6" stroke-width="5" stroke-linecap="round" stroke-linejoin="round"/>
<rect id="Rectangle 96" x="272.35" y="80.1375" width="121.339" height="46.8733" rx="5.5" fill="#5669F6" stroke="#5669F6"/>
<g id="Group 53" filter="url(#filter0_d_1162_6161)">
<g id="Group 96">
<rect id="Rectangle 96_2" x="18.5977" y="80.1375" width="121.339" height="46.8733" rx="5.5" fill="white" stroke="#5669F6"/>
<rect id="Rectangle 97" x="146.598" y="80.1375" width="121.339" height="46.8733" rx="5.5" fill="white" stroke="#5669F6"/>
<path id="&#236;&#183;&#168;&#236;&#134;&#140;" d="M68.533 97.8664V98.0534C68.533 99.4134 67.462 100.705 65.031 101.147L65.932 102.898C68.958 102.286 70.352 100.382 70.352 98.0534V97.8664H68.533ZM68.992 97.8664V98.0534C68.992 100.28 70.386 102.099 73.361 102.66L74.245 100.926C71.865 100.501 70.811 99.3284 70.811 98.0534V97.8664H68.992ZM65.456 96.4384V98.1724H73.871V96.4384H65.456ZM68.533 94.9084V97.6794H70.811V94.9084H68.533ZM68.516 103.816V110.14H70.777V103.816H68.516ZM75.401 94.8744V110.616H77.645V94.8744H75.401ZM64.793 105.397C67.598 105.397 71.253 105.346 74.653 104.734L74.5 103.102C71.202 103.544 67.377 103.561 64.521 103.561L64.793 105.397ZM79.8056 106.927V108.78H94.0516V106.927H79.8056ZM85.7216 103.425V107.42H87.9656V103.425H85.7216ZM85.6366 95.7414V96.8804C85.6366 99.0564 83.7156 101.47 80.1286 102.048L81.0636 103.935C85.1776 103.187 87.6086 100.229 87.6086 96.8804V95.7414H85.6366ZM86.0786 95.7414V96.8804C86.0786 100.28 88.5096 103.17 92.6406 103.935L93.5756 102.048C89.9716 101.47 88.0506 99.1074 88.0506 96.8804V95.7414H86.0786Z" fill="#5669F6"/>
<path id="&#235;&#139;&#180;&#236;&#149;&#132;&#235;&#145;&#144;&#234;&#184;&#176;" d="M186.059 100.875C184.359 101.232 182.812 101.334 180.024 101.351V97.6624H184.767V95.8604H177.797V103.153H179.106C182.574 103.153 184.359 103.068 186.28 102.643L186.059 100.875ZM181.554 106.128H187.334V108.627H181.554V106.128ZM179.344 110.378H189.527V104.36H179.344V110.378ZM191.601 98.4274H189.527V94.8914H187.283V103.68H189.527V100.246H191.601V98.4274ZM196.72 105.142C195.547 105.142 194.765 103.901 194.765 101.572C194.765 99.2604 195.547 98.0194 196.72 98.0194C197.876 98.0194 198.675 99.2604 198.675 101.572C198.675 103.901 197.876 105.142 196.72 105.142ZM196.72 95.9964C194.34 95.9964 192.606 98.1384 192.606 101.572C192.606 105.023 194.34 107.182 196.72 107.182C199.083 107.182 200.834 105.023 200.834 101.572C200.834 98.1384 199.083 95.9964 196.72 95.9964ZM207.056 100.807H204.778V94.9084H202.534V110.565H204.778V102.66H207.056V100.807ZM220.386 100.45H211.92V97.5264H220.216V95.7414H209.625V102.235H220.386V100.45ZM222.018 103.765H207.823V105.584H213.756V110.548H216V105.584H222.018V103.765ZM224.025 96.5234V98.3084H229.244C228.921 101.776 227.187 104.224 223.192 106.145L224.365 107.913C229.924 105.227 231.539 101.317 231.539 96.5234H224.025ZM233.936 94.8914V110.548H236.197V94.8914H233.936Z" fill="#5669F6"/>
</g>
</g>
<path id="&#234;&#178;&#176;&#236;&#160;&#156;&#237;&#149;&#152;&#234;&#184;&#176;_2" d="M313.8 99.5049V100.848H310.332V102.531H313.8V103.704H316.044V95.8499H313.8V97.8219H310.927C310.995 97.3799 311.029 96.9209 311.029 96.4449H304.042V98.2299H308.564C308.292 100.066 306.694 101.562 303.141 102.259L303.889 104.061C307.323 103.313 309.533 101.834 310.485 99.5049H313.8ZM307.986 109.586V108.6H316.044V104.282H305.725V106.05H313.8V106.934H305.742V111.354H316.367V109.586H307.986ZM323.237 99.2329H325.515V97.4139H318.545V99.2329H321.061V99.9979C321.061 102.684 320.245 105.489 317.967 106.934L319.293 108.583C320.704 107.699 321.622 106.169 322.166 104.384C322.676 106.033 323.577 107.376 324.954 108.209L326.263 106.577C324.002 105.251 323.237 102.616 323.237 99.9979V99.2329ZM326.416 101.188H324.427V103.007H326.416V110.793H328.507V96.1049H326.416V101.188ZM329.578 95.8329V111.49H331.703V95.8329H329.578ZM338.114 106.475C337.06 106.475 336.278 105.761 336.278 104.571C336.278 103.381 337.06 102.65 338.114 102.65C339.168 102.65 339.933 103.381 339.933 104.554C339.933 105.761 339.168 106.475 338.114 106.475ZM338.114 100.831C335.836 100.831 334.136 102.378 334.136 104.554C334.136 106.764 335.836 108.311 338.114 108.311C340.375 108.311 342.058 106.764 342.058 104.554C342.058 102.378 340.375 100.831 338.114 100.831ZM339.219 96.1219H336.975V98.1619H333.507V99.9469H342.619V98.1619H339.219V96.1219ZM348.127 101.97H345.883V95.8499H343.639V111.507H345.883V103.823H348.127V101.97ZM349.777 97.4649V99.2499H354.996C354.673 102.718 352.939 105.166 348.944 107.087L350.117 108.855C355.676 106.169 357.291 102.259 357.291 97.4649H349.777ZM359.688 95.8329V111.49H361.949V95.8329H359.688Z" fill="white"/>
</g>
<defs>
<filter id="filter0_d_1162_6161" x="16.0977" y="79.6375" width="254.339" height="51.8733" filterUnits="userSpaceOnUse" color-interpolation-filters="sRGB">
<feFlood flood-opacity="0" result="BackgroundImageFix"/>
<feColorMatrix in="SourceAlpha" type="matrix" values="0 0 0 0 0 0 0 0 0 0 0 0 0 0 0 0 0 0 127 0" result="hardAlpha"/>
<feOffset dy="2"/>
<feGaussianBlur stdDeviation="1"/>
<feComposite in2="hardAlpha" operator="out"/>
<feColorMatrix type="matrix" values="0 0 0 0 0 0 0 0 0 0 0 0 0 0 0 0 0 0 0.25 0"/>
<feBlend mode="normal" in2="BackgroundImageFix" result="effect1_dropShadow_1162_6161"/>
<feBlend mode="normal" in="SourceGraphic" in2="effect1_dropShadow_1162_6161" result="shape"/>
</filter>
</defs>
</svg>
