<svg width="22" height="21" viewBox="0 0 22 21" fill="none" xmlns="http://www.w3.org/2000/svg">
<path d="M3.98034 14.3898C6.34719 13.427 8.61376 12.9456 10.78 12.9456C12.9463 12.9456 15.1928 13.427 17.5195 14.3898C19.8864 15.3125 21.0698 16.536 21.0698 18.0605V20.6479H0.490234V18.0605C0.490234 16.536 1.6536 15.3125 3.98034 14.3898ZM14.3905 8.8538C13.3876 9.8567 12.1841 10.3582 10.78 10.3582C9.37596 10.3582 8.17248 9.8567 7.16958 8.8538C6.16667 7.85089 5.66522 6.64741 5.66522 5.24334C5.66522 3.83928 6.16667 2.63579 7.16958 1.63289C8.17248 0.589869 9.37596 0.0683594 10.78 0.0683594C12.1841 0.0683594 13.3876 0.589869 14.3905 1.63289C15.3934 2.63579 15.8948 3.83928 15.8948 5.24334C15.8948 6.64741 15.3934 7.85089 14.3905 8.8538Z" fill="#03CF5D"/>
</svg>
