<svg width="28" height="28" viewBox="0 0 28 28" fill="none" xmlns="http://www.w3.org/2000/svg">
<path fill-rule="evenodd" clip-rule="evenodd" d="M14.0002 2.33325C7.56016 2.33325 2.3335 7.55992 2.3335 13.9999C2.3335 20.4399 7.56016 25.6666 14.0002 25.6666C20.4402 25.6666 25.6668 20.4399 25.6668 13.9999C25.6668 7.55992 20.4402 2.33325 14.0002 2.33325ZM21.4202 19.6349C19.7518 17.6049 15.7035 16.9166 14.0002 16.9166C12.2968 16.9166 8.2485 17.6049 6.58016 19.6349C5.39016 18.0716 4.66683 16.1233 4.66683 13.9999C4.66683 8.85492 8.85516 4.66659 14.0002 4.66659C19.1452 4.66659 23.3335 8.85492 23.3335 13.9999C23.3335 16.1233 22.6102 18.0716 21.4202 19.6349ZM9.91683 11.0833C9.91683 8.81992 11.7368 6.99992 14.0002 6.99992C16.2635 6.99992 18.0835 8.81992 18.0835 11.0833C18.0835 13.3466 16.2635 15.1666 14.0002 15.1666C11.7368 15.1666 9.91683 13.3466 9.91683 11.0833Z" fill="#636363"/>
</svg>
