<svg width="195" height="35" viewBox="0 0 195 35" fill="none" xmlns="http://www.w3.org/2000/svg">
<path d="M12.1426 0.30077V16.0428H14.3016V0.30077H12.1426ZM10.1536 6.23377V8.03577H12.7546V6.23377H10.1536ZM5.46163 2.22177V2.69777C5.46163 6.47177 4.20363 9.12377 0.616625 11.2488L1.92563 12.8128C6.32863 10.2458 7.62063 6.65877 7.62063 2.22177H5.46163ZM1.41563 2.22177V4.04077H6.12463V2.22177H1.41563ZM8.65763 0.70877V15.3628H10.7656V0.70877H8.65763ZM26.9513 0.317769V11.6228H29.2293V0.317769H26.9513ZM18.7403 13.9688V15.7708H29.6203V13.9688H18.7403ZM18.7403 10.4838V14.6998H21.0013V10.4838H18.7403ZM20.6613 1.30377C18.2473 1.30377 16.3773 2.96977 16.3773 5.29877C16.3773 7.61077 18.2473 9.29377 20.6613 9.29377C23.0753 9.29377 24.9283 7.61077 24.9283 5.29877C24.9283 2.96977 23.0753 1.30377 20.6613 1.30377ZM20.6613 3.25877C21.8173 3.25877 22.7183 4.00677 22.7183 5.29877C22.7183 6.57377 21.8173 7.32177 20.6613 7.32177C19.4883 7.32177 18.5873 6.57377 18.5873 5.29877C18.5873 4.00677 19.4883 3.25877 20.6613 3.25877ZM43.9054 4.10877V5.94477H46.8974V4.10877H43.9054ZM46.2854 0.30077V9.65077H48.5464V0.30077H46.2854ZM43.2084 9.99077C39.8764 9.99077 37.8194 11.1298 37.8194 13.0338C37.8194 14.9548 39.8764 16.0598 43.2084 16.0598C46.5404 16.0598 48.5974 14.9548 48.5974 13.0338C48.5974 11.1298 46.5404 9.99077 43.2084 9.99077ZM43.2084 11.7078C45.2654 11.7078 46.3534 12.1328 46.3534 13.0338C46.3534 13.9178 45.2654 14.3428 43.2084 14.3428C41.1684 14.3428 40.0804 13.9178 40.0804 13.0338C40.0804 12.1328 41.1684 11.7078 43.2084 11.7078ZM39.0094 1.88177V2.86777C39.0094 4.89077 37.8874 6.98177 35.2864 7.86577L36.4424 9.65077C39.4514 8.63077 40.8454 5.87677 40.8454 2.86777V1.88177H39.0094ZM39.4854 1.88177V2.86777C39.4854 5.67277 40.8284 8.29077 43.7524 9.25977L44.8574 7.47477C42.3754 6.64177 41.3044 4.72077 41.3044 2.86777V1.88177H39.4854ZM35.8984 1.25277V3.05477H44.3644V1.25277H35.8984ZM50.707 12.3878V14.2238H64.953V12.3878H50.707ZM56.674 9.02177V12.8298H58.935V9.02177H56.674ZM52.203 1.30377V9.49777H63.406V1.30377H61.162V3.71777H54.447V1.30377H52.203ZM54.447 5.48577H61.162V7.69577H54.447V5.48577ZM67.7767 4.55077V6.33577H78.6907V4.55077H67.7767ZM66.0087 7.96777V9.76977H80.2717V7.96777H66.0087ZM67.7767 0.86177V5.43477H70.0207V0.86177H67.7767ZM67.6237 13.9008V15.7028H78.7757V13.9008H67.6237ZM67.6237 11.0278V14.3768H69.8847V11.0278H67.6237ZM95.3728 0.30077V11.7418H97.6338V0.30077H95.3728ZM96.9878 4.80577V6.65877H99.7248V4.80577H96.9878ZM87.4848 13.9688V15.7708H98.1948V13.9688H87.4848ZM87.4848 10.5518V14.7678H89.7458V10.5518H87.4848ZM89.6268 1.30377C87.2128 1.30377 85.3428 2.98677 85.3428 5.31577C85.3428 7.62777 87.2128 9.31077 89.6268 9.31077C92.0408 9.31077 93.9108 7.62777 93.9108 5.31577C93.9108 2.98677 92.0408 1.30377 89.6268 1.30377ZM89.6268 3.27577C90.7998 3.27577 91.7008 4.02377 91.7008 5.31577C91.7008 6.59077 90.7998 7.33877 89.6268 7.33877C88.4708 7.33877 87.5528 6.59077 87.5528 5.31577C87.5528 4.02377 88.4708 3.27577 89.6268 3.27577ZM108.991 4.36377V6.18277H112.663V4.36377H108.991ZM111.473 0.317769V11.7928H113.734V0.317769H111.473ZM103.347 13.9688V15.7708H114.091V13.9688H103.347ZM103.347 10.8238V15.0398H105.608V10.8238H103.347ZM104.197 2.37477V3.36077C104.197 5.34977 103.075 7.40677 100.474 8.25677L101.613 10.0588C104.639 9.05577 106.033 6.31877 106.033 3.36077V2.37477H104.197ZM104.673 2.37477V3.36077C104.673 6.16577 106.016 8.78377 108.94 9.75277L110.045 7.98477C107.563 7.15177 106.492 5.19677 106.492 3.36077V2.37477H104.673ZM101.086 1.37177V3.15677H109.552V1.37177H101.086ZM125.976 0.30077V16.0428H128.22V0.30077H125.976ZM127.71 6.43777V8.32477H130.498V6.43777H127.71ZM115.81 2.62977V4.43177H124.973V2.62977H115.81ZM120.417 5.31577C118.122 5.31577 116.422 6.87977 116.422 9.07277C116.422 11.2658 118.122 12.8298 120.417 12.8298C122.712 12.8298 124.412 11.2658 124.412 9.07277C124.412 6.87977 122.712 5.31577 120.417 5.31577ZM120.417 7.15177C121.488 7.15177 122.253 7.86577 122.253 9.07277C122.253 10.2798 121.488 10.9938 120.417 10.9938C119.346 10.9938 118.581 10.2798 118.581 9.07277C118.581 7.86577 119.346 7.15177 120.417 7.15177ZM119.278 0.555769V3.30977H121.539V0.555769H119.278ZM142.604 0.30077V16.0428H144.763V0.30077H142.604ZM136.365 6.33577V8.12077H139.731V6.33577H136.365ZM139.289 0.640769V15.3458H141.397V0.640769H139.289ZM135.855 2.15377V2.61277C135.855 6.42077 134.58 9.03877 130.993 11.1978L132.268 12.7788C136.688 10.2118 138.031 6.64177 138.031 2.15377H135.855ZM131.877 2.15377V3.95577H136.569V2.15377H131.877ZM150.446 12.3878V14.2238H164.692V12.3878H150.446ZM156.413 9.02177V12.8298H158.674V9.02177H156.413ZM151.942 1.30377V9.49777H163.145V1.30377H160.901V3.71777H154.186V1.30377H151.942ZM154.186 5.48577H160.901V7.69577H154.186V5.48577ZM166.36 2.25577V4.05777H179.348V2.25577H166.36ZM165.765 12.6428V14.4618H180.011V12.6428H165.765ZM171.732 10.5688V13.3568H173.976V10.5688H171.732ZM172.837 4.73777C169.556 4.73777 167.499 5.87677 167.499 7.81477C167.499 9.75277 169.556 10.8918 172.837 10.8918C176.118 10.8918 178.175 9.75277 178.175 7.81477C178.175 5.87677 176.118 4.73777 172.837 4.73777ZM172.837 6.48877C174.809 6.48877 175.863 6.91377 175.863 7.81477C175.863 8.71577 174.809 9.12377 172.837 9.12377C170.865 9.12377 169.811 8.71577 169.811 7.81477C169.811 6.91377 170.865 6.48877 172.837 6.48877ZM171.732 0.47077V3.37777H173.976V0.47077H171.732ZM183.939 8.15477V11.4528H186.081V8.15477H183.939ZM181.151 12.9658C183.174 12.9658 186.37 12.8978 188.869 12.4388L188.75 10.7898C186.336 11.0958 182.987 11.1468 180.879 11.1468L181.151 12.9658ZM192.626 0.30077V16.0428H194.785V0.30077H192.626ZM190.722 6.55677V8.37577H193.255V6.55677H190.722ZM189.362 0.555769V15.3288H191.47V0.555769H189.362ZM181.525 6.67577V8.47777H188.41V6.67577H181.525ZM181.525 1.72877V7.21977H183.752V3.53077H188.257V1.72877H181.525ZM3.96563 28.2908V32.7108H6.20963V28.2908H3.96563ZM9.67763 28.2908V32.7108H11.9386V28.2908H9.67763ZM0.837625 32.3878V34.2238H15.0836V32.3878H0.837625ZM7.94363 21.0658C4.54363 21.0658 2.06163 22.7318 2.06163 25.2988C2.06163 27.8658 4.54363 29.5148 7.94363 29.5148C11.3266 29.5148 13.8256 27.8658 13.8256 25.2988C13.8256 22.7318 11.3266 21.0658 7.94363 21.0658ZM7.94363 22.8338C10.1366 22.8338 11.5986 23.7348 11.5986 25.2988C11.5986 26.8458 10.1366 27.7638 7.94363 27.7638C5.75063 27.7638 4.28863 26.8458 4.28863 25.2988C4.28863 23.7348 5.75063 22.8338 7.94363 22.8338Z" fill="#C4C4C4"/>
</svg>
