<svg width="254" height="57" viewBox="0 0 254 57" fill="none" xmlns="http://www.w3.org/2000/svg">
<path d="M6.01563 14.9132V18.6632H9.34063V14.9132H6.01563ZM16.1406 0.838229V23.9882H19.4656V0.838229H16.1406ZM0.665625 20.1382C4.76563 20.1382 10.1406 20.1132 15.1656 19.1882L14.9406 16.7882C10.0656 17.4382 4.46563 17.4382 0.265625 17.4632L0.665625 20.1382ZM0.715625 3.38823V5.98823H14.6406V3.38823H0.715625ZM7.66563 6.91323C4.29063 6.91323 1.91563 8.66323 1.91563 11.2382C1.91563 13.8382 4.29063 15.5882 7.66563 15.5882C11.0906 15.5882 13.4656 13.8382 13.4656 11.2382C13.4656 8.66323 11.0906 6.91323 7.66563 6.91323ZM7.66563 9.41323C9.21563 9.41323 10.2906 10.0632 10.2906 11.2382C10.2906 12.4382 9.21563 13.0882 7.66563 13.0882C6.16563 13.0882 5.09063 12.4382 5.09063 11.2382C5.09063 10.0632 6.16563 9.41323 7.66563 9.41323ZM6.01563 0.938228V4.88823H9.34063V0.938228H6.01563ZM28.8437 12.7132V17.7882H32.1687V12.7132H28.8437ZM38.9937 0.838229V18.3632H42.3187V0.838229H38.9937ZM25.6437 20.9382V23.5882H42.8187V20.9382H25.6437ZM25.6437 16.7132V21.6382H28.9687V16.7132H25.6437ZM23.1437 13.7132C27.3187 13.7132 32.7437 13.5882 37.6687 12.7632L37.4687 10.3882C32.6187 11.0132 26.9687 11.0632 22.7437 11.0632L23.1437 13.7132ZM34.6187 14.2882V16.5632H39.7187V14.2882H34.6187ZM30.1937 1.63823C26.7937 1.63823 24.4187 3.31323 24.4187 5.76323C24.4187 8.23823 26.7937 9.88823 30.1937 9.88823C33.5687 9.88823 35.9437 8.23823 35.9437 5.76323C35.9437 3.31323 33.5687 1.63823 30.1937 1.63823ZM30.1937 4.06323C31.7187 4.06323 32.7937 4.63823 32.7937 5.76323C32.7937 6.88823 31.7187 7.46323 30.1937 7.46323C28.6437 7.46323 27.5687 6.88823 27.5687 5.76323C27.5687 4.63823 28.6437 4.06323 30.1937 4.06323ZM60.2967 0.813228V23.9632H63.6467V0.813228H60.2967ZM62.7717 9.66323V12.3882H66.8467V9.66323H62.7717ZM54.2217 3.21323V3.78823C54.2217 10.0632 51.3467 14.3132 45.2717 17.4632L47.1217 19.9882C54.8217 16.1132 57.4717 10.1632 57.4717 3.21323H54.2217ZM46.5467 3.21323V5.88823H55.9217V3.21323H46.5467ZM84.0748 0.838229V13.2882H87.4248V0.838229H84.0748ZM72.0248 14.2882V23.7382H87.4248V14.2882H84.1248V16.4382H75.2998V14.2882H72.0248ZM75.2998 18.9882H84.1248V21.0882H75.2998V18.9882ZM74.8248 1.78823C71.2248 1.78823 68.5248 4.06323 68.5248 7.26323C68.5248 10.4632 71.2248 12.7382 74.8248 12.7382C78.4248 12.7382 81.0998 10.4632 81.0998 7.26323C81.0998 4.06323 78.4248 1.78823 74.8248 1.78823ZM74.8248 4.53823C76.5748 4.53823 77.8498 5.56323 77.8498 7.26323C77.8498 8.98823 76.5748 9.98823 74.8248 9.98823C73.0498 9.98823 71.7748 8.98823 71.7748 7.26323C71.7748 5.56323 73.0498 4.53823 74.8248 4.53823ZM101.328 1.16323C96.0278 1.16323 92.9528 2.56323 92.9528 5.11323C92.9528 7.66323 96.0278 9.06323 101.328 9.06323C106.603 9.06323 109.703 7.66323 109.703 5.11323C109.703 2.56323 106.603 1.16323 101.328 1.16323ZM101.328 3.58823C104.678 3.58823 106.253 4.08823 106.253 5.11323C106.253 6.18823 104.678 6.63823 101.328 6.63823C97.9778 6.63823 96.4028 6.18823 96.4028 5.11323C96.4028 4.08823 97.9778 3.58823 101.328 3.58823ZM90.8528 10.1382V12.7632H111.778V10.1382H90.8528ZM93.2528 14.0632V16.5382H105.978V17.7132H93.2778V22.0632H96.5528V20.0132H109.253V14.0632H93.2528ZM93.2778 21.3382V23.8382H109.853V21.3382H93.2778ZM126.936 1.76323C123.436 1.76323 120.886 3.78823 120.886 6.71323C120.886 9.58823 123.436 11.6632 126.936 11.6632C130.461 11.6632 133.011 9.58823 133.011 6.71323C133.011 3.78823 130.461 1.76323 126.936 1.76323ZM126.936 4.46323C128.636 4.46323 129.836 5.26323 129.836 6.71323C129.836 8.13823 128.636 8.93823 126.936 8.93823C125.261 8.93823 124.061 8.13823 124.061 6.71323C124.061 5.26323 125.261 4.46323 126.936 4.46323ZM125.386 13.9632V23.2882H128.711V13.9632H125.386ZM135.511 0.838229V23.9882H138.811V0.838229H135.511ZM119.911 15.7132C123.911 15.6882 129.386 15.6382 134.411 14.6382L134.186 12.2132C129.286 12.9632 123.561 13.0132 119.511 13.0132L119.911 15.7132ZM157.014 0.863229V18.1632H160.339V0.863229H157.014ZM159.389 7.91323V10.6382H163.414V7.91323H159.389ZM142.114 3.26323V5.86323H155.739V3.26323H142.114ZM148.939 6.68823C145.589 6.68823 143.239 8.51323 143.239 11.1632C143.239 13.8132 145.589 15.6132 148.939 15.6132C152.264 15.6132 154.614 13.8132 154.614 11.1632C154.614 8.51323 152.264 6.68823 148.939 6.68823ZM148.939 9.21323C150.414 9.21323 151.439 9.91323 151.439 11.1632C151.439 12.4132 150.414 13.0882 148.939 13.0882C147.464 13.0882 146.439 12.4132 146.439 11.1632C146.439 9.91323 147.464 9.21323 148.939 9.21323ZM147.264 0.813228V4.53823H150.589V0.813228H147.264ZM145.414 20.9382V23.5882H161.164V20.9382H145.414ZM145.414 16.8632V22.0882H148.739V16.8632H145.414ZM12.5406 38.8132V41.4882H17.9406V38.8132H12.5406ZM16.1906 32.8632V49.7382H19.5156V32.8632H16.1906ZM4.24063 52.9382V55.5882H20.0406V52.9382H4.24063ZM4.24063 48.3132V54.5132H7.56563V48.3132H4.24063ZM5.49063 35.8882V37.3382C5.49063 40.2632 3.84063 43.2882 0.015625 44.5382L1.69063 47.1882C6.14063 45.7132 8.19063 41.6882 8.19063 37.3382V35.8882H5.49063ZM6.19063 35.8882V37.3382C6.19063 41.4632 8.16563 45.3132 12.4656 46.7382L14.0906 44.1382C10.4406 42.9132 8.86563 40.0382 8.86563 37.3382V35.8882H6.19063ZM0.915625 34.4132V37.0382H13.3656V34.4132H0.915625ZM28.1687 46.5382V50.2882H31.4937V46.5382H28.1687ZM37.8937 32.8382V55.9882H41.2437V32.8382H37.8937ZM40.0687 42.2382V44.9882H44.1437V42.2382H40.0687ZM22.9687 52.1382C26.8687 52.1382 32.1187 52.1382 36.9937 51.1882L36.7437 48.7882C32.0687 49.4382 26.5687 49.4632 22.5687 49.4632L22.9687 52.1382ZM22.9937 35.3882V37.9882H36.6187V35.3882H22.9937ZM29.8437 38.9132C26.5187 38.9132 24.1937 40.6632 24.1937 43.2382C24.1937 45.8382 26.5187 47.5882 29.8437 47.5882C33.1437 47.5882 35.4937 45.8382 35.4937 43.2382C35.4937 40.6632 33.1437 38.9132 29.8437 38.9132ZM29.8437 41.4132C31.3437 41.4132 32.3437 42.0632 32.3437 43.2382C32.3437 44.4382 31.3437 45.0882 29.8437 45.0882C28.3187 45.0882 27.3437 44.4382 27.3437 43.2382C27.3437 42.0632 28.3187 41.4132 29.8437 41.4132ZM28.1687 32.9632V37.3382H31.4937V32.9632H28.1687ZM56.4467 38.9882V41.6382H62.3967V38.9882H56.4467ZM61.5467 32.8632V49.9382H64.8717V32.8632H61.5467ZM49.5467 52.9382V55.5882H65.3717V52.9382H49.5467ZM49.5467 48.2632V54.4632H52.8967V48.2632H49.5467ZM46.4717 34.3632V46.3132H57.4217V34.3632H54.1717V37.8882H49.7717V34.3632H46.4717ZM49.7717 40.4132H54.1717V43.6882H49.7717V40.4132ZM69.0748 35.7132V38.3632H88.1748V35.7132H69.0748ZM68.1998 50.9882V53.6632H89.1498V50.9882H68.1998ZM76.9748 47.9382V52.0382H80.2748V47.9382H76.9748ZM78.5998 39.3632C73.7748 39.3632 70.7498 41.0382 70.7498 43.8882C70.7498 46.7382 73.7748 48.4132 78.5998 48.4132C83.4248 48.4132 86.4498 46.7382 86.4498 43.8882C86.4498 41.0382 83.4248 39.3632 78.5998 39.3632ZM78.5998 41.9382C81.4998 41.9382 83.0498 42.5632 83.0498 43.8882C83.0498 45.2132 81.4998 45.8132 78.5998 45.8132C75.6998 45.8132 74.1498 45.2132 74.1498 43.8882C74.1498 42.5632 75.6998 41.9382 78.5998 41.9382ZM76.9748 33.0882V37.3632H80.2748V33.0882H76.9748ZM90.8528 43.2132V45.6382H111.828V43.2132H90.8528ZM93.2028 46.7882V49.0382H106.053V50.1882H93.2528V54.2632H96.5528V52.2882H109.328V46.7882H93.2028ZM93.2528 53.5632V55.8132H109.978V53.5632H93.2528ZM93.4278 33.2382V35.4632H106.003V36.6132H93.4528V40.5882H96.7528V38.6882H109.278V33.2382H93.4278ZM93.4528 39.8882V42.1382H109.703V39.8882H93.4528ZM135.336 32.8382V45.2882H138.686V32.8382H135.336ZM123.286 46.2882V55.7382H138.686V46.2882H135.386V48.4382H126.561V46.2882H123.286ZM126.561 50.9882H135.386V53.0882H126.561V50.9882ZM126.086 33.7882C122.486 33.7882 119.786 36.0632 119.786 39.2632C119.786 42.4632 122.486 44.7382 126.086 44.7382C129.686 44.7382 132.361 42.4632 132.361 39.2632C132.361 36.0632 129.686 33.7882 126.086 33.7882ZM126.086 36.5382C127.836 36.5382 129.111 37.5632 129.111 39.2632C129.111 40.9882 127.836 41.9882 126.086 41.9882C124.311 41.9882 123.036 40.9882 123.036 39.2632C123.036 37.5632 124.311 36.5382 126.086 36.5382ZM142.989 43.8632V46.5132H144.764C149.189 46.5132 151.564 46.4382 154.264 45.9382L153.939 43.3132C151.314 43.7882 149.064 43.8632 144.764 43.8632H142.989ZM142.964 34.1632V36.7882H149.839V38.9882H142.989V45.6132H146.289V41.4632H153.139V34.1632H142.964ZM158.164 32.8632V47.1132H161.489V32.8632H158.164ZM154.464 36.0382V38.6882H158.764V36.0382H154.464ZM154.464 40.9632V43.6132H158.764V40.9632H154.464ZM145.639 48.1632V50.8132H158.164V56.0132H161.489V48.1632H145.639ZM164.768 36.3132V38.9632H175.843V36.3132H164.768ZM170.343 39.9882C167.418 39.9882 165.268 42.2632 165.268 45.5132C165.268 48.7382 167.418 51.0132 170.343 51.0132C173.293 51.0132 175.418 48.7382 175.418 45.5132C175.418 42.2632 173.293 39.9882 170.343 39.9882ZM170.343 42.7632C171.593 42.7632 172.493 43.7632 172.493 45.5132C172.493 47.2632 171.593 48.2382 170.343 48.2382C169.093 48.2382 168.218 47.2632 168.218 45.5132C168.218 43.7632 169.093 42.7632 170.343 42.7632ZM181.518 32.8382V55.9882H184.693V32.8382H181.518ZM178.743 42.2382V44.9132H182.568V42.2382H178.743ZM176.668 33.2632V55.0132H179.768V33.2632H176.668ZM168.718 33.4632V37.9882H171.993V33.4632H168.718ZM196.046 35.4132V36.0882C196.046 38.4632 193.596 41.0632 188.496 41.6882L189.721 44.2882C195.596 43.4882 198.921 40.1632 198.921 36.0882V35.4132H196.046ZM196.996 35.4132V36.0882C196.996 40.1632 200.321 43.4882 206.221 44.2882L207.421 41.6882C202.321 41.0632 199.871 38.4632 199.871 36.0882V35.4132H196.996ZM196.221 47.5132V56.0132H199.521V47.5132H196.221ZM187.496 45.6132V48.2632H208.421V45.6132H187.496ZM189.346 34.0132V36.6382H206.521V34.0132H189.346ZM219.274 40.6132V43.3132H223.099V40.6132H219.274ZM214.324 34.8382V38.7382C214.324 42.6632 213.124 46.7882 209.724 48.8882L211.724 51.3882C215.424 49.1132 216.874 43.9882 216.874 38.7382V34.8382H214.324ZM215.049 34.8382V38.5882C215.049 43.5882 216.199 48.5882 219.874 50.8632L221.674 48.2632C218.524 46.2132 217.549 42.3632 217.549 38.5882V34.8382H215.049ZM226.874 32.8382V55.9882H230.049V32.8382H226.874ZM222.174 33.1882V54.9382H225.274V33.1882H222.174ZM237.452 44.5882V51.0882H240.752V44.5882H237.452ZM245.852 44.5882V51.0882H249.177V44.5882H245.852ZM232.852 50.6132V53.3132H253.802V50.6132H232.852ZM243.302 33.9632C238.302 33.9632 234.652 36.4132 234.652 40.1882C234.652 43.9632 238.302 46.3882 243.302 46.3882C248.277 46.3882 251.952 43.9632 251.952 40.1882C251.952 36.4132 248.277 33.9632 243.302 33.9632ZM243.302 36.5632C246.527 36.5632 248.677 37.8882 248.677 40.1882C248.677 42.4632 246.527 43.8132 243.302 43.8132C240.077 43.8132 237.927 42.4632 237.927 40.1882C237.927 37.8882 240.077 36.5632 243.302 36.5632Z" fill="#4E4E4E"/>
</svg>
