<svg width="204" height="46" viewBox="0 0 204 46" fill="none" xmlns="http://www.w3.org/2000/svg">
<path d="M12.4405 2.76773H8.24055V0.787734H5.60055V2.76773H1.38055V4.82773H12.4405V2.76773ZM4.86055 9.00773C4.86055 8.06773 5.70055 7.54773 6.92055 7.54773C8.16055 7.54773 8.98055 8.06773 8.98055 9.00773C8.98055 9.96773 8.16055 10.4877 6.92055 10.4877C5.70055 10.4877 4.86055 9.96773 4.86055 9.00773ZM8.24055 12.3477C10.2005 11.9677 11.4805 10.7277 11.4805 9.00773C11.4805 6.94773 9.60055 5.54773 6.92055 5.54773C4.22055 5.54773 2.34055 6.94773 2.34055 9.00773C2.34055 10.7277 3.62055 11.9677 5.60055 12.3477V13.9077C3.96055 13.9477 2.40055 13.9477 1.02055 13.9477L1.34055 16.0877C4.60055 16.0877 8.86055 16.0677 12.8805 15.3277L12.6805 13.4077C11.2405 13.6077 9.74055 13.7077 8.24055 13.8077V12.3477ZM13.6405 0.727734V19.1477H16.2805V0.727734H13.6405ZM28.399 11.4277V13.2277H31.859V14.6877H34.499V0.727734H31.859V11.4277H28.399ZM24.859 3.26773C26.079 3.26773 26.939 3.74773 26.939 4.64773C26.939 5.54773 26.079 6.00773 24.859 6.00773C23.619 6.00773 22.759 5.54773 22.759 4.64773C22.759 3.74773 23.619 3.26773 24.859 3.26773ZM24.859 7.92773C27.539 7.92773 29.439 6.60773 29.439 4.64773C29.439 2.68773 27.539 1.34773 24.859 1.34773C22.159 1.34773 20.279 2.68773 20.279 4.64773C20.279 6.60773 22.159 7.92773 24.859 7.92773ZM23.879 16.7277V14.2077H26.419V10.7277C27.899 10.6077 29.379 10.4477 30.819 10.2077L30.639 8.32773C26.759 8.82773 22.279 8.86773 18.919 8.88773L19.259 10.9877C20.639 10.9877 22.179 10.9677 23.799 10.8877V13.3477H21.239V18.8277H34.899V16.7277H23.879ZM37.9174 2.60773V4.74773H43.9374C43.4574 8.82773 41.1774 11.7477 36.8974 13.9477L38.3774 15.9677C44.4974 12.8677 46.5974 8.12773 46.5974 2.60773H37.9174ZM54.0774 7.74773H51.4974V0.707734H48.8574V19.1077H51.4974V9.92773H54.0774V7.74773ZM67.7959 0.727734V10.6277H70.4559V0.727734H67.7959ZM58.2159 11.4277V18.9277H70.4559V11.4277H67.8359V13.1477H60.8359V11.4277H58.2159ZM60.8359 15.1677H67.8359V16.8277H60.8359V15.1677ZM60.4359 1.48773C57.5759 1.48773 55.4159 3.30773 55.4159 5.82773C55.4159 8.36773 57.5759 10.1877 60.4359 10.1877C63.2959 10.1877 65.4359 8.36773 65.4359 5.82773C65.4359 3.30773 63.2959 1.48773 60.4359 1.48773ZM60.4359 3.66773C61.8359 3.66773 62.8559 4.48773 62.8559 5.82773C62.8559 7.20773 61.8359 8.00773 60.4359 8.00773C59.0359 8.00773 57.9959 7.20773 57.9959 5.82773C57.9959 4.48773 59.0359 3.66773 60.4359 3.66773ZM81.5543 2.92773C84.2343 2.92773 85.4943 3.30773 85.4943 4.12773C85.4943 4.98773 84.2343 5.34773 81.5543 5.34773C78.8943 5.34773 77.6343 4.98773 77.6343 4.12773C77.6343 3.30773 78.8943 2.92773 81.5543 2.92773ZM81.5543 7.26773C85.7743 7.26773 88.2343 6.16773 88.2343 4.12773C88.2343 2.10773 85.7743 0.987734 81.5543 0.987734C77.3543 0.987734 74.8943 2.10773 74.8943 4.12773C74.8943 6.16773 77.3543 7.26773 81.5543 7.26773ZM77.7743 15.9877H87.8543V11.2477H75.1343V13.1877H85.2543V14.1677H75.1543V19.0077H88.3343V17.0277H77.7743V15.9877ZM73.2343 8.14773V10.2077H89.8743V8.14773H73.2343ZM101.953 3.60773C103.313 3.60773 104.253 4.24773 104.253 5.40773C104.253 6.52773 103.313 7.16773 101.953 7.16773C100.613 7.16773 99.6532 6.52773 99.6532 5.40773C99.6532 4.24773 100.613 3.60773 101.953 3.60773ZM101.953 9.32773C104.733 9.32773 106.773 7.68773 106.773 5.40773C106.773 3.08773 104.733 1.46773 101.953 1.46773C99.1732 1.46773 97.1132 3.08773 97.1132 5.40773C97.1132 7.68773 99.1732 9.32773 101.953 9.32773ZM107.713 9.78773C103.813 10.3677 99.2532 10.4077 96.0332 10.4077L96.3332 12.5677C97.6332 12.5677 99.1332 12.5477 100.713 12.4877V18.5877H103.353V12.3277C104.853 12.1877 106.393 12.0077 107.873 11.7077L107.713 9.78773ZM108.753 0.727734V19.1277H111.393V0.727734H108.753ZM124.912 2.66773H120.792V0.707734H118.132V2.66773H114.052V4.72773H124.892L124.912 2.66773ZM117.472 8.92773C117.472 7.92773 118.292 7.38773 119.472 7.38773C120.632 7.38773 121.472 7.92773 121.472 8.92773C121.472 9.94773 120.632 10.4877 119.472 10.4877C118.292 10.4877 117.472 9.94773 117.472 8.92773ZM123.992 8.92773C123.992 6.84773 122.112 5.38773 119.472 5.38773C116.832 5.38773 114.952 6.84773 114.952 8.92773C114.952 11.0477 116.832 12.4877 119.472 12.4877C122.112 12.4877 123.992 11.0477 123.992 8.92773ZM119.312 13.4877H116.672V18.8277H129.212V16.7277H119.312V13.4877ZM128.552 6.34773V0.727734H125.912V14.5077H128.552V8.52773H130.992V6.34773H128.552ZM10.8005 31.4877V33.6277H13.6805V40.1677H16.3205V26.7277H13.6805V31.4877H10.8005ZM12.0205 35.7277C9.12055 34.7477 7.86055 32.4877 7.86055 30.3077V30.0677H11.4405V27.9677H1.54055V30.0677H5.16055V30.3277C5.16055 32.6477 3.84055 35.0677 0.820547 36.0477L2.16055 38.1477C4.30055 37.4277 5.74055 35.9677 6.56055 34.1477C7.36055 35.8077 8.72055 37.1277 10.7405 37.7877L12.0205 35.7277ZM6.82055 42.7277V39.0477H4.18055V44.8277H16.7405V42.7277H6.82055ZM29.979 28.7477H25.899V26.8077H23.259V28.7477H19.139V30.8277H29.979V28.7477ZM22.579 35.0077C22.579 34.0677 23.379 33.5477 24.579 33.5477C25.779 33.5477 26.579 34.0677 26.579 35.0077C26.579 35.9877 25.779 36.5077 24.579 36.5077C23.379 36.5077 22.579 35.9877 22.579 35.0077ZM25.899 38.3477C27.819 37.9477 29.079 36.7077 29.079 35.0077C29.079 32.9477 27.219 31.5477 24.579 31.5477C21.939 31.5477 20.079 32.9477 20.079 35.0077C20.079 36.7077 21.339 37.9477 23.259 38.3477V39.9077C21.639 39.9477 20.119 39.9477 18.799 39.9477L19.119 42.0877C22.239 42.0877 26.379 42.0877 30.259 41.3277L30.059 39.4277C28.739 39.6277 27.319 39.7277 25.899 39.8077V38.3477ZM35.939 34.2277H33.639V26.7277H30.999V45.1477H33.639V36.4077H35.939V34.2277ZM43.9774 35.3677H40.4774V32.7677H43.9774V35.3677ZM46.5574 33.7477H49.8374V40.3277H52.4774V26.7477H49.8374V31.6277H46.5574V27.9677H43.9774V30.7477H40.4774V27.9477H37.8574V37.4677H46.5574V33.7477ZM42.9574 42.7277V39.0077H40.3174V44.8277H52.8774V42.7277H42.9574ZM71.0759 29.0277H64.7759V26.9077H62.1359V29.0277H55.8759V31.1277H71.0759V29.0277ZM59.9159 35.5077C59.9159 34.4677 61.1559 33.9477 63.4359 33.9477C65.7559 33.9477 66.9959 34.4677 66.9959 35.5077C66.9959 36.5677 65.7559 37.0477 63.4359 37.0477C61.1559 37.0477 59.9159 36.5677 59.9159 35.5077ZM64.7759 41.1677V39.0477C67.8359 38.7477 69.6959 37.4877 69.6959 35.5077C69.6959 33.2477 67.2959 31.9077 63.4359 31.9077C59.6159 31.9077 57.1959 33.2477 57.1959 35.5077C57.1959 37.4877 59.0759 38.7677 62.1359 39.0477V41.1677H55.1559V43.3077H71.8559V41.1677H64.7759ZM85.2743 29.7277H75.3143V34.1277H88.1943V32.3477H77.9143V31.3877H87.8743V27.0477H75.2743V28.8277H85.2743V29.7277ZM77.7543 42.2077H87.9343V37.8277H75.1143V39.6077H85.3143V40.5477H75.1343V44.9877H88.4343V43.2077H77.7543V42.2077ZM73.2343 35.0077V36.9077H89.9143V35.0077H73.2343ZM108.613 26.7277V36.6277H111.273V26.7277H108.613ZM99.0332 37.4277V44.9277H111.273V37.4277H108.653V39.1477H101.653V37.4277H99.0332ZM101.653 41.1677H108.653V42.8277H101.653V41.1677ZM101.253 27.4877C98.3932 27.4877 96.2332 29.3077 96.2332 31.8277C96.2332 34.3677 98.3932 36.1877 101.253 36.1877C104.113 36.1877 106.253 34.3677 106.253 31.8277C106.253 29.3077 104.113 27.4877 101.253 27.4877ZM101.253 29.6677C102.653 29.6677 103.673 30.4877 103.673 31.8277C103.673 33.2077 102.653 34.0077 101.253 34.0077C99.8532 34.0077 98.8132 33.2077 98.8132 31.8277C98.8132 30.4877 99.8532 29.6677 101.253 29.6677ZM123.452 35.0677C121.632 35.4077 120.012 35.4877 117.372 35.5077V33.5877H122.792V27.7677H114.732V29.8877H120.192V31.6277H114.752V37.6277H116.172C119.672 37.6277 121.572 37.5677 123.712 37.1677L123.452 35.0677ZM116.852 41.0077H126.812V45.1677H129.452V38.9077H116.852V41.0077ZM126.812 26.7477V29.2677H123.852V31.3877H126.812V33.2077H123.852V35.3077H126.812V38.0877H129.452V26.7277L126.812 26.7477ZM136.55 38.9877C135.55 38.9877 134.83 38.1877 134.83 36.8077C134.83 35.4277 135.55 34.6077 136.55 34.6077C137.55 34.6077 138.27 35.4277 138.27 36.8077C138.27 38.1877 137.55 38.9877 136.55 38.9877ZM136.55 32.4077C134.19 32.4077 132.51 34.2277 132.51 36.8077C132.51 39.3677 134.19 41.1877 136.55 41.1877C138.91 41.1877 140.59 39.3677 140.59 36.8077C140.59 34.2277 138.91 32.4077 136.55 32.4077ZM137.85 27.2277H135.25V29.5077H132.11V31.6077H140.91V29.5077H137.85V27.2277ZM145.43 26.7077V34.2277H144.03V27.0677H141.57V44.3677H144.03V36.3477H145.43V45.1277H147.93V26.7077H145.43ZM151.969 35.8477C155.189 35.4077 157.449 34.0277 158.549 32.1477C159.649 34.0277 161.909 35.4077 165.129 35.8477L166.069 33.7877C162.329 33.3277 160.389 31.5277 160.129 29.7677H165.349V27.6677H151.689V29.7677H156.989C156.729 31.5277 154.769 33.3277 151.009 33.7877L151.969 35.8477ZM166.869 36.9077H150.229V39.0077H157.169V45.1877H159.809V39.0077H166.869V36.9077ZM174.167 28.3277H171.627V31.4277C171.627 34.5677 170.647 37.8677 167.947 39.5077L169.527 41.4877C171.187 40.4877 172.267 38.7277 172.907 36.6877C173.487 38.5477 174.467 40.1077 176.027 41.0677L177.467 39.0277C174.967 37.3677 174.167 34.3077 174.167 31.3277V28.3277ZM177.847 32.9477H175.527V35.0877H177.847V44.3277H180.307V27.0277H177.847V32.9477ZM181.587 26.7277V45.1477H184.087V26.7277H181.587ZM192.665 37.3477C193.305 37.4677 193.965 37.5277 194.685 37.5277C195.405 37.5277 196.085 37.4677 196.725 37.3477V40.8677H192.665V37.3477ZM194.685 29.7077C197.245 29.7077 198.965 30.7477 198.965 32.5877C198.965 34.4077 197.245 35.4677 194.685 35.4677C192.125 35.4677 190.425 34.4077 190.425 32.5877C190.425 30.7477 192.125 29.7077 194.685 29.7077ZM199.345 40.8677V36.3677C200.725 35.5077 201.565 34.1877 201.565 32.5877C201.565 29.5677 198.665 27.6277 194.685 27.6277C190.725 27.6277 187.825 29.5677 187.825 32.5877C187.805 34.1877 188.645 35.5077 190.045 36.3677V40.8677H186.365V43.0077H203.045V40.8677H199.345Z" fill="#4E4E4E"/>
</svg>
