<svg width="334" height="215" viewBox="0 0 334 215" fill="none" xmlns="http://www.w3.org/2000/svg">
<g clip-path="url(#clip0_1592_6406)">
<path d="M27.9868 213.896C27.9868 213.896 -12.4276 174.482 13.284 128.11C38.9956 81.737 73.5271 105.058 71.8562 51.0845C70.1852 -2.88977 151.274 -7.52625 177.085 8.12284C202.896 23.7732 202.742 42.6213 256.025 36.3847C309.309 30.1481 319.488 82.1347 305.625 108.63C285.957 146.221 360.213 140.021 313.423 213.895H27.9868V213.896Z" fill="#EBF3FA"/>
<path opacity="0.3" d="M205.463 121.149C205.463 121.149 214.05 84.578 243.02 80.5576C243.02 80.5576 248.656 79.8615 250.533 86.0981C252.409 92.3348 241.202 92.38 234.276 94.8881C227.349 97.3962 211.199 108.03 205.463 121.149Z" fill="#AEC3FF"/>
<path opacity="0.3" d="M204.805 114.306C204.805 114.306 201.793 84.0124 222.933 73.262C222.933 73.262 227.069 71.2369 230.142 75.5183C233.215 79.7996 224.641 82.801 219.992 86.5567C215.343 90.3124 205.758 102.737 204.805 114.306V114.306Z" fill="#AEC3FF"/>
<path d="M333.068 213.361H0.836948C0.624699 213.361 0.452637 213.534 0.452637 213.747V213.895C0.452637 214.108 0.624699 214.281 0.836948 214.281H333.068C333.281 214.281 333.453 214.108 333.453 213.895V213.747C333.453 213.534 333.281 213.361 333.068 213.361Z" fill="#2E3552"/>
<path d="M48.5018 186.391C44.0289 176.151 60.2523 167.353 60.2523 167.353C60.2523 167.353 81.6297 174.305 84.6991 172.399C87.7684 170.493 67.576 162.869 67.576 162.869C72.5579 157.97 91.6617 153.482 91.6617 153.482C91.6617 153.482 104.547 171.35 107.056 168.743C109.564 166.135 94.8428 153.507 94.8428 153.507C101.335 150.851 111.128 153.032 111.128 153.032C125.229 158.076 118.054 176.011 118.054 176.011C118.054 176.011 122.653 182.107 131.788 185.974C131.788 185.974 133.625 186.567 136.183 188.03L134.757 189.183C134.333 188.894 133.906 188.627 133.48 188.385C133.477 188.382 133.475 188.381 133.472 188.381C133.466 188.377 133.459 188.375 133.453 188.371C133.178 188.229 132.784 188.027 132.302 187.784C132.302 187.784 132.302 187.784 132.301 187.784C132.301 187.784 132.3 187.784 132.298 187.784C131.176 187.281 130.374 186.886 129.823 186.579C129.822 186.579 129.819 186.578 129.818 186.577C126.358 184.944 121.669 182.962 119.826 183.241C119.826 183.241 119.805 182.891 119.605 182.337C119.675 182.625 119.749 182.926 119.826 183.241C121.597 190.469 110.098 201.219 102.178 205.319C94.258 209.42 95.677 205.094 96.83 199.006C97.9842 192.918 106.313 187.535 107.596 184.476C108.879 181.416 104.584 182.87 100.334 186.888C96.0832 190.906 97.4675 197.292 90.708 203.918C83.9497 210.543 67.2817 201.221 67.2817 201.221C73.599 198.707 80.4164 188.57 79.3611 186.537C78.3059 184.504 65.0259 195.54 62.5131 196.707C60.0003 197.875 52.9709 196.634 48.4993 186.394L48.5018 186.391Z" fill="#CDE0FB"/>
<path d="M252.755 198.703C259.279 190.968 247.448 179.102 247.448 179.102C247.448 179.102 227.079 179.583 224.902 177.128C222.726 174.673 242.237 173.299 242.237 173.299C239.169 167.747 223.725 158.877 223.725 158.877C223.725 158.877 207.924 171.053 206.415 168.134C204.908 165.217 220.954 158.071 220.954 158.071C215.996 154.075 206.923 153.421 206.923 153.421C193.368 154.138 194.984 171.59 194.984 171.59C194.984 171.59 189.417 175.691 180.483 176.676C180.483 176.676 178.733 176.714 176.133 177.321L177.075 178.693C177.519 178.551 177.958 178.43 178.391 178.332C178.394 178.331 178.397 178.329 178.399 178.331C178.406 178.329 178.412 178.328 178.418 178.327C178.695 178.275 179.087 178.201 179.569 178.117C179.569 178.117 179.569 178.117 179.57 178.117C179.57 178.117 179.571 178.117 179.573 178.117C180.678 177.971 181.476 177.837 182.035 177.714C182.037 177.714 182.039 177.714 182.04 177.713C185.468 177.194 190.053 176.69 191.583 177.414C191.583 177.414 191.692 177.114 192.008 176.685C191.873 176.918 191.73 177.159 191.583 177.414C188.182 183.234 195.404 195.567 201.232 201.19C207.058 206.813 206.94 202.686 207.505 197.095C208.071 191.504 202.219 184.66 201.892 181.666C201.566 178.674 204.923 181.054 207.581 185.652C210.24 190.248 207.392 195.439 211.559 202.954C215.726 210.469 232.611 206.703 232.611 206.703C227.768 202.875 224.456 192.293 225.897 190.8C227.338 189.307 236.036 202.352 237.919 204.02C239.801 205.688 246.229 206.437 252.754 198.703H252.755Z" fill="#CDE0FB"/>
<path opacity="0.5" d="M90.4341 48.8592C97.159 37.5211 116.696 47.1505 116.696 47.1505C116.696 47.1505 124.705 72.5556 128.633 74.2126C132.561 75.8683 126.007 51.1477 126.007 51.1477C134.106 52.5994 151.496 67.9643 151.496 67.9643C151.496 67.9643 143.245 92.6552 147.457 93.2893C151.669 93.9234 153.653 71.0523 153.653 71.0523C160.644 75.4989 165.273 86.4483 165.273 86.4483C170.118 103.522 148.049 108.891 148.049 108.891C148.049 108.891 145.373 117.51 147.938 128.98C147.938 128.98 148.631 131.16 148.984 134.633L146.904 134.048C146.889 133.439 146.853 132.845 146.79 132.267C146.79 132.263 146.79 132.26 146.789 132.256C146.789 132.249 146.787 132.24 146.787 132.232C146.734 131.869 146.657 131.351 146.558 130.72C146.558 130.72 146.558 130.718 146.558 130.717C146.558 130.716 146.558 130.716 146.558 130.714C146.271 129.285 146.099 128.241 146.013 127.497C146.013 127.495 146.013 127.492 146.013 127.491C145.202 123.03 143.883 117.145 142.351 115.557C142.351 115.557 142.672 115.296 143.063 114.724C142.835 114.99 142.599 115.267 142.351 115.557C136.653 122.224 118.491 118.493 109.139 113.658C99.7887 108.822 104.897 107.227 111.51 104.166C118.123 101.105 128.98 105.457 132.786 104.598C136.591 103.739 132.256 100.59 125.5 99.2405C118.745 97.8909 113.585 103.607 102.618 101.625C91.6488 99.6422 89.1347 77.1598 89.1347 77.1598C95.8711 81.5354 110.237 81.166 111.458 78.7535C112.679 76.341 93.0202 71.0872 90.1822 69.4612C87.3429 67.8352 83.7106 60.1985 90.4354 48.8605L90.4341 48.8592Z" fill="#CDE0FB"/>
<path d="M165.523 69.6122C165.523 68.8799 165.653 68.2019 165.913 67.5807C166.173 66.9594 166.542 66.4209 167.018 65.965C167.493 65.5104 168.064 65.1552 168.732 64.8995C169.399 64.6451 170.152 64.5159 170.99 64.5159C171.829 64.5159 172.587 64.6438 173.265 64.8995C173.944 65.1552 174.523 65.5104 174.997 65.965C175.472 66.4209 175.84 66.9594 176.101 67.5807C176.361 68.2019 176.492 68.8799 176.492 69.6122C176.492 70.3445 176.362 71.0173 176.101 71.6269C175.84 72.2378 175.472 72.7712 174.997 73.2258C174.521 73.6817 173.944 74.0369 173.265 74.2913C172.587 74.5457 171.827 74.6749 170.99 74.6749C170.154 74.6749 169.399 74.547 168.732 74.2913C168.064 74.0356 167.493 73.6804 167.018 73.2258C166.542 72.7712 166.174 72.2378 165.913 71.6269C165.653 71.016 165.523 70.3445 165.523 69.6122ZM175.065 60.1352H166.915L165.76 32.1536H176.219L175.065 60.1352V60.1352Z" fill="#F78248"/>
<path d="M140.914 42.2583C140.914 41.6965 141.014 41.176 141.213 40.6994C141.413 40.2229 141.695 39.8096 142.06 39.4596C142.425 39.1109 142.864 38.8384 143.377 38.6421C143.889 38.4471 144.467 38.3476 145.109 38.3476C145.752 38.3476 146.334 38.4458 146.856 38.6421C147.378 38.8384 147.82 39.1109 148.185 39.4596C148.55 39.8096 148.832 40.2229 149.032 40.6994C149.231 41.1773 149.332 41.6965 149.332 42.2583C149.332 42.8201 149.231 43.3367 149.032 43.8042C148.832 44.273 148.55 44.6824 148.185 45.0311C147.82 45.3811 147.377 45.6536 146.856 45.8486C146.334 46.0437 145.752 46.1431 145.109 46.1431C144.467 46.1431 143.888 46.045 143.377 45.8486C142.864 45.6523 142.425 45.3798 142.06 45.0311C141.695 44.6824 141.413 44.273 141.213 43.8042C141.013 43.3354 140.914 42.8201 140.914 42.2583ZM148.238 34.9846H141.982L141.096 13.5095H149.123L148.238 34.9846V34.9846Z" fill="#AEC3FF"/>
<path d="M262.426 78.5442C262.426 77.9824 262.526 77.4619 262.725 76.9853C262.924 76.5088 263.207 76.0955 263.572 75.7455C263.937 75.3968 264.376 75.1243 264.888 74.928C265.401 74.733 265.978 74.6335 266.621 74.6335C267.264 74.6335 267.846 74.7317 268.367 74.928C268.888 75.1243 269.331 75.3968 269.696 75.7455C270.061 76.0955 270.342 76.5088 270.543 76.9853C270.742 77.4632 270.842 77.9824 270.842 78.5442C270.842 79.106 270.742 79.6226 270.543 80.0901C270.342 80.5589 270.061 80.9683 269.696 81.317C269.331 81.667 268.887 81.9395 268.367 82.1345C267.846 82.3308 267.262 82.429 266.621 82.429C265.98 82.429 265.4 82.3308 264.888 82.1345C264.376 81.9382 263.937 81.6657 263.572 81.317C263.207 80.9683 262.924 80.5589 262.725 80.0901C262.525 79.6213 262.426 79.106 262.426 78.5442ZM269.75 71.2704H263.494L262.608 49.7954H270.635L269.75 71.2704Z" fill="#AEC3FF"/>
<path d="M248.666 133.195C247.359 135.632 245.731 138.093 244.061 140.096C242.313 142.194 240.524 143.788 239.014 144.328L239.002 144.332C238.924 144.359 238.845 144.385 238.768 144.405C238.764 144.408 238.76 144.408 238.756 144.408C238.449 144.496 238.158 144.536 237.879 144.523C232.922 144.3 227.699 133.618 227.699 133.618C227.699 133.618 227.835 132.351 228.799 131.457C229.64 130.677 230.287 130.473 230.287 130.473C230.287 130.473 235.625 135.98 236.929 136.376C237.749 136.624 238.827 132.778 240.372 127.949C241.918 123.119 247.346 121.928 247.346 121.928C247.346 121.928 252.84 125.422 248.668 133.197L248.666 133.195Z" fill="#AEC3FF"/>
<path d="M244.061 140.096C242.313 142.194 240.524 143.788 239.014 144.328L239.002 144.332L238.768 144.405L238.755 144.409C238.809 144.372 240.426 143.53 240.679 141.966C240.939 140.368 239.257 139.061 243.484 136.591C245.947 135.151 244.061 140.094 244.061 140.094V140.096Z" fill="#94B0ED"/>
<path d="M240.192 213.361H251.808C252.639 212.794 251.583 207.25 251.583 207.25C251.583 207.25 248.413 206.041 247.866 208.499C247.317 210.955 243.827 211.737 241.981 212.036C240.718 212.243 240.318 212.94 240.192 213.361V213.361Z" fill="#24406D"/>
<path d="M257.905 155.892C257.905 155.892 257.539 162.701 257.081 170.591C256.751 176.248 256.376 182.461 256.054 187.114C256.012 187.732 255.968 188.322 255.928 188.88C255.917 189.053 255.904 189.225 255.891 189.396C255.06 199.83 252.278 208.972 252.278 208.972C249.012 209.664 247.538 208.398 247.538 208.398C247.538 208.398 245.287 181.899 244.454 171.212C243.841 163.344 243.318 151.89 243.318 151.89L257.907 155.892H257.905Z" fill="#FF9E55"/>
<path d="M257.081 170.591C256.751 176.248 256.376 182.461 256.054 187.114C253.919 182.054 249.557 162.33 249.557 162.33L257.081 170.591Z" fill="#ED7D2B"/>
<path d="M257.419 213.361H269.035C269.866 212.794 268.81 207.25 268.81 207.25C268.81 207.25 265.64 206.041 265.093 208.499C264.544 210.955 261.054 211.737 259.208 212.036C257.945 212.243 257.545 212.94 257.419 213.361V213.361Z" fill="#24406D"/>
<path d="M246.472 154.539C246.472 154.539 254.768 175.285 257.419 183.149C259.309 188.75 264.635 208.403 264.635 208.403C264.635 208.403 266.951 209.111 268.899 207.742C268.899 207.742 270.881 187.664 266.877 182.004C264.753 179 266.349 150.782 257.738 150.54C249.126 150.299 246.474 154.539 246.474 154.539H246.472Z" fill="#FF9E55"/>
<path d="M263.458 147.865C263.423 150.815 263.391 152.981 263.399 153.529C263.422 155.314 262.286 155.716 261.115 155.989C261.115 155.989 260.032 156.223 258.667 156.455C257.331 156.68 255.719 156.902 254.58 156.894C248.756 156.848 243.882 155.125 243.882 155.125C242.786 155.125 242.287 153.421 242.107 151.044C241.985 149.435 242.48 133.383 242.542 129.374C242.584 126.499 244.155 123.842 244.594 123.455C248.661 119.841 260.662 120.297 262.822 122.79C263.356 123.406 263.512 129.349 263.53 135.858C263.541 140.049 263.499 144.474 263.459 147.865H263.458Z" fill="#AEC3FF"/>
<path d="M256.252 121.359C254.72 123.027 249.575 122.779 249.727 121.324C249.747 121.144 249.781 120.079 249.797 119.914C249.81 119.781 249.823 119.651 249.833 119.529C249.868 119.17 249.896 118.853 249.919 118.578C249.988 117.78 250.011 117.347 250.011 117.347H250.016C250.164 117.306 253.472 116.362 255.117 115.971C255.67 115.839 256.036 115.77 256.03 115.818C255.525 119.533 256.754 120.812 256.251 121.36L256.252 121.359Z" fill="#FFB27D"/>
<path d="M255.293 117.066C255.293 117.066 253.912 118.476 249.921 118.578C249.989 117.78 250.012 117.347 250.012 117.347H250.017C250.165 117.306 253.473 116.362 255.119 115.971C255.408 116.091 255.025 116.867 255.293 117.067V117.066Z" fill="#ED975D"/>
<path d="M248.999 117.15C248.999 117.15 250.009 117.514 251.297 117.688C253.182 117.944 255.658 117.793 256.436 115.503C257.747 111.648 259.421 109.338 255.565 107.763C253.5 106.921 252.179 106.876 251.282 107.198C250.503 107.475 250.043 108.029 249.695 108.578C248.945 109.759 247.439 116.476 248.999 117.15V117.15Z" fill="#FFB27D"/>
<path d="M249.985 105.595C248.607 106.504 249.057 108.635 250.68 108.922C251.653 109.093 252.47 109.128 252.941 109.339C253.9 109.768 254.725 110.221 254.498 111.716C254.421 112.225 254.174 112.844 255.477 112.537C255.691 112.486 255.845 112.502 255.95 112.565C256.49 112.887 255.8 114.448 255.592 114.786C255.592 114.786 255.292 115.905 255.957 116.45C256.038 116.514 257.344 117.089 260.493 112.247C260.987 111.488 261.46 109.775 260.696 108.126C259.932 106.478 257.802 104.392 253.791 104.392C252.747 104.392 251.177 104.808 249.984 105.595H249.985Z" fill="#233862"/>
<path d="M263.458 147.866C262.872 150.602 263.021 150.631 262.122 149.913C258.459 146.987 259.53 145.454 260.343 142.919C261.157 140.384 258.3 136.419 260.343 134.728C262.341 133.077 263.48 135.74 263.53 135.858C263.541 140.049 263.499 144.474 263.459 147.866H263.458Z" fill="#94B0ED"/>
<path d="M263.368 147.513C263.368 147.513 261.987 149.782 261.082 149.702C260.178 149.622 258.955 149.282 258.251 149.959C257.545 150.636 256.409 152.379 256.727 152.844C257.044 153.309 258.322 152.897 259.239 152.388C260.157 151.879 261.602 152.639 262.373 152.062C263.143 151.484 264.987 149.189 264.987 149.189L263.369 147.514L263.368 147.513Z" fill="#FFB27D"/>
<path d="M262.822 122.79C262.822 122.79 274.28 133.624 272.792 140.831C272.113 144.115 270.01 146.885 264.402 151.371C264.402 151.371 261.75 149.529 261.167 148.033C261.167 148.033 266.257 140.831 266.061 139.604C265.82 138.103 262.346 134.338 261.099 133.753C259.852 133.168 259.967 124.046 262.822 122.79V122.79Z" fill="#AEC3FF"/>
<path d="M261.083 149.702C261.083 149.702 259.874 149.171 259.486 148.944C259.098 148.717 259.184 149.085 259.302 149.269C259.421 149.454 259.744 149.865 260.219 149.909C260.693 149.953 261.081 149.703 261.081 149.703L261.083 149.702Z" fill="#FFB27D"/>
<path d="M59.5955 126.159C59.1816 125.356 68.6339 122.466 68.7829 130.389C68.7829 130.389 86.4908 129.951 78.036 120.035C75.1093 116.602 75.4101 113.764 75.4975 111.121C75.5862 108.479 73.6749 100.798 67.1197 101.572C67.1197 101.572 65.4038 100.87 63.2612 101.986C58.3898 104.525 47.4774 129.082 59.5942 126.161L59.5955 126.159Z" fill="#163560"/>
<path d="M88.5447 133.432C88.5447 133.432 89.6977 131.669 90.6257 131.634C91.555 131.599 93.2747 131.115 93.1372 131.461C92.9997 131.807 91.9329 131.841 91.83 132.049C91.7272 132.257 93.4123 132.567 93.8943 132.601C94.3762 132.636 95.5112 132.601 95.4765 132.843C95.4418 133.084 93.4303 134.088 92.01 133.95C90.591 133.812 88.8352 134.364 88.8352 134.364L88.5435 133.431L88.5447 133.432Z" fill="#FFB27D"/>
<path d="M71.8754 134.003C71.8754 134.003 72.5013 135.249 73.6388 136.681C75.009 138.405 77.1208 140.396 79.7724 140.789C81.0384 140.977 82.2775 140.703 83.4163 140.195C83.4188 140.195 83.4201 140.195 83.4201 140.195C86.6399 138.759 89.0614 135.456 89.0614 135.456C89.6295 133.899 88.7002 132.845 88.7002 132.845C88.7002 132.845 82.1978 134.315 81.5783 134.004C80.9587 133.693 77.1516 125.205 76.4653 123.792C75.0077 120.787 72.6941 119.925 72.6941 119.925L71.8754 134.004V134.003Z" fill="#AEC3FF"/>
<path d="M73.6388 136.681C75.009 138.405 77.1208 140.395 79.7724 140.789C81.0384 140.977 82.2775 140.703 83.4163 140.195C83.2903 140.212 80.0744 140.611 78.7917 138.307C77.4845 135.957 76.0694 132.223 74.1272 133.466C73.2892 134.004 73.3265 135.339 73.6388 136.681V136.681Z" fill="#94B0ED"/>
<path d="M47.615 204.531C47.615 204.531 45.6304 206.351 46.0186 207.644C46.4055 208.937 48.1959 209.798 48.4389 211.379C48.6805 212.96 49.6483 213.821 50.5198 213.821H54.6727C54.6727 213.821 55.314 212.709 53.7652 212.375C52.2164 212.039 51.6329 210.183 51.7293 208.459C51.8257 206.735 51.584 204.437 51.584 204.437L48.2936 203.671L47.6162 204.533L47.615 204.531Z" fill="#1D3356"/>
<path d="M64.409 205.305C64.409 205.305 63.6957 213.013 64.5658 213.444L75.7134 213.421C75.7134 213.421 75.7134 212.128 73.923 211.84C72.1325 211.553 68.9873 210.499 68.4539 208.153C67.9218 205.806 64.4077 205.304 64.4077 205.304L64.409 205.305Z" fill="#1D3356"/>
<path d="M55.8333 128.803C55.8333 128.803 55.6675 131.156 55.8333 133.981C55.9439 135.853 57.8282 138.36 58.0955 138.98C58.7664 140.535 59.5235 140.788 59.5235 140.788L65.3769 142.229L67.4347 142.736L73.9255 140.788C73.9255 140.788 76.8818 132.497 75.6941 127.83C74.5078 123.163 72.6942 119.923 72.6942 119.923C72.6942 119.923 68.2945 118.178 60.5029 119.481L55.8346 128.803H55.8333Z" fill="#AEC3FF"/>
<path d="M57.5466 134.745C57.6572 136.618 57.8281 138.36 58.0955 138.981C58.7664 140.536 59.5235 140.789 59.5235 140.789L65.3768 142.231L67.9192 141.48C67.9192 141.48 59.4322 140.188 60.3731 132.852L57.5466 134.745Z" fill="#F2CCAA"/>
<path d="M73.5129 142.047C73.5129 142.047 76.7275 152.1 76.9331 155.523C77.1401 158.945 70.7893 204.143 70.5335 205.72C70.2931 207.206 68.4551 208.154 68.4551 208.154C68.4551 208.154 67.6107 208.655 66.4038 208.313C64.7303 207.838 64.202 207.269 64.202 207.269C64.202 207.269 61.7008 175.035 63.2483 163.52C64.7958 152.005 64.8151 142.047 64.8151 142.047H73.5116H73.5129Z" fill="#233862"/>
<path d="M59.8949 141.748C59.8949 141.748 54.9927 148.358 54.5351 152.826C54.0775 157.295 53.8179 172.989 52.8449 177.345C51.8706 181.702 48.2936 190.083 48.2936 203.67C48.2936 203.67 48.665 204.449 49.8141 204.863C50.1817 204.996 50.6727 205.124 51.1509 205.235C52.0981 205.454 53.0698 204.989 53.5017 204.114C55.9207 199.221 63.6249 183.439 64.0208 180.162C64.301 177.844 66.7328 162.5 72.0399 153.495C73.3137 151.333 71.2584 142.737 71.2584 142.737L59.8975 141.748H59.8949Z" fill="#2B478B"/>
<path d="M74.0258 140.496C74.0258 140.496 72.7353 141.522 70.1724 141.573C67.1107 141.635 59.5235 140.789 59.5235 140.789C59.5235 140.789 59.1867 141.736 59.1996 142.734C59.1996 142.734 68.4655 145.082 73.8343 143.078C73.8343 143.078 74.527 141.768 74.0245 140.496H74.0258Z" fill="#233862"/>
<path d="M69.5092 142.635C69.5092 141.759 70.1364 141.046 70.9063 141.046C71.6762 141.046 72.3034 141.759 72.3034 142.635C72.3034 143.511 71.6762 144.223 70.9063 144.223C70.1364 144.223 69.5092 143.511 69.5092 142.635ZM69.9719 142.635C69.9719 143.255 70.3909 143.759 70.9063 143.759C71.4217 143.759 71.8407 143.255 71.8407 142.635C71.8407 142.015 71.4217 141.511 70.9063 141.511C70.3909 141.511 69.9719 142.015 69.9719 142.635Z" fill="white"/>
<path d="M50.5339 143.176L58.0582 149.759C58.6019 150.234 59.4258 150.177 59.9001 149.631L69.5014 138.553C69.9744 138.006 69.9179 137.177 69.3742 136.702L61.8499 130.119C61.3062 129.644 60.4823 129.701 60.008 130.247L50.4067 141.325C49.9337 141.872 49.9902 142.7 50.5339 143.176Z" fill="#F78248"/>
<path d="M61.6649 142.344C61.7715 142.373 65.6622 142.833 65.6622 143.64C65.6622 144.574 64.5221 145.825 63.4476 145.766C63.0119 145.741 61.0055 143.888 61.0055 143.888L61.6649 142.344Z" fill="#FFB27D"/>
<path d="M63.6622 119.054C64.1044 117.975 64.3627 116.332 64.3563 114.3L64.6506 114.358L69.5914 115.341C69.5914 115.341 69.4796 116.903 69.4757 118.376C69.4757 118.387 69.4757 118.4 69.4757 118.412C69.4693 119.69 70.3356 120.973 68.2945 121.48C67.6634 121.637 62.7329 121.319 63.6635 119.054H63.6622Z" fill="#FFB27D"/>
<path d="M69.5914 115.341C69.5914 115.341 69.4783 116.903 69.4757 118.376C66.711 118.297 65.2496 115.763 64.6506 114.358L69.5914 115.341Z" fill="#E8945B"/>
<path d="M70.5142 116.734C70.5142 116.734 63.972 116.842 63.9681 112.748C63.963 108.653 63.1159 105.91 67.2932 105.667C71.4705 105.424 72.2828 106.986 72.6157 108.352C72.9486 109.718 72.2173 116.6 70.5155 116.734H70.5142Z" fill="#FFB27D"/>
<path d="M70.2727 105.568C70.2727 105.568 68.4809 110.372 65.7329 111.082C62.9836 111.793 61.7921 111.053 61.7921 111.053C61.7921 111.053 63.9 109.37 64.3383 106.432C64.3383 106.432 68.9231 103.282 70.2739 105.569L70.2727 105.568Z" fill="#163560"/>
<path d="M69.8279 105.958C69.8279 105.958 71.1556 106.456 71.7032 107.43C72.2379 108.382 72.6929 109.642 72.5875 111.19C72.5875 111.19 73.9371 107.925 72.4204 106.078C70.8124 104.12 69.8279 105.959 69.8279 105.959V105.958Z" fill="#163560"/>
<path d="M61.6649 142.344C61.6649 142.344 62.5967 142.043 63.2201 142.131C63.8435 142.219 64.3036 142.118 64.3036 142.294C64.3036 142.47 63.499 142.551 63.3281 142.635C63.1571 142.719 61.6636 142.344 61.6636 142.344H61.6649Z" fill="#FFB27D"/>
<path d="M60.5016 119.481C60.5016 119.481 55.8577 119.808 54.0776 124.156C52.2974 128.505 48.9196 135.804 48.9196 137.032C48.9196 138.261 50.8064 142.046 60.9386 144.224C60.9386 144.224 61.9861 143.115 61.9232 142.24C61.9232 142.24 55.5981 136.781 55.6148 136.143C55.6469 134.936 56.6521 133.343 62.2046 127.761C63.7149 126.243 60.5003 119.48 60.5003 119.48L60.5016 119.481Z" fill="#AEC3FF"/>
<path d="M190.282 82.4304H140.099C138.886 82.4304 137.721 82.9147 136.863 83.7775L101.377 119.433C100.519 120.296 100.037 121.465 100.037 122.684V173.108C100.037 174.327 100.519 175.497 101.377 176.359L136.863 212.014C137.721 212.877 138.884 213.361 140.099 213.361H190.282C191.495 213.361 192.66 212.877 193.517 212.014L229.002 176.359C229.861 175.496 230.343 174.327 230.343 173.108V122.684C230.343 121.465 229.861 120.295 229.002 119.433L193.517 83.7775C192.658 82.9147 191.495 82.4304 190.282 82.4304V82.4304Z" fill="#F78248"/>
<path d="M186.752 206.807H143.63C141.873 206.807 140.222 206.12 138.98 204.872L108.488 174.233C107.246 172.985 106.561 171.325 106.561 169.56V126.23C106.561 124.465 107.245 122.806 108.488 121.558L138.98 90.9194C140.222 89.6718 141.873 88.9834 143.63 88.9834H186.752C188.509 88.9834 190.161 89.6705 191.403 90.9194L221.894 121.558C223.136 122.805 223.821 124.465 223.821 126.23V169.56C223.821 171.325 223.137 172.984 221.894 174.233L191.403 204.871C190.161 206.118 188.509 206.807 186.752 206.807ZM143.63 93.4765C143.068 93.4765 142.539 93.6961 142.141 94.0964L111.65 124.735C111.253 125.134 111.033 125.665 111.033 126.23V169.56C111.033 170.124 111.251 170.655 111.65 171.056L142.141 201.695C142.539 202.094 143.067 202.314 143.63 202.314H186.752C187.315 202.314 187.844 202.094 188.241 201.695L218.733 171.057C219.13 170.658 219.348 170.127 219.348 169.561V126.232C219.348 125.667 219.13 125.136 218.733 124.736L188.241 94.0977C187.844 93.6987 187.314 93.4778 186.752 93.4778H143.63V93.4765Z" fill="#FFE5D4"/>
<path d="M199.971 149.544L199.093 148.78C196.886 146.859 193.517 147.104 191.606 149.321L186.643 155.08C185.934 155.902 184.589 155.399 184.589 154.31C184.589 153.854 184.565 153.402 184.517 152.958V116.704C184.517 114.323 182.579 112.375 180.209 112.375H179.89C177.52 112.375 175.582 114.323 175.582 116.704V140.3C175.582 140.872 175.12 141.337 174.55 141.337C173.921 141.337 173.411 140.824 173.411 140.193V112.135C173.411 109.833 171.537 107.95 169.246 107.95H168.64C166.349 107.95 164.475 109.833 164.475 112.135V140.379C164.475 140.908 164.047 141.338 163.52 141.338C162.849 141.338 162.304 140.792 162.304 140.116V117.601C162.304 115.219 160.366 113.271 157.996 113.271H157.677C155.307 113.271 153.369 115.219 153.369 117.601V140.299C153.369 140.872 152.906 141.337 152.335 141.337C151.708 141.337 151.198 140.826 151.198 140.194V122.436C151.198 120.054 149.26 118.107 146.889 118.107H146.571C144.201 118.107 142.262 120.054 142.262 122.436V153.615C142.262 153.702 142.266 153.787 142.271 153.874C142.266 154.018 142.262 154.164 142.262 154.31V171.473C142.262 178.448 147.942 184.155 154.884 184.155H171.965C176.404 184.155 180.328 181.82 182.579 178.313C183.259 177.254 183.994 176.231 184.817 175.278L200.508 157.067C202.419 154.85 202.176 151.465 199.969 149.544H199.971Z" fill="#FFE5D4"/>
</g>
<defs>
<clipPath id="clip0_1592_6406">
<rect width="333" height="214" fill="white" transform="translate(0.452637 0.280762)"/>
</clipPath>
</defs>
</svg>
