<svg width="143" height="81" viewBox="0 0 143 81" fill="none" xmlns="http://www.w3.org/2000/svg">
<g filter="url(#filter0_d_1216_5845)">
<rect x="2.47363" y="0.948486" width="137.901" height="75.3132" rx="10" fill="white"/>
</g>
<rect x="78.54" y="23.1664" width="39.2061" height="39.2061" rx="5.5" fill="#4E5CFB" stroke="#4E5CFB"/>
<path d="M74.1758 47.8662V28.4187C74.1758 23.4481 78.2052 19.4187 83.1758 19.4187H113.11C118.081 19.4187 122.11 23.4481 122.11 28.4187V47.8662" stroke="#595EE9" stroke-width="2" stroke-linecap="round" stroke-linejoin="round"/>
<path d="M90.4432 37.7106V48.4332H89.0883V39.4025L86.3563 40.3986V39.1754L90.2308 37.7106H90.4432ZM96.0852 42.4347H97.052C97.5256 42.4347 97.9162 42.3566 98.2238 42.2003C98.5363 42.0392 98.7683 41.8219 98.9196 41.5485C99.0759 41.2701 99.154 40.9576 99.154 40.611C99.154 40.2008 99.0856 39.8566 98.9489 39.5782C98.8122 39.2999 98.6071 39.09 98.3337 38.9484C98.0603 38.8068 97.7136 38.736 97.2937 38.736C96.9128 38.736 96.5759 38.8116 96.2829 38.963C95.9948 39.1095 95.7678 39.3195 95.6018 39.5929C95.4406 39.8663 95.3601 40.1886 95.3601 40.5597H94.0051C94.0051 40.0177 94.1418 39.5245 94.4152 39.0802C94.6887 38.6359 95.072 38.2819 95.5651 38.0182C96.0632 37.7545 96.6394 37.6227 97.2937 37.6227C97.9382 37.6227 98.5022 37.7374 98.9855 37.9669C99.4689 38.1915 99.8449 38.5284 100.113 38.9777C100.382 39.422 100.516 39.9762 100.516 40.6403C100.516 40.9088 100.453 41.1969 100.326 41.5045C100.204 41.8073 100.011 42.0905 99.7473 42.3541C99.4885 42.6178 99.1516 42.8351 98.7365 43.006C98.3215 43.172 97.8234 43.255 97.2424 43.255H96.0852V42.4347ZM96.0852 43.548V42.735H97.2424C97.9211 42.735 98.4826 42.8156 98.927 42.9767C99.3713 43.1378 99.7204 43.3527 99.9743 43.6212C100.233 43.8898 100.414 44.1852 100.516 44.5074C100.624 44.8248 100.677 45.1422 100.677 45.4596C100.677 45.9576 100.592 46.3995 100.421 46.7853C100.255 47.171 100.018 47.4982 99.7106 47.7667C99.4079 48.0353 99.0515 48.2379 98.6413 48.3746C98.2312 48.5114 97.7844 48.5797 97.301 48.5797C96.8371 48.5797 96.4001 48.5138 95.9899 48.382C95.5847 48.2501 95.2258 48.0597 94.9133 47.8107C94.6008 47.5568 94.3566 47.2467 94.1809 46.8805C94.0051 46.5094 93.9172 46.087 93.9172 45.6134H95.2722C95.2722 45.9845 95.3527 46.3092 95.5139 46.5875C95.6799 46.8658 95.9143 47.0831 96.217 47.2394C96.5246 47.3907 96.8859 47.4664 97.301 47.4664C97.716 47.4664 98.0725 47.3956 98.3703 47.254C98.673 47.1075 98.905 46.8878 99.0661 46.5948C99.2321 46.3019 99.3151 45.9332 99.3151 45.4889C99.3151 45.0446 99.2224 44.6808 99.0368 44.3976C98.8513 44.1095 98.5876 43.8971 98.2458 43.7604C97.9089 43.6188 97.5109 43.548 97.052 43.548H96.0852ZM105.462 48.4332H103.236L103.251 47.2833H105.462C106.224 47.2833 106.859 47.1246 107.367 46.8073C107.875 46.485 108.255 46.0358 108.509 45.4596C108.768 44.8785 108.897 44.1998 108.897 43.4235V42.7716C108.897 42.1613 108.824 41.6193 108.678 41.1456C108.531 40.6671 108.316 40.2643 108.033 39.9371C107.75 39.6051 107.403 39.3536 106.993 39.1827C106.588 39.0118 106.122 38.9264 105.594 38.9264H103.192V37.7692H105.594C106.293 37.7692 106.93 37.8864 107.506 38.1207C108.082 38.3502 108.578 38.6847 108.993 39.1241C109.413 39.5587 109.735 40.0861 109.959 40.7062C110.184 41.3214 110.296 42.0148 110.296 42.7863V43.4235C110.296 44.1949 110.184 44.8907 109.959 45.5109C109.735 46.1261 109.41 46.651 108.985 47.0856C108.565 47.5201 108.058 47.8546 107.462 48.089C106.871 48.3185 106.205 48.4332 105.462 48.4332ZM103.99 37.7692V48.4332H102.577V37.7692H103.99Z" fill="white"/>
<rect x="21.374" y="23.1664" width="39.2061" height="39.2061" rx="5.5" fill="white" stroke="#CAD2DF"/>
<path d="M17.0078 47.8662V28.4187C17.0078 23.4481 21.0372 19.4187 26.0078 19.4187H55.9423C60.9128 19.4187 64.9423 23.4481 64.9423 28.4187V47.8662" stroke="#EEF2F8" stroke-width="2" stroke-linecap="round" stroke-linejoin="round"/>
<path d="M33.3119 37.7106V48.4332H31.9569V39.4025L29.225 40.3986V39.1754L33.0995 37.7106H33.3119ZM38.9538 42.4347H39.9206C40.3942 42.4347 40.7849 42.3566 41.0925 42.2003C41.405 42.0392 41.6369 41.8219 41.7883 41.5485C41.9445 41.2701 42.0227 40.9576 42.0227 40.611C42.0227 40.2008 41.9543 39.8566 41.8176 39.5782C41.6809 39.2999 41.4758 39.09 41.2023 38.9484C40.9289 38.8068 40.5822 38.736 40.1623 38.736C39.7814 38.736 39.4445 38.8116 39.1516 38.963C38.8635 39.1095 38.6364 39.3195 38.4704 39.5929C38.3093 39.8663 38.2287 40.1886 38.2287 40.5597H36.8737C36.8737 40.0177 37.0105 39.5245 37.2839 39.0802C37.5573 38.6359 37.9406 38.2819 38.4338 38.0182C38.9318 37.7545 39.508 37.6227 40.1623 37.6227C40.8068 37.6227 41.3708 37.7374 41.8542 37.9669C42.3376 38.1915 42.7136 38.5284 42.9821 38.9777C43.2507 39.422 43.385 39.9762 43.385 40.6403C43.385 40.9088 43.3215 41.1969 43.1945 41.5045C43.0725 41.8073 42.8796 42.0905 42.6159 42.3541C42.3571 42.6178 42.0202 42.8351 41.6052 43.006C41.1901 43.172 40.6921 43.255 40.111 43.255H38.9538V42.4347ZM38.9538 43.548V42.735H40.111C40.7897 42.735 41.3513 42.8156 41.7956 42.9767C42.2399 43.1378 42.5891 43.3527 42.843 43.6212C43.1018 43.8898 43.2824 44.1852 43.385 44.5074C43.4924 44.8248 43.5461 45.1422 43.5461 45.4596C43.5461 45.9576 43.4606 46.3995 43.2897 46.7853C43.1237 47.171 42.8869 47.4982 42.5793 47.7667C42.2766 48.0353 41.9201 48.2379 41.51 48.3746C41.0998 48.5114 40.653 48.5797 40.1696 48.5797C39.7058 48.5797 39.2688 48.5138 38.8586 48.382C38.4533 48.2501 38.0944 48.0597 37.7819 47.8107C37.4694 47.5568 37.2253 47.2467 37.0495 46.8805C36.8737 46.5094 36.7858 46.087 36.7858 45.6134H38.1408C38.1408 45.9845 38.2214 46.3092 38.3825 46.5875C38.5485 46.8658 38.7829 47.0831 39.0856 47.2394C39.3933 47.3907 39.7546 47.4664 40.1696 47.4664C40.5847 47.4664 40.9411 47.3956 41.239 47.254C41.5417 47.1075 41.7736 46.8878 41.9348 46.5948C42.1008 46.3019 42.1838 45.9332 42.1838 45.4889C42.1838 45.0446 42.091 44.6808 41.9055 44.3976C41.7199 44.1095 41.4563 43.8971 41.1145 43.7604C40.7775 43.6188 40.3796 43.548 39.9206 43.548H38.9538ZM51.8833 45.0421H53.2896C53.2163 45.7159 53.0235 46.319 52.711 46.8512C52.3985 47.3834 51.9566 47.8058 51.3853 48.1183C50.814 48.4259 50.1011 48.5797 49.2466 48.5797C48.6216 48.5797 48.0528 48.4625 47.5401 48.2281C47.0322 47.9938 46.5952 47.6617 46.229 47.2321C45.8628 46.7975 45.5796 46.2775 45.3794 45.672C45.1841 45.0616 45.0864 44.3829 45.0864 43.6359V42.5739C45.0864 41.8268 45.1841 41.1505 45.3794 40.545C45.5796 39.9347 45.8653 39.4122 46.2364 38.9777C46.6123 38.5431 47.064 38.2086 47.5913 37.9742C48.1187 37.7399 48.7119 37.6227 49.3711 37.6227C50.1768 37.6227 50.8579 37.774 51.4146 38.0768C51.9712 38.3795 52.4033 38.7994 52.711 39.3365C53.0235 39.8688 53.2163 40.4865 53.2896 41.1896H51.8833C51.815 40.6915 51.688 40.2643 51.5025 39.9078C51.3169 39.5465 51.0532 39.2682 50.7114 39.0729C50.3697 38.8776 49.9229 38.7799 49.3711 38.7799C48.8975 38.7799 48.48 38.8702 48.1187 39.0509C47.7622 39.2316 47.4619 39.4879 47.2178 39.8199C46.9785 40.152 46.7979 40.5499 46.6758 41.0138C46.5537 41.4777 46.4927 41.9928 46.4927 42.5592V43.6359C46.4927 44.1583 46.5464 44.649 46.6538 45.108C46.7661 45.567 46.9346 45.9698 47.1592 46.3165C47.3838 46.6632 47.6695 46.9366 48.0161 47.1368C48.3628 47.3322 48.773 47.4298 49.2466 47.4298C49.8472 47.4298 50.3257 47.3346 50.6822 47.1442C51.0386 46.9537 51.3072 46.6803 51.4878 46.3239C51.6734 45.9674 51.8052 45.5402 51.8833 45.0421Z" fill="#1E1E1E"/>
<circle cx="118.247" cy="22.6664" r="9.94482" fill="#4F5BFF" stroke="white"/>
<path d="M119.143 18.1661V26.7443H118.059V19.5197L115.873 20.3165V19.338L118.973 18.1661H119.143Z" fill="white"/>
<defs>
<filter id="filter0_d_1216_5845" x="0.473633" y="0.948486" width="141.901" height="79.3132" filterUnits="userSpaceOnUse" color-interpolation-filters="sRGB">
<feFlood flood-opacity="0" result="BackgroundImageFix"/>
<feColorMatrix in="SourceAlpha" type="matrix" values="0 0 0 0 0 0 0 0 0 0 0 0 0 0 0 0 0 0 127 0" result="hardAlpha"/>
<feOffset dy="2"/>
<feGaussianBlur stdDeviation="1"/>
<feComposite in2="hardAlpha" operator="out"/>
<feColorMatrix type="matrix" values="0 0 0 0 0 0 0 0 0 0 0 0 0 0 0 0 0 0 0.25 0"/>
<feBlend mode="normal" in2="BackgroundImageFix" result="effect1_dropShadow_1216_5845"/>
<feBlend mode="normal" in="SourceGraphic" in2="effect1_dropShadow_1216_5845" result="shape"/>
</filter>
</defs>
</svg>
