<svg width="65" height="36" viewBox="0 0 65 36" fill="none" xmlns="http://www.w3.org/2000/svg">
<path d="M48.0355 24.6072C45.8505 24.6072 44.0728 26.3848 44.0728 28.5699C44.0728 30.7549 45.8504 32.5326 48.0355 32.5326C50.2205 32.5326 51.9982 30.755 51.9982 28.5699C51.9982 26.3848 50.2206 24.6072 48.0355 24.6072ZM48.0355 30.6672C46.8789 30.6672 45.938 29.7262 45.938 28.5697C45.938 27.4131 46.8789 26.4722 48.0355 26.4722C49.192 26.4722 50.133 27.4131 50.133 28.5697C50.133 29.7262 49.192 30.6672 48.0355 30.6672Z" fill="#03CF5D"/>
<path d="M12.9676 24.6072C10.7826 24.6072 9.00488 26.3848 9.00488 28.5699C9.00488 30.7549 10.7825 32.5326 12.9676 32.5326C15.1527 32.5326 16.9303 30.755 16.9303 28.5699C16.9303 26.3848 15.1527 24.6072 12.9676 24.6072ZM12.9676 30.6672C11.811 30.6672 10.8701 29.7262 10.8701 28.5697C10.8701 27.4131 11.811 26.4722 12.9676 26.4722C14.1242 26.4722 15.0651 27.4131 15.0651 28.5697C15.0651 29.7262 14.1241 30.6672 12.9676 30.6672Z" fill="#03CF5D"/>
<path d="M62.5862 7.06768C62.4626 6.68156 62.1035 6.41944 61.698 6.41944H58.6041L58.1718 4.94576V4.94566L57.8713 3.92138C57.8648 3.8994 57.8576 3.87753 57.8496 3.85598C57.1252 1.9276 55.2546 0.631958 53.1945 0.631958H2.78673C1.46582 0.63217 0.391113 1.70677 0.391113 3.02768V27.1062C0.391113 28.4271 1.46582 29.5019 2.78673 29.5019H6.0391C6.49667 32.918 9.42841 35.5619 12.9676 35.5619C16.5069 35.5619 19.4387 32.918 19.8962 29.5019H41.1067C41.5643 32.918 44.496 35.5619 48.0352 35.5619C51.5745 35.5619 54.5063 32.918 54.9638 29.5019H59.6253C60.9462 29.5019 62.0209 28.4271 62.0209 27.1062V20.7518V20.6619C62.0209 18.3485 61.6105 16.0769 60.801 13.9095L59.1508 8.28466H61.017L62.2353 12.09C62.3622 12.486 62.7286 12.7385 63.1233 12.7385C63.7562 12.7385 64.204 12.1216 64.0118 11.5213L62.5862 7.06768ZM60.1353 19.8193H55.0315C54.6396 19.8193 54.2554 19.6842 53.9499 19.4388C52.4965 18.2715 50.8134 16.9198 49.3492 15.7439C49.1575 15.59 48.9496 15.4597 48.7322 15.3489V6.14076H56.5788C56.7997 6.894 58.7292 13.4716 59.0212 14.4672C59.1344 14.8563 59.9897 16.8314 60.1353 19.8193ZM36.9589 14.9524V12.77C36.9589 12.255 36.5415 11.8375 36.0264 11.8375C35.5112 11.8375 35.0938 12.255 35.0938 12.77V14.9524H33.4258V6.14076H35.0938V8.41789C35.0938 8.9329 35.5113 9.35045 36.0264 9.35045C36.5416 9.35045 36.9589 8.9329 36.9589 8.41789V6.14076H43.3335V14.9524H36.9589ZM25.1859 14.9524V6.14076H31.5604V14.9524H25.1859ZM13.4127 14.9524V6.14076H19.7873V14.9524H13.4127ZM2.25633 14.9524V6.14076H8.01419V14.9524H2.25633ZM9.8794 6.14086H11.5475V14.9525H9.8794V6.14086ZM21.6524 6.14086H23.3206V14.9525H21.6524V6.14086ZM45.1987 6.14086H46.867V14.9525H45.1987V6.14086ZM2.25633 3.02768C2.25633 2.74018 2.49913 2.49717 2.78683 2.49717H53.1948C54.3955 2.49717 55.4994 3.21166 56.0029 4.27554C52.4307 4.27554 4.34555 4.27554 2.25654 4.27554V3.02757H2.25633V3.02768ZM12.9677 33.6968C10.1405 33.6968 7.84029 31.3966 7.84029 28.5693C7.84029 25.742 10.1405 23.4418 12.9677 23.4418C15.795 23.4418 18.0952 25.742 18.0952 28.5693C18.0952 31.3966 15.795 33.6968 12.9677 33.6968ZM48.0354 33.6968C45.2082 33.6968 42.908 31.3966 42.908 28.5693C42.908 25.742 45.2082 23.4418 48.0354 23.4418C50.8627 23.4418 53.1629 25.742 53.1629 28.5693C53.1629 31.3966 50.8628 33.6968 48.0354 33.6968ZM59.6256 27.6366H54.9662C54.5054 24.1895 51.5397 21.5766 48.0356 21.5766C44.4741 21.5766 41.5577 24.2488 41.1049 27.6366H19.8985C19.4435 24.2328 16.5112 21.5766 12.9679 21.5766C9.42937 21.5766 6.49316 24.2254 6.03718 27.6366H2.78673C2.49913 27.6366 2.25622 27.3936 2.25622 27.1061V20.4189H27.9225C28.4377 20.4189 28.855 20.0014 28.855 19.4863C28.855 18.9713 28.4376 18.5538 27.9225 18.5538H2.25633V16.8176H47.0997C47.4729 16.8176 47.8664 16.9453 48.1813 17.1982L49.8693 18.5538H32.2747C31.7595 18.5538 31.3422 18.9713 31.3422 19.4863C31.3422 20.0014 31.7596 20.4189 32.2747 20.4189H52.1917L52.782 20.8929C53.4174 21.4033 54.2163 21.6844 55.0315 21.6844H60.1561V27.1061C60.156 27.3937 59.9132 27.6366 59.6256 27.6366Z" fill="#03CF5D"/>
</svg>
