<svg width="35" height="17" viewBox="0 0 35 17" fill="none" xmlns="http://www.w3.org/2000/svg">
<g clip-path="url(#clip0_1574_8260)">
<path d="M8.43777 16.9966C13.0978 16.9966 16.8755 13.1917 16.8755 8.49828C16.8755 3.80481 13.0978 0 8.43777 0C3.77772 0 0 3.80481 0 8.49828C0 13.1917 3.77772 16.9966 8.43777 16.9966Z" fill="#03CF5D"/>
<path d="M8.4379 13.2196C11.0268 13.2196 13.1256 11.1058 13.1256 8.49836C13.1256 5.89088 11.0268 3.7771 8.4379 3.7771C5.84898 3.7771 3.75024 5.89088 3.75024 8.49836C3.75024 11.1058 5.84898 13.2196 8.4379 13.2196Z" fill="white"/>
<path d="M34.4526 0.0412598H22.21V3.99403H30.4014C30.7025 3.99403 30.9488 4.24215 30.9488 4.54541V12.4923C30.9488 12.7956 30.7025 13.0437 30.4014 13.0437H22.21V16.9965H34.4526C34.7537 16.9965 35.0001 16.7483 35.0001 16.4451V0.592648C35.0001 0.289385 34.7537 0.0412598 34.4526 0.0412598Z" fill="#03CF5D"/>
<path d="M22.2099 3.99403V0.0412598H18.7096C18.4085 0.0412598 18.1621 0.289385 18.1621 0.592648V16.4485C18.1621 16.7518 18.4085 16.9999 18.7096 16.9999H22.2099V3.99403Z" fill="#787878" fill-opacity="0.2"/>
</g>
<defs>
<clipPath id="clip0_1574_8260">
<rect width="35" height="17" fill="white"/>
</clipPath>
</defs>
</svg>
