<svg width="368" height="220" viewBox="0 0 368 220" fill="none" xmlns="http://www.w3.org/2000/svg">
<g filter="url(#filter0_d_1188_5432)">
<rect x="1.99951" y="0.509766" width="364.001" height="214.788" rx="15" fill="white"/>
</g>
<circle cx="37.0454" cy="37.6731" r="14.5454" fill="#03CF5D"/>
<path d="M39.1351 30.064V44.312H36.3226V33.3062L32.9436 34.3804V32.1636L38.8323 30.064H39.1351Z" fill="white"/>
<rect x="70.9253" y="49.0342" width="264.914" height="18.3611" rx="5" fill="#787878" fill-opacity="0.2"/>
<rect x="70.9253" y="49.0342" width="205.693" height="18.3611" rx="5" fill="#03CF5D"/>
<circle cx="37.0454" cy="102.427" r="14.5454" fill="#03CF5D"/>
<path d="M42.0061 106.869V109.066H32.2796V107.191L36.8792 102.26C37.3414 101.745 37.706 101.293 37.9729 100.902C38.2399 100.505 38.4319 100.15 38.5491 99.8379C38.6728 99.5189 38.7347 99.2161 38.7347 98.9297C38.7347 98.5 38.663 98.1322 38.5198 97.8262C38.3766 97.5137 38.165 97.2728 37.8851 97.1035C37.6116 96.9342 37.2731 96.8496 36.8694 96.8496C36.4397 96.8496 36.0686 96.9538 35.7561 97.1621C35.4502 97.3704 35.2158 97.6602 35.053 98.0312C34.8968 98.4023 34.8186 98.8223 34.8186 99.291H31.9964C31.9964 98.4447 32.1982 97.6699 32.6018 96.9668C33.0055 96.2572 33.5752 95.694 34.3108 95.2773C35.0465 94.8542 35.9189 94.6426 36.928 94.6426C37.9241 94.6426 38.764 94.8053 39.4476 95.1309C40.1377 95.4499 40.6585 95.9121 41.0101 96.5176C41.3681 97.1165 41.5472 97.8327 41.5472 98.666C41.5472 99.1348 41.4723 99.5938 41.3226 100.043C41.1728 100.486 40.958 100.928 40.678 101.371C40.4046 101.807 40.0726 102.25 39.6819 102.699C39.2913 103.148 38.8584 103.614 38.3831 104.096L35.9124 106.869H42.0061Z" fill="white"/>
<rect x="70.9253" y="109.066" width="264.914" height="18.3611" rx="5" fill="#787878" fill-opacity="0.2"/>
<rect x="70.9253" y="109.066" width="84.1279" height="18.3611" rx="5" fill="#03CF5D"/>
<circle cx="37.0454" cy="162.005" r="14.5454" fill="#03CF5D"/>
<path d="M35.1604 160.313H36.6643C37.1461 160.313 37.5433 160.232 37.8558 160.069C38.1683 159.9 38.3994 159.666 38.5491 159.366C38.7054 159.06 38.7835 158.705 38.7835 158.302C38.7835 157.937 38.7119 157.615 38.5686 157.335C38.4319 157.049 38.2203 156.827 37.9339 156.671C37.6474 156.508 37.2861 156.427 36.8499 156.427C36.5048 156.427 36.1858 156.495 35.8929 156.632C35.5999 156.769 35.3655 156.961 35.1897 157.208C35.014 157.455 34.9261 157.755 34.9261 158.106H32.1038C32.1038 157.325 32.3121 156.645 32.7288 156.065C33.152 155.486 33.7184 155.034 34.428 154.708C35.1377 154.382 35.9189 154.22 36.7718 154.22C37.7353 154.22 38.5784 154.376 39.3011 154.688C40.0237 154.994 40.5869 155.447 40.9905 156.046C41.3942 156.645 41.596 157.387 41.596 158.272C41.596 158.722 41.4918 159.158 41.2835 159.581C41.0752 159.998 40.7757 160.375 40.3851 160.714C40.0009 161.046 39.5322 161.313 38.9788 161.515C38.4254 161.71 37.8037 161.808 37.1136 161.808H35.1604V160.313ZM35.1604 162.452V160.997H37.1136C37.8883 160.997 38.5686 161.085 39.1546 161.261C39.7405 161.437 40.2321 161.69 40.6292 162.022C41.0263 162.348 41.3258 162.735 41.5276 163.185C41.7295 163.627 41.8304 164.119 41.8304 164.659C41.8304 165.323 41.7034 165.916 41.4495 166.437C41.1956 166.951 40.8375 167.387 40.3753 167.745C39.9196 168.103 39.3857 168.377 38.7737 168.565C38.1617 168.748 37.4944 168.839 36.7718 168.839C36.1728 168.839 35.5836 168.757 35.0042 168.595C34.4313 168.425 33.9104 168.175 33.4417 167.843C32.9795 167.504 32.6084 167.081 32.3284 166.573C32.055 166.059 31.9183 165.45 31.9183 164.747H34.7405C34.7405 165.112 34.8317 165.437 35.014 165.724C35.1962 166.01 35.4469 166.235 35.7659 166.397C36.0914 166.56 36.4528 166.642 36.8499 166.642C37.2991 166.642 37.6832 166.56 38.0022 166.397C38.3278 166.228 38.5752 165.994 38.7444 165.694C38.9202 165.388 39.0081 165.034 39.0081 164.63C39.0081 164.109 38.9137 163.692 38.7249 163.38C38.5361 163.061 38.2659 162.826 37.9143 162.677C37.5628 162.527 37.1461 162.452 36.6643 162.452H35.1604Z" fill="white"/>
<rect x="70.9253" y="168.644" width="264.914" height="18.3611" rx="5" fill="#787878" fill-opacity="0.2"/>
<rect x="70.9253" y="168.644" width="43.0767" height="18.3611" rx="5" fill="#03CF5D"/>
<path d="M82.4173 144.23V152.135H84.6953V144.23H82.4173ZM77.4703 144.808V146.1C77.4703 148.191 76.0423 149.891 71.8433 150.639L72.6253 152.458C77.5893 151.455 79.9523 149.126 79.9523 144.808H77.4703ZM72.6763 144.808V146.61H79.0683V144.808H72.6763ZM74.1893 152.781V154.515H82.4173V155.433H74.2233V158.765H76.4843V157.048H84.6953V152.781H74.1893ZM74.2233 158.068V159.819H85.0863V158.068H74.2233ZM94.3734 146.848V147.426C94.3734 149.126 93.2684 150.809 90.7184 151.489L91.7554 153.257C94.7644 152.441 96.1924 150.095 96.1924 147.426V146.848H94.3734ZM94.7984 146.848V147.426C94.7984 149.959 96.2094 152.203 99.2524 152.968L100.255 151.234C97.7224 150.588 96.6344 148.99 96.6344 147.426V146.848H94.7984ZM91.2794 145.743V147.511H99.7284V145.743H91.2794ZM94.3734 144.179V146.559H96.6344V144.179H94.3734ZM100.969 144.23V153.189H103.23V144.23H100.969ZM102.601 147.749V149.602H105.321V147.749H102.601ZM96.9574 154.617V154.991C96.9574 156.351 95.4954 157.813 92.2144 158.204L93.0304 159.921C96.8214 159.428 98.8614 157.439 98.8614 154.991V154.617H96.9574ZM97.4504 154.617V154.991C97.4504 157.371 99.4904 159.462 103.298 159.955L104.097 158.238C100.867 157.813 99.3714 156.3 99.3714 154.991V154.617H97.4504ZM92.8774 153.869V155.654H103.434V153.869H92.8774ZM117.002 144.23V159.972H119.28V144.23H117.002ZM112.361 145.862V146.27C112.361 150.486 110.729 153.342 106.207 155.518L107.38 157.32C112.973 154.617 114.605 150.673 114.605 145.862H112.361ZM107.04 145.862V147.647H113.432V145.862H107.04Z" fill="#4E4E4E"/>
<path d="M128.731 149.452V159.459H127.467V151.031L124.917 151.96V150.819L128.533 149.452H128.731ZM137.197 154.167H133.809V151.899H137.197V154.167ZM138.331 152.417H141.229V157.233H142.391V147.937H141.229V151.479H138.331V148.777H137.197V150.989H133.809V148.777H132.675V155.091H138.331V152.417ZM135.461 159.277V156.323H134.313V160.215H142.685V159.277H135.461Z" fill="#4E4E4E"/>
<path d="M78.7283 84.5385C75.2773 84.5385 73.0673 85.6945 73.0673 87.5815C73.0673 89.4855 75.2773 90.6245 78.7283 90.6245C82.1793 90.6245 84.4063 89.4855 84.4063 87.5815C84.4063 85.6945 82.1793 84.5385 78.7283 84.5385ZM78.7283 86.2555C80.8703 86.2555 82.0943 86.6975 82.0943 87.5815C82.0943 88.4655 80.8703 88.9075 78.7283 88.9075C76.6033 88.9075 75.3793 88.4655 75.3793 87.5815C75.3793 86.6975 76.6033 86.2555 78.7283 86.2555ZM73.3053 94.3985V99.7025H84.1173V94.3985H73.3053ZM81.9073 96.1495V97.9515H75.4983V96.1495H81.9073ZM71.6563 91.5255V93.2935H85.8003V91.5255H71.6563ZM89.287 88.9245C89.287 87.6835 90.154 86.9865 91.344 86.9865C92.517 86.9865 93.401 87.6835 93.401 88.9245C93.401 90.1485 92.517 90.8625 91.344 90.8625C90.154 90.8625 89.287 90.1485 89.287 88.9245ZM95.577 88.9245C95.577 86.6975 93.741 85.0825 91.344 85.0825C88.93 85.0825 87.094 86.6975 87.094 88.9245C87.094 91.1515 88.93 92.7495 91.344 92.7495C93.741 92.7495 95.577 91.1515 95.577 88.9245ZM88.862 95.8435H97.056V99.9065H99.3V94.0415H88.862V95.8435ZM101.374 87.9045H99.3V84.2495H97.056V93.3955H99.3V89.7405H101.374V87.9045ZM118.821 88.3975H110.185V86.4085H118.702V84.6235H107.958V90.1825H118.821V88.3975ZM110.117 95.9455H118.719V94.1605H107.89V99.7025H118.872V97.9175H110.117V95.9455ZM106.224 91.2535V93.0385H120.385V91.2535H106.224ZM122.393 85.8475V87.6325H127.612C127.289 91.1005 125.555 93.5485 121.56 95.4695L122.733 97.2375C128.292 94.5515 129.907 90.6415 129.907 85.8475H122.393ZM132.304 84.2155V99.8725H134.565V84.2155H132.304Z" fill="#4E4E4E"/>
<path d="M149.815 98.3884V99.4275H143.301V98.5183L146.562 94.8884C146.963 94.4418 147.272 94.0636 147.491 93.7537C147.715 93.4392 147.869 93.1589 147.956 92.9128C148.047 92.6622 148.093 92.407 148.093 92.1472C148.093 91.8191 148.024 91.5229 147.888 91.2585C147.756 90.9897 147.56 90.7755 147.3 90.616C147.04 90.4565 146.726 90.3767 146.356 90.3767C145.914 90.3767 145.545 90.4633 145.249 90.6365C144.957 90.8051 144.739 91.0421 144.593 91.3474C144.447 91.6528 144.374 92.0037 144.374 92.4001H143.109C143.109 91.8396 143.232 91.3269 143.479 90.8621C143.725 90.3972 144.089 90.0281 144.572 89.7546C145.055 89.4766 145.65 89.3376 146.356 89.3376C146.985 89.3376 147.523 89.4493 147.97 89.6726C148.416 89.8914 148.758 90.2013 148.995 90.6023C149.237 90.9988 149.357 91.4636 149.357 91.9968C149.357 92.2885 149.307 92.5847 149.207 92.8855C149.111 93.1817 148.977 93.4779 148.804 93.7742C148.635 94.0704 148.437 94.3621 148.209 94.6492C147.986 94.9363 147.746 95.2188 147.491 95.4968L144.825 98.3884H149.815ZM155.916 94.1355H152.528V91.8675H155.916V94.1355ZM157.05 92.3855H159.948V97.2015H161.11V87.9055H159.948V91.4475H157.05V88.7455H155.916V90.9575H152.528V88.7455H151.394V95.0595H157.05V92.3855ZM154.18 99.2455V96.2915H153.032V100.183H161.404V99.2455H154.18Z" fill="#4E4E4E"/>
<path d="M82.4513 21.4441V37.1861H84.7293V21.4441H82.4513ZM77.8103 23.0761V23.4841C77.8103 27.7001 76.1783 30.5561 71.6563 32.7321L72.8293 34.5341C78.4223 31.8311 80.0543 27.8871 80.0543 23.0761H77.8103ZM72.4893 23.0761V24.8611H78.8813V23.0761H72.4893ZM90.375 25.5241V26.3401C90.375 28.7031 89.202 31.3721 86.635 32.5451L87.859 34.2791C90.715 33.0041 92.126 29.6551 92.126 26.3401V25.5241H90.375ZM90.868 25.5241V26.3401C90.868 29.5021 92.211 32.7321 94.982 34.0071L96.189 32.2901C93.724 31.1001 92.619 28.5841 92.619 26.3401V25.5241H90.868ZM87.179 24.0111V25.7961H95.747V24.0111H87.179ZM90.358 21.8011V24.9291H92.619V21.8011H90.358ZM96.988 21.4441V37.1861H99.266V21.4441H96.988ZM98.756 27.5471V29.4171H101.544V27.5471H98.756ZM105.745 30.0121V34.2451H108.006V30.0121H105.745ZM110.692 30.0291V34.2621H112.936V30.0291H110.692ZM102.26 33.6331V35.4691H116.506V33.6331H102.26ZM103.348 22.6851V24.4871H115.333V22.6851H103.348ZM103.416 28.9071V30.6921H115.282V28.9071H103.416ZM105.49 24.1811V29.1621H107.751V24.1811H105.49ZM110.947 24.1811V29.1621H113.191V24.1811H110.947ZM127.731 24.9121V26.7311H130.349V24.9121H127.731ZM127.731 29.7741V31.6101H130.349V29.7741H127.731ZM132.848 21.4441V37.1861H135.007V21.4441H132.848ZM129.703 21.6821V36.4721H131.811V21.6821H129.703ZM125.011 22.5491C122.937 22.5491 121.611 24.7081 121.611 28.2611C121.611 31.8311 122.937 33.9901 125.011 33.9901C127.102 33.9901 128.445 31.8311 128.445 28.2611C128.445 24.7081 127.102 22.5491 125.011 22.5491ZM125.011 24.6741C125.895 24.6741 126.405 25.8641 126.405 28.2611C126.405 30.6751 125.895 31.8481 125.011 31.8481C124.144 31.8481 123.634 30.6751 123.634 28.2611C123.634 25.8641 124.144 24.6741 125.011 24.6741ZM148.166 21.4441V37.1861H150.325V21.4441H148.166ZM146.279 27.4451V29.2641H148.88V27.4451H146.279ZM144.715 21.6821V36.4721H146.84V21.6821H144.715ZM137.235 23.0591V33.2591H143.457V23.0591H137.235ZM141.349 24.8271V31.4911H139.343V24.8271H141.349ZM162.21 21.4441V37.1861H164.454V21.4441H162.21ZM163.944 27.5811V29.4681H166.732V27.5811H163.944ZM152.044 23.7731V25.5751H161.207V23.7731H152.044ZM156.651 26.4591C154.356 26.4591 152.656 28.0231 152.656 30.2161C152.656 32.4091 154.356 33.9731 156.651 33.9731C158.946 33.9731 160.646 32.4091 160.646 30.2161C160.646 28.0231 158.946 26.4591 156.651 26.4591ZM156.651 28.2951C157.722 28.2951 158.487 29.0091 158.487 30.2161C158.487 31.4231 157.722 32.1371 156.651 32.1371C155.58 32.1371 154.815 31.4231 154.815 30.2161C154.815 29.0091 155.58 28.2951 156.651 28.2951ZM155.512 21.6991V24.4531H157.773V21.6991H155.512ZM178.277 21.4441V37.1861H180.555V21.4441H178.277ZM173.636 23.0761V23.4841C173.636 27.7001 172.004 30.5561 167.482 32.7321L168.655 34.5341C174.248 31.8311 175.88 27.8871 175.88 23.0761H173.636ZM168.315 23.0761V24.8611H174.707V23.0761H168.315Z" fill="#4E4E4E"/>
<path d="M189.042 31.9358L188.03 31.676L188.529 26.72H193.636V27.8889H189.603L189.302 30.5959C189.484 30.4911 189.714 30.3931 189.992 30.302C190.275 30.2109 190.598 30.1653 190.963 30.1653C191.423 30.1653 191.836 30.245 192.2 30.4045C192.565 30.5595 192.875 30.7828 193.13 31.0745C193.39 31.3661 193.588 31.717 193.725 32.1272C193.861 32.5374 193.93 32.9954 193.93 33.5012C193.93 33.9797 193.864 34.4195 193.731 34.8206C193.604 35.2216 193.41 35.5725 193.15 35.8733C192.891 36.1695 192.562 36.3997 192.166 36.5637C191.774 36.7278 191.312 36.8098 190.778 36.8098C190.377 36.8098 189.997 36.7551 189.637 36.6458C189.281 36.5318 188.962 36.3609 188.68 36.1331C188.402 35.9006 188.174 35.6135 187.996 35.2717C187.823 34.9254 187.714 34.5198 187.668 34.0549H188.871C188.926 34.4286 189.035 34.7431 189.199 34.9983C189.363 35.2535 189.577 35.4472 189.842 35.5793C190.111 35.7069 190.423 35.7708 190.778 35.7708C191.079 35.7708 191.346 35.7183 191.578 35.6135C191.811 35.5087 192.007 35.3583 192.166 35.1624C192.326 34.9664 192.446 34.7294 192.528 34.4514C192.615 34.1734 192.658 33.8612 192.658 33.5149C192.658 33.2004 192.615 32.9088 192.528 32.6399C192.442 32.371 192.312 32.1363 192.139 31.9358C191.97 31.7353 191.763 31.5803 191.517 31.4709C191.271 31.357 190.988 31.3 190.669 31.3C190.245 31.3 189.924 31.357 189.705 31.4709C189.491 31.5849 189.27 31.7398 189.042 31.9358ZM200.064 31.3811H196.676V29.1131H200.064V31.3811ZM201.198 29.6311H204.096V34.4471H205.258V25.1511H204.096V28.6931H201.198V25.9911H200.064V28.2031H196.676V25.9911H195.542V32.3051H201.198V29.6311ZM198.328 36.4911V33.5371H197.18V37.4291H205.552V36.4911H198.328Z" fill="#4E4E4E"/>
<defs>
<filter id="filter0_d_1188_5432" x="-0.000488281" y="0.509766" width="368" height="218.788" filterUnits="userSpaceOnUse" color-interpolation-filters="sRGB">
<feFlood flood-opacity="0" result="BackgroundImageFix"/>
<feColorMatrix in="SourceAlpha" type="matrix" values="0 0 0 0 0 0 0 0 0 0 0 0 0 0 0 0 0 0 127 0" result="hardAlpha"/>
<feOffset dy="2"/>
<feGaussianBlur stdDeviation="1"/>
<feComposite in2="hardAlpha" operator="out"/>
<feColorMatrix type="matrix" values="0 0 0 0 0 0 0 0 0 0 0 0 0 0 0 0 0 0 0.25 0"/>
<feBlend mode="normal" in2="BackgroundImageFix" result="effect1_dropShadow_1188_5432"/>
<feBlend mode="normal" in="SourceGraphic" in2="effect1_dropShadow_1188_5432" result="shape"/>
</filter>
</defs>
</svg>
