<svg width="227" height="51" viewBox="0 0 227 51" fill="none" xmlns="http://www.w3.org/2000/svg">
<path d="M16.0933 18.2635H18.7333V4.68354H16.0933V7.90354H13.8533V10.0235H16.0933V11.6235H13.8533V13.7435H16.0933V18.2635ZM7.79331 8.10354H9.51331V13.7835C8.93331 13.8235 8.35331 13.8435 7.79331 13.8435V8.10354ZM13.7333 13.4835C13.1933 13.5435 12.6333 13.6035 12.0533 13.6435V8.10354H13.5133V6.00354H3.79331V8.10354H5.25331V13.9035C4.57331 13.9035 3.93331 13.9035 3.33331 13.9035L3.61331 16.0435C6.51331 16.0435 10.4733 15.9835 13.8933 15.4035L13.7333 13.4835ZM9.23331 20.6835V17.2435H6.59331V22.7835H19.1533V20.6835H9.23331ZM28.5318 8.62354H32.3318V6.44354H22.0118V8.62354H25.8518V9.64354C25.8518 12.7835 24.3518 16.1635 21.2718 17.5435L22.7718 19.6435C24.9318 18.6635 26.4118 16.6435 27.2318 14.2435C28.0518 16.4635 29.5118 18.2635 31.6518 19.1835L33.0918 17.1035C30.0118 15.8235 28.5318 12.6435 28.5318 9.64354V8.62354ZM34.0318 4.68354V23.1035H36.6718V4.68354H34.0318ZM51.5302 7.68354H41.5702V12.0835H54.4502V10.3035H44.1702V9.34354H54.1302V5.00354H41.5302V6.78354H51.5302V7.68354ZM44.0102 20.1635H54.1902V15.7835H41.3702V17.5635H51.5702V18.5035H41.3902V22.9435H54.6902V21.1635H44.0102V20.1635ZM39.4902 12.9635V14.8635H56.1702V12.9635H39.4902ZM70.5091 21.1835C67.9691 21.1835 66.7891 20.8435 66.7891 20.0835C66.7891 19.3235 67.9691 19.0035 70.5091 19.0035C73.0691 19.0035 74.2491 19.3235 74.2491 20.0835C74.2491 20.8435 73.0691 21.1835 70.5091 21.1835ZM70.5091 17.0635C66.4691 17.0635 64.1291 18.1035 64.1291 20.0835C64.1291 22.0435 66.4691 23.1035 70.5091 23.1035C74.5691 23.1035 76.9091 22.0435 76.9091 20.0835C76.9091 18.1035 74.5691 17.0635 70.5091 17.0635ZM71.8491 14.1835V13.0435H77.1091V11.0435H66.9091V10.0435H76.5491V8.12354H66.9091V7.16354H76.9691V5.16354H64.2891V13.0435H69.2091V14.1835H62.2091V16.2435H78.8691V14.1835H71.8491ZM84.7275 16.9435C83.7275 16.9435 83.0075 16.1435 83.0075 14.7635C83.0075 13.3835 83.7275 12.5635 84.7275 12.5635C85.7275 12.5635 86.4475 13.3835 86.4475 14.7635C86.4475 16.1435 85.7275 16.9435 84.7275 16.9435ZM84.7275 10.3635C82.3675 10.3635 80.6875 12.1835 80.6875 14.7635C80.6875 17.3235 82.3675 19.1435 84.7275 19.1435C87.0875 19.1435 88.7675 17.3235 88.7675 14.7635C88.7675 12.1835 87.0875 10.3635 84.7275 10.3635ZM86.0275 5.18354H83.4275V7.46354H80.2875V9.56354H89.0875V7.46354H86.0275V5.18354ZM93.6075 4.66354V12.1835H92.2075V5.02354H89.7475V22.3235H92.2075V14.3035H93.6075V23.0835H96.1075V4.66354H93.6075ZM111.911 2.28354H108.586V5.60854C108.586 9.98354 106.836 14.4585 102.936 16.2585L104.986 18.9085C107.561 17.6085 109.286 15.2085 110.286 12.2585C111.236 15.0335 112.911 17.2835 115.436 18.5085L117.386 15.8835C113.586 14.1835 111.911 9.95854 111.911 5.60854V2.28354ZM119.286 0.483544V7.70854H114.861V10.3585H119.286V23.5835H122.586V0.483544H119.286ZM137.989 18.3085V14.8835H144.964V12.2335H131.614V9.65854H144.439V1.98354H128.314V4.60854H141.189V7.08354H128.339V14.8835H134.689V18.3085H125.939V21.0085H146.789V18.3085H137.989ZM169.183 13.0835C164.983 12.4035 162.723 9.64354 162.723 7.02354V5.70354H159.903V7.02354C159.903 9.58354 157.623 12.4035 153.463 13.0835L154.543 15.2635C157.763 14.6835 160.103 12.9435 161.303 10.6835C162.503 12.9635 164.863 14.6835 168.103 15.2635L169.183 13.0835ZM162.643 18.8035V14.6835H160.003V18.8035H153.063V20.9235H169.743V18.8035H162.643ZM179.421 21.1835C176.881 21.1835 175.701 20.8435 175.701 20.0835C175.701 19.3235 176.881 19.0035 179.421 19.0035C181.981 19.0035 183.161 19.3235 183.161 20.0835C183.161 20.8435 181.981 21.1835 179.421 21.1835ZM179.421 17.0635C175.381 17.0635 173.041 18.1035 173.041 20.0835C173.041 22.0435 175.381 23.1035 179.421 23.1035C183.481 23.1035 185.821 22.0435 185.821 20.0835C185.821 18.1035 183.481 17.0635 179.421 17.0635ZM180.761 14.1835V13.0435H186.021V11.0435H175.821V10.0435H185.461V8.12354H175.821V7.16354H185.881V5.16354H173.201V13.0435H178.121V14.1835H171.121V16.2435H187.781V14.1835H180.761ZM194.54 17.1835C193.3 17.1835 192.38 16.3435 192.38 14.9435C192.38 13.5435 193.3 12.6835 194.54 12.6835C195.78 12.6835 196.68 13.5435 196.68 14.9235C196.68 16.3435 195.78 17.1835 194.54 17.1835ZM194.54 10.5435C191.86 10.5435 189.86 12.3635 189.86 14.9235C189.86 17.5235 191.86 19.3435 194.54 19.3435C197.2 19.3435 199.18 17.5235 199.18 14.9235C199.18 12.3635 197.2 10.5435 194.54 10.5435ZM195.84 5.00354H193.2V7.40354H189.12V9.50354H199.84V7.40354H195.84V5.00354ZM206.32 11.8835H203.68V4.68354H201.04V23.1035H203.68V14.0635H206.32V11.8835ZM221.638 16.8435C222.378 12.9235 222.378 10.3235 222.378 8.02354V6.26354H208.998V8.36354H219.738C219.738 10.5035 219.698 13.0635 218.998 16.5435L221.638 16.8435ZM215.838 18.7635V12.4235H213.198V18.7635H207.318V20.8835H223.978V18.7635H215.838ZM10.9752 33.3035H6.87525V31.5835H4.21525V33.3035H0.135246V35.3835H10.9752V33.3035ZM3.55525 39.3435C3.55525 38.4235 4.35525 37.9635 5.55525 37.9635C6.73525 37.9635 7.55525 38.4235 7.55525 39.3435C7.55525 40.2835 6.73525 40.7435 5.55525 40.7435C4.35525 40.7435 3.55525 40.2835 3.55525 39.3435ZM10.0752 39.3435C10.0752 37.3435 8.21525 35.9635 5.55525 35.9635C2.91525 35.9635 1.03525 37.3435 1.03525 39.3435C1.03525 41.3635 2.91525 42.7435 5.55525 42.7435C8.21525 42.7435 10.0752 41.3635 10.0752 39.3435ZM2.35525 46.1035H11.9952V50.1235H14.6352V43.9835H2.35525V46.1035ZM17.0752 36.4235H14.6352V31.7035H11.9952V43.2235H14.6352V38.6035H17.0752V36.4235ZM34.0337 36.8435C29.8937 36.3835 27.8937 34.3035 27.8937 32.4435V31.8835H25.1737V32.4435C25.1737 34.3235 23.1737 36.3635 19.0337 36.8435L19.9537 38.8835C23.0937 38.4835 25.3737 37.2035 26.5337 35.4435C27.7137 37.2035 29.9537 38.5035 33.0937 38.8835L34.0337 36.8435ZM30.1537 47.8435H22.7737V46.2435H30.1537V47.8435ZM30.1537 44.2635H22.7737V42.7235H20.1537V49.8835H32.7537V42.7235H30.1537V44.2635ZM18.2137 39.7235V41.8035H34.8537V39.7235H18.2137ZM44.6121 33.8835C47.2921 33.8835 48.5521 34.2635 48.5521 35.0835C48.5521 35.9435 47.2921 36.3035 44.6121 36.3035C41.9521 36.3035 40.6921 35.9435 40.6921 35.0835C40.6921 34.2635 41.9521 33.8835 44.6121 33.8835ZM44.6121 38.2235C48.8321 38.2235 51.2921 37.1235 51.2921 35.0835C51.2921 33.0635 48.8321 31.9435 44.6121 31.9435C40.4121 31.9435 37.9521 33.0635 37.9521 35.0835C37.9521 37.1235 40.4121 38.2235 44.6121 38.2235ZM40.8321 46.9435H50.9121V42.2035H38.1921V44.1435H48.3121V45.1235H38.2121V49.9635H51.3921V47.9835H40.8321V46.9435ZM36.2921 39.1035V41.1635H52.9321V39.1035H36.2921ZM67.311 48.1835C64.771 48.1835 63.591 47.8435 63.591 47.0835C63.591 46.3235 64.771 46.0035 67.311 46.0035C69.871 46.0035 71.051 46.3235 71.051 47.0835C71.051 47.8435 69.871 48.1835 67.311 48.1835ZM67.311 44.0635C63.271 44.0635 60.931 45.1035 60.931 47.0835C60.931 49.0435 63.271 50.1035 67.311 50.1035C71.371 50.1035 73.711 49.0435 73.711 47.0835C73.711 45.1035 71.371 44.0635 67.311 44.0635ZM68.651 41.1835V40.0435H73.911V38.0435H63.711V37.0435H73.351V35.1235H63.711V34.1635H73.771V32.1635H61.091V40.0435H66.011V41.1835H59.011V43.2435H75.671V41.1835H68.651ZM81.5295 43.9435C80.5295 43.9435 79.8095 43.1435 79.8095 41.7635C79.8095 40.3835 80.5295 39.5635 81.5295 39.5635C82.5295 39.5635 83.2495 40.3835 83.2495 41.7635C83.2495 43.1435 82.5295 43.9435 81.5295 43.9435ZM81.5295 37.3635C79.1695 37.3635 77.4895 39.1835 77.4895 41.7635C77.4895 44.3235 79.1695 46.1435 81.5295 46.1435C83.8895 46.1435 85.5695 44.3235 85.5695 41.7635C85.5695 39.1835 83.8895 37.3635 81.5295 37.3635ZM82.8295 32.1835H80.2295V34.4635H77.0895V36.5635H85.8895V34.4635H82.8295V32.1835ZM90.4095 31.6635V39.1835H89.0095V32.0235H86.5495V49.3235H89.0095V41.3035H90.4095V50.0835H92.9095V31.6635H90.4095ZM105.683 32.1835H112.808V29.5585H102.383V45.0335H104.258C108.458 45.0335 111.208 44.9335 114.308 44.3585L113.983 41.6835C111.358 42.1335 108.983 42.3085 105.683 42.3335V32.1835ZM117.333 27.5085V35.4585H111.708V38.1085H117.333V50.6085H120.633V27.5085H117.333ZM129.272 33.5635V35.7035H135.292C134.812 39.7835 132.532 42.7035 128.252 44.9035L129.732 46.9235C135.852 43.8235 137.952 39.0835 137.952 33.5635H129.272ZM145.432 38.7035H142.852V31.6635H140.212V50.0635H142.852V40.8835H145.432V38.7035ZM146.95 33.5635V35.6835H149.43C149.29 39.3835 148.57 42.0435 146.13 44.7435L148.19 46.2435C151.47 42.6035 151.93 38.6435 151.93 33.5635H146.95ZM152.57 33.5635V35.6835H154.53C154.39 39.7835 153.73 42.8635 151.29 45.9435L153.37 47.4035C156.59 43.4235 157.01 38.8835 157.01 33.5635H152.57ZM163.53 38.8835H161.15V31.6635H158.49V50.0835H161.15V41.0635H163.53V38.8835ZM170.489 34.4435C171.789 34.4435 172.669 35.1035 172.669 36.2235C172.669 37.3635 171.789 38.0035 170.489 38.0035C169.189 38.0035 168.269 37.3635 168.269 36.2235C168.269 35.1035 169.189 34.4435 170.489 34.4435ZM170.489 40.0035C173.189 40.0035 175.149 38.4635 175.149 36.2235C175.149 34.0035 173.189 32.4435 170.489 32.4435C167.769 32.4435 165.809 34.0035 165.809 36.2235C165.809 38.4635 167.769 40.0035 170.489 40.0035ZM176.369 40.4835C172.449 41.0235 167.949 41.0435 164.529 41.0435L164.829 43.1835C166.109 43.1835 167.549 43.1835 169.049 43.1235V49.5635H171.689V42.9835C173.289 42.8635 174.909 42.7035 176.529 42.4035L176.369 40.4835ZM177.549 31.6835V44.0635H173.849V46.0635H177.549V50.0835H180.189V31.6835H177.549ZM189.587 35.5835H193.287V33.4435H183.167V35.5835H186.927V36.2235C186.927 39.6235 185.467 43.2235 182.447 44.7235L184.127 46.7435C186.187 45.6235 187.587 43.5035 188.327 40.9435C189.147 43.2635 190.567 45.2635 192.547 46.2835L194.067 44.2435C191.067 42.6835 189.587 39.1435 189.587 36.2235V35.5835ZM195.487 31.6835V36.7235H192.547V38.9035H195.487V40.5835H192.547V42.7635H195.487V50.1035H198.127V31.6835H195.487ZM207.046 42.3035C207.686 42.4235 208.346 42.4835 209.066 42.4835C209.786 42.4835 210.466 42.4235 211.106 42.3035V45.8235H207.046V42.3035ZM209.066 34.6635C211.626 34.6635 213.346 35.7035 213.346 37.5435C213.346 39.3635 211.626 40.4235 209.066 40.4235C206.506 40.4235 204.806 39.3635 204.806 37.5435C204.806 35.7035 206.506 34.6635 209.066 34.6635ZM213.726 45.8235V41.3235C215.106 40.4635 215.946 39.1435 215.946 37.5435C215.946 34.5235 213.046 32.5835 209.066 32.5835C205.106 32.5835 202.206 34.5235 202.206 37.5435C202.186 39.1435 203.026 40.4635 204.426 41.3235V45.8235H200.746V47.9635H217.426V45.8235H213.726ZM226.892 34.1648L226.57 44.0378H224.226L223.894 34.1648H226.892ZM223.816 47.0945C223.816 46.6778 223.959 46.3328 224.246 46.0593C224.539 45.7794 224.923 45.6394 225.398 45.6394C225.88 45.6394 226.264 45.7794 226.55 46.0593C226.837 46.3328 226.98 46.6778 226.98 47.0945C226.98 47.4981 226.837 47.8399 226.55 48.1199C226.264 48.3998 225.88 48.5398 225.398 48.5398C224.923 48.5398 224.539 48.3998 224.246 48.1199C223.959 47.8399 223.816 47.4981 223.816 47.0945Z" fill="#03CF5D"/>
</svg>
