<svg width="53" height="31" viewBox="0 0 53 31" fill="none" xmlns="http://www.w3.org/2000/svg">
<path d="M51.9031 28.502H41.0445C41.1578 28.1826 41.22 27.8394 41.22 27.4816V26.4613H46.259C49.9048 26.4613 52.8708 23.4954 52.8708 19.8495C52.8708 18.0834 52.1831 16.423 50.9343 15.1742L50.2763 14.5162L44.5625 8.80239C44.5624 8.80229 44.5623 8.80219 44.5621 8.80209L41.6511 5.89109C38.3352 2.57523 33.9266 0.749023 29.2371 0.749023H1.65023C1.08674 0.749023 0.629883 1.20588 0.629883 1.76937C0.629883 2.33275 1.08664 2.78971 1.65023 2.78971H29.2371C33.3814 2.78971 37.2776 4.40357 40.208 7.33408L41.3775 8.50354H29.6202C27.4823 8.50354 25.743 10.2429 25.743 12.3807C25.743 14.5186 27.4824 16.258 29.6202 16.258H49.1321L49.4913 16.6172C50.3546 17.4805 50.8302 18.6284 50.8302 19.8495C50.8302 22.37 48.7795 24.4207 46.259 24.4207H40.1996H36.1184H11.294H7.21269H1.65023C1.08674 24.4207 0.629883 24.8776 0.629883 25.4411C0.629883 26.0044 1.08664 26.4614 1.65023 26.4614H6.19234V27.4818C6.19234 27.8394 6.25455 28.1827 6.36782 28.5021H1.70283C1.13934 28.5021 0.682483 28.959 0.682483 29.5224C0.682483 30.0858 1.13924 30.5428 1.70283 30.5428H18.8444C19.4079 30.5428 19.8648 30.0859 19.8648 29.5224C19.8648 28.9591 19.408 28.5021 18.8444 28.5021H12.1388C12.2521 28.1827 12.3143 27.8395 12.3143 27.4818V26.4614H35.098V27.4818C35.098 27.8394 35.1602 28.1827 35.2735 28.5021H26.8075C26.244 28.5021 25.7872 28.959 25.7872 29.5224C25.7872 30.0858 26.2439 30.5428 26.8075 30.5428H51.9031C52.4666 30.5428 52.9234 30.0859 52.9234 29.5224C52.9234 28.959 52.4667 28.502 51.9031 28.502ZM29.6202 14.2174C28.6076 14.2174 27.7836 13.3934 27.7836 12.3807C27.7836 11.3681 28.6076 10.5441 29.6202 10.5441H43.4183L47.0914 14.2173H29.6202V14.2174ZM10.2736 27.4816C10.2736 28.0442 9.81595 28.502 9.25328 28.502C8.69071 28.502 8.23293 28.0443 8.23293 27.4816V26.4613H10.2736V27.4816ZM39.1794 27.4816C39.1794 28.0442 38.7217 28.502 38.1591 28.502C37.5965 28.502 37.1387 28.0443 37.1387 27.4816V26.4613H39.1794V27.4816Z" fill="white"/>
<path d="M23.545 28.8009C23.3552 28.6111 23.092 28.502 22.8236 28.502C22.5553 28.502 22.2919 28.611 22.1022 28.8009C21.9124 28.9907 21.8032 29.2539 21.8032 29.5223C21.8032 29.7907 21.9124 30.0539 22.1022 30.2436C22.2919 30.4334 22.5552 30.5426 22.8236 30.5426C23.0919 30.5426 23.3552 30.4335 23.545 30.2436C23.7347 30.0539 23.8439 29.7906 23.8439 29.5223C23.8439 29.254 23.7347 28.9907 23.545 28.8009Z" fill="white"/>
<path d="M17.5674 8.50391H5.54613C4.98264 8.50391 4.52578 8.96076 4.52578 9.52425C4.52578 10.0876 4.98254 10.5446 5.54613 10.5446H17.5674C18.5801 10.5446 19.404 11.3685 19.404 12.3812C19.404 13.3939 18.5801 14.2178 17.5673 14.2178H1.65023C1.08674 14.2178 0.629883 14.6747 0.629883 15.2382C0.629883 15.8017 1.08664 16.2585 1.65023 16.2585H17.5674C19.7053 16.2585 21.4446 14.5191 21.4446 12.3813C21.4446 10.2435 19.7052 8.50391 17.5674 8.50391Z" fill="white"/>
<path d="M2.37113 8.80286C2.18136 8.61299 1.91918 8.50391 1.64974 8.50391C1.38143 8.50391 1.11812 8.61299 0.928348 8.80286C0.738579 8.99263 0.629395 9.25584 0.629395 9.52415C0.629395 9.79246 0.738579 10.0558 0.928348 10.2454C1.11812 10.4352 1.38143 10.5445 1.64974 10.5445C1.91907 10.5445 2.18136 10.4353 2.37113 10.2454C2.56192 10.0558 2.67008 9.79246 2.67008 9.52415C2.67008 9.25584 2.56192 8.99263 2.37113 8.80286Z" fill="white"/>
</svg>
