<svg width="322" height="134" viewBox="0 0 322 134" fill="none" xmlns="http://www.w3.org/2000/svg">
<g filter="url(#filter0_d_1216_5808)">
<rect x="2.64941" y="0.949341" width="140.751" height="34.5912" rx="10" fill="white"/>
</g>
<path d="M34.9406 13.8587V14.4437C34.9406 16.2587 33.5906 17.8787 31.5806 18.5087L32.1806 19.4837C34.4456 18.7337 35.9606 16.7987 35.9606 14.4437V13.8587H34.9406ZM35.1656 13.8587V14.4437C35.1656 16.6187 36.6506 18.4487 38.9156 19.1387L39.5006 18.1637C37.5056 17.5787 36.1856 16.0787 36.1856 14.4437V13.8587H35.1656ZM31.9406 13.1537V14.1587H39.1706V13.1537H31.9406ZM34.9406 11.4587V13.5137H36.1856V11.4587H34.9406ZM40.8356 11.5187V19.8287H42.0806V11.5187H40.8356ZM41.7356 15.0137V16.0637H44.0906V15.0137H41.7356ZM37.7606 20.1587C34.9856 20.1587 33.3056 21.0587 33.3056 22.6037C33.3056 24.1637 34.9856 25.0487 37.7606 25.0487C40.5356 25.0487 42.2156 24.1637 42.2156 22.6037C42.2156 21.0587 40.5356 20.1587 37.7606 20.1587ZM37.7606 21.1337C39.7706 21.1337 41.0006 21.6737 41.0006 22.6037C41.0006 23.5337 39.7706 24.0737 37.7606 24.0737C35.7506 24.0737 34.5206 23.5337 34.5206 22.6037C34.5206 21.6737 35.7506 21.1337 37.7606 21.1337ZM45.0294 18.3737V19.3787H57.2844V18.3737H45.0294ZM46.3944 20.8187V21.8237H54.5244V25.0787H55.7694V20.8187H46.3944ZM50.5494 11.4737V13.3637H51.7794V11.4737H50.5494ZM50.4894 13.5287V13.7537C50.4894 15.3137 48.3894 16.4087 45.7644 16.6487L46.1544 17.6087C49.1094 17.2937 51.5844 15.9737 51.5844 13.7537V13.5287H50.4894ZM50.7444 13.5287V13.7537C50.7444 15.9737 53.2044 17.2937 56.1744 17.6087L56.5644 16.6487C53.9394 16.4087 51.8394 15.3137 51.8394 13.7537V13.5287H50.7444ZM46.2894 12.8687V13.8737H56.0394V12.8687H46.2894Z" fill="#006FD6"/>
<path d="M81.9772 18.7037V19.7087H94.2322V18.7037H81.9772ZM87.4822 16.9487V19.1237H88.7122V16.9487H87.4822ZM83.5972 16.3937V17.3687H92.7922V16.3937H83.5972ZM83.5972 11.9087V16.9187H84.8272V12.8837H92.7322V11.9087H83.5972ZM84.4672 14.1287V15.0887H92.3722V14.1287H84.4672ZM88.0972 20.7137C85.1422 20.7137 83.4472 21.4637 83.4472 22.8887C83.4472 24.2987 85.1422 25.0487 88.0972 25.0487C91.0522 25.0487 92.7472 24.2987 92.7472 22.8887C92.7472 21.4637 91.0522 20.7137 88.0972 20.7137ZM88.0972 21.6587C90.2722 21.6587 91.4872 22.0937 91.4872 22.8887C91.4872 23.6987 90.2722 24.1187 88.0972 24.1187C85.9222 24.1187 84.7072 23.6987 84.7072 22.8887C84.7072 22.0937 85.9222 21.6587 88.0972 21.6587ZM95.471 22.3787V23.4137H107.756V22.3787H95.471ZM100.961 19.4687V22.8137H102.206V19.4687H100.961ZM96.956 12.5237V13.5287H105.011V15.6287H97.001V19.3487H98.231V16.6337H106.241V12.5237H96.956ZM97.001 18.8237V19.8437H106.556V18.8237H97.001ZM108.935 18.3737V19.3787H121.19V18.3737H108.935ZM110.3 20.8187V21.8237H118.43V25.0787H119.675V20.8187H110.3ZM114.455 11.4737V13.3637H115.685V11.4737H114.455ZM114.395 13.5287V13.7537C114.395 15.3137 112.295 16.4087 109.67 16.6487L110.06 17.6087C113.015 17.2937 115.49 15.9737 115.49 13.7537V13.5287H114.395ZM114.65 13.5287V13.7537C114.65 15.9737 117.11 17.2937 120.08 17.6087L120.47 16.6487C117.845 16.4087 115.745 15.3137 115.745 13.7537V13.5287H114.65ZM110.195 12.8687V13.8737H119.945V12.8687H110.195Z" fill="#1E1E1E"/>
<rect x="82.0059" y="47.1202" width="39.2061" height="39.2061" rx="5.5" fill="white" stroke="#CAD2DF"/>
<path d="M77.6416 71.8201V52.3726C77.6416 47.402 81.671 43.3726 86.6416 43.3726H116.576C121.547 43.3726 125.576 47.402 125.576 52.3726V71.8201" stroke="#EEF2F8" stroke-width="2" stroke-linecap="round" stroke-linejoin="round"/>
<path d="M98.0044 61.6644V72.3871H96.6495V63.3563L93.9175 64.3524V63.1293L97.792 61.6644H98.0044ZM108.458 68.996H109.865C109.791 69.6698 109.598 70.2728 109.286 70.8051C108.973 71.3373 108.532 71.7596 107.96 72.0721C107.389 72.3798 106.676 72.5336 105.822 72.5336C105.197 72.5336 104.628 72.4164 104.115 72.182C103.607 71.9476 103.17 71.6156 102.804 71.1859C102.438 70.7513 102.155 70.2313 101.954 69.6259C101.759 69.0155 101.661 68.3368 101.661 67.5897V66.5277C101.661 65.7806 101.759 65.1044 101.954 64.4989C102.155 63.8885 102.44 63.3661 102.811 62.9315C103.187 62.4969 103.639 62.1625 104.166 61.9281C104.694 61.6937 105.287 61.5765 105.946 61.5765C106.752 61.5765 107.433 61.7279 107.99 62.0306C108.546 62.3334 108.978 62.7533 109.286 63.2904C109.598 63.8226 109.791 64.4403 109.865 65.1434H108.458C108.39 64.6454 108.263 64.2181 108.078 63.8617C107.892 63.5004 107.628 63.222 107.286 63.0267C106.945 62.8314 106.498 62.7338 105.946 62.7338C105.473 62.7338 105.055 62.8241 104.694 63.0048C104.337 63.1854 104.037 63.4418 103.793 63.7738C103.554 64.1058 103.373 64.5038 103.251 64.9677C103.129 65.4315 103.068 65.9467 103.068 66.5131V67.5897C103.068 68.1122 103.121 68.6029 103.229 69.0619C103.341 69.5209 103.51 69.9237 103.734 70.2704C103.959 70.6171 104.244 70.8905 104.591 71.0907C104.938 71.286 105.348 71.3837 105.822 71.3837C106.422 71.3837 106.901 71.2885 107.257 71.098C107.614 70.9076 107.882 70.6342 108.063 70.2777C108.248 69.9213 108.38 69.494 108.458 68.996Z" fill="#1E1E1E"/>
<rect x="24.8398" y="47.1202" width="39.2061" height="39.2061" rx="5.5" fill="white" stroke="#CAD2DF"/>
<path d="M20.4736 71.8201V52.3726C20.4736 47.402 24.5031 43.3726 29.4736 43.3726H59.4081C64.3787 43.3726 68.4081 47.402 68.4081 52.3726V71.8201" stroke="#EEF2F8" stroke-width="2" stroke-linecap="round" stroke-linejoin="round"/>
<path d="M40.7998 61.6644V72.3871H39.4449V63.3563L36.7129 64.3524V63.1293L40.5874 61.6644H40.7998ZM47.7015 72.3871H45.475L45.4896 71.2372H47.7015C48.4632 71.2372 49.098 71.0785 49.6058 70.7611C50.1136 70.4388 50.4945 69.9896 50.7484 69.4135C51.0072 68.8324 51.1366 68.1537 51.1366 67.3773V66.7255C51.1366 66.1151 51.0633 65.5731 50.9169 65.0995C50.7704 64.621 50.5555 64.2181 50.2723 63.891C49.9891 63.559 49.6424 63.3075 49.2323 63.1366C48.827 62.9657 48.3607 62.8802 47.8334 62.8802H45.431V61.723H47.8334C48.5316 61.723 49.1688 61.8402 49.745 62.0746C50.3212 62.3041 50.8168 62.6385 51.2318 63.078C51.6517 63.5126 51.974 64.0399 52.1986 64.66C52.4232 65.2753 52.5355 65.9686 52.5355 66.7401V67.3773C52.5355 68.1488 52.4232 68.8446 52.1986 69.4647C51.974 70.08 51.6493 70.6049 51.2245 71.0394C50.8046 71.474 50.2967 71.8085 49.701 72.0428C49.1102 72.2723 48.4437 72.3871 47.7015 72.3871ZM46.2294 61.723V72.3871H44.8158V61.723H46.2294Z" fill="#1E1E1E"/>
<path d="M9.00213 104.368V104.946C9.00213 106.714 7.89713 108.516 5.34713 109.23L6.41813 110.981C9.41013 110.114 10.8211 107.683 10.8211 104.946V104.368H9.00213ZM9.42713 104.368V104.946C9.42713 107.496 10.8381 109.808 13.8641 110.607L14.8841 108.839C12.3511 108.176 11.2631 106.544 11.2631 104.946V104.368H9.42713ZM5.90813 103.229V104.997H14.3571V103.229H5.90813ZM9.00213 101.546V103.926H11.2631V101.546H9.00213ZM15.5981 101.597V111.083H17.8591V101.597H15.5981ZM17.2301 105.286V107.139H19.9501V105.286H17.2301ZM12.7251 111.372C9.42713 111.372 7.38713 112.477 7.38713 114.364C7.38713 116.251 9.42713 117.339 12.7251 117.339C16.0061 117.339 18.0461 116.251 18.0461 114.364C18.0461 112.477 16.0061 111.372 12.7251 111.372ZM12.7251 113.106C14.7311 113.106 15.8021 113.497 15.8021 114.364C15.8021 115.214 14.7311 115.622 12.7251 115.622C10.7021 115.622 9.63113 115.214 9.63113 114.364C9.63113 113.497 10.7021 113.106 12.7251 113.106ZM20.7848 109.417V111.202H35.0138V109.417H20.7848ZM22.3658 112.375V114.143H31.0358V117.339H33.2968V112.375H22.3658ZM26.7688 101.648V103.96H29.0128V101.648H26.7688ZM26.6328 104.13V104.453C26.6328 105.66 25.1708 106.884 21.3798 107.122L22.0598 108.822C26.3438 108.516 28.6218 106.833 28.6218 104.453V104.13H26.6328ZM27.1598 104.13V104.453C27.1598 106.833 29.4208 108.516 33.7218 108.822L34.4018 107.122C30.6108 106.884 29.1488 105.66 29.1488 104.453V104.13H27.1598ZM22.1448 103.059V104.81H33.6538V103.059H22.1448ZM36.7665 103.161V104.946H43.5495V103.161H36.7665ZM38.7895 107.666V113.004H41.0165V107.666H38.7895ZM42.6485 103.161V104.436C42.6485 105.949 42.6485 107.768 42.2405 110.284L44.4505 110.488C44.8755 107.87 44.8755 105.966 44.8755 104.436V103.161H42.6485ZM46.2185 101.597V117.339H48.4795V101.597H46.2185ZM47.8165 107.921V109.791H50.5875V107.921H47.8165ZM36.1715 114.16C38.9085 114.16 42.4445 114.092 45.6235 113.548L45.5045 111.899C42.4105 112.29 38.7385 112.341 35.9675 112.341L36.1715 114.16ZM53.938 113.809L53.9296 115.411C53.9296 116.026 53.7747 116.645 53.4648 117.271C53.1604 117.896 52.7731 118.408 52.3027 118.806L51.0576 118.167C51.1959 117.913 51.3315 117.658 51.4643 117.403C51.5971 117.149 51.7078 116.869 51.7963 116.565C51.8849 116.261 51.9292 115.915 51.9292 115.527V113.809H53.938ZM59.1821 109.706V111.474H73.4281V109.706H59.1821ZM65.1661 108.023V110.352H67.4271V108.023H65.1661ZM60.9501 107.037V108.754H71.9151V107.037H60.9501ZM60.9501 101.988V108.006H63.1941V103.705H71.7961V101.988H60.9501ZM62.5651 104.538V106.187H71.4391V104.538H62.5651ZM66.2881 112.171C62.8201 112.171 60.8141 113.089 60.8141 114.755C60.8141 116.438 62.8201 117.339 66.2881 117.339C69.7391 117.339 71.7451 116.438 71.7451 114.755C71.7451 113.089 69.7391 112.171 66.2881 112.171ZM66.2881 113.837C68.4641 113.837 69.4671 114.109 69.4671 114.755C69.4671 115.418 68.4641 115.69 66.2881 115.69C64.0951 115.69 63.0921 115.418 63.0921 114.755C63.0921 114.109 64.0951 113.837 66.2881 113.837ZM74.5348 113.769V115.605H88.7808V113.769H74.5348ZM80.5018 110.794V114.517H82.7628V110.794H80.5018ZM76.1328 102.617V104.402H84.9388V106.085H76.1668V110.505H78.4108V107.853H87.1828V102.617H76.1328ZM76.1668 109.604V111.423H87.5398V109.604H76.1668ZM89.8365 109.417V111.202H104.065V109.417H89.8365ZM91.4175 112.375V114.143H100.087V117.339H102.348V112.375H91.4175ZM95.8205 101.648V103.96H98.0645V101.648H95.8205ZM95.6845 104.13V104.453C95.6845 105.66 94.2225 106.884 90.4315 107.122L91.1115 108.822C95.3955 108.516 97.6735 106.833 97.6735 104.453V104.13H95.6845ZM96.2115 104.13V104.453C96.2115 106.833 98.4725 108.516 102.773 108.822L103.453 107.122C99.6625 106.884 98.2005 105.66 98.2005 104.453V104.13H96.2115ZM91.1965 103.059V104.81H102.705V103.059H91.1965ZM113.166 109.672V113.123H115.427V109.672H113.166ZM120.068 101.597V113.514H122.329V101.597H120.068ZM110.99 115.265V117.067H122.669V115.265H110.99ZM110.99 112.392V115.741H113.251V112.392H110.99ZM109.29 110.352C112.129 110.352 115.818 110.267 119.167 109.706L119.031 108.091C115.733 108.516 111.891 108.55 109.018 108.55L109.29 110.352ZM117.093 110.743V112.29H120.561V110.743H117.093ZM114.084 102.141C111.772 102.141 110.157 103.28 110.157 104.946C110.157 106.629 111.772 107.751 114.084 107.751C116.379 107.751 117.994 106.629 117.994 104.946C117.994 103.28 116.379 102.141 114.084 102.141ZM114.084 103.79C115.121 103.79 115.852 104.181 115.852 104.946C115.852 105.711 115.121 106.102 114.084 106.102C113.03 106.102 112.299 105.711 112.299 104.946C112.299 104.181 113.03 103.79 114.084 103.79ZM134.485 101.597V117.339H136.729V101.597H134.485ZM136.219 107.734V109.621H139.007V107.734H136.219ZM124.319 103.926V105.728H133.482V103.926H124.319ZM128.926 106.612C126.631 106.612 124.931 108.176 124.931 110.369C124.931 112.562 126.631 114.126 128.926 114.126C131.221 114.126 132.921 112.562 132.921 110.369C132.921 108.176 131.221 106.612 128.926 106.612ZM128.926 108.448C129.997 108.448 130.762 109.162 130.762 110.369C130.762 111.576 129.997 112.29 128.926 112.29C127.855 112.29 127.09 111.576 127.09 110.369C127.09 109.162 127.855 108.448 128.926 108.448ZM127.787 101.852V104.606H130.048V101.852H127.787ZM141.474 105.847V107.632H152.388V105.847H141.474ZM139.706 109.264V111.066H153.969V109.264H139.706ZM141.474 102.158V106.731H143.718V102.158H141.474ZM141.321 115.197V116.999H152.473V115.197H141.321ZM141.321 112.324V115.673H143.582V112.324H141.321ZM162.474 104.079V105.847C162.474 108.431 161.199 111.372 158.598 112.596L159.873 114.381C162.763 113.021 164.259 109.4 164.259 105.847V104.079H162.474ZM162.95 104.079V105.847C162.95 109.196 164.412 112.647 167.302 113.99L168.543 112.205C165.959 111.015 164.735 108.227 164.735 105.847V104.079H162.95ZM159.21 103.11V104.963H167.846V103.11H159.21ZM169.002 101.597V117.339H171.28V101.597H169.002ZM170.77 107.598V109.468H173.558V107.598H170.77ZM185.103 101.58V117.373H187.364V101.58H185.103ZM175.107 111.865V113.701H176.501C179.374 113.701 181.686 113.616 184.236 113.157L184.015 111.338C181.516 111.763 179.289 111.865 176.501 111.865H175.107ZM175.09 102.923V104.725H180.207V107.224H175.107V112.545H177.402V109.009H182.519V102.923H175.09ZM189.575 108.652V110.301H203.838V108.652H189.575ZM191.173 111.083V112.613H199.911V113.395H191.207V116.166H193.451V114.823H202.138V111.083H191.173ZM191.207 115.69V117.22H202.58V115.69H191.207ZM191.326 101.869V103.382H199.877V104.164H191.343V106.867H193.587V105.575H202.104V101.869H191.326ZM191.343 106.391V107.921H202.393V106.391H191.343ZM216.848 104.946V106.765H220.503V104.946H216.848ZM212.411 102.566V104.266C212.411 106.493 211.323 108.669 208.722 109.536L209.912 111.304C212.887 110.216 214.23 107.479 214.23 104.266V102.566H212.411ZM212.904 102.566V104.283C212.904 107.258 214.196 109.893 217.018 110.913L218.225 109.179C215.743 108.329 214.706 106.306 214.706 104.283V102.566H212.904ZM219.721 101.614V113.225H221.982V101.614H219.721ZM211.561 115.265V117.067H222.322V115.265H211.561ZM211.561 112.052V116.268H213.839V112.052H211.561ZM224.653 108.771V110.607H225.741C228.087 110.607 229.617 110.556 231.419 110.25L231.215 108.448C229.481 108.737 228.019 108.771 225.741 108.771H224.653ZM224.653 102.651V109.774H226.829V104.453H230.858V102.651H224.653ZM226.183 105.728V107.428H230.688V105.728H226.183ZM235.397 101.597V111.202H237.539V101.597H235.397ZM233.51 105.456V107.258H236.009V105.456H233.51ZM232.031 101.886V111.1H234.139V101.886H232.031ZM226.727 111.882V113.684H235.295V117.339H237.539V111.882H226.727ZM249.543 101.597V117.339H251.787V101.597H249.543ZM251.277 107.734V109.621H254.065V107.734H251.277ZM239.377 103.926V105.728H248.54V103.926H239.377ZM243.984 106.612C241.689 106.612 239.989 108.176 239.989 110.369C239.989 112.562 241.689 114.126 243.984 114.126C246.279 114.126 247.979 112.562 247.979 110.369C247.979 108.176 246.279 106.612 243.984 106.612ZM243.984 108.448C245.055 108.448 245.82 109.162 245.82 110.369C245.82 111.576 245.055 112.29 243.984 112.29C242.913 112.29 242.148 111.576 242.148 110.369C242.148 109.162 242.913 108.448 243.984 108.448ZM242.845 101.852V104.606H245.106V101.852H242.845ZM260.968 106.884V108.72H263.569V106.884H260.968ZM257.602 102.957V105.609C257.602 108.278 256.786 111.083 254.474 112.511L255.834 114.211C258.35 112.664 259.336 109.179 259.336 105.609V102.957H257.602ZM258.095 102.957V105.507C258.095 108.907 258.877 112.307 261.376 113.854L262.6 112.086C260.458 110.692 259.795 108.074 259.795 105.507V102.957H258.095ZM266.136 101.597V117.339H268.295V101.597H266.136ZM262.94 101.835V116.625H265.048V101.835H262.94ZM273.227 109.587V114.007H275.471V109.587H273.227ZM278.939 109.587V114.007H281.2V109.587H278.939ZM270.099 113.684V115.52H284.345V113.684H270.099ZM277.205 102.362C273.805 102.362 271.323 104.028 271.323 106.595C271.323 109.162 273.805 110.811 277.205 110.811C280.588 110.811 283.087 109.162 283.087 106.595C283.087 104.028 280.588 102.362 277.205 102.362ZM277.205 104.13C279.398 104.13 280.86 105.031 280.86 106.595C280.86 108.142 279.398 109.06 277.205 109.06C275.012 109.06 273.55 108.142 273.55 106.595C273.55 105.031 275.012 104.13 277.205 104.13Z" fill="white"/>
<defs>
<filter id="filter0_d_1216_5808" x="0.649414" y="0.949341" width="144.751" height="38.5912" filterUnits="userSpaceOnUse" color-interpolation-filters="sRGB">
<feFlood flood-opacity="0" result="BackgroundImageFix"/>
<feColorMatrix in="SourceAlpha" type="matrix" values="0 0 0 0 0 0 0 0 0 0 0 0 0 0 0 0 0 0 127 0" result="hardAlpha"/>
<feOffset dy="2"/>
<feGaussianBlur stdDeviation="1"/>
<feComposite in2="hardAlpha" operator="out"/>
<feColorMatrix type="matrix" values="0 0 0 0 0 0 0 0 0 0 0 0 0 0 0 0 0 0 0.25 0"/>
<feBlend mode="normal" in2="BackgroundImageFix" result="effect1_dropShadow_1216_5808"/>
<feBlend mode="normal" in="SourceGraphic" in2="effect1_dropShadow_1216_5808" result="shape"/>
</filter>
</defs>
</svg>
