<svg width="174" height="12" viewBox="0 0 174 12" fill="none" xmlns="http://www.w3.org/2000/svg">
<path d="M2.03141 1.07646H0.612408V7.81946H1.31641C2.59241 7.81946 3.69241 7.77546 4.90241 7.52246L4.72641 6.31246C3.79141 6.48846 2.94441 6.55446 2.03141 6.57646V1.07646ZM5.40841 3.29846H3.41741V4.47546H5.40841V9.78846H6.76141V0.273456H5.40841V3.29846ZM7.55341 0.0974568V10.2285H8.92841V0.0974568H7.55341ZM16.9565 0.0974568V10.2615H18.4085V0.0974568H16.9565ZM12.9635 0.812457C11.4345 0.812457 10.3015 2.19846 10.3015 4.42046C10.3015 6.65346 11.4345 8.05046 12.9635 8.05046C14.4925 8.05046 15.6255 6.65346 15.6255 4.42046C15.6255 2.19846 14.4925 0.812457 12.9635 0.812457ZM12.9635 2.12146C13.7115 2.12146 14.2285 2.92446 14.2285 4.42046C14.2285 5.92746 13.7115 6.73046 12.9635 6.73046C12.2155 6.73046 11.6985 5.92746 11.6985 4.42046C11.6985 2.92446 12.2155 2.12146 12.9635 2.12146ZM23.6207 6.71946H21.6297V4.47546H23.6207V6.71946ZM26.8657 0.0974568V3.66146H25.0507V0.900457H23.6207V3.34246H21.6297V0.900457H20.1887V7.87446H25.0507V4.82746H26.8657V10.2615H28.3177V0.0974568H26.8657ZM38.9741 0.0974568V10.2615H40.4261V0.0974568H38.9741ZM34.9811 0.812457C33.4521 0.812457 32.3191 2.19846 32.3191 4.42046C32.3191 6.65346 33.4521 8.05046 34.9811 8.05046C36.5101 8.05046 37.6431 6.65346 37.6431 4.42046C37.6431 2.19846 36.5101 0.812457 34.9811 0.812457ZM34.9811 2.12146C35.7291 2.12146 36.2461 2.92446 36.2461 4.42046C36.2461 5.92746 35.7291 6.73046 34.9811 6.73046C34.2331 6.73046 33.7161 5.92746 33.7161 4.42046C33.7161 2.92446 34.2331 2.12146 34.9811 2.12146ZM46.4082 0.306457C44.1752 0.306457 42.7452 1.05446 42.7452 2.27546C42.7452 3.50746 44.1752 4.24446 46.4082 4.24446C48.6412 4.24446 50.0822 3.50746 50.0822 2.27546C50.0822 1.05446 48.6412 0.306457 46.4082 0.306457ZM46.4082 1.41746C47.7942 1.41746 48.5862 1.70346 48.5862 2.27546C48.5862 2.84746 47.7942 3.13346 46.4082 3.13346C45.0332 3.13346 44.2412 2.84746 44.2412 2.27546C44.2412 1.70346 45.0332 1.41746 46.4082 1.41746ZM42.8992 6.68646V10.1185H49.8952V6.68646H42.8992ZM48.4652 7.81946V8.98546H44.3182V7.81946H48.4652ZM41.8322 4.82746V5.97146H50.9842V4.82746H41.8322ZM56.9994 5.81746C57.2744 4.14546 57.2744 2.91346 57.2744 1.93446V1.10946H52.0604V2.26446H55.8444C55.8444 3.16646 55.8114 4.25546 55.5804 5.69646L56.9994 5.81746ZM54.7884 4.01346H53.3584V7.00546C52.7204 7.01646 52.1044 7.01646 51.5434 7.01646L51.6754 8.20446C53.4354 8.19346 55.7014 8.14946 57.7584 7.79746L57.6814 6.75246C56.7574 6.86246 55.7674 6.92846 54.7884 6.96146V4.01346ZM60.9594 4.17846H59.5954V0.0974568H58.1434V10.2285H59.5954V5.38846H60.9594V4.17846ZM69.8118 1.02146H67.5568V0.0424568H66.0938V1.02146H63.8388V2.16546H69.8118V1.02146ZM65.7308 4.28846C65.7308 3.79346 66.1818 3.54046 66.8308 3.54046C67.4798 3.54046 67.9308 3.79346 67.9308 4.28846C67.9308 4.79446 67.4798 5.04746 66.8308 5.04746C66.1818 5.04746 65.7308 4.79446 65.7308 4.28846ZM69.3168 4.28846C69.3168 3.21046 68.2938 2.47346 66.8308 2.47346C65.3678 2.47346 64.3448 3.21046 64.3448 4.28846C64.3448 5.38846 65.3678 6.11446 66.8308 6.11446C68.2938 6.11446 69.3168 5.38846 69.3168 4.28846ZM66.6658 7.79746H70.4058V8.98546H66.6658V7.79746ZM65.2358 10.1185H71.8248V6.65346H65.2358V10.1185ZM73.1668 2.60546H71.8248V0.119456H70.3728V6.21346H71.8248V3.79346H73.1668V2.60546ZM73.8249 1.25246V2.42946H74.8699C74.8039 4.39846 74.5069 5.91646 73.4949 7.50046L74.6059 8.11646C75.8709 6.09246 76.1129 3.82646 76.1129 1.25246H73.8249ZM79.1049 3.91446H78.2689C78.3459 3.04546 78.3679 2.16546 78.3679 1.25246H76.4099V2.42946H77.1359C77.0919 4.49746 76.8609 6.25746 75.7499 7.98446L76.8609 8.60046C77.5429 7.50046 77.9279 6.32346 78.1369 5.08046H79.1049V9.79946H80.4469V0.328456H79.1049V3.91446ZM81.0519 0.108457V10.2505H82.4379V0.108457H81.0519ZM85.0429 7.98828L85.0376 9.0249C85.0376 9.42236 84.9373 9.8234 84.7368 10.228C84.5398 10.6326 84.2892 10.9639 83.9848 11.2217L83.1792 10.8081C83.2687 10.6434 83.3564 10.4787 83.4423 10.314C83.5283 10.1493 83.5999 9.96842 83.6572 9.77148C83.7145 9.57454 83.7431 9.35075 83.7431 9.1001V7.98828H85.0429ZM90.6413 2.00046H95.0083V4.68446H90.6413V2.00046ZM93.5563 7.88546V5.82846H96.4273V0.856457H89.2223V5.82846H92.1043V7.88546H88.2543V9.06246H97.4283V7.88546H93.5563ZM106.171 3.69446H100.693V1.80246H106.061V0.647457H99.2085V4.84946H106.171V3.69446ZM107.227 5.83946H98.0425V7.01646H101.881V10.2285H103.333V7.01646H107.227V5.83946ZM114.475 1.75846H108.997V4.17846H116.081V3.19946H110.427V2.67146H115.905V0.284456H108.975V1.26346H114.475V1.75846ZM110.339 8.62246H115.938V6.21346H108.887V7.19246H114.497V7.70946H108.898V10.1515H116.213V9.17246H110.339V8.62246ZM107.853 4.66246V5.70746H117.027V4.66246H107.853ZM127.012 0.0974568V10.2615H128.464V0.0974568H127.012ZM123.019 0.812457C121.49 0.812457 120.357 2.19846 120.357 4.42046C120.357 6.65346 121.49 8.05046 123.019 8.05046C124.548 8.05046 125.681 6.65346 125.681 4.42046C125.681 2.19846 124.548 0.812457 123.019 0.812457ZM123.019 2.12146C123.767 2.12146 124.284 2.92446 124.284 4.42046C124.284 5.92746 123.767 6.73046 123.019 6.73046C122.271 6.73046 121.754 5.92746 121.754 4.42046C121.754 2.92446 122.271 2.12146 123.019 2.12146ZM132.642 6.73046C131.905 6.73046 131.41 5.92746 131.41 4.42046C131.41 2.92446 131.905 2.12146 132.642 2.12146C133.39 2.12146 133.885 2.92446 133.885 4.42046C133.885 5.92746 133.39 6.73046 132.642 6.73046ZM136.921 0.0974568V3.74946H135.227C135.029 1.92346 134.006 0.812457 132.642 0.812457C131.135 0.812457 130.024 2.19846 130.024 4.42046C130.024 6.65346 131.135 8.05046 132.642 8.05046C134.05 8.05046 135.084 6.86246 135.238 4.92646H136.921V10.2615H138.373V0.0974568H136.921ZM142.078 3.45246H146.412V4.87146H142.078V3.45246ZM144.971 7.88546V6.02646H147.842V0.735456H146.412V2.30846H142.078V0.735456H140.637V6.02646H143.519V7.88546H139.669V9.06246H148.843V7.88546H144.971ZM152.185 6.73046C151.426 6.73046 150.92 5.92746 150.92 4.42046C150.92 2.92446 151.426 2.12146 152.185 2.12146C152.933 2.12146 153.45 2.92446 153.45 4.42046C153.45 5.92746 152.933 6.73046 152.185 6.73046ZM152.185 0.812457C150.645 0.812457 149.523 2.19846 149.523 4.42046C149.523 6.65346 150.645 8.05046 152.185 8.05046C153.714 8.05046 154.847 6.65346 154.847 4.42046C154.847 2.19846 153.714 0.812457 152.185 0.812457ZM158.873 3.92546H157.399V0.108457H155.947V10.2395H157.399V5.12446H158.873V3.92546ZM162.733 5.94946C163.085 6.01546 163.448 6.04846 163.844 6.04846C164.24 6.04846 164.614 6.01546 164.966 5.94946V7.88546H162.733V5.94946ZM163.844 1.74746C165.252 1.74746 166.198 2.31946 166.198 3.33146C166.198 4.33246 165.252 4.91546 163.844 4.91546C162.436 4.91546 161.501 4.33246 161.501 3.33146C161.501 2.31946 162.436 1.74746 163.844 1.74746ZM166.407 7.88546V5.41046C167.166 4.93746 167.628 4.21146 167.628 3.33146C167.628 1.67046 166.033 0.603457 163.844 0.603457C161.666 0.603457 160.071 1.67046 160.071 3.33146C160.06 4.21146 160.522 4.93746 161.292 5.41046V7.88546H159.268V9.06246H168.442V7.88546H166.407ZM173.36 1.47314L173.183 6.90332H171.894L171.711 1.47314H173.36ZM171.668 8.58447C171.668 8.35531 171.747 8.16553 171.905 8.01514C172.066 7.86117 172.277 7.78418 172.538 7.78418C172.803 7.78418 173.015 7.86117 173.172 8.01514C173.33 8.16553 173.408 8.35531 173.408 8.58447C173.408 8.80648 173.33 8.99447 173.172 9.14844C173.015 9.30241 172.803 9.37939 172.538 9.37939C172.277 9.37939 172.066 9.30241 171.905 9.14844C171.747 8.99447 171.668 8.80648 171.668 8.58447Z" fill="#C4C4C4"/>
</svg>
