<svg width="116" height="46" viewBox="0 0 116 46" fill="none" xmlns="http://www.w3.org/2000/svg">
<path d="M3.12055 2.66256H0.480547V14.8226H2.08055C4.76055 14.8226 7.72055 14.6626 10.7805 14.0226L10.5205 11.8626C7.94055 12.3626 5.44055 12.5626 3.12055 12.6226V2.66256ZM16.9205 7.86256H14.3405V0.902558H11.7005V19.3026H14.3405V10.0426H16.9205V7.86256ZM22.139 13.1226C21.139 13.1226 20.539 11.7426 20.539 8.90256C20.539 6.08256 21.139 4.70256 22.139 4.70256C23.159 4.70256 23.739 6.08256 23.739 8.90256C23.739 11.7426 23.159 13.1226 22.139 13.1226ZM27.559 7.70256H26.099C25.799 4.26256 24.319 2.22256 22.139 2.22256C19.699 2.22256 18.159 4.74256 18.159 8.90256C18.159 13.0826 19.699 15.6026 22.139 15.6026C24.379 15.6026 25.879 13.4426 26.119 9.84256H27.559V18.5226H30.019V1.22256H27.559V7.70256ZM31.299 0.902558V19.3226H33.799V0.902558H31.299ZM42.9974 2.34256H40.3374V5.00256C40.3374 8.50256 38.9374 12.0826 35.8174 13.5226L37.4574 15.6426C39.5174 14.6026 40.8974 12.6826 41.6974 10.3226C42.4574 12.5426 43.7974 14.3426 45.8174 15.3226L47.3774 13.2226C44.3374 11.8626 42.9974 8.48256 42.9974 5.00256V2.34256ZM48.8974 0.902558V6.68256H45.3574V8.80256H48.8974V19.3826H51.5374V0.902558H48.8974ZM67.1163 3.64256C69.5163 3.64256 71.0563 4.36256 71.0563 5.68256C71.0563 7.02256 69.5163 7.74256 67.1163 7.74256C64.6963 7.74256 63.1563 7.02256 63.1563 5.68256C63.1563 4.36256 64.6963 3.64256 67.1163 3.64256ZM67.1163 9.84256C71.0363 9.84256 73.7763 8.22256 73.7763 5.68256C73.7763 3.18256 71.0363 1.54256 67.1163 1.54256C63.1763 1.54256 60.4563 3.18256 60.4563 5.68256C60.4563 8.22256 63.1763 9.84256 67.1163 9.84256ZM75.4963 11.2226H58.8163V13.3426H65.7763V19.3626H68.4163V13.3426H75.4963V11.2226ZM80.5748 9.60256H86.5548V2.48256H77.8548V4.58256H83.8548V7.52256H77.8748V15.1026H79.5348C82.8748 15.1026 85.5748 14.9826 88.5748 14.4626L88.2948 12.3226C85.6948 12.7626 83.3748 12.9026 80.5748 12.9226V9.60256ZM89.5748 0.902558V19.3826H92.2148V0.902558H89.5748ZM104.613 15.1626V12.4226H110.193V10.3026H99.5132V8.24256H109.773V2.10256H96.8732V4.20256H107.173V6.18256H96.8932V12.4226H101.973V15.1626H94.9732V17.3226H111.653V15.1626H104.613ZM115.951 15.2495L115.942 17.1343C115.942 17.8569 115.759 18.5861 115.395 19.3218C115.037 20.0575 114.581 20.6597 114.028 21.1284L112.563 20.3765C112.725 20.077 112.885 19.7775 113.041 19.478C113.198 19.1785 113.328 18.8498 113.432 18.4917C113.536 18.1336 113.588 17.7267 113.588 17.271V15.2495H115.951ZM12.5405 26.9026V45.3826H15.1805V26.9026H12.5405ZM5.28055 28.2026C2.50055 28.2026 0.440547 30.7226 0.440547 34.7626C0.440547 38.8226 2.50055 41.3626 5.28055 41.3626C8.06055 41.3626 10.1205 38.8226 10.1205 34.7626C10.1205 30.7226 8.06055 28.2026 5.28055 28.2026ZM5.28055 30.5826C6.64055 30.5826 7.58055 32.0426 7.58055 34.7626C7.58055 37.5026 6.64055 38.9626 5.28055 38.9626C3.92055 38.9626 2.98055 37.5026 2.98055 34.7626C2.98055 32.0426 3.92055 30.5826 5.28055 30.5826ZM26.319 27.2826C22.259 27.2826 19.659 28.6426 19.659 30.8626C19.659 33.1026 22.259 34.4426 26.319 34.4426C30.379 34.4426 32.999 33.1026 32.999 30.8626C32.999 28.6426 30.379 27.2826 26.319 27.2826ZM26.319 29.3026C28.839 29.3026 30.279 29.8226 30.279 30.8626C30.279 31.9026 28.839 32.4226 26.319 32.4226C23.819 32.4226 22.379 31.9026 22.379 30.8626C22.379 29.8226 23.819 29.3026 26.319 29.3026ZM19.939 38.8826V45.1226H32.659V38.8826H19.939ZM30.059 40.9426V43.0626H22.519V40.9426H30.059ZM17.999 35.5026V37.5826H34.639V35.5026H17.999Z" fill="#4E4E4E"/>
</svg>
