<svg width="200" height="43" viewBox="0 0 200 43" fill="none" xmlns="http://www.w3.org/2000/svg">
<path d="M0 43H12.9231V28.0042H19.7959C21.0099 28.0042 21.9889 28.2451 22.733 28.7269C23.4771 29.1685 24.0449 29.7708 24.4365 30.5336C24.8281 31.2964 25.0827 32.1195 25.2001 33.0028C25.3568 33.8459 25.4939 34.95 25.6113 36.3151V36.3753C25.8463 39.1457 26.1988 41.3539 26.6687 43H39.5918C39.1611 42.2773 38.8478 41.2736 38.652 39.9888C38.4953 38.6639 38.3778 37.078 38.2995 35.2311C38.2604 34.5887 38.2212 34.1069 38.182 33.7857C37.9471 31.0556 37.3009 28.767 36.2436 26.9202C35.1862 25.0331 33.7764 23.7484 32.0142 23.0658C34.0505 22.303 35.5974 20.9178 36.6548 18.9104C37.7513 16.8627 38.2995 14.6545 38.2995 12.2857C38.2995 8.39122 36.9876 5.38002 34.3638 3.2521C31.74 1.08403 28.4897 0 24.6127 0H0V43ZM12.9231 10.2381H18.9735C21.3232 10.2381 22.968 10.5994 23.9078 11.3221C24.8869 12.0047 25.3764 13.0686 25.3764 14.514C25.3764 15.4374 25.2001 16.2003 24.8477 16.8025C24.4952 17.3646 24.0449 17.7862 23.4966 18.0672C22.9484 18.3483 22.361 18.549 21.7344 18.6695C21.1078 18.7498 20.4225 18.7899 19.6784 18.7899H12.9231V10.2381Z" fill="#03CF5D"/>
<path d="M43.5399 43H78.9024V31.979H56.4631V26.619H76.259V16.381H56.4631V11.021H78.2562V0H43.5399V43Z" fill="#03CF5D"/>
<path d="M120.615 0H107.339L100.584 26.077H100.466L93.5937 0H80.5531L93.065 43H107.515L120.615 0Z" fill="#03CF5D"/>
<path d="M133.641 27.6429L137.694 14.3936H137.811L141.571 27.6429H133.641ZM115.96 43H128.941L130.821 36.8571H144.156L145.918 43H159.311L144.038 0H131.409L115.96 43Z" fill="#03CF5D"/>
<path d="M162.229 43H174.447V19.5126H174.565L187.429 43H200V0H187.782V23.0056H187.664L175.446 0H162.229V43Z" fill="#03CF5D"/>
</svg>
